<?xml version="1.0" encoding="UTF-8" standalone="no"?>
<!-- Created with Inkscape (http://www.inkscape.org/) -->

<svg
   width="210mm"
   height="297mm"
   viewBox="0 0 210 297"
   version="1.1"
   id="svg344"
   inkscape:version="1.2.2 (732a01da63, 2022-12-09)"
   sodipodi:docname="beispieldensity.svg"
   xmlns:inkscape="http://www.inkscape.org/namespaces/inkscape"
   xmlns:sodipodi="http://sodipodi.sourceforge.net/DTD/sodipodi-0.dtd"
   xmlns="http://www.w3.org/2000/svg"
   xmlns:svg="http://www.w3.org/2000/svg">
  <sodipodi:namedview
     id="namedview346"
     pagecolor="#ffffff"
     bordercolor="#000000"
     borderopacity="0.25"
     inkscape:showpageshadow="2"
     inkscape:pageopacity="0.0"
     inkscape:pagecheckerboard="0"
     inkscape:deskcolor="#d1d1d1"
     inkscape:document-units="mm"
     showgrid="false"
     inkscape:zoom="1.0343421"
     inkscape:cx="395.42044"
     inkscape:cy="596.03106"
     inkscape:window-width="2520"
     inkscape:window-height="1481"
     inkscape:window-x="-11"
     inkscape:window-y="46"
     inkscape:window-maximized="1"
     inkscape:current-layer="layer1" />
  <defs
     id="defs341" />
  <g
     inkscape:label="Ebene 1"
     inkscape:groupmode="layer"
     id="layer1">
    <ellipse
       style="fill:#000000;stroke-width:0.264583"
       id="path400"
       cx="17.905909"
       cy="131.22472"
       rx="3.8369801"
       ry="4.0927787" />
    <ellipse
       style="fill:#000000;stroke-width:0.264583"
       id="path402"
       cx="161.66476"
       cy="133.39902"
       rx="4.6043763"
       ry="4.2206783" />
    <ellipse
       style="fill:#000000;stroke-width:0.264583"
       id="path404"
       cx="17.778009"
       cy="26.347263"
       rx="3.9648795"
       ry="3.5811815" />
    <ellipse
       style="fill:#000000;stroke-width:0.264583"
       id="path406"
       cx="160.51367"
       cy="28.777351"
       rx="4.9880743"
       ry="5.2438731" />
    <path
       style="fill:#000000;stroke-width:0.264583"
       d="m 19.1849,27.626257 c 6.383143,1.703289 11.599257,6.202251 16.882713,9.976149 2.040644,1.457602 4.170873,2.794661 6.139167,4.348577 2.117526,1.671731 4.166843,4.004964 6.139169,5.883368 4.867516,4.63573 0.755156,0.448686 5.88337,5.371774 1.130848,1.085612 2.173505,2.262109 3.325382,3.325382 1.066958,0.984885 2.298641,1.787043 3.325383,2.813785 3.715203,3.715203 6.813593,8.010938 10.487745,11.76674 1.604378,1.640028 3.436133,3.041732 5.115975,4.604375 1.987026,1.848398 3.828579,3.85481 5.883368,5.627571 3.941397,3.40042 10.205744,7.807132 14.324727,10.999343 1.052755,0.815885 2.020704,1.737124 3.069584,2.557986 0.913307,0.714761 1.919667,1.307769 2.813787,2.046391 1.07012,0.884012 1.98571,1.946687 3.06958,2.813785 1.05275,0.842197 2.22232,1.527057 3.32538,2.302187 2.05183,1.44182 4.02841,2.9945 6.13917,4.34858 11.10591,6.51036 3.65492,1.98416 13.30153,8.18556 8.72964,5.61191 1.11488,0.30449 9.46455,6.90656 2.10021,1.66063 4.29903,3.19417 6.39497,4.86018 5.54942,4.41107 1.60691,1.59552 6.39497,5.62757 0.65221,0.54923 1.41547,0.96123 2.04639,1.53479 0.31546,0.28678 0.4437,0.74574 0.76739,1.02319 0.412,0.35314 4.86328,2.29909 5.11598,2.04639 0.1241,-0.1241 0.39888,-1.05356 0.5116,-1.27899"
       id="path471" />
    <path
       style="fill:#000000;stroke-width:0.264583"
       d="m 18.929102,127.38774 c 0.767396,-0.34107 1.574182,-0.60459 2.302188,-1.02319 2.687602,-1.54538 5.233073,-3.33072 7.929759,-4.86018 9.720133,-5.51291 19.942289,-10.09904 29.928444,-15.09212 3.104441,-1.55222 6.048989,-3.42392 9.208754,-4.86018 2.652861,-1.20584 5.486868,-1.970114 8.185557,-3.06958 0.95413,-0.38872 1.862762,-0.882735 2.813786,-1.278993 1.096264,-0.456779 2.281116,-0.713351 3.325381,-1.278993 1.019757,-0.552368 1.88599,-1.350542 2.813786,-2.046391 0.752033,-0.564023 6.325518,-4.863356 6.906564,-5.371772 1.724236,-1.508704 3.393442,-3.100096 4.860176,-4.860173 1.180878,-1.417056 1.973175,-3.121001 3.069583,-4.604377 2.75118,-3.72218 5.60084,-7.558987 8.69715,-10.999343 1.7536,-1.948439 2.95983,-2.89406 4.86018,-4.604377 0.94218,-0.847961 1.79973,-1.797442 2.81379,-2.557987 0.46944,-0.352081 4.41017,-2.664285 5.37177,-3.325383 0.70263,-0.483058 1.30607,-1.111753 2.04639,-1.534793 1.05997,-0.605697 2.25567,-0.946451 3.32538,-1.534789 0.64269,-0.353484 1.14478,-0.931249 1.79059,-1.278994 0.47481,-0.255669 1.06137,-0.253367 1.53479,-0.511598 0.85348,-0.465532 1.46244,-1.300737 2.30219,-1.790591 1.50722,-0.879208 2.90418,-1.270474 4.34858,-2.302188 3.78495,-2.703536 7.53158,-6.285769 10.99934,-9.46455 0.28335,-0.259734 2.13986,-2.169369 2.30219,-2.30219 0.47588,-0.389353 1.05891,-0.633838 1.53479,-1.023194 1.27424,-1.042559 2.18405,-2.439847 3.32539,-3.58118 0.60292,-0.602925 1.4849,-0.893099 2.04638,-1.534793 0.3274,-0.374168 0.39323,-0.951595 0.7674,-1.278993 0.34556,-0.302368 0.90535,-0.24471 1.27899,-0.511598 0.25017,-0.178692 0.29421,-0.550008 0.5116,-0.767395 0.52375,-0.523748 1.02319,-0.459232 1.02319,-1.278993"
       id="path473" />
    <path
       style="fill:#000000;stroke-width:0.264583"
       d="m 158.85098,27.626257 c 0,0.937929 -0.0719,1.878618 0,2.813785 0.099,1.286513 0.38731,2.552668 0.51159,3.83698 0.4023,4.157096 0.34494,8.367567 0.5116,12.534135 0.13897,3.474119 0.0822,7.061824 0.7674,10.487747 0.46466,2.323309 1.83173,4.289557 2.04639,6.650765 0.15974,1.757201 0,3.605281 0,5.371772 0,4.178046 0,8.356089 0,12.534135 0,2.371394 0.36,5.078114 0,7.41816 -0.2939,1.910331 -1.27776,3.699814 -1.5348,5.627571 -0.15776,1.183256 0,2.387455 0,3.581183 0,1.9062 -0.21113,3.98312 0,5.88337 0.53127,4.78136 -0.0197,-1.14157 0.5116,2.04639 0.3132,1.8792 0.46409,2.7407 1.0232,4.60438 0.55312,1.84375 1.04116,4.23652 1.27899,6.13916 0.15104,1.20836 0.18375,2.37909 0.5116,3.58118 0.43847,1.60774 0.57564,1.27973 0.76739,2.81379 0.0317,0.25382 -0.0502,0.51657 0,0.7674 0.18773,0.93863 0.50061,0.055 0.2558,1.27899 -0.18253,0.91268 -0.43698,0.2025 -1.02319,1.02319 -0.26689,0.37365 -0.2886,0.87761 -0.5116,1.279 -0.20705,0.37268 -0.53091,0.66846 -0.7674,1.02319 -0.2547,0.38206 -0.22475,0.92044 -0.51159,1.279 -0.19205,0.24006 -0.55001,0.2942 -0.7674,0.51159 -0.34106,0.34107 0.42633,0.2558 -0.2558,0.2558"
       id="path475" />
    <path
       style="fill:#000000;stroke-width:0.264583"
       d="m 160.89737,25.579867 c -8.93657,0.920188 -17.80378,-1.107223 -26.60307,-2.302188 -3.57366,-0.485312 -7.1621,-0.854875 -10.74354,-1.278993 -7.74641,-0.917338 -15.70425,-2.05674 -23.53348,-1.534792 -5.277385,0.351826 -10.369047,1.923481 -15.603717,2.557987 -2.110018,0.255759 -5.272625,0.329782 -7.418163,0.255798 -2.233351,0.06671 -4.429069,-0.422729 -6.650765,-0.511597 -3.404867,-0.136195 -6.827626,0.148014 -10.231945,0 -2.653096,-0.115352 -5.279668,-0.596422 -7.929761,-0.767396 -0.61676,-0.03979 -4.648301,0.03617 -5.371772,0 -2.831653,-0.141583 -5.589553,-0.715298 -8.441357,-0.511597 -3.482885,0.248777 -0.181782,0.225815 -3.325381,0.511597 -2.651617,0.241056 -5.273251,0.691131 -7.929761,1.023195 -2.49836,0.312295 -1.736992,0.255798 -3.836979,0.255798 -0.836688,0 -2.467017,-0.286121 -3.325382,0 -0.114397,0.03813 -0.138815,0.226553 -0.255799,0.255799 -1.709209,0.427302 -2.496927,-0.286329 -4.092779,0.511597"
       id="path477" />
    <path
       style="fill:#000000;stroke-width:0.264583"
       d="m 16.882713,26.603063 c 0.150848,3.167816 0.360748,1.436558 0.511597,4.604374 0.182955,3.84207 0.02459,7.657526 0.255798,11.510941 0.39753,6.62549 1.084046,13.30265 0.767397,19.952298 -0.143729,3.018298 -0.511598,5.91933 -0.511598,8.952952 0,4.26843 0.255799,8.515168 0.255799,12.789935 0,0.852662 0.09416,1.710539 0,2.557986 -0.208806,1.879251 -0.87591,3.712871 -1.023195,5.627571 -0.07848,1.02018 0.168212,2.06031 0,3.069585 -0.248263,1.48958 -0.913693,3.143175 -1.278993,4.604375 -0.231211,0.92484 -0.309087,1.88224 -0.511598,2.81378 -0.224046,1.03062 -0.602904,2.02781 -0.767395,3.06959 -0.199476,1.26334 0.09112,2.56124 0,3.83698 -0.03695,0.51734 -0.255799,1.01614 -0.255799,1.53479 0,0.72414 0.428428,2.06527 0.511597,2.81379 0.141108,1.26997 0.09729,2.56895 0.255799,3.83698 0.228161,1.82529 1.051993,3.55577 1.278993,5.37177 0.144188,1.1535 0.256478,1.66575 0.511598,2.81379 0.09432,0.42442 0.06136,0.89012 0.255798,1.27899 0.387122,0.77424 1.501321,1.99618 2.046389,2.81378 0.149567,0.22435 0.44646,0.57674 0.255799,0.7674 -0.304425,0.30443 -1.209532,0.0695 -1.534792,-0.2558"
       id="path479" />
    <path
       style="fill:#000000;stroke-width:0.264583"
       id="path481"
       d="m 18.44235,131.79304 c 5.89514,0.91003 11.876405,1.05388 17.82986,1.14735 7.627951,0.0675 15.244178,-0.41292 22.854005,-0.87163 5.429519,-0.33577 10.854636,-0.79501 16.290649,-1.02189 3.392644,-0.14159 4.416777,-0.11428 7.800874,-0.12831 8.476203,0.10583 16.935582,0.73477 25.397092,1.20306 8.80645,0.5311 17.63209,0.59348 26.44129,1.04591 5.80928,0.39773 11.59981,1.01519 17.406,1.45009 1.59467,0.0947 3.19572,0.16409 4.78765,-0.0136 1.46767,-0.16385 2.91064,-0.51168 4.34988,-0.8296 1.85415,-0.46913 3.68581,-1.02024 5.49855,-1.62854 0,0 -3.24538,-2.19705 -3.24538,-2.19705 v 0 c -1.7761,0.62959 -3.5784,1.18501 -5.40905,1.63478 -1.43354,0.3093 -2.86732,0.62873 -4.3293,0.77576 -1.56115,0.15699 -3.13078,0.0997 -4.69413,0.0151 -5.76152,-0.38964 -11.50785,-0.96982 -17.27088,-1.34071 -8.78074,-0.41818 -17.57828,-0.41233 -26.35336,-0.98475 -8.490492,-0.50334 -16.980673,-1.1577 -25.488717,-1.24243 -3.445561,0.0235 -4.346038,-0.003 -7.800076,0.15114 -5.437311,0.24208 -10.864024,0.70079 -16.296867,1.01875 -7.604622,0.43644 -15.214647,0.91826 -22.835938,0.85082 -6.033598,-0.11948 -12.108847,-0.2842 -18.056323,-1.39962 0,0 3.124171,2.36545 3.124171,2.36545 z" />
    <text
       xml:space="preserve"
       style="font-size:3.175px;fill:#000000;stroke-width:0.264583"
       x="15.092122"
       y="14.836323"
       id="text485"><tspan
         sodipodi:role="line"
         id="tspan483"
         style="stroke-width:0.264583"
         x="15.092122"
         y="14.836323">a</tspan></text>
    <text
       xml:space="preserve"
       style="font-size:3.175px;fill:#000000;stroke-width:0.264583"
       x="179.31488"
       y="26.603064"
       id="text489"><tspan
         sodipodi:role="line"
         id="tspan487"
         style="stroke-width:0.264583"
         x="179.31488"
         y="26.603064">b</tspan></text>
    <text
       xml:space="preserve"
       style="font-size:3.175px;fill:#000000;stroke-width:0.264583"
       x="14.836323"
       y="146.06105"
       id="text493"><tspan
         sodipodi:role="line"
         id="tspan491"
         style="stroke-width:0.264583"
         x="14.836323"
         y="146.06105">c</tspan></text>
    <text
       xml:space="preserve"
       style="font-size:3.175px;fill:#000000;stroke-width:0.264583"
       x="179.57068"
       y="144.78206"
       id="text497"><tspan
         sodipodi:role="line"
         id="tspan495"
         style="stroke-width:0.264583"
         x="179.57068"
         y="144.78206">d</tspan></text>
  </g>
</svg>
