<?xml version="1.0" encoding="UTF-8" standalone="no"?>
<!-- Created with Inkscape (http://www.inkscape.org/) -->

<svg
   width="210mm"
   height="297mm"
   viewBox="0 0 210 297"
   version="1.1"
   id="svg949"
   inkscape:version="1.2.2 (732a01da63, 2022-12-09)"
   sodipodi:docname="Graphen4.svg"
   xmlns:inkscape="http://www.inkscape.org/namespaces/inkscape"
   xmlns:sodipodi="http://sodipodi.sourceforge.net/DTD/sodipodi-0.dtd"
   xmlns="http://www.w3.org/2000/svg"
   xmlns:svg="http://www.w3.org/2000/svg">
  <sodipodi:namedview
     id="namedview951"
     pagecolor="#ffffff"
     bordercolor="#000000"
     borderopacity="0.25"
     inkscape:showpageshadow="2"
     inkscape:pageopacity="0.0"
     inkscape:pagecheckerboard="0"
     inkscape:deskcolor="#d1d1d1"
     inkscape:document-units="mm"
     showgrid="false"
     inkscape:zoom="0.74564394"
     inkscape:cx="396.97231"
     inkscape:cy="561.9304"
     inkscape:window-width="1920"
     inkscape:window-height="1017"
     inkscape:window-x="-8"
     inkscape:window-y="-8"
     inkscape:window-maximized="1"
     inkscape:current-layer="layer1" />
  <defs
     id="defs946" />
  <g
     inkscape:label="Ebene 1"
     inkscape:groupmode="layer"
     id="layer1">
    <ellipse
       style="fill:#000000;stroke-width:0.264583"
       id="path953"
       cx="16.32258"
       cy="87.822578"
       rx="3.5483871"
       ry="3.7258065" />
    <circle
       style="fill:#000000;stroke-width:0.264583"
       id="path955"
       cx="178.12903"
       cy="29.096775"
       r="3.9032259" />
    <ellipse
       style="fill:#000000;stroke-width:0.264583"
       id="path957"
       cx="74.870972"
       cy="22.532259"
       rx="4.6129031"
       ry="4.0806451" />
    <ellipse
       style="fill:#000000;stroke-width:0.264583"
       id="path959"
       cx="45.596771"
       cy="156.48387"
       rx="4.4354839"
       ry="4.2580643" />
    <ellipse
       style="fill:#000000;stroke-width:0.264583"
       id="path961"
       cx="134.83871"
       cy="107.16129"
       rx="4.9677415"
       ry="3.9032259" />
    <ellipse
       style="fill:#000000;stroke-width:0.264583"
       id="path963"
       cx="91.725807"
       cy="63.338707"
       rx="3.3709676"
       ry="4.0806451" />
    <ellipse
       style="fill:#000000;stroke-width:0.264583"
       id="path965"
       cx="175.46774"
       cy="69.725807"
       rx="3.7258065"
       ry="3.016129" />
    <path
       style="fill:#000000;stroke-width:0.264583"
       d="m 14.903226,89.774193 c -0.05775,3.45808 -0.129697,6.898571 0.354838,10.290327 0.100364,0.70254 -0.100363,1.42648 0,2.12903 0.112253,0.78577 0.616133,1.82906 0.709678,2.48387 0.06691,0.46836 -0.07778,0.95267 0,1.41935 0.04348,0.26088 0.236559,0.47312 0.354838,0.70968 0.11828,0.47312 0.29435,0.93544 0.354839,1.41936 0.132037,1.05629 -0.132037,2.13725 0,3.19354 0.241186,1.92949 0.885836,5.22946 1.419355,7.09678 0.261863,0.91652 0.586424,1.49784 0.709677,2.48387 0.05868,0.46946 -0.102633,0.9575 0,1.41935 0.618098,2.78144 2.307574,4.96999 3.548387,7.45162 1.226953,2.4539 2.185367,5.06632 3.548388,7.45161 0.650143,1.13775 1.550829,2.97019 2.483869,3.90323 0.53226,0.53225 1.241936,0.88709 1.774195,1.41935 1.813359,1.81336 -1.487831,-0.49491 1.064517,1.41935 0.45946,0.3446 2.16408,1.34781 2.483869,1.7742 0.224422,0.29923 0.162401,0.74378 0.35484,1.06451 0.315818,0.52637 1.2631,0.59576 1.419355,1.06452 0.07481,0.22442 -0.07481,0.48526 0,0.70968 0.263842,0.79153 2.232091,3.80408 2.838709,4.6129 0.22442,0.29923 0.09036,0.80003 0.354838,1.06452 0.249029,0.24902 1.189448,0.20156 1.419355,0.35484 0.622993,0.41533 0.381944,1.06451 1.419354,1.06451"
       id="path967" />
    <path
       style="fill:#000000;stroke-width:0.264583"
       d="m 13.83871,85.516129 c 0.709677,0 1.431509,0.130783 2.129032,0 1.213724,-0.227574 2.346338,-0.781682 3.548387,-1.064517 0.81413,-0.191561 1.663749,-0.190815 2.483871,-0.354838 7.087286,-1.417457 14.010868,-3.245196 20.935482,-5.32258 2.007529,-0.602261 4.06445,-1.052666 6.032259,-1.774196 8.411364,-3.084165 0.94374,-1.243745 8.516128,-3.548385 2.333818,-0.710292 4.75252,-1.104408 7.096776,-1.774195 0.956143,-0.273182 1.857176,-0.900927 2.838709,-1.064517 1.052751,-0.175458 2.140799,-0.179379 3.193547,-0.354838 1.674739,-0.279122 3.266385,-1.176303 4.967743,-1.419354 0.351274,-0.05018 0.714504,0.05833 1.064516,0 1.240195,-0.206698 1.191202,-0.633627 2.483872,-1.064517 3.425579,-1.14186 6.009955,-1.585621 9.225806,-3.193547"
       id="path969" />
    <path
       style="fill:#000000;stroke-width:0.264583"
       d="M 90.483869,60.322581 C 87.509494,56.319515 85.06793,51.930993 82.677417,47.548387 82.424026,47.083834 80.320244,43.877438 80.193548,43.645161 79.888539,43.08598 79.788876,42.430146 79.48387,41.870968 77.128168,37.552182 79.069686,41.936357 76.290322,37.612902 75.017158,35.632429 73.406999,32.489021 72.741935,30.16129 72.057767,27.766706 72.387097,24.889268 72.387097,22.354838"
       id="path971" />
    <path
       style="fill:#000000;stroke-width:0.264583"
       d="m 77.709677,20.935484 c 2.834775,-0.171857 5.660628,-0.519311 8.516128,-0.709678 5.937655,-0.395843 11.845462,0.256103 17.741935,0.709678 4.02259,0.309429 8.05423,0.308649 12.06452,0.709677 2.10575,0.210575 4.2776,-0.162269 6.38709,0 0.60134,0.04626 1.17356,0.300236 1.7742,0.354839 1.53132,0.139211 3.07826,-0.09592 4.6129,0 3.24061,0.202538 6.39608,0.666445 9.58065,1.064516 0.82156,0.102695 1.66718,-0.136115 2.48386,0 1.4256,0.237598 2.83035,0.860556 4.25807,1.064516 1.64479,0.23497 3.31918,0.119329 4.96774,0.354839 0.37027,0.0529 0.69424,0.301942 1.06452,0.354838 1.288,0.184 2.60215,0 3.90322,0 3.54839,0 7.09678,0 10.64516,0 0.81318,0 3.71951,-0.4467 4.61291,0 0.10579,0.0529 -0.10579,0.301943 0,0.354839 0.21158,0.105793 0.48526,-0.07481 0.70968,0 0.4552,0.151734 0.96415,0.557943 1.41935,0.709678 2.43594,0.811978 -1.6528,-1.358658 1.7742,0.354838 0.38143,0.19072 0.66855,0.551294 1.06451,0.709677 0.21964,0.08786 0.49809,-0.105791 0.70968,0 0.10579,0.0529 -0.1058,0.301942 0,0.35484 0.82784,0.41392 0.7309,-0.33361 1.41935,0.354838"
       id="path973" />
    <path
       style="fill:#000000;stroke-width:0.264583"
       d="m 135.54838,105.03226 c -0.70967,-0.35484 -1.46884,-0.6244 -2.12903,-1.06452 -0.41754,-0.27836 -0.65617,-0.77284 -1.06451,-1.06451 -1.07609,-0.76864 -2.44808,-1.04066 -3.54839,-1.7742 -0.41754,-0.27836 -0.62882,-0.81554 -1.06451,-1.06451 -0.42343,-0.241963 -0.95671,-0.200627 -1.41936,-0.354845 -1.03068,-0.343559 -0.49511,-0.371335 -1.41936,-1.064514 -0.37014,-0.277609 -1.53881,-0.474305 -1.77419,-0.709678 -0.21737,-0.217366 -0.30208,-0.928651 -0.70968,-1.064517 -0.22442,-0.07481 -0.52043,0.141936 -0.70967,0 -0.34117,-0.255879 -0.40813,-0.762961 -0.70968,-1.064517 -0.35904,-0.359039 -1.42776,-0.501816 -1.7742,-0.709676 -0.57374,-0.344244 -0.87489,-1.030454 -1.41935,-1.419354 -0.56122,-0.400871 -1.21298,-0.663647 -1.77419,-1.064517 -0.61629,-0.440206 -1.23866,-0.883822 -1.7742,-1.419355 -0.30155,-0.301556 -0.37666,-0.798107 -0.70967,-1.064516 -0.29207,-0.233656 -0.74379,-0.162401 -1.06452,-0.354838 -0.9463,-0.56778 -1.94966,-1.462246 -2.83871,-2.129033 -0.92486,-0.693643 -1.58163,-1.762075 -2.48387,-2.483872 -0.79452,-0.635614 -1.69639,-1.129887 -2.48387,-1.774192 -1.0357,-0.847387 -1.83854,-1.94967 -2.83871,-2.83871 -2.041945,-1.815062 -4.343153,-3.211197 -6.032261,-5.32258 -0.315409,-0.394266 -1.596773,-1.478494 -1.774192,-1.774193 -0.121709,-0.202848 0.141935,-0.52043 0,-0.709678 -0.255879,-0.34117 -0.798108,-0.376667 -1.064517,-0.709679 -2.550202,-3.187753 0.32757,-0.05454 -0.354838,-1.419355 -0.56071,-1.12142 -1.213482,-2.072124 -1.774193,-3.193547 -0.218098,-0.436195 -0.08432,-1.013582 -0.35484,-1.419355 -0.585494,-0.878242 -1.774193,-2.451242 -1.774193,-3.548387"
       id="path975" />
    <path
       style="fill:#000000;stroke-width:0.264583"
       d="m 41.516127,156.83871 c 0.5914,-0.47312 1.144035,-0.99925 1.774196,-1.41936 1.615019,-1.07668 4.257754,-1.99815 6.032256,-2.83871 5.6447,-2.6738 11.426873,-5.20034 17.387096,-7.09677 1.285113,-0.4089 2.623839,-0.63805 3.903226,-1.06452 1.208538,-0.40284 2.333609,-1.03574 3.548388,-1.41935 1.609855,-0.50838 5.178483,-1.00792 6.741935,-1.41936 1.085155,-0.28556 2.114624,-0.75625 3.19355,-1.06451 4.928378,-1.40811 9.995951,-2.43105 14.903225,-3.90323 2.866071,-0.85982 5.669151,-1.91763 8.516131,-2.83871 6.32482,-2.04626 13.03026,-3.95626 18.09677,-8.51613 1.88148,-1.69333 3.53608,-4.17192 3.90323,-6.74193 0.22078,-1.54551 0.32376,-5.12312 0,-6.74194 -0.21331,-1.06652 -0.97189,-2.7513 0.35484,-3.19355 1.0685,-0.35617 0.95911,-0.70967 2.12903,-0.70967"
       id="path977" />
    <path
       style="fill:#000000;stroke-width:0.264583"
       d="m 178.83871,29.451612 c -0.69925,8.986485 0,17.931225 0,26.967743 0,2.217052 0.43359,4.928796 0,7.096773 -0.0734,0.366771 -0.30195,0.694243 -0.35484,1.064517 -0.0669,0.468363 0.12998,0.96444 0,1.419354 -0.44483,1.556896 -0.70968,0.565214 -0.70968,2.129031"
       id="path979" />
    <path
       style="fill:#000000;stroke-width:0.264583"
       d="m 174.93548,70.612901 c -2.24112,3.593748 -5.03089,6.763422 -7.80645,9.935485 -0.77105,0.881198 -1.80329,1.531065 -2.48387,2.483872 -0.30745,0.430434 -0.40222,0.98892 -0.70968,1.419354 -1.06819,1.495476 -2.62301,2.638663 -3.54839,4.258064 -0.55649,0.973868 -1.27101,2.187184 -1.77419,3.193547 -0.28485,0.569712 -0.35636,1.244217 -0.70968,1.774196 -0.1467,0.220062 -0.54445,0.148312 -0.70967,0.354838 -0.83287,1.04109 -0.98993,2.339215 -2.12904,3.193547 -1.22496,0.918723 -2.69023,1.574128 -3.90322,2.483871 -1.03979,0.779845 -2.01021,1.892205 -3.19355,2.483875 -0.21158,0.10579 -0.48018,-0.0574 -0.70968,0 -0.5311,0.13277 -1.3926,0.87372 -1.77419,1.06451 -1.39304,0.69652 -2.98658,1.17542 -4.25806,2.12904 -0.26764,0.20072 -0.42281,0.53755 -0.70968,0.70967 -0.76323,0.45794 -1.53181,0.4673 -2.12903,1.06452"
       id="path981" />
    <text
       xml:space="preserve"
       style="font-size:4.23333px;fill:#000000;stroke-width:0.264583"
       x="5.6774197"
       y="89.419357"
       id="text1293"><tspan
         sodipodi:role="line"
         id="tspan1291"
         style="stroke-width:0.264583"
         x="5.6774197"
         y="89.419357">A</tspan></text>
    <text
       xml:space="preserve"
       style="font-size:4.23333px;fill:#000000;stroke-width:0.264583"
       x="32.645161"
       y="162.51613"
       id="text1297"><tspan
         sodipodi:role="line"
         id="tspan1295"
         style="stroke-width:0.264583"
         x="32.645161"
         y="162.51613">B</tspan></text>
    <text
       xml:space="preserve"
       style="font-size:4.23333px;fill:#000000;stroke-width:0.264583"
       x="144.06451"
       y="115.32258"
       id="text1301"><tspan
         sodipodi:role="line"
         id="tspan1299"
         style="stroke-width:0.264583"
         x="144.06451"
         y="115.32258">C</tspan></text>
    <text
       xml:space="preserve"
       style="font-size:4.23333px;fill:#000000;stroke-width:0.264583"
       x="74.161293"
       y="51.80645"
       id="text1305"><tspan
         sodipodi:role="line"
         id="tspan1303"
         style="stroke-width:0.264583"
         x="74.161293"
         y="51.80645">D</tspan></text>
    <text
       xml:space="preserve"
       style="font-size:4.23333px;fill:#000000;stroke-width:0.264583"
       x="63.161289"
       y="21.645163"
       id="text1309"><tspan
         sodipodi:role="line"
         id="tspan1307"
         style="stroke-width:0.264583"
         x="63.161289"
         y="21.645163">E</tspan></text>
    <text
       xml:space="preserve"
       style="font-size:4.23333px;fill:#000000;stroke-width:0.264583"
       x="189.8387"
       y="24.483871"
       id="text1313"><tspan
         sodipodi:role="line"
         id="tspan1311"
         style="stroke-width:0.264583"
         x="189.8387"
         y="24.483871">F</tspan></text>
    <text
       xml:space="preserve"
       style="font-size:4.23333px;fill:#000000;stroke-width:0.264583"
       x="189.12904"
       y="69.19355"
       id="text1317"><tspan
         sodipodi:role="line"
         id="tspan1315"
         style="stroke-width:0.264583"
         x="189.12904"
         y="69.19355">G</tspan></text>
    <path
       style="fill:#ff00ff;stroke-width:0.264583"
       id="path946"
       d="m 12.561787,73.265979 c -3.0362796,1.050734 -5.8968255,2.532308 -8.5345255,4.35832 -1.3780989,0.90964 -2.3447833,2.119034 -2.9364563,3.641346 -0.3347886,1.14391 -0.27711139,2.374654 0.3035614,3.43502 0.1465211,0.267562 0.3354614,0.509606 0.5031921,0.76441 1.017653,1.36257 2.4047665,2.320822 3.8112942,3.234833 1.3708715,0.780251 2.6735325,1.667899 3.9873144,2.538772 2.7717997,1.806998 5.6233437,3.52411 8.8476857,4.317148 1.537131,0.352732 3.104271,0.398703 4.662279,0.194879 2.306212,-0.369964 3.876279,-1.421855 5.616327,-2.912396 1.683885,-1.668745 3.163414,-3.663992 3.78686,-5.989063 0.116586,-0.434798 0.16148,-0.885714 0.242223,-1.328571 -0.009,-0.433104 0.02625,-0.869413 -0.02711,-1.299313 -0.212217,-1.710002 -1.230659,-3.151669 -2.516915,-4.247325 -0.346908,-0.295505 -0.732959,-0.541702 -1.099441,-0.812553 -2.644444,-1.506649 -3.699755,-2.337211 -6.061881,-3.243866 -2.698085,-1.035608 -5.541554,-1.677093 -8.346433,-2.344566 0,0 3.003351,2.291459 3.003351,2.291459 v 0 c 2.208812,0.528806 4.416702,1.062249 6.573482,1.78186 0.599269,0.199946 1.193452,0.416438 1.778729,0.654246 0.498948,0.202729 1.847006,1.052854 1.471811,0.66649 -0.547201,-0.563488 -1.342273,-0.816139 -2.013409,-1.224211 1.747301,1.190559 3.382202,2.50611 3.753055,4.733229 0.06747,0.405188 0.04607,0.82024 0.06911,1.23036 -0.06839,0.425456 -0.09982,0.858528 -0.205189,1.276366 -0.572686,2.270879 -2.041843,4.200464 -3.687986,5.806615 -1.728972,1.42758 -3.268919,2.395601 -5.533682,2.693842 -1.533318,0.151199 -3.070645,0.06711 -4.57074,-0.306499 -0.910649,-0.248695 -1.780106,-0.532439 -2.641728,-0.924078 -1.24616,-0.566426 -2.662302,-1.432103 1.422542,0.955836 0.300055,0.175408 -0.591057,-0.36586 -0.886586,-0.548791 C 12.023141,91.797247 10.750856,90.87342 9.3695334,90.126311 7.9687639,89.225092 6.5461723,88.339402 5.4831784,87.025386 4.5212399,85.71976 4.1128489,84.811758 4.5388834,83.182522 5.073823,81.724123 5.9875559,80.579877 7.2869673,79.701304 9.887147,77.865308 12.737383,76.379305 15.80154,75.481049 c 0,0 -3.239753,-2.21507 -3.239753,-2.21507 z" />
    <path
       style="fill:#ff00ff;stroke-width:0.264583"
       id="path948"
       d="M 100.69798,58.297934 C 97.373685,57.839445 94.050254,57.387815 90.710413,57.05744 89.226982,56.920328 87.731482,56.8428 86.24101,56.879349 c -0.489751,0.01201 -1.527087,0.06885 -2.036458,0.202523 -0.267094,0.07009 -0.513178,0.204102 -0.769768,0.306154 -1.72099,1.165403 -2.845297,3.008977 -3.818821,4.803564 -0.693359,1.464315 -1.243116,3.078773 -0.655196,4.677846 0.08438,0.229502 0.21453,0.439478 0.321792,0.65922 1.454266,2.150073 3.49065,3.103719 5.990796,4.097872 0.311571,0.123894 0.66906,-0.04537 1.003591,-0.06805 2.179818,-0.40073 4.44858,-0.594805 6.550089,-1.343023 0.348223,-0.123981 0.68095,-0.287798 1.021424,-0.431697 0.810167,-0.393237 1.494229,-0.948811 2.155245,-1.54754 0,0 -3.336639,-2.067366 -3.336639,-2.067366 v 0 c -0.627568,0.568803 -1.277467,1.093353 -2.054188,1.453737 -2.381261,0.975024 -4.949214,1.369147 -7.496347,1.648306 -2.044909,-0.0701 -1.195948,-0.205107 1.743644,1.703158 0.175136,0.113691 -0.366189,-0.203042 -0.534654,-0.326401 -0.567968,-0.415898 -1.01812,-0.970857 -1.457481,-1.512771 -0.119973,-0.195559 -0.262769,-0.378833 -0.359918,-0.586674 -0.692817,-1.482235 -0.180486,-3.033456 0.475215,-4.424214 0.929092,-1.709944 2.012934,-3.4983 3.70336,-4.54565 0.2374,-0.08145 0.467529,-0.188415 0.712203,-0.244356 1.961575,-0.448498 4.402206,-0.07607 6.385197,0.0031 3.364595,0.330763 6.717934,0.767292 10.051024,1.336106 0,0 -3.13714,-2.375268 -3.13714,-2.375268 z" />
    <path
       style="fill:#ff00ff;stroke-width:0.264583"
       id="path950"
       d="m 79.942475,17.998228 c -2.864321,0.06606 -5.728274,-0.08182 -8.590124,-0.185245 -1.52753,0.11956 -3.632311,-0.44807 -5.099481,0.06701 -0.204949,0.07195 -0.388742,0.193917 -0.583113,0.290876 -1.481989,1.168873 -2.367706,2.882926 -3.130433,4.570306 -0.515409,1.35611 -1.094709,2.784278 -0.632632,4.225951 1.328462,2.306066 4.249806,2.998293 6.705925,3.183797 1.907773,0.129953 3.823486,0.02865 5.653299,-0.540366 2.423747,-0.99596 4.368326,-2.813201 6.19574,-4.642501 1.000853,-1.161433 2.495809,-2.756199 2.833452,-4.315824 0.05039,-0.232765 0.04073,-0.474571 0.06109,-0.711856 -0.26231,-1.365765 -1.393399,-2.159321 -2.531141,-2.818585 -4.162256,-2.411815 -2.92889,-1.843184 -5.336519,-2.870572 0,0 3.052723,2.416889 3.052723,2.416889 v 0 c 1.747467,0.788434 1.33093,0.646207 -1.336649,-0.95228 -0.328665,-0.196945 0.661858,0.386947 0.981919,0.597586 0.728128,0.479197 1.385321,0.968408 1.674344,1.823758 -0.0021,0.207437 0.0276,0.417637 -0.0062,0.622311 -0.244427,1.479721 -1.752708,3.107746 -2.681388,4.193463 -1.793933,1.792239 -3.71897,3.559213 -6.137073,4.449327 -1.81246,0.500944 -3.692975,0.587843 -5.564487,0.421645 -0.61985,-0.06903 -1.037352,-0.09214 -1.631984,-0.239209 -0.216128,-0.05345 -0.820777,-0.325771 -0.63745,-0.199438 5.272439,3.633324 3.192941,2.127081 2.295723,1.241134 -0.654193,-1.292812 -0.01757,-2.707084 0.432668,-3.972237 0.719354,-1.600365 1.56178,-3.260409 3.022354,-4.30742 0.175337,-0.07285 0.343257,-0.167056 0.52601,-0.218538 0.469154,-0.132162 0.947936,-0.130517 1.430348,-0.131317 1.181489,-0.002 2.362933,0.06981 3.54407,0.08523 2.896627,0.09111 5.792335,0.226969 8.690655,0.242236 0,0 -3.201636,-2.326125 -3.201636,-2.326125 z" />
    <path
       style="fill:#ff00ff;stroke-width:0.264583"
       id="path952"
       d="m 146.5881,102.3044 c -2.57307,-1.7511 -5.05062,-3.047453 -8.07383,-3.533191 -1.99775,-0.235117 -3.83046,0.42419 -5.61866,1.232191 -1.00817,0.49438 -1.97212,1.06239 -2.69302,1.94111 -0.27944,0.34063 -0.81413,1.15532 -1.05561,1.51454 -0.99684,1.69019 -1.68195,3.3403 -2.08052,5.25935 -0.28451,1.83983 -0.0639,3.64036 0.80116,5.28789 1.32803,1.90639 3.57494,3.28805 5.90266,3.5078 1.97306,0.13554 3.87041,-0.54105 5.69422,-1.20993 1.58618,-0.61999 2.60123,-1.17475 3.66339,-2.51193 0.72906,-1.04854 1.21419,-2.2343 1.65067,-3.42679 0.37503,-1.06266 0.63644,-2.17062 0.57341,-3.29906 -0.28102,-1.49071 -0.77874,-2.94949 -1.38045,-4.34098 -0.9758,-1.8227 -2.95388,-2.30588 -4.76968,-3.324967 0,0 3.10118,2.457277 3.10118,2.457277 v 0 c -7.76475,-4.59846 -2.73566,-1.82075 -2.2206,-1.23017 0.1226,0.14058 0.20783,0.30982 0.31175,0.46473 0.64682,1.33297 1.09744,2.77268 1.43026,4.21371 0.12363,1.07008 -0.15308,2.13531 -0.49087,3.1487 -0.42354,1.15149 -0.87152,2.3067 -1.57945,3.31908 -0.9688,1.17939 -2.09013,1.81628 -3.51665,2.35317 -1.80324,0.6463 -3.68167,1.27215 -5.6244,1.02661 -1.58283,-0.28942 -2.96064,-1.39409 2.00833,1.51225 0.13344,0.0781 -0.2703,-0.1521 -0.39347,-0.24554 -0.38391,-0.29128 -0.45842,-0.43269 -0.76901,-0.81438 -0.96351,-1.52974 -1.20207,-3.26123 -0.95042,-5.04527 0.37023,-1.83906 1.04357,-3.51022 2.00759,-5.12416 0.24548,-0.36011 0.74104,-1.10947 1.032,-1.45176 0.6998,-0.82329 1.64158,-1.35022 2.59656,-1.82308 1.75331,-0.77278 3.55705,-1.3421 5.49661,-1.0344 0.83375,0.15905 1.63723,0.34234 2.43585,0.63698 1.32008,0.48702 4.35063,2.18758 -1.17115,-0.9005 0,0 3.68215,1.44072 3.68215,1.44072 z" />
    <path
       style="fill:#ff0000;stroke-width:0.264583"
       id="path954"
       d="m 144.55843,94.47047 c -1.96694,-0.713261 -4.01486,-1.099209 -6.08464,-1.35318 -2.0796,-0.20706 -4.13284,0.121582 -6.17916,0.445546 -1.58076,0.242533 -2.96683,1.032917 -4.35737,1.76966 -1.23025,0.562314 -2.30869,1.339749 -3.29441,2.255364 -1.02017,1.026977 -1.98252,2.117725 -2.90808,3.23114 -1.1268,1.42946 -1.97871,3.05094 -2.81544,4.66043 -0.94748,1.82726 -1.25418,3.20985 -1.21876,5.25953 0.0929,1.95631 0.88396,3.7171 1.9813,5.30458 1.24718,1.58622 2.93708,2.69797 4.64516,3.72639 2.4456,1.43979 4.86009,3.0285 7.61172,3.81517 1.35278,0.32644 2.75822,0.40185 4.13731,0.24779 2.22227,-0.29477 4.37915,-0.86884 6.53787,-1.45075 2.29165,-0.56673 4.49936,-1.43259 6.60531,-2.49218 1.07042,-0.56921 2.11887,-1.15611 2.9776,-2.02727 0.59845,-0.60711 0.8431,-0.98692 1.36675,-1.68469 1.35339,-1.96768 2.56504,-4.05355 3.63287,-6.19094 0.46442,-1.15771 1.24121,-2.39166 1.15531,-3.69376 -0.0184,-0.27862 -0.10056,-0.54932 -0.15084,-0.82398 -0.52366,-1.42133 -1.22923,-2.79489 -2.17929,-3.97876 -1.23692,-1.24535 -2.62686,-2.338698 -3.99387,-3.438261 -1.49509,-1.200341 -3.08251,-2.27303 -4.71298,-3.278534 -1.29038,-0.73509 -2.58076,-1.470181 -3.87113,-2.205273 0,0 3.07451,2.46943 3.07451,2.46943 v 0 c -0.95738,-0.560168 -1.91475,-1.120333 -2.87212,-1.680501 1.66013,0.979305 3.26051,2.055069 4.77652,3.247279 1.35044,1.082961 2.69282,2.183254 3.97005,3.350863 1.01197,1.094937 1.67742,2.455427 2.27791,3.809327 0.0626,0.24318 0.15638,0.48041 0.1877,0.72955 0.15016,1.19463 -0.63985,2.49658 -1.05423,3.56341 -1.03509,2.12569 -2.20394,4.21057 -3.57826,6.13491 -0.52097,0.66729 -0.76321,1.02863 -1.35302,1.60543 -0.84513,0.82648 -1.87142,1.39592 -2.90261,1.95369 -2.09243,1.0364 -4.28145,1.88013 -6.55331,2.43366 -2.14998,0.5797 -4.3089,1.12662 -6.52825,1.37264 -1.36383,0.0793 -2.74174,0.004 -4.06152,-0.37768 -0.68175,-0.22112 -1.33998,-0.46972 -1.99245,-0.76833 -1.19588,-0.54731 -3.9935,-2.18903 1.13696,0.76188 -1.70644,-0.99938 -3.40285,-2.05347 -4.69976,-3.57632 -1.13434,-1.49484 -1.95673,-3.19828 -2.09046,-5.09615 -0.0649,-1.97654 0.22638,-3.3157 1.12472,-5.08674 0.82382,-1.58476 1.67292,-3.17763 2.79659,-4.57406 0.91634,-1.09963 1.86044,-2.18565 2.89134,-3.179251 0.97229,-0.879062 2.02346,-1.634665 3.22241,-2.182881 1.35876,-0.722382 2.73568,-1.442149 4.2798,-1.667095 2.01718,-0.331568 4.04779,-0.610073 6.09529,-0.36757 2.07872,0.28034 4.12558,0.713251 6.09797,1.443779 0,0 -3.13101,-2.417292 -3.13101,-2.417292 z" />
    <path
       style="fill:#ff0000;stroke-width:0.264583"
       id="path956"
       d="m 180.3504,60.63739 c -2.81299,0.381077 -5.52279,1.260025 -8.22538,2.095246 -1.90368,0.646869 -3.78244,1.419884 -5.16715,2.916724 -1.22622,1.548215 -1.35935,3.609859 -1.60152,5.499968 -0.10383,2.140932 0.0966,4.354068 0.99873,6.327481 0.16107,0.352341 0.37075,0.680358 0.55613,1.020538 0.2251,0.283303 0.42463,0.588957 0.67531,0.849905 1.25225,1.303578 4.17187,2.537063 5.13928,2.921389 0.3837,0.152432 0.82784,0.01384 1.23821,-0.03151 0.91734,-0.101376 1.97016,-0.409258 2.85486,-0.637914 1.36683,-0.441499 2.7278,-0.920593 4.05293,-1.47701 0.36117,-0.151653 0.73545,-0.282146 1.06993,-0.486023 0.79175,-0.482592 1.34097,-1.090356 1.99697,-1.729793 2.10898,-2.366476 2.44954,-4.992796 2.79073,-8.0224 0.15551,-1.870366 0.0909,-0.968933 0.19813,-2.70398 0,0 -3.44292,-1.77718 -3.44292,-1.77718 v 0 c -0.0759,1.73477 -0.0255,0.83443 -0.15668,2.700713 -0.31027,2.87746 -0.6656,5.541724 -2.68504,7.775072 -0.71915,0.686549 -1.07255,1.105242 -1.93741,1.611019 -0.33135,0.193778 -0.69501,0.326512 -1.04828,0.476676 -1.30653,0.555379 -2.64547,1.042982 -4.0063,1.446996 -0.91309,0.217217 -1.87389,0.493913 -2.82122,0.538694 -0.39316,0.01857 -1.41782,-0.384088 -1.17864,-0.07149 0.57153,0.746932 1.54654,1.071195 2.33541,1.583288 0.57632,0.374121 -2.35051,-1.584577 -1.52686,-1.384808 -0.19448,-0.324173 -0.41369,-0.634746 -0.58346,-0.972524 -0.95311,-1.896419 -1.16713,-4.062598 -1.08583,-6.152666 0.22496,-1.803127 0.35678,-3.789261 1.53203,-5.260617 1.32759,-1.434971 3.1568,-2.167369 4.9725,-2.800618 2.70617,-0.848971 5.44119,-1.703993 8.28003,-1.961192 0,0 -3.22449,-2.293977 -3.22449,-2.293977 z" />
    <path
       style="fill:#ff0000;stroke-width:0.264583"
       id="path958"
       d="m 181.30417,22.61488 c -1.39549,0.02373 -2.79128,0.01669 -4.1869,0.01416 -0.32285,-5.82e-4 -0.64722,-0.03325 -0.96854,-0.002 -0.3527,0.03434 -0.69634,0.131979 -1.04451,0.197968 -2.39376,0.641757 -4.10745,2.408853 -5.55883,4.322592 -1.20027,1.651696 -2.12896,3.451249 -2.93805,5.317561 -0.56948,1.303081 -0.78831,2.660664 -0.27493,4.028091 0.11086,0.295283 0.27946,0.565534 0.41919,0.848302 0.2106,0.268335 0.39366,0.560784 0.6318,0.805003 0.25118,0.257585 0.52023,0.506126 0.82816,0.692187 1.91792,1.158861 3.49359,2.658813 5.7308,2.620073 1.74241,-0.03017 2.52732,-0.447373 4.2551,-0.999405 4.02949,-1.570236 8.07357,-3.31357 11.57913,-5.890321 0.49082,-0.360781 0.94621,-0.767445 1.41932,-1.151168 1.10015,-1.086255 2.76247,-2.568384 2.00226,-4.301429 -0.0952,-0.216921 -0.2489,-0.403098 -0.37334,-0.604647 -0.51446,-0.625896 -1.16388,-1.115155 -1.86605,-1.512242 -3.92052,-2.217131 -2.47869,-1.706913 -4.3637,-2.32863 -0.50611,-0.204832 -0.98134,-0.473778 -1.47031,-0.715046 0,0 3.08289,2.46367 3.08289,2.46367 v 0 c 0.49199,0.243525 0.98097,0.496911 1.49886,0.682646 1.515,0.608216 0.58103,0.260636 -2.42915,-1.522044 -0.15587,-0.09231 0.31413,0.180555 0.47024,0.272471 0.53007,0.312104 1.03422,0.654155 1.47157,1.092165 0.2447,0.304612 0.59913,0.67016 0.69066,1.074877 0.30755,1.359871 -1.19226,2.521106 -1.95068,3.371215 -0.45655,0.380818 -0.89463,0.784942 -1.36966,1.142455 -3.44565,2.593274 -7.47181,4.314259 -11.48431,5.8132 -1.73186,0.477314 -2.52636,0.874916 -4.25232,0.789612 -0.44176,-0.02183 -1.58558,-0.606189 -1.29933,-0.269018 0.57782,0.680607 1.49621,0.976776 2.27334,1.416283 0.30502,0.172506 -0.59177,-0.38069 -0.85375,-0.613428 -0.24433,-0.217065 -0.43765,-0.485508 -0.65647,-0.728261 -0.15092,-0.257812 -0.33082,-0.500721 -0.45274,-0.77344 -0.56875,-1.272106 -0.36426,-2.545385 0.16014,-3.78491 0.77572,-1.846678 1.67314,-3.626548 2.85535,-5.25382 1.41249,-1.844845 3.06486,-3.53404 5.41332,-4.066732 0.33792,-0.0472 0.67345,-0.116879 1.01375,-0.141591 0.3202,-0.02325 0.64208,-0.0014 0.96312,-0.002 1.40862,-0.0026 2.81739,-0.0093 4.22589,0.01416 0,0 -3.19132,-2.318625 -3.19132,-2.318625 z" />
    <path
       style="fill:#ff0000;stroke-width:0.264583"
       id="path960"
       d="m 69.515047,8.8053184 c -3.037102,1.8853466 -6.284388,3.3999836 -9.469805,5.0136626 -1.969516,0.996174 -3.751363,2.338593 -4.881867,4.268095 -0.191971,0.327648 -0.341291,0.678486 -0.511939,1.017728 -0.693791,1.750002 -1.095018,3.689232 -0.538234,5.54181 0.11998,0.399207 0.313796,0.772384 0.470691,1.158576 0.206841,0.35108 0.377952,0.725827 0.620522,1.053241 1.142666,1.542348 2.781083,2.664097 4.338185,3.738438 1.612606,1.112639 2.569358,1.686954 4.226861,2.725798 3.087188,1.845926 2.930957,1.766827 7.130384,4.157789 1.295172,0.737413 2.754976,1.654067 4.25927,1.900365 0.430305,0.07045 0.871524,0.03074 1.307288,0.04611 3.180979,-0.385808 5.813692,-2.232502 8.10275,-4.377622 0.520592,-0.487857 0.987441,-1.030065 1.481162,-1.545095 1.756203,-2.073698 3.135791,-4.499864 3.087161,-7.294996 -0.0074,-0.425794 -0.08837,-0.847119 -0.132557,-1.270679 -0.66344,-2.866209 -2.876494,-4.670723 -5.057195,-6.437439 -3.120925,-2.326747 -6.445964,-4.475494 -10.00742,-6.066173 -1.176118,-0.507021 -2.461178,-0.485706 -3.717097,-0.500159 -0.969108,-4.23e-4 -1.938139,0.01305 -2.907202,0.02085 0,0 3.196114,2.317044 3.196114,2.317044 v 0 c 0.963988,-0.01229 1.928095,-0.02759 2.892176,-0.01861 1.232617,0.02688 2.472497,0.07397 3.605908,0.61949 1.098545,0.516852 3.907587,2.098131 -0.702331,-0.530762 -0.417491,-0.238081 0.83406,0.478282 1.241087,0.73384 1.348163,0.846464 1.548392,1.03457 2.85647,2.002017 2.126652,1.695067 4.339096,3.416747 5.126197,6.143054 0.05714,0.405408 0.151376,0.807299 0.17141,1.216223 0.132683,2.708383 -1.212398,5.074496 -2.886618,7.09446 -0.482695,0.505886 -0.937101,1.040369 -1.448088,1.517661 -2.244571,2.096574 -4.889809,3.842067 -8.01938,4.081089 -0.416603,-0.03965 -0.840423,-0.03215 -1.24981,-0.118935 -0.855893,-0.181443 -1.819799,-0.668226 -2.577748,-1.05927 -0.527831,-0.272317 -0.991209,-0.696299 -1.563836,-0.853967 -0.260466,-0.07172 5.325115,2.995983 -0.692711,-0.420753 -1.73795,-1.079921 -2.526239,-1.544249 -4.217339,-2.696985 -1.512226,-1.030806 -3.136876,-2.105888 -4.295002,-3.555035 -0.2481,-0.310443 -0.429983,-0.668454 -0.644975,-1.00268 -0.165682,-0.362128 -0.36743,-0.709841 -0.497049,-1.086385 -0.605737,-1.759653 -0.228687,-3.625895 0.420008,-5.308524 0.161316,-0.32539 0.301302,-0.662255 0.483949,-0.976167 1.089247,-1.872062 2.83718,-3.148912 4.727075,-4.135206 3.191819,-1.659158 6.438723,-3.212088 9.579602,-4.967021 0,0 -3.306067,-2.1448803 -3.306067,-2.1448806 z" />
    <path
       style="fill:#ff0000;stroke-width:0.264583"
       id="path962"
       d="m 87.626752,51.711653 c -2.096865,0.08566 -4.175947,0.392184 -6.195343,0.961684 -1.759066,0.480732 -3.36928,1.011025 -4.870246,2.063485 -2.261436,1.806472 -3.050648,3.766897 -3.950194,6.446303 -0.690068,2.696792 -1.174872,5.514546 -1.013169,8.311422 0.03058,0.528916 0.120917,1.052674 0.181377,1.57901 0.521787,3.007331 2.011582,5.700442 3.890454,8.065936 1.664076,1.683634 4.022074,3.470987 6.382226,3.636137 0.968473,0.06777 1.67399,-0.07955 2.644206,-0.20579 3.597479,-0.663922 7.22357,-1.24125 10.737406,-2.275726 2.834656,-1.229384 5.543351,-2.920368 7.716381,-5.139375 0.41332,-0.422071 0.78064,-0.886852 1.17096,-1.330278 1.61779,-1.907495 2.48386,-3.913253 2.72171,-6.383229 0.15112,-2.297641 -0.45732,-3.610239 -1.69017,-5.494951 -1.67184,-2.180219 -3.85014,-3.867981 -5.985138,-5.563531 -2.494725,-1.986904 -5.0765,-3.865798 -7.775109,-5.566095 -3.273293,-1.762419 -5.05596,-3.741007 -8.017431,-1.292723 -0.147659,0.134681 -0.295317,0.26936 -0.442976,0.40404 0,0 3.350874,2.074659 3.350874,2.074659 v 0 c 0.141549,-0.129098 0.283099,-0.258194 0.424651,-0.387292 0.739068,-0.579937 1.520777,-0.990192 2.499802,-0.890497 0.296822,0.03023 1.094655,0.390369 0.875014,0.188439 -0.671854,-0.617683 -1.529768,-0.995741 -2.294652,-1.49361 2.720398,1.66465 5.304697,3.538791 7.797636,5.527095 2.119701,1.681843 4.295199,3.329501 6.011979,5.445146 1.15615,1.679901 1.92608,3.147153 1.77822,5.246431 -0.1644,2.395464 -0.99567,4.34322 -2.52833,6.209176 -0.37945,0.434186 -0.73463,0.890836 -1.138338,1.302559 -2.140403,2.182897 -4.830469,3.839398 -7.653409,4.971246 -3.498834,1.032695 -7.101554,1.659588 -10.702986,2.217179 -1.017426,0.09409 -1.612953,0.217326 -2.608545,0.07352 -0.30901,-0.04463 -1.149059,-0.436483 -0.90487,-0.241927 0.788974,0.628611 1.716516,1.060366 2.582177,1.578309 0.243065,0.145431 -0.4919,-0.284927 -0.714094,-0.460598 -0.237998,-0.188166 -0.440357,-0.417475 -0.660535,-0.62621 -1.942097,-2.275869 -3.456265,-4.91844 -4.02223,-7.885956 -0.06844,-0.513821 -0.168064,-1.024446 -0.205328,-1.541466 -0.198588,-2.755402 0.282591,-5.539488 0.954784,-8.198111 0.861218,-2.56144 1.678027,-4.515165 3.887486,-6.189578 1.460497,-0.951122 3.097805,-1.52826 4.779139,-1.970022 2.0173,-0.531733 4.08745,-0.84461 6.177926,-0.846187 0,0 -3.191315,-2.318626 -3.191315,-2.318626 z" />
  </g>
</svg>
