<?xml version="1.0" encoding="UTF-8" standalone="no"?>
<!-- Created with Inkscape (http://www.inkscape.org/) -->

<svg
   width="210mm"
   height="297mm"
   viewBox="0 0 210 297"
   version="1.1"
   id="svg886"
   inkscape:version="1.2.2 (732a01da63, 2022-12-09)"
   sodipodi:docname="graphenspecial.svg"
   xmlns:inkscape="http://www.inkscape.org/namespaces/inkscape"
   xmlns:sodipodi="http://sodipodi.sourceforge.net/DTD/sodipodi-0.dtd"
   xmlns="http://www.w3.org/2000/svg"
   xmlns:svg="http://www.w3.org/2000/svg">
  <sodipodi:namedview
     id="namedview888"
     pagecolor="#ffffff"
     bordercolor="#000000"
     borderopacity="0.25"
     inkscape:showpageshadow="2"
     inkscape:pageopacity="0.0"
     inkscape:pagecheckerboard="0"
     inkscape:deskcolor="#d1d1d1"
     inkscape:document-units="mm"
     showgrid="false"
     inkscape:zoom="0.74564394"
     inkscape:cx="396.97231"
     inkscape:cy="561.9304"
     inkscape:window-width="1920"
     inkscape:window-height="1017"
     inkscape:window-x="-8"
     inkscape:window-y="-8"
     inkscape:window-maximized="1"
     inkscape:current-layer="layer1" />
  <defs
     id="defs883" />
  <g
     inkscape:label="Ebene 1"
     inkscape:groupmode="layer"
     id="layer1">
    <ellipse
       style="fill:#2b0000;stroke-width:0.264583"
       id="path942"
       cx="75.048393"
       cy="215.74193"
       rx="1.9516129"
       ry="3.5483871" />
    <ellipse
       style="fill:#2b0000;stroke-width:0.264583"
       id="path944"
       cx="95.096771"
       cy="118.33871"
       rx="2.4838707"
       ry="3.7258065" />
    <ellipse
       style="fill:#2b0000;stroke-width:0.264583"
       id="path946"
       cx="137.14516"
       cy="214.67741"
       rx="4.0806451"
       ry="1.7741935" />
    <ellipse
       style="fill:#2b0000;stroke-width:0.264583"
       id="path948"
       cx="130.40323"
       cy="80.903221"
       rx="4.7903223"
       ry="3.1935484" />
    <ellipse
       style="fill:#2b0000;stroke-width:0.264583"
       id="path950"
       cx="174.93547"
       cy="121"
       rx="4.2580643"
       ry="3.1935484" />
    <ellipse
       style="fill:#2b0000;stroke-width:0.264583"
       id="path952"
       cx="166.95161"
       cy="166.24193"
       rx="4.0806451"
       ry="2.3064516" />
    <ellipse
       style="fill:#2b0000;stroke-width:0.264583"
       id="path954"
       cx="80.548386"
       cy="44.354839"
       rx="5.6774192"
       ry="4.6129031" />
    <ellipse
       style="fill:#2b0000;stroke-width:0.264583"
       id="path956"
       cx="129.3387"
       cy="43.112904"
       rx="4.0806451"
       ry="4.4354839" />
    <path
       style="fill:#2b0000;stroke-width:0.264583"
       id="path958"
       d="m 137.88347,212.40516 c 1.11558,-2.72201 2.66907,-5.23864 4.07801,-7.81418 1.07653,-2.05486 2.28089,-4.04164 3.32079,-6.11594 0.78853,-1.64747 1.75259,-3.20153 2.72645,-4.7437 2.55978,-3.91728 5.6286,-7.46646 8.65555,-11.02386 2.36814,-2.76072 4.4409,-5.75663 6.59444,-8.68362 1.41135,-1.96197 2.92185,-3.84503 4.45109,-5.71536 0.48554,-0.7315 1.18033,-1.33561 1.62161,-2.09901 0.64122,-1.10928 0.84336,-2.40496 1.10518,-3.63569 0.6063,-3.60649 0.63536,-7.27437 0.89849,-10.91407 0.28239,-3.90609 0.23887,-3.15792 0.70252,-7.03581 0.59029,-4.84668 1.7107,-9.60272 2.82719,-14.34869 0.61837,-3.07108 1.3063,-6.12681 1.92536,-9.19782 0.20241,-0.97604 0.6733,-1.9534 0.14683,-2.91549 -0.61066,-1.11595 -2.13738,-2.12311 -3.0881,-2.88899 -2.56481,-1.9766 -5.13148,-3.9546 -7.88317,-5.66888 -1.58984,-0.99046 -3.39725,-1.9645 -5.01773,-2.86665 -4.53236,-2.51338 -8.32388,-6.07792 -12.05978,-9.616263 -2.46402,-2.361723 -4.82727,-4.822946 -7.40286,-7.064676 -1.65655,-1.404557 -3.47896,-2.600098 -5.23496,-3.87722 -1.18775,-0.926809 -2.42804,-1.781596 -3.65471,-2.654835 -0.35067,-0.249631 -0.7267,-0.468619 -1.0459,-0.757396 -0.85191,-0.770699 -0.93296,-1.1117 -1.48592,-2.105784 -1.16581,-3.149185 -1.15453,-6.572324 -1.22303,-9.888328 5.3e-4,-2.403044 0.0137,-4.801595 -0.0798,-7.202964 -0.17364,-2.684359 -0.36959,-5.36724 -0.49734,-8.054316 -0.0859,-2.077593 -0.0867,-4.157427 -0.0908,-6.23642 0.0268,-1.830983 0.0454,-3.649302 -0.253,-5.459486 -0.0831,-0.432853 -0.12167,-0.864989 -0.31497,-1.263132 0,0 -0.90705,-0.406106 -0.90705,-0.406106 v 0 c 0.23373,0.375843 0.24721,0.809834 0.33951,1.237964 0.31036,1.805636 0.29869,3.619537 0.26619,5.448081 0.006,2.080424 0.007,4.161827 0.0897,6.240904 0.13281,2.687902 0.34178,5.371118 0.50543,8.057202 0.0864,2.401862 0.075,4.80178 0.0874,7.205057 0.0712,3.327239 0.0597,6.756754 1.19537,9.92632 0.53007,0.982887 0.63657,1.380207 1.46855,2.144943 0.31811,0.292393 0.6975,0.510177 1.04965,0.760536 1.22661,0.872064 2.46948,1.722179 3.65372,2.652581 0.71802,0.522332 1.42365,1.061712 2.14637,1.577512 1.04215,0.74377 2.15562,1.397092 3.08514,2.289339 2.58952,2.242841 4.96943,4.702563 7.43883,7.074921 4.19233,3.970256 8.47061,7.905156 13.65669,10.562106 4.01872,2.13428 7.72894,4.75272 11.28198,7.58896 0.92061,0.74009 3.26042,2.29773 3.3763,3.64295 0.0288,0.33478 -0.34843,1.84069 -0.39943,2.06265 -0.6104,3.07252 -1.30471,6.12649 -1.91759,9.19841 -1.11186,4.75488 -2.19189,9.52779 -2.79145,14.37948 -0.45931,3.83478 -0.42447,3.17724 -0.71045,7.03733 -0.2689,3.62958 -0.30788,7.28803 -0.9283,10.88269 -0.23539,1.08165 -0.32987,1.74656 -0.70943,2.74702 -0.43006,1.13359 -1.28909,1.98894 -2.00766,2.94067 -1.52688,1.87365 -3.03871,3.75703 -4.4402,5.72761 -2.1462,2.92919 -4.22453,5.91665 -6.58004,8.68445 -3.01878,3.57146 -6.08529,7.12547 -8.68146,11.02381 -0.98352,1.54007 -1.95829,3.09234 -2.73963,4.74759 -1.03406,2.076 -2.23443,4.06424 -3.30278,6.12221 -1.40672,2.58354 -2.9594,5.10306 -4.11397,7.81383 0,0 0.86711,0.47756 0.86711,0.47756 z" />
    <path
       style="fill:#2b0000;stroke-width:0.264583"
       id="path960"
       d="m 84.530749,43.842455 c 2.768505,-0.502261 5.541068,-0.980823 8.311274,-1.475676 5.150443,-0.917996 10.339487,-1.579856 15.548647,-2.049153 2.66659,-0.261033 5.34473,-0.295939 8.02136,-0.31119 3.56464,0.0096 7.10871,0.414354 10.63488,0.898279 0,0 -0.76089,-0.568709 -0.76089,-0.568709 v 0 c -3.53249,-0.477128 -7.08232,-0.875823 -10.65183,-0.894201 -2.67572,0.0075 -5.35257,0.04844 -8.01694,0.324649 -5.20696,0.487553 -10.393827,1.159743 -15.546474,2.060358 -2.784171,0.487751 -5.570979,0.957101 -8.35365,1.451274 0,0 0.813623,0.564369 0.813623,0.564369 z" />
    <path
       style="fill:#2b0000;stroke-width:0.264583"
       id="path962"
       d="m 94.535534,120.6518 c -2.26817,9.78081 -4.42821,19.58751 -6.455185,29.42116 -2.255983,10.90011 -3.621569,21.95345 -4.622538,33.03098 -0.514131,6.10913 -0.772832,12.23534 -0.867916,18.36415 0.02064,2.93208 -0.427214,5.82084 -1.25781,8.62534 -0.735587,2.33466 -1.642867,4.60962 -2.453921,6.9182 -0.0532,0.27848 -0.215011,0.55739 -0.159604,0.83544 0.05108,0.25634 0.234521,0.49702 0.453551,0.63965 0.573215,0.37327 1.208675,0.65793 1.860005,0.8669 0.473975,0.15208 0.983708,0.15747 1.479256,0.20449 1.195414,0.11344 2.429016,0.11973 3.627541,0.14729 4.333682,-0.0215 8.651076,-0.33444 12.957225,-0.79797 3.998702,-0.56029 8.001552,-1.05977 12.032532,-1.30645 3.53606,-0.1651 7.07906,0.005 10.61595,0.0861 2.38406,0.0429 4.7668,0.15857 7.14834,0.009 1.89341,-0.33516 3.77807,-0.71288 5.68405,-0.9716 1.41814,-0.14867 0.71474,-0.0686 2.11025,-0.2398 0,0 -0.79472,-0.56275 -0.79472,-0.56275 v 0 c -1.39471,0.17027 -0.69116,0.0897 -2.11071,0.24114 -1.9051,0.26151 -3.78871,0.6422 -5.68413,0.96273 -2.37335,0.14627 -4.74843,0.0366 -7.12427,-0.002 -3.53905,-0.0789 -7.08418,-0.25571 -10.62218,-0.0806 -4.02661,0.25215 -8.02372,0.76306 -12.018432,1.32172 -4.308245,0.45829 -8.629137,0.76044 -12.964133,0.77778 -1.196743,-0.03 -2.434884,-0.0366 -3.6278,-0.16187 -0.494761,-0.0519 -0.978739,-0.19414 -1.475174,-0.22634 -0.07501,-0.005 -0.129146,0.15939 -0.192032,0.11822 -0.728067,-0.47674 -0.475208,-0.65514 -0.343548,-1.3905 0.804931,-2.31277 1.714209,-4.58898 2.450131,-6.92558 0.83657,-2.81386 1.286344,-5.7132 1.25576,-8.65624 0.0695,-6.1368 0.300498,-12.27206 0.802648,-18.39003 0.979935,-11.08142 2.331884,-22.13676 4.584306,-33.04007 2.020766,-9.82106 4.161343,-19.6221 6.580367,-29.35325 0,0 -0.867809,-0.4655 -0.867809,-0.4655 z" />
    <path
       style="fill:#2b0000;stroke-width:0.264583"
       id="path964"
       d="m 93.691796,114.30593 c 1.425086,-2.78885 2.915843,-5.54531 4.443701,-8.27929 1.356889,-2.64527 3.135563,-5.0278 4.792123,-7.485579 1.46458,-2.130727 3.14927,-4.1055 4.89973,-6.004364 1.9479,-1.901526 3.91066,-3.8652 6.19751,-5.368576 0.43322,-0.284795 0.8895,-0.532855 1.33425,-0.799282 2.71333,-1.484395 5.60418,-2.598338 8.49537,-3.678918 1.47434,-0.497282 2.9436,-1.010978 4.39927,-1.560568 0,0 -0.80902,-0.544195 -0.80902,-0.544195 v 0 c -1.45338,0.551339 -2.9205,1.06616 -4.39287,1.564569 -2.89116,1.090334 -5.78462,2.208823 -8.49952,3.697083 -0.44712,0.268272 -0.90621,0.517552 -1.34137,0.804818 -2.28827,1.510559 -4.24585,3.48865 -6.20362,5.386885 -1.76289,1.894819 -3.4504,3.875021 -4.9141,6.013138 -1.65475,2.462079 -3.431282,4.849059 -4.786425,7.498139 -1.526249,2.73527 -3.015105,5.49219 -4.468913,8.26652 0,0 0.853884,0.48962 0.853884,0.48962 z" />
    <path
       style="fill:#2b0000;stroke-width:0.264583"
       id="path966"
       d="m 96.213818,117.07528 c 5.177132,0.40648 10.360862,0.71045 15.545482,1.00203 7.45956,0.39496 14.91414,0.83754 22.36074,1.42993 4.71775,0.39841 9.43757,0.75191 14.16367,1.03573 4.39054,0.33355 8.78862,0.54104 13.18983,0.6585 2.23268,0.0548 4.46309,0.12187 6.6934,-0.0124 0,0 -0.79401,-0.56959 -0.79401,-0.56959 v 0 c -2.22115,0.13489 -4.44301,0.0735 -6.66666,0.0214 -4.39847,-0.11694 -8.79376,-0.32141 -13.18149,-0.65633 -4.71952,-0.28594 -9.43304,-0.64064 -14.1455,-1.02444 -7.44496,-0.5778 -14.8972,-1.01739 -22.35345,-1.42211 -5.20422,-0.29974 -10.40802,-0.60829 -15.602976,-1.04453 0,0 0.790964,0.5818 0.790964,0.5818 z" />
    <ellipse
       style="fill:#241c1c;stroke-width:0.264583"
       id="path1022"
       cx="24.306452"
       cy="99.354836"
       rx="4.7903223"
       ry="4.9677415" />
    <path
       style="fill:#241c1c;stroke-width:0.264583"
       id="path1024"
       d="m 21.342573,99.583101 c 3.932628,-4.470836 7.912316,-8.899255 11.930725,-13.293066 4.42377,-4.803891 8.892688,-9.607656 13.986531,-13.718733 1.062239,-0.8573 2.1648,-1.663396 3.247203,-2.495095 5.707805,-4.111736 11.637107,-7.901029 17.464402,-11.838926 2.160243,-1.322359 3.868658,-3.175948 5.69532,-4.89439 1.671756,-1.55299 3.230999,-3.210258 4.55635,-5.069004 0.158647,-0.232015 0.317291,-0.464031 0.475938,-0.69605 0,0 -0.844074,-0.495773 -0.844074,-0.495773 v 0 c -0.157591,0.231881 -0.315182,0.463759 -0.472774,0.69564 -1.317847,1.856427 -2.871287,3.509735 -4.541408,5.055497 -1.822678,1.710991 -3.525764,3.558717 -5.665671,4.895244 -5.800119,3.969893 -11.71175,7.776096 -17.426946,11.868911 -1.086387,0.831043 -2.193946,1.635117 -3.259163,2.493127 -5.099807,4.107775 -9.547368,8.937373 -13.976311,13.738021 -4.030128,4.391898 -8.024626,8.815766 -12.014861,13.243742 0,0 0.844739,0.510855 0.844739,0.510855 z" />
    <path
       style="fill:#241c1c;stroke-width:0.264583"
       id="path1026"
       d="m 25.878012,101.41293 c 5.82241,-0.0257 11.760811,0.33642 17.383596,1.97296 1.373174,0.39968 2.699525,0.9455 4.049286,1.41824 3.335427,1.49948 4.113371,1.71312 7.17618,3.60692 0.751329,0.46457 1.450287,1.00915 2.164823,1.52852 2.556799,1.85846 5.005012,3.85179 7.498287,5.79323 3.752363,2.73871 7.615502,5.64046 12.098774,7.08005 2.959533,0.95031 3.939756,0.83824 7.05118,1.07961 4.632904,0.0395 9.209997,-0.73363 13.752263,-1.55176 0,0 -0.759126,-0.53102 -0.759126,-0.53102 v 0 c -4.531395,0.82542 -9.098873,1.60166 -13.723334,1.54335 -3.117178,-0.25425 -4.078515,-0.14432 -7.040206,-1.10743 -3.914907,-1.27309 -7.26981,-3.73597 -10.523958,-6.17076 -2.489419,-1.93762 -4.909153,-4.00762 -7.50544,-5.80288 -3.42409,-2.36766 -6.998883,-4.5083 -10.893412,-6.01635 -1.35282,-0.47099 -2.682452,-1.01479 -4.058462,-1.41298 -5.648616,-1.63461 -11.606056,-1.98351 -17.451942,-1.99749 0,0 0.781491,0.56779 0.781491,0.56779 z" />
    <path
       style="fill:#ff00ff;stroke-width:0.264583"
       id="path1028"
       d="m 96.354055,110.15656 c -1.256424,0.25613 -2.883252,0.25314 -4.052562,0.7841 -0.904486,0.4107 -1.0893,0.75042 -1.75505,1.46088 -1.467591,2.30814 -1.935112,4.40278 -1.501524,7.08528 0.263165,1.33263 1.020469,2.23801 2.137545,2.94194 0.122584,0.0776 0.245171,0.15523 0.367755,0.23284 0,0 0.92188,0.35834 0.92188,0.35834 v 0 c -0.122849,-0.0782 -0.245695,-0.15646 -0.368544,-0.23469 -1.123741,-0.67344 -1.90442,-1.54737 -2.181436,-2.86963 -0.45425,-2.62818 -0.0043,-4.75123 1.453705,-7.00925 0.665205,-0.70272 0.826963,-1.01576 1.728645,-1.41555 1.205489,-0.53449 2.775812,-0.5113 4.059301,-0.76793 0,0 -0.809715,-0.56633 -0.809715,-0.56633 z" />
    <path
       style="fill:#ff00ff;stroke-width:0.264583"
       id="path1030"
       d="m 99.711638,108.82552 c -2.020525,0.40971 -4.026648,0.89405 -6.018982,1.42367 -0.877869,0.23337 -2.756381,0.73302 -3.641283,1.12599 -0.482042,0.21407 -0.919718,0.51661 -1.379577,0.77491 -0.372954,0.34633 -0.789742,0.65076 -1.118857,1.03898 -2.165662,2.55463 -2.617441,6.19775 -2.935899,9.39018 -0.09707,1.73566 0.02638,3.47416 0.601933,5.12575 0.140263,0.4025 0.261786,0.82808 0.516765,1.16964 0.781323,1.04664 2.321735,1.5988 3.364167,2.13627 0.572034,0.15195 1.13394,0.34907 1.716101,0.45584 2.090375,0.38338 4.595026,0.33074 6.656628,-0.21672 0.400558,-0.10637 0.784622,-0.26723 1.176933,-0.40084 0.340391,-0.19579 0.70685,-0.35199 1.021172,-0.58736 1.659941,-1.24296 2.431531,-3.33488 3.035131,-5.22993 0.50993,-1.77251 0.62195,-3.61191 0.66033,-5.44471 -0.0183,-0.95916 0.0644,-1.96075 -0.18491,-2.90144 -0.33568,-1.26651 -1.14568,-2.31542 -1.88693,-3.36272 -1.24304,-1.67313 -0.63467,-0.84841 -1.825673,-2.47376 0,0 -0.883745,-0.38198 -0.883745,-0.38198 v 0 c 1.192631,1.62586 0.584115,0.80161 1.826048,2.47237 0.73387,1.02848 1.55359,2.07172 1.89528,3.3164 0.25615,0.93311 0.17207,1.93189 0.18803,2.88464 -0.0362,1.82494 -0.13759,3.65743 -0.63924,5.42427 -0.59091,1.87371 -1.34933,3.94784 -2.998185,5.16781 -0.310993,0.2301 -0.672957,0.38182 -1.009435,0.57274 -0.388827,0.13096 -0.769625,0.28876 -1.166482,0.3929 -2.055196,0.53926 -4.543364,0.58629 -6.622896,0.18641 -0.580068,-0.11154 -1.138783,-0.31441 -1.708177,-0.47161 -0.811244,-0.27799 -1.067228,-0.27744 -1.733859,-1.13585 -0.260316,-0.33521 -0.384062,-0.75936 -0.527775,-1.1587 -0.590357,-1.64043 -0.72317,-3.37151 -0.632526,-5.10164 0.31003,-3.17039 0.756933,-6.79033 2.915541,-9.32215 0.325377,-0.38163 0.736968,-0.68038 1.105453,-1.02057 0.455528,-0.25441 0.889611,-0.55174 1.366584,-0.76323 0.893294,-0.39608 2.738519,-0.89023 3.626532,-1.12622 1.996951,-0.53069 4.009194,-1.01312 6.039235,-1.39985 0,0 -0.797432,-0.55949 -0.797432,-0.55949 z" />
    <path
       style="fill:#ff00ff;stroke-width:0.264583"
       id="path1032"
       d="m 181.9751,117.28364 c -2.19474,-1.34401 -4.55731,-2.3401 -6.99579,-3.14204 -1.1756,-0.31143 -2.38074,-0.79444 -3.62015,-0.59665 -0.74925,0.11957 -1.02298,0.29272 -1.73401,0.59662 -1.67598,0.93901 -3.01767,2.25516 -4.05857,3.85392 -0.99648,1.5563 -1.20413,3.39027 -1.19412,5.19808 0.15288,0.78909 0.14951,1.21875 0.62502,1.89989 1.34628,1.92844 4.33225,2.512 6.45677,3.0393 2.1087,0.41681 4.18645,1.00852 6.31373,1.33352 1.027,0.15691 1.97074,0.28089 2.99772,0.0698 0.40739,-0.0837 0.78515,-0.27463 1.17772,-0.41195 0.34421,-0.24251 0.72488,-0.44015 1.03262,-0.72752 2.00164,-1.86914 2.75447,-4.98786 3.44706,-7.52804 0.11477,-0.48444 0.22954,-0.96889 0.34431,-1.45334 0,0 -0.84738,-0.45668 -0.84738,-0.45668 v 0 c -0.11277,0.48427 -0.22554,0.96854 -0.33831,1.45281 -0.68199,2.51891 -1.42352,5.62256 -3.42258,7.46468 -0.30354,0.27971 -0.67875,0.46988 -1.01812,0.70482 -0.38709,0.13112 -0.76027,0.31446 -1.16128,0.39336 -1.014,0.19949 -1.95888,0.0737 -2.97077,-0.0815 -2.12514,-0.32602 -4.20241,-0.91056 -6.30737,-1.33561 -0.677,-0.17217 -1.36242,-0.31414 -2.03101,-0.51652 -1.51484,-0.45854 -2.66763,-0.80793 -3.22819,-2.4263 -0.10906,-0.31485 -0.13429,-0.65272 -0.20143,-0.97909 -0.0197,-1.78905 0.18877,-3.60397 1.17213,-5.14498 1.02851,-1.58438 2.35541,-2.89006 4.02331,-3.80721 0.70661,-0.29235 0.97642,-0.46057 1.71893,-0.56614 1.22857,-0.17468 2.42383,0.31201 3.58786,0.61788 2.44196,0.81031 4.80383,1.82022 7.00156,3.17007 0,0 -0.76966,-0.62117 -0.76966,-0.62117 z" />
    <path
       style="fill:#ff00ff;stroke-width:0.264583"
       id="path1034"
       d="m 146.05527,206.58301 c -3.38772,-0.0537 -6.76257,-0.41707 -10.13428,-0.72277 -0.98905,-0.0897 -1.97523,-0.21933 -2.96702,-0.27063 -0.84524,-0.0437 -1.69271,-0.009 -2.53906,-0.0142 -2.30348,0.22761 -4.94624,0.72572 -6.12024,2.98595 -0.13997,0.26949 -0.21865,0.56663 -0.32798,0.84994 -0.47074,1.84559 -0.0764,3.28085 1.27299,4.65869 0.29978,0.30611 0.65193,0.55613 0.97789,0.83419 2.97153,2.01 6.23236,3.5444 9.50298,4.99706 0.714,0.29069 1.49772,0.69575 2.29999,0.70633 2.3833,0.0314 4.50262,-1.65212 6.33087,-2.94604 0.99461,-0.92347 3.10561,-2.10819 3.25893,-3.67112 0.14613,-1.48977 -1.45525,-2.49864 -2.41888,-3.26614 -1.7417,-1.15773 -0.87306,-0.61915 -2.60148,-1.62289 0,0 -0.89929,-0.34525 -0.89929,-0.34525 v 0 c 1.73416,0.99721 0.86308,0.46247 2.60902,1.61109 0.92621,0.72038 2.57435,1.71765 2.46619,3.14882 -0.11633,1.53938 -2.24777,2.73621 -3.21397,3.63655 -1.82407,1.28208 -3.93007,2.93961 -6.30558,2.86791 -0.77839,-0.0235 -1.58762,-0.43425 -2.27993,-0.71692 -2.6855,-1.19561 -5.39748,-2.40516 -7.85147,-4.03666 -0.3271,-0.27183 -0.67965,-0.51566 -0.98129,-0.81549 -0.71839,-0.71409 -1.34334,-1.72634 -1.49968,-2.74397 -0.10529,-0.68528 0.0522,-1.16231 0.1868,-1.82085 0.10551,-0.27734 0.18075,-0.56817 0.31653,-0.83201 1.14776,-2.2304 3.77487,-2.70322 6.03499,-2.92827 0.8418,0.005 1.68469,-0.0291 2.52541,0.014 0.9901,0.0507 1.97481,0.17781 2.96219,0.267 3.39048,0.30627 6.78207,0.67961 10.18805,0.75161 0,0 -0.79268,-0.57591 -0.79268,-0.57591 z" />
    <path
       style="fill:#ff00ff;stroke-width:0.264583"
       id="path1036"
       d="m 36.303053,156.63994 c -1.647283,0.30555 -3.366074,0.35411 -4.921594,1.02838 -0.822902,0.35671 -0.992881,0.53253 -1.682271,1.03287 -1.191615,1.21545 -1.090758,1.63504 0.181279,2.65169 0.860785,0.53643 1.695238,1.09882 2.494542,1.72318 0,0 0.910217,0.3644 0.910217,0.3644 v 0 c -0.794771,-0.62939 -1.621616,-1.20099 -2.491812,-1.7224 -1.243213,-0.95018 -1.461656,-1.27595 -0.268866,-2.49296 0.677592,-0.4907 0.849413,-0.66736 1.659728,-1.01413 1.556589,-0.66613 3.277981,-0.71244 4.925235,-1.00371 0,0 -0.806458,-0.56732 -0.806458,-0.56732 z" />
    <ellipse
       style="fill:#280b0b;stroke-width:0.264583"
       id="path1038"
       cx="28.032257"
       cy="160.38708"
       rx="6.032258"
       ry="4.6129031" />
    <path
       style="fill:#280b0b;stroke-width:0.264583"
       id="path1141"
       d="m 26.822609,158.67454 c 5.189717,-2.73082 10.497912,-5.22811 15.734871,-7.86651 5.72684,-2.71525 11.046772,-6.14468 16.314676,-9.64168 3.889632,-2.51855 7.747635,-5.09918 11.921136,-7.12825 2.073854,-1.00207 4.318748,-1.55312 6.516462,-2.20359 1.161005,-0.34363 2.177677,-0.68127 3.327763,-1.05417 2.184786,-0.71076 4.355808,-1.43815 6.438952,-2.41114 1.135193,-0.5738 2.27479,-1.15025 3.366276,-1.80463 1.085066,-0.62733 2.16903,-1.25512 3.28803,-1.82054 0.419028,-0.15088 0.797732,-0.35955 1.160536,-0.61296 0,0 -0.835229,-0.53282 -0.835229,-0.53282 v 0 c -0.360812,0.24662 -0.738835,0.44857 -1.149373,0.60435 -1.117934,0.5716 -2.203969,1.19973 -3.291859,1.82598 -1.091398,0.64698 -2.220989,1.23261 -3.355271,1.80001 -2.075738,0.96982 -4.237233,1.70258 -6.413585,2.41377 -1.247193,0.40468 -2.062681,0.67812 -3.325222,1.05148 -2.202423,0.6513 -4.449953,1.21018 -6.526535,2.21742 -4.164621,2.04183 -8.010218,4.63753 -11.894029,7.16058 -5.264597,3.49104 -10.590789,6.90164 -16.297825,9.63973 -5.246336,2.64714 -10.564802,5.14606 -15.799865,7.81525 0,0 0.820091,0.54772 0.820091,0.54772 z" />
    <path
       style="fill:#280b0b;stroke-width:0.264583"
       id="path1143"
       d="m 73.218698,214.28936 c -1.49052,-0.76917 -2.753932,-1.79328 -4.049861,-3.09413 -0.950039,-1.01133 -1.676887,-2.16266 -2.249355,-3.42001 -0.822679,-2.15535 -1.992524,-4.14279 -3.104785,-6.15464 -1.468739,-2.56278 -2.603066,-5.29762 -3.806759,-7.99045 -0.72118,-1.62194 -1.461669,-3.23108 -2.386912,-4.74729 -1.204946,-1.91818 -3.153156,-3.23958 -4.922202,-4.60016 -2.445213,-1.72401 -4.793321,-3.57264 -7.148348,-5.41528 -1.959732,-1.65261 -4.049004,-3.16315 -5.877854,-4.96746 -0.419208,-0.41359 -0.808511,-0.85643 -1.212768,-1.28464 -1.54899,-1.81793 -2.837495,-3.86441 -3.722005,-6.08728 -0.438983,-1.10321 -0.681958,-2.01451 -1.016854,-3.14588 -0.438912,-1.72293 -0.22646,-0.9038 -0.635408,-2.45789 0,0 -0.87666,-0.41837 -0.87666,-0.41837 v 0 c 0.417878,1.55739 0.20202,0.73589 0.644673,2.46526 0.33332,1.12868 0.581817,2.05785 1.015908,3.15917 0.879467,2.23128 2.163207,4.28747 3.708503,6.11654 0.403053,0.43022 0.790765,0.87535 1.209164,1.29067 1.822347,1.80893 3.910648,3.31851 5.867705,4.97165 2.357411,1.84063 4.700338,3.69745 7.149972,5.4168 1.737601,1.33327 3.730797,2.68743 4.916461,4.55908 0.931413,1.5155 1.688876,3.11877 2.410288,4.74405 1.205506,2.69283 2.337348,5.42991 3.800314,7.99641 1.107125,2.00833 2.284748,3.98645 3.095085,6.14145 0.562978,1.27058 1.28832,2.42879 2.236348,3.45267 1.387573,1.41024 2.585167,2.21959 4.28007,3.26417 0.08253,0.0509 -0.165124,-0.10163 -0.247687,-0.15245 0,0 0.922967,0.35801 0.922967,0.35801 z" />
    <path
       style="fill:#ff00ff;stroke-width:0.264583"
       id="path1145"
       d="m 30.227209,147.10445 c -3.00676,0.63412 -5.974465,1.43079 -8.942613,2.22175 0,0 0.781724,0.53735 0.781724,0.53735 v 0 c 2.973782,-0.79633 5.949591,-1.5918 8.96963,-2.19721 0,0 -0.808741,-0.56189 -0.808741,-0.56189 z" />
    <path
       style="fill:#ff00ff;stroke-width:0.264583"
       id="path1147"
       d="m 22.725536,148.08318 c -5.181974,2.71951 -10.559253,5.03464 -15.7559851,7.72564 -1.4192483,0.88371 -3.7319802,1.85362 -3.8771457,3.83689 -0.062041,0.84762 0.2420999,1.21777 0.5957263,1.95766 0.2538561,0.33548 0.4763897,0.69715 0.761568,1.00645 0.766487,0.83132 1.5998959,1.42841 2.562443,2.02178 2.1582022,1.33044 4.3354965,2.35465 6.6679385,3.3214 3.77786,1.59823 7.786046,2.56443 11.814811,3.27642 1.538648,0.13555 3.129196,0.60004 4.687795,0.42256 0.257276,-0.0293 0.509284,-0.094 0.763926,-0.14093 2.312565,-0.62407 3.275704,-1.58355 4.623242,-3.48533 1.136409,-1.74696 1.897505,-3.69252 2.595793,-5.64561 0.560443,-1.8462 1.065866,-3.68026 1.085056,-5.61876 -0.120465,-0.82107 -0.09927,-1.14047 -0.501303,-1.90396 -1.228183,-2.33243 -4.359421,-3.87471 -6.504054,-5.16216 -3.617309,-1.97856 -7.111234,-4.16859 -10.627029,-6.31894 0,0 -0.870907,-0.33681 -0.870907,-0.33681 v 0 c 3.519656,2.14901 7.020038,4.33422 10.634431,6.32266 2.118099,1.26742 5.242981,2.80358 6.48375,5.08505 0.409686,0.75331 0.388011,1.05543 0.514853,1.87003 -0.0062,1.95628 -0.512435,3.728 -1.067197,5.59105 -0.694307,1.9448 -1.450507,3.88361 -2.581627,5.62298 -1.337966,1.88228 -2.289696,2.8214 -4.588317,3.41735 -1.821357,0.30705 -3.602873,-0.0363 -5.414988,-0.29687 -4.022148,-0.71028 -8.020034,-1.68166 -11.789315,-3.28312 -2.65386,-1.1074 -5.5773008,-2.22897 -7.5994432,-4.37638 -0.2854532,-0.30314 -0.5102752,-0.65812 -0.7654126,-0.98718 -0.3535765,-0.70236 -0.6679187,-1.07896 -0.6242682,-1.89354 0.1045368,-1.9508 2.4333858,-2.91605 3.8033414,-3.7889 5.1937746,-2.71845 10.5716756,-5.04997 15.7962876,-7.7063 0,0 -0.82397,-0.53313 -0.82397,-0.53313 z" />
    <text
       xml:space="preserve"
       style="font-size:6.35px;fill:#ff00ff;stroke-width:0.264583"
       x="118.16129"
       y="78.064514"
       id="text1279"><tspan
         sodipodi:role="line"
         id="tspan1277"
         style="stroke-width:0.264583"
         x="118.16129"
         y="78.064514">a</tspan></text>
    <text
       xml:space="preserve"
       style="font-size:6.35px;fill:#ff00ff;stroke-width:0.264583"
       x="167.12903"
       y="131.29031"
       id="text1283"><tspan
         sodipodi:role="line"
         id="tspan1281"
         style="stroke-width:0.264583"
         x="167.12903"
         y="131.29031">b</tspan></text>
    <text
       xml:space="preserve"
       style="font-size:6.35px;fill:#ff00ff;stroke-width:0.264583"
       x="152.93549"
       y="163.93549"
       id="text1287"><tspan
         sodipodi:role="line"
         id="tspan1285"
         style="stroke-width:0.264583"
         x="152.93549"
         y="163.93549">c</tspan></text>
    <text
       xml:space="preserve"
       style="font-size:6.35px;fill:#ff00ff;stroke-width:0.264583"
       x="120.64516"
       y="205.80644"
       id="text1291"><tspan
         sodipodi:role="line"
         id="tspan1289"
         style="stroke-width:0.264583"
         x="120.64516"
         y="205.80644">d</tspan></text>
    <text
       xml:space="preserve"
       style="font-size:6.35px;fill:#ff00ff;stroke-width:0.264583"
       x="101.12904"
       y="131.64516"
       id="text1295"><tspan
         sodipodi:role="line"
         id="tspan1293"
         style="stroke-width:0.264583"
         x="101.12904"
         y="131.64516">e</tspan></text>
    <text
       xml:space="preserve"
       style="font-size:6.35px;fill:#ff00ff;stroke-width:0.264583"
       x="78.774193"
       y="222.8387"
       id="text1299"><tspan
         sodipodi:role="line"
         id="tspan1297"
         style="stroke-width:0.264583"
         x="78.774193"
         y="222.8387">f</tspan></text>
    <text
       xml:space="preserve"
       style="font-size:6.35px;fill:#ff00ff;stroke-width:0.264583"
       x="47.903225"
       y="160.74193"
       id="text1303"><tspan
         sodipodi:role="line"
         id="tspan1301"
         style="stroke-width:0.264583"
         x="47.903225"
         y="160.74193">g</tspan></text>
    <text
       xml:space="preserve"
       style="font-size:6.35px;fill:#ff00ff;stroke-width:0.264583"
       x="35.129032"
       y="197.29031"
       id="text1307"><tspan
         sodipodi:role="line"
         id="tspan1305"
         style="stroke-width:0.264583"
         x="35.129032"
         y="197.29031"> </tspan></text>
  </g>
</svg>
