<?xml version="1.0" encoding="UTF-8" standalone="no"?>
<!-- Created with Inkscape (http://www.inkscape.org/) -->

<svg
   width="210mm"
   height="297mm"
   viewBox="0 0 210 297"
   version="1.1"
   id="svg920"
   inkscape:version="1.2.2 (732a01da63, 2022-12-09)"
   sodipodi:docname="Graphen5.svg"
   xmlns:inkscape="http://www.inkscape.org/namespaces/inkscape"
   xmlns:sodipodi="http://sodipodi.sourceforge.net/DTD/sodipodi-0.dtd"
   xmlns="http://www.w3.org/2000/svg"
   xmlns:svg="http://www.w3.org/2000/svg">
  <sodipodi:namedview
     id="namedview922"
     pagecolor="#ffffff"
     bordercolor="#000000"
     borderopacity="0.25"
     inkscape:showpageshadow="2"
     inkscape:pageopacity="0.0"
     inkscape:pagecheckerboard="0"
     inkscape:deskcolor="#d1d1d1"
     inkscape:document-units="mm"
     showgrid="false"
     inkscape:zoom="0.74564394"
     inkscape:cx="396.97231"
     inkscape:cy="561.9304"
     inkscape:window-width="1920"
     inkscape:window-height="1017"
     inkscape:window-x="-8"
     inkscape:window-y="-8"
     inkscape:window-maximized="1"
     inkscape:current-layer="layer1" />
  <defs
     id="defs917" />
  <g
     inkscape:label="Ebene 1"
     inkscape:groupmode="layer"
     id="layer1">
    <circle
       style="fill:#000000;stroke-width:0.264583"
       id="path924"
       cx="22"
       cy="28.387096"
       r="3.1935484" />
    <ellipse
       style="fill:#000000;stroke-width:0.264583"
       id="path926"
       cx="184.87097"
       cy="61.919353"
       rx="3.5483871"
       ry="3.3709676" />
    <ellipse
       style="fill:#000000;stroke-width:0.264583"
       id="path928"
       cx="21.82258"
       cy="188.95161"
       rx="4.0806451"
       ry="3.3709676" />
    <ellipse
       style="fill:#000000;stroke-width:0.264583"
       id="path930"
       cx="86.58065"
       cy="81.080643"
       rx="3.9032259"
       ry="3.016129" />
    <ellipse
       style="fill:#000000;stroke-width:0.264583"
       id="path932"
       cx="24.306452"
       cy="116.74194"
       rx="3.3709676"
       ry="2.8387096" />
    <ellipse
       style="fill:#000000;stroke-width:0.264583"
       id="path934"
       cx="123.30645"
       cy="117.45161"
       rx="3.7258065"
       ry="3.1935484" />
    <ellipse
       style="fill:#000000;stroke-width:0.264583"
       id="path936"
       cx="121.88709"
       cy="16.145161"
       rx="3.016129"
       ry="3.3709676" />
    <circle
       style="fill:#000000;stroke-width:0.264583"
       id="path938"
       cx="25.548388"
       cy="72.032257"
       r="3.5483871" />
    <ellipse
       style="fill:#000000;stroke-width:0.264583"
       id="path940"
       cx="121.17742"
       cy="54.112904"
       rx="3.7258065"
       ry="3.3709676" />
    <ellipse
       style="fill:#000000;stroke-width:0.264583"
       id="path942"
       cx="77.177422"
       cy="137.67741"
       rx="3.016129"
       ry="2.8387096" />
    <ellipse
       style="fill:#000000;stroke-width:0.264583"
       id="path944"
       cx="168.01613"
       cy="103.96774"
       rx="4.0806451"
       ry="3.9032259" />
    <path
       style="fill:#000000;stroke-width:0.264583"
       d="m 26.258064,118.87097 c -3.412394,3.0938 -3.594429,7.94457 -4.967742,12.06451 -0.167272,0.50182 -0.542404,0.91754 -0.709677,1.41936 -0.383475,1.15042 -1.576102,5.65243 -1.774194,6.74193 -0.105792,0.58186 0.06531,1.18641 0,1.77419 -0.10771,0.9694 -0.588699,1.87089 -0.709677,2.83872 -0.549117,4.39293 0.162135,10.52288 0.709677,14.90322 0.16864,1.34912 0.872234,2.55725 1.064516,3.90323 0.251377,1.75963 -0.01659,3.62795 0.709678,5.32258 0.167992,0.39198 0.541685,0.67253 0.709677,1.06451 0.535154,1.24869 1.193642,3.25863 1.419355,4.61291 0.11667,0.70002 -0.139179,1.43313 0,2.12903 0.05187,0.25934 0.30297,0.45033 0.354839,0.70968 0.434698,2.17349 0,5.78153 0,8.16129"
       id="path1550" />
    <path
       style="fill:#000000;stroke-width:0.264583"
       d="m 24.129032,116.74193 c 1.049788,-5.88437 7.234724,-8.11691 12.064515,-10.29032 3.806066,-1.71273 7.694255,-3.68073 11.35484,-5.67742 2.986452,-1.628972 5.31777,-3.927558 8.161289,-5.677417 2.578286,-1.586637 3.542086,-1.511038 6.387098,-2.838709 1.811194,-0.845225 3.148155,-2.366465 4.967742,-3.19355 1.86082,-0.845825 2.073024,-0.606965 3.903226,-1.064514 0.53693,-0.134234 1.237263,-0.575445 1.774193,-0.709678 0.667932,-0.166984 1.4611,0.166983 2.129033,0 0.256582,-0.06415 0.473117,-0.236559 0.709676,-0.354838 0.354838,0 0.714504,0.05833 1.064516,0 1.92259,-0.320432 5.77958,-3.548388 7.096774,-3.548388"
       id="path1552" />
    <path
       style="fill:#000000;stroke-width:0.264583"
       d="m 29.096774,71.32258 c -0.413787,5.539917 2.274596,8.911897 5.32258,13.48387 0.89239,1.338583 1.765986,2.704301 2.83871,3.903226 0.9497,1.061429 2.159592,1.859172 3.19355,2.838709 2.064342,1.955695 4.169875,3.883356 6.032256,6.03226 0.77465,0.893826 1.390147,1.915101 2.129033,2.838705 1.786274,2.23285 3.790469,4.44791 4.967743,7.09678 2.449303,5.51093 -0.295937,-0.47407 0.709676,3.54838 0.128291,0.51317 0.554117,0.91379 0.709678,1.41936 0.320694,1.04226 0.410097,2.14502 0.709676,3.19355 0.59879,2.09576 0.680056,1.3453 1.419355,3.19355 0.277826,0.69456 0.351465,1.4723 0.709679,2.12903 0.465375,0.85319 4.495379,5.67807 5.32258,6.38709 0.356666,0.30572 2.209771,1.26213 2.838709,1.41936 0.687716,0.17193 1.440667,0.12539 2.129031,0.35484 0.599292,0.19976 0.6564,0.91192 1.419357,1.06451 0.347946,0.0696 0.747139,-0.15868 1.064514,0 0.236562,0.11829 0.167823,0.52267 0.354841,0.70968 0.168989,0.16899 1.36039,0.88762 1.419355,1.06452 0.0748,0.22442 -0.105794,0.49809 0,0.70967 0.0529,0.1058 0.236558,0 0.354838,0"
       id="path1554" />
    <path
       style="fill:#000000;stroke-width:0.264583"
       d="M 22.709677,67.774192 C 23.829141,63.598982 22.915703,59.637681 21.290322,55.709676 19.776296,52.05078 17.931195,48.500559 15.967742,45.064515 15.494623,44.236557 15.021505,43.408602 14.548387,42.580644 14.311828,42.107527 14.095596,41.623686 13.83871,41.16129 11.995328,37.843203 10.875137,36.860543 12.419355,33 c 0.03904,-0.09761 1.716662,-2.455106 1.774193,-2.483872 0.317378,-0.158689 0.716568,0.06959 1.064516,0 0.51869,-0.103737 0.906186,-0.581384 1.419355,-0.709676 0.229496,-0.05737 0.498093,0.105791 0.709677,0 0.105793,-0.0529 -0.08364,-0.271203 0,-0.35484 0.218003,-0.218001 0.826889,-0.234421 1.064517,-0.709676 0.436975,-0.873951 -1.030003,0.320326 0.354838,-1.064517 0.08364,-0.08364 0.249047,0.0529 0.354839,0 0.341186,-0.170593 0.709677,-1.080849 0.709677,-1.419355"
       id="path1556" />
    <path
       style="fill:#000000;stroke-width:0.264583"
       d="m 24.838709,183.45161 c 7.160827,0.51351 13.989434,-1.84915 20.935485,-3.19355 3.666664,-0.70967 7.327722,-1.44898 10.999999,-2.12903 1.567857,-0.29034 6.09959,-0.94523 7.806452,-1.41935 0.973711,-0.27048 1.864997,-0.79404 2.838709,-1.06452 5.324118,-1.47892 1.732248,0.0541 6.741935,-1.41935 1.939033,-0.57031 3.769728,-1.46134 5.677418,-2.12903 3.530341,-1.23562 7.096776,-2.3656 10.645164,-3.54839 5.119611,-1.70654 10.614829,-2.55488 15.612899,-4.6129 2.00778,-0.82674 3.85444,-2.01398 5.67742,-3.19355 5.17443,-3.34816 9.97558,-7.30427 14.90323,-11 2.60007,-1.95006 5.84375,-3.35989 8.16129,-5.67742 0.41818,-0.41818 0.64633,-1.00118 1.06451,-1.41936 0.88907,-0.88906 1.84624,-1.71194 2.83871,-2.48387 2.19119,-1.70425 1.43859,-0.29017 3.19355,-2.48387 0.53282,-0.66602 0.87925,-1.46891 1.41935,-2.12903 0.52962,-0.64731 1.29458,-1.08902 1.7742,-1.7742 0.36527,-0.52181 0.35636,-1.24421 0.70968,-1.77419 1.45575,-2.18362 4.22167,-3.4938 5.67742,-5.67742 1.12431,-1.68647 0.22442,-1.28894 1.77419,-2.83871 0.41818,-0.41818 0.97428,-0.67508 1.41935,-1.06451 1.35033,-1.18154 2.67456,-3.46632 4.25807,-4.25807 0.21158,-0.10579 0.48526,0.0748 0.70968,0 0.15219,-0.0507 4.50476,-4.82355 4.6129,-4.96774 0.82762,-1.10349 1.30141,-2.4449 2.12903,-3.54839 0.30109,-0.40145 0.75104,-0.67266 1.06452,-1.06451 0.48347,-0.60435 0.45564,-1.45162 0.70967,-2.12904 0.6115,-1.63065 1.06452,-2.51544 1.06452,-4.25806"
       id="path1558" />
    <path
       style="fill:#000000;stroke-width:0.264583"
       d="m 122.06451,114.96774 c 0.39772,-2.24484 0.81207,-6.02757 0.35484,-8.16129 -0.21174,-0.98815 -0.72817,-1.88574 -1.06451,-2.83871 -0.7854,-2.2253 -1.56556,-4.954043 -2.48387,-7.096774 -1.23419,-2.879765 -2.17174,-3.846801 -3.19355,-6.741935 -0.99497,-2.819069 -1.08035,-5.932885 -1.41936,-8.870969 -0.58837,-5.099222 -1.37409,-10.871448 -0.35484,-15.967741 0.0778,-0.389168 -0.0519,-1.514748 0,-1.774193 0.0519,-0.259344 0.27121,-0.458769 0.35484,-0.709678 0.11221,-0.33663 -0.11221,-0.727885 0,-1.064514 0.67612,-2.028341 0.0678,2.145112 0.70968,-1.064517 0.19672,-0.983623 0.0531,-1.608447 0.70968,-2.483871 0.20073,-0.267637 0.53755,-0.422807 0.70968,-0.709679 0.51665,-0.861086 0.84929,-2.129031 2.12903,-2.129031"
       id="path1560" />
    <path
       style="fill:#000000;stroke-width:0.264583"
       d="m 121.70968,15.258064 c 4.67714,3.61769 9.8369,6.245616 14.90322,9.225807 5.10126,3.000741 9.9765,6.296156 14.90323,9.580645 1.63794,1.091962 3.41385,1.984965 4.96774,3.193548 0.59782,0.464973 0.8533,1.271031 1.41935,1.774195 0.51548,0.458197 1.22245,0.650706 1.7742,1.064514 1.98383,1.487876 3.54845,3.65761 5.67742,4.967742 3.01865,1.857629 1.66676,0.268896 3.54838,1.774193 2.75993,2.207943 -1.53335,-0.613341 1.7742,0.709679 0.31062,0.124245 0.43132,0.524105 0.70968,0.709676 0.44012,0.293417 0.94623,0.47312 1.41935,0.709678 1.06451,0.709679 2.17004,1.361398 3.19355,2.129034 0.40145,0.30109 0.70968,0.709676 1.06451,1.064514 0.47312,0.236561 0.97924,0.416263 1.41936,0.709678 0.81886,0.545907 1.31017,1.583127 2.12903,2.129033 1.97179,1.314524 4.09828,2.496696 6.03226,3.903226 0.11457,0.08333 1.77419,1.602772 1.77419,1.774193 0,0.118279 -0.23656,0 -0.35484,0 -0.70967,0 -1.41935,0 -2.12903,0"
       id="path1562" />
    <path
       style="fill:#000000;stroke-width:0.264583"
       d="m 179.90322,61.387095 c -0.47311,0 -0.95099,0.06691 -1.41935,0 -2.63484,-0.376404 -5.19388,-1.548458 -7.80645,-2.129031 -6.80507,-1.512239 4.62081,1.011143 -4.25807,-0.354838 -0.73936,-0.113749 -1.40012,-0.541469 -2.12903,-0.709678 -2.5339,-0.584748 -5.23547,-0.668981 -7.80645,-1.064517 -4.08145,-0.627914 -7.90427,-1.341866 -12.06452,-1.064517 -0.83451,0.05563 -1.65039,0.285385 -2.48387,0.354841 -2.44414,0.203676 -4.99559,0 -7.45161,0 -1.25557,0 -2.66997,0.176178 -3.90323,0 -1.75237,-0.250341 -3.29043,-1.00003 -4.96774,-1.419355 -0.51262,-0.128156 -2.09745,-0.09723 -2.48387,-0.35484 -1.19546,-0.796973 0.61027,-0.709676 -1.41935,-0.709676"
       id="path1564" />
    <path
       style="fill:#000000;stroke-width:0.264583"
       d="m 123.48387,114.96774 c 4.51081,-5.51226 10.55686,-10.14261 17.38709,-12.41935 1.67249,-0.5575 3.29624,-0.4311 4.96775,-0.70968 1.43686,-0.23948 2.82934,-0.77877 4.25806,-1.06452 3.40678,-0.68135 6.87657,-1.347473 10.29032,-1.774191 0.7971,-0.09964 6.72086,-0.365379 7.45162,0 0.87695,0.438476 -0.12249,0.354838 0.70967,0.354838"
       id="path1566" />
    <path
       style="fill:#000000;stroke-width:0.264583"
       d="m 183.80645,61.387095 c -0.11828,0.47312 -0.13674,0.983162 -0.35484,1.419355 -0.26448,0.528962 -0.77731,0.902382 -1.06452,1.419357 -0.61119,1.10014 -0.95021,2.777278 -1.41935,3.903223 -0.30517,0.732412 -0.75935,1.396624 -1.06452,2.129033 -1.37285,3.294841 -1.80831,7.158197 -3.54838,10.290323 -0.28721,0.516975 -0.80004,0.890392 -1.06452,1.419355 -0.2181,0.436192 -0.15677,0.973709 -0.35484,1.419355 -0.28011,0.63024 -0.80837,1.13384 -1.06452,1.774192 -0.22398,0.559975 -0.0556,1.250548 -0.35483,1.774196 -0.21159,0.370273 -0.81664,0.362648 -1.06452,0.709676 -0.99043,1.386601 -2.07953,4.970523 -2.83871,6.741935 -0.25091,0.585454 -0.58476,1.149609 -0.70968,1.774195 -0.11598,0.579914 0.18702,1.213144 0,1.774193 -0.0529,0.158689 -0.30194,0.196148 -0.35484,0.354838 -0.33876,1.016293 0.0967,2.387159 -0.70967,3.193549"
       id="path1568" />
    <path
       style="fill:#000000;stroke-width:0.264583"
       d="m 120.29032,14.903226 c -5.28016,1.99498 -10.80283,3.031454 -16.32258,4.258064 -3.76172,0.835938 -6.062817,1.483588 -9.935483,2.129032 -7.889825,1.314971 -2.619431,0.229171 -9.580645,1.064516 -1.544643,0.185358 -3.062552,0.580482 -4.612904,0.709678 -5.011973,0.417664 -10.268024,0.061 -15.258063,-0.354839 -3.374149,-0.281179 -6.90672,0 -10.290323,0 -4.860147,0 -9.728547,-0.127145 -14.548387,0.354839 -4.336947,0.433695 -8.542012,1.274676 -12.774194,2.483871 -1.078924,0.308264 -2.114623,0.756252 -3.193548,1.064516 -1.681025,0.480292 -3.703407,0.524793 -5.32258,1.064516 -1.315425,0.438476 0.432531,0.354838 -0.709678,0.354838"
       id="path1570" />
    <path
       style="fill:#000000;stroke-width:0.264583"
       d="m 76.64516,136.96774 c -1.690438,-0.22986 -2.028914,1.19188 -3.193547,1.77419 -0.105793,0.0529 -0.236561,0 -0.35484,0 -0.236559,0.11828 -0.489614,0.20814 -0.709676,0.35484 -0.278361,0.18558 -0.410451,0.56007 -0.709679,0.70968 -0.509011,0.25451 -1.235639,0.35064 -1.774193,0.70968 -0.768643,0.51243 -1.326956,1.31586 -2.129033,1.77419 -0.553032,0.31602 -1.228008,0.38197 -1.774193,0.70968 -0.64943,0.38966 -1.129183,1.02242 -1.774192,1.41935 -3.549147,2.18409 -7.62386,3.81193 -11.35484,5.67742 -1.237025,0.61851 -2.666201,1.15568 -3.903226,1.7742 -1.666166,0.83308 -0.446423,0.5334 -1.774192,1.06451 -0.347282,0.13891 -0.743786,0.1624 -1.064517,0.35484 -0.286869,0.17212 -0.410451,0.56007 -0.709679,0.70968 -0.211584,0.10579 -0.498091,-0.10579 -0.709676,0 -0.360508,0.18025 -2.957462,2.24778 -3.19355,2.48387 -0.187015,0.18702 -0.167822,0.52266 -0.354837,0.70968 -0.187016,0.18701 -0.522661,0.16782 -0.709676,0.35483 -1.015387,1.01539 -1.636993,2.41922 -2.483872,3.54839 -0.77407,1.0321 -1.823318,2.09263 -2.483871,3.19355 -0.192439,0.32073 -0.130418,0.76529 -0.354838,1.06452 -0.158689,0.21158 -0.47312,0.23656 -0.709679,0.35483 -0.118279,0.35485 -0.187565,0.72998 -0.354838,1.06452 -0.738378,1.47675 0.0245,-0.37933 -0.709678,0.35484 -0.787927,0.78793 -1.543484,2.96284 -2.483872,3.90323 -0.301553,0.30155 -0.76296,0.40812 -1.064514,0.70967 -0.316587,0.31659 -3.023094,3.61914 -3.193549,3.90323 -0.843236,1.40539 1.048559,0.016 -0.354839,1.41935 -0.187016,0.18702 -0.550989,0.14326 -0.709677,0.35484 -0.226309,0.30175 -1.633176,3.48018 -1.774194,3.90323 -0.134643,0.40393 -0.218935,2.21206 -0.354838,2.48387 -0.0529,0.10579 -0.271203,-0.0836 -0.354839,0 -0.228585,0.22858 0.111635,1.08445 0,1.41935 -0.278551,0.83566 -0.709678,1.26225 -0.709678,2.12904"
       id="path1572" />
    <text
       xml:space="preserve"
       style="font-size:4.23333px;fill:#000000;stroke-width:0.264583"
       x="7.8064518"
       y="15.967742"
       id="text1576"><tspan
         sodipodi:role="line"
         id="tspan1574"
         style="stroke-width:0.264583"
         x="7.8064518"
         y="15.967742">A</tspan></text>
    <text
       xml:space="preserve"
       style="font-size:4.23333px;fill:#000000;stroke-width:0.264583"
       x="113.90322"
       y="11.354839"
       id="text1580"><tspan
         sodipodi:role="line"
         id="tspan1578"
         style="stroke-width:0.264583"
         x="113.90322"
         y="11.354839">B</tspan></text>
    <text
       xml:space="preserve"
       style="font-size:4.23333px;fill:#000000;stroke-width:0.264583"
       x="117.45161"
       y="45.774197"
       id="text1584"><tspan
         sodipodi:role="line"
         id="tspan1582"
         style="stroke-width:0.264583"
         x="117.45161"
         y="45.774197">D</tspan></text>
    <text
       xml:space="preserve"
       style="font-size:4.23333px;fill:#000000;stroke-width:0.264583"
       x="113.90322"
       y="117.80645"
       id="text1588"><tspan
         sodipodi:role="line"
         id="tspan1586"
         style="stroke-width:0.264583"
         x="113.90322"
         y="117.80645">E</tspan></text>
    <text
       xml:space="preserve"
       style="font-size:4.23333px;fill:#000000;stroke-width:0.264583"
       x="184.51613"
       y="107.16129"
       id="text1592"><tspan
         sodipodi:role="line"
         id="tspan1590"
         style="stroke-width:0.264583"
         x="184.51613"
         y="107.16129">F</tspan></text>
    <text
       xml:space="preserve"
       style="font-size:4.23333px;fill:#000000;stroke-width:0.264583"
       x="26.967741"
       y="193.3871"
       id="text1596"><tspan
         sodipodi:role="line"
         id="tspan1594"
         style="stroke-width:0.264583"
         x="26.967741"
         y="193.3871">G</tspan></text>
    <text
       xml:space="preserve"
       style="font-size:4.23333px;fill:#000000;stroke-width:0.264583"
       x="84.096771"
       y="135.19354"
       id="text1600"><tspan
         sodipodi:role="line"
         id="tspan1598"
         style="stroke-width:0.264583"
         x="84.096771"
         y="135.19354">H</tspan></text>
    <text
       xml:space="preserve"
       style="font-size:4.23333px;fill:#000000;stroke-width:0.264583"
       x="35.129032"
       y="117.09678"
       id="text1604"><tspan
         sodipodi:role="line"
         id="tspan1602"
         style="stroke-width:0.264583"
         x="35.129032"
         y="117.09678">I</tspan></text>
    <text
       xml:space="preserve"
       style="font-size:4.23333px;fill:#000000;stroke-width:0.264583"
       x="95.096771"
       y="79.838707"
       id="text1608"><tspan
         sodipodi:role="line"
         id="tspan1606"
         style="stroke-width:0.264583"
         x="95.096771"
         y="79.838707">J</tspan></text>
    <text
       xml:space="preserve"
       style="font-size:4.23333px;fill:#000000;stroke-width:0.264583"
       x="36.193546"
       y="69.19355"
       id="text1612"><tspan
         sodipodi:role="line"
         id="tspan1610"
         style="stroke-width:0.264583"
         x="36.193546"
         y="69.19355">K</tspan></text>
    <text
       xml:space="preserve"
       style="font-size:4.23333px;fill:#000000;stroke-width:0.264583"
       x="192.32257"
       y="58.548382"
       id="text1616"><tspan
         sodipodi:role="line"
         id="tspan1614"
         style="stroke-width:0.264583"
         x="192.32257"
         y="58.548382">C</tspan></text>
    <path
       style="fill:#ff00ff;stroke-width:0.264583"
       id="path747"
       d="m 26.117483,183.36056 c -1.587424,0.0764 -3.174207,0.13818 -4.76017,0.24277 -0.514395,0.0339 -2.296278,0.14087 -2.874978,0.25348 -0.395174,0.0769 -0.773308,0.22427 -1.159963,0.3364 -2.548416,1.15118 -3.796031,3.02347 -4.894994,5.49912 -0.343809,1.15817 -0.803558,2.50256 -0.469163,3.72938 0.140069,0.51388 0.388654,0.8203 0.673116,1.25276 1.72562,1.66658 3.894523,3.04504 6.21417,3.69924 0.771169,0.21749 1.606244,0.31692 2.394312,0.43602 2.870415,0.26101 5.763427,-0.16583 8.546928,-0.85637 2.298541,-0.70426 4.462777,-1.80086 6.33286,-3.31152 0.663792,-0.65974 1.487297,-1.61371 1.366163,-2.64216 -0.0254,-0.21575 -0.114133,-0.41922 -0.171199,-0.62883 -0.947406,-1.67105 -2.54377,-2.86101 -4.156212,-3.84848 -1.405086,-0.7431 -2.810171,-1.4862 -4.215257,-2.2293 0,0 3.077138,2.41055 3.077138,2.41055 v 0 c -0.83844,-0.52851 -1.676884,-1.05702 -2.515324,-1.58554 1.621715,0.89997 3.158987,2.05839 4.241302,3.58228 0.07372,0.16728 0.175175,0.32491 0.221157,0.50183 0.232603,0.89497 -0.610547,1.79486 -1.161399,2.36186 -1.819373,1.48856 -3.942831,2.53773 -6.199902,3.19247 -2.762864,0.65911 -5.623218,1.07489 -8.462578,0.72606 -0.93137,-0.16369 -1.477334,-0.22231 -2.368545,-0.51983 -0.301937,-0.1008 -1.142996,-0.54931 -0.880946,-0.3686 0.818012,0.56409 1.699753,1.02995 2.560335,1.52669 0.225266,0.13002 -0.442961,-0.27364 -0.653656,-0.42615 -0.195203,-0.14129 -0.374982,-0.30276 -0.562472,-0.45413 -0.177378,-0.23255 -0.642237,-0.80741 -0.751363,-1.08815 -0.438707,-1.12862 0.02203,-2.47408 0.316386,-3.55983 1.04496,-2.39681 2.227736,-4.15485 4.719982,-5.20337 0.371572,-0.0977 0.736823,-0.22382 1.114716,-0.29321 0.629548,-0.11561 2.257173,-0.22355 2.830187,-0.26081 1.608232,-0.10457 3.218507,-0.16542 4.830362,-0.1635 0,0 -3.180993,-2.31113 -3.180993,-2.31113 z" />
    <path
       style="fill:#ff00ff;stroke-width:0.264583"
       id="path749"
       d="m 74.963307,128.76642 c -2.16712,0.87033 -3.899071,2.68388 -5.443804,4.38579 -1.230329,1.47515 -2.045338,3.20177 -2.520791,5.05111 -0.234794,1.20298 -0.04067,2.11082 0.837128,2.97201 2.438106,1.93516 4.061605,2.7173 6.801959,2.9232 2.017813,-0.0288 4.014631,-0.48418 5.914231,-1.14367 1.625219,-0.72913 3.275533,-1.55159 4.66004,-2.68786 0.53962,-0.59985 1.300522,-1.37903 1.346226,-2.25241 0.03185,-0.60871 -0.211479,-1.11602 -0.405196,-1.67334 -0.4631,-1.10676 -0.218824,-0.57409 -0.728064,-1.60019 0,0 -3.570471,-1.60959 -3.570471,-1.60959 v 0 c 0.53521,0.99424 0.282023,0.47561 0.753714,1.55873 0.08517,0.21713 0.477655,1.13074 0.48755,1.44154 0.02323,0.72952 -0.752708,1.57041 -1.21145,2.04879 -1.359961,1.09537 -2.956663,1.91119 -4.558948,2.58673 -1.881262,0.61513 -3.853675,1.07736 -5.845363,0.99246 -0.642837,-0.0702 -1.278599,-0.13849 -1.897216,-0.33967 -0.180583,-0.0587 -0.690859,-0.30907 -0.530725,-0.20702 0.797859,0.50849 4.187716,2.49485 2.44698,1.43824 -0.961813,-0.65216 -1.211273,-1.43777 -1.046183,-2.58119 0.426013,-1.79879 1.194183,-3.47746 2.382692,-4.90893 1.293815,-1.44061 2.879645,-3.14761 4.695473,-3.91744 0.209243,-0.0887 0.437803,-0.12221 0.656706,-0.18331 0,0 -3.224488,-2.29398 -3.224488,-2.29398 z" />
    <path
       style="fill:#ff00ff;stroke-width:0.264583"
       id="path751"
       d="m 25.876031,112.79869 c -2.797571,0.50803 -5.735052,0.50528 -8.389392,1.63579 -0.379218,0.16151 -0.729853,0.38325 -1.09478,0.57487 -0.246086,0.27985 -0.535387,0.52694 -0.738261,0.83953 -0.876368,1.35031 -0.629969,3.00326 -0.157737,4.43197 0.534416,1.21341 1.511808,2.10596 2.588143,2.83767 2.459437,1.63879 5.124519,2.72402 7.855664,3.76016 1.132871,0.44358 2.285068,0.6065 3.483234,0.42325 1.113808,-0.36584 2.290019,-0.88864 3.054165,-1.82126 0.189788,-0.23162 0.333901,-0.49718 0.500851,-0.74578 0.805799,-1.36386 1.152451,-2.91724 1.357455,-4.47089 0.14033,-0.93473 -0.15838,-1.90416 -1.024985,-2.39731 -1.355313,-0.77125 -2.741213,-1.48747 -4.111821,-2.23121 -1.164386,-0.37185 -0.572336,-0.199 -1.776651,-0.51685 0,0 3.096909,2.37994 3.096909,2.37994 v 0 c 1.19286,0.34333 0.606221,0.1557 1.760389,0.56142 -0.879134,-0.54485 -1.762059,-1.08363 -2.637398,-1.63456 -0.161642,-0.10173 0.340915,0.17537 0.496019,0.28682 0.578033,0.41533 0.814747,1.02464 0.707782,1.72083 -0.161573,1.50079 -0.460746,3.0043 -1.242071,4.31859 -0.156461,0.223 -0.291946,0.4623 -0.469379,0.66901 -0.73692,0.85852 -1.855581,1.3408 -2.926377,1.60299 -1.162286,0.0968 -2.276293,-0.13269 -3.358681,-0.5675 -0.745175,-0.28667 -1.492629,-0.57143 -2.230304,-0.87699 -1.277985,-0.52936 -4.354248,-2.0286 1.136087,0.96699 -1.085713,-0.64664 -2.086903,-1.48465 -2.701302,-2.60738 -0.511464,-1.26129 -0.85952,-2.82974 -0.06657,-4.07498 0.174686,-0.27433 0.432932,-0.48544 0.649399,-0.72816 0.346987,-0.1808 0.680495,-0.39023 1.040962,-0.54239 2.648803,-1.11807 5.599277,-1.14468 8.407537,-1.50061 0,0 -3.208887,-2.29396 -3.208887,-2.29396 z" />
    <path
       style="fill:#aa0000;stroke-width:0.264583"
       id="path879"
       d="m 182.77402,99.203157 c -2.04818,-0.14977 -4.08295,-0.08713 -5.98067,0.748533 -1.04811,0.58996 -1.35676,1.31902 -1.50317,2.45618 -0.069,0.95909 -0.0219,1.92216 -0.006,2.88249 0.0283,1.06041 -0.0196,2.12279 0.0548,3.18126 0.0235,0.94163 0.37898,1.74552 0.89431,2.51158 1.4333,1.54718 3.51315,2.54265 5.59154,2.83419 1.01106,0.13004 2.03027,0.16822 3.04848,0.1861 0.88884,0.0859 1.71857,-0.18091 2.54715,-0.46895 0.82578,-0.42394 1.56693,-0.97835 2.35309,-1.46797 1.18749,-0.87282 1.77579,-2.19401 2.32265,-3.51591 0.35777,-1.33227 1.20782,-2.95063 1.28811,-4.33255 0.0135,-0.23287 -0.0314,-0.46547 -0.047,-0.6982 -0.24884,-0.85816 -0.0746,-0.43959 -0.53523,-1.2504 0,0 -3.59886,-1.58233 -3.59886,-1.58233 v 0 c 0.50338,0.69324 0.30488,0.32868 0.60855,1.08648 0.0338,0.20127 0.10127,0.39972 0.10134,0.60381 1.1e-4,0.38164 -0.21008,1.13761 -0.30436,1.47639 -0.26262,0.94359 -0.59306,1.8652 -0.91324,2.79021 -0.52953,1.24311 -1.09142,2.4958 -2.2513,3.27639 -0.75946,0.47405 -1.45954,1.04691 -2.29131,1.39499 -0.81369,0.25141 -1.61695,0.44218 -2.47613,0.35569 -1.0042,-0.0231 -2.0108,-0.0652 -3.00385,-0.22715 -0.50448,-0.10382 -0.49345,-0.0859 -0.95163,-0.23425 -0.12473,-0.0404 -0.48195,-0.20089 -0.37069,-0.13153 5.39723,3.36475 3.65885,2.22293 2.5226,1.47213 -0.56638,-0.66654 -0.95855,-1.42682 -1.00143,-2.31609 -0.10454,-1.04873 -0.0342,-2.10641 -0.0731,-3.15901 -0.009,-0.94365 -0.0369,-1.88824 -0.003,-2.83151 0.0962,-1.0177 0.30709,-1.60605 1.26423,-2.11506 1.87495,-0.7796 3.89064,-0.78416 5.88925,-0.57801 0,0 -3.17521,-2.347503 -3.17521,-2.347503 z" />
    <path
       style="fill:#aa0000;stroke-width:0.264583"
       id="path881"
       d="m 120.1411,103.66618 c -0.93329,1.45527 -1.50319,3.08015 -1.92166,4.74632 -0.30901,1.35723 -0.5486,2.71925 -0.65132,4.10733 -0.044,1.71299 0.66302,3.19099 1.58427,4.58325 1.4931,1.84674 3.2768,2.70352 5.54003,3.77028 0.19455,0.0917 0.4301,-0.007 0.64515,-0.01 1.94983,-0.047 3.41163,-0.95536 4.88603,-2.14012 1.43159,-1.32568 2.91239,-2.65605 4.07054,-4.23579 0.0724,-0.24199 0.18611,-0.47529 0.21712,-0.72596 0.19075,-1.54181 -0.85043,-3.01628 -1.66864,-4.21886 -1.52752,-2.15655 -4.12176,-3.14377 -6.48238,-4.17268 0,0 3.08469,2.44065 3.08469,2.44065 v 0 c 1.3401,0.58212 3.6239,1.9223 -1.60898,-1.13506 -0.16452,-0.0961 0.33219,0.18968 0.48144,0.30812 0.37195,0.29516 0.62727,0.63818 0.93235,0.99947 0.77281,1.04397 1.88313,2.53341 1.80764,3.90138 -0.0114,0.20651 -0.0963,0.40229 -0.14443,0.60344 -1.12187,1.56086 -2.55671,2.88566 -3.98291,4.16299 -1.44741,1.11604 -2.87366,1.94336 -4.76238,1.87502 -1.70028,-0.28283 -0.75269,-0.19776 2.35063,1.65783 0.13516,0.0808 -0.27552,-0.15378 -0.40436,-0.24434 -0.51167,-0.3596 -0.9195,-0.83632 -1.36526,-1.26912 -0.93391,-1.30819 -1.69052,-2.68675 -1.69504,-4.34213 0.10156,-1.36828 0.32815,-2.71267 0.61144,-4.05502 0.38686,-1.63278 0.92292,-3.22958 1.89841,-4.61527 0,0 -3.42238,-1.99191 -3.42238,-1.99191 z" />
    <path
       style="fill:#aa0000;stroke-width:0.264583"
       id="path883"
       d="m 125.65562,46.145791 c -2.09925,0.306649 -4.212,0.40627 -6.28733,0.869333 -1.919,0.443561 -3.10674,1.864286 -4.19747,3.395549 -1.23608,1.671452 -1.93337,3.569475 -2.37935,5.578255 -0.23181,1.334776 -0.46501,2.598116 0.0501,3.88755 0.0996,0.145804 0.17993,0.306871 0.29884,0.437411 0.1289,0.141505 0.2727,0.274831 0.43796,0.37142 1.812,1.059061 3.32158,2.357533 5.39952,2.434873 0.31815,0.01185 0.63628,-0.02455 0.95442,-0.03681 2.67995,-0.203147 5.20528,-1.099143 7.70858,-2.011365 1.91738,-0.633603 3.79369,-1.422239 5.35293,-2.73562 0.28517,-0.240202 0.54255,-0.511569 0.81383,-0.767355 1.53144,-1.531334 2.18429,-2.606006 2.51218,-4.746376 0.11517,-0.977832 -0.0734,-1.877918 -0.43989,-2.774135 0,0 -3.58575,-1.637888 -3.58575,-1.637888 v 0 c 0.41678,0.821862 0.6519,1.650003 0.56672,2.587303 -0.27109,2.052113 -0.91517,3.057964 -2.36373,4.528105 -0.26153,0.244554 -0.50867,0.505481 -0.7846,0.733663 -1.53547,1.269744 -3.40354,2.004203 -5.26081,2.660502 -2.48728,0.895556 -5.01512,1.74703 -7.68073,1.86975 -0.84039,-0.02135 -0.91461,0.02439 -1.69243,-0.161989 -0.22135,-0.05304 -0.83984,-0.330274 -0.65268,-0.200731 0.90347,0.625329 1.88568,1.128532 2.82256,1.702596 0.15489,0.0949 -0.3317,-0.154869 -0.47622,-0.264911 -0.12923,-0.09839 -0.22375,-0.235501 -0.33562,-0.353248 -0.69474,-1.231879 -0.36561,-2.334705 -0.19654,-3.673631 0.39926,-1.96945 1.07095,-3.81721 2.28263,-5.447033 1.06022,-1.456978 2.20832,-2.757519 4.05107,-3.151026 2.08639,-0.449215 4.20967,-0.545304 6.32064,-0.828895 0,0 -3.23884,-2.265293 -3.23884,-2.265293 z" />
    <path
       style="fill:#aa0000;stroke-width:0.264583"
       id="path885"
       d="m 188.0966,55.557996 c -1.8314,-0.0911 -3.66233,-0.1905 -5.49479,-0.258561 -1.31349,-0.05746 -2.26116,0.643157 -3.25922,1.392973 -0.95602,0.729146 -1.87084,1.509127 -2.74326,2.336435 -0.9325,0.813305 -1.51035,1.847532 -1.97703,2.975353 -0.51834,1.475227 -0.68803,3.037252 -0.57141,4.590013 0.0922,0.483105 0.12012,0.790183 0.31593,1.237379 0.78439,1.79142 3.63503,2.66609 4.87458,3.34604 2.57811,0.287928 5.20737,-0.09521 7.76356,-0.457361 2.94958,-0.391766 5.25636,-2.222553 7.43257,-4.107583 1.66465,-1.410451 2.9745,-3.156775 4.16917,-4.966864 0.67658,-1.22764 0.7405,-1.84691 -0.20333,-2.913528 -0.40226,-0.400095 -0.87192,-0.719352 -1.32903,-1.051319 0,0 -3.66967,-1.454944 -3.66967,-1.454944 v 0 c 0.45127,0.334558 0.93109,0.626049 1.35458,0.997043 0.94515,0.827672 1.0967,1.291503 0.4536,2.440964 -1.13602,1.803701 -2.40774,3.525657 -4.04446,4.913304 -2.20875,1.9186 -4.33158,3.512982 -7.31903,3.917379 -2.21087,0.312785 -4.76943,0.713094 -6.99275,0.417917 -0.24431,-0.03243 -0.47991,-0.112427 -0.71986,-0.16864 0.95853,0.582829 1.91613,1.167188 2.87559,1.748491 0.13128,0.07954 -0.26888,-0.150241 -0.39103,-0.243189 -0.62479,-0.475401 -0.92432,-1.145077 -1.05496,-1.904857 -0.1676,-1.492015 -0.003,-2.995899 0.48474,-4.42027 0.44592,-1.078687 1.01419,-2.053293 1.91194,-2.822419 0.85737,-0.817806 1.75358,-1.592492 2.70044,-2.305547 0.96151,-0.698093 1.86899,-1.267616 3.10838,-1.177089 1.83493,0.05663 3.67034,0.131789 5.49996,0.286382 0,0 -3.17521,-2.347502 -3.17521,-2.347502 z" />
    <path
       style="fill:#ff00ff;stroke-width:0.264583"
       id="path887"
       d="m 169.05458,113.11021 c -1.23356,1.30539 -2.29064,2.74585 -3.17393,4.30674 -0.78449,1.5057 -1.27213,3.152 -1.42393,4.84118 0.0218,0.75324 0.14237,1.78642 0.89656,2.20078 1.29416,0.71104 2.61898,1.3648 3.92848,2.0472 1.36191,0.0808 2.72773,0.004 4.09003,-0.0366 1.16291,-0.28628 2.50852,-0.19006 3.59634,-0.75872 0.20998,-0.10976 0.39276,-0.26514 0.58914,-0.39771 1.21222,-0.96292 1.75847,-2.39715 2.1252,-3.85208 0.20544,-0.83925 0.22348,-1.73185 -0.61642,-2.23407 -1.28621,-0.7691 -2.6027,-1.48641 -3.90405,-2.22961 -0.57555,-0.27939 -1.22496,-0.32421 -1.82717,-0.50623 -0.4554,-0.13765 -0.90298,-0.37803 -1.31805,-0.60598 -1.22357,-0.67786 -3.38964,-1.83611 2.18209,1.27239 0.12203,0.0681 -0.23256,-0.15498 -0.34756,-0.23434 -0.56998,-0.39335 -0.0846,-0.0768 -0.64974,-0.43699 -1.81841,-1.20063 -2.7103,-1.93746 -4.427,-2.25186 0,0 3.15387,2.40332 3.15387,2.40332 v 0 c 1.34876,0.38451 2.99947,1.46678 -2.42503,-1.57292 0.36356,0.1931 0.65753,0.45622 1.00597,0.66403 1.51955,0.90624 3.03092,1.80841 4.59479,2.62816 1.01498,0.47032 2.10858,0.6579 3.13138,1.10578 -7.9165,-4.68098 -2.41687,-1.60779 -2.07925,-1.15561 0.27818,0.37258 0.11808,0.87763 0.0597,1.28367 -0.31101,1.37027 -0.79009,2.72644 -1.96525,3.59326 -0.18239,0.10616 -0.35531,0.23057 -0.54717,0.31849 -1.08424,0.49683 -2.37006,0.46725 -3.52108,0.66457 -1.34271,0.0411 -2.70222,0.14799 -4.03534,-0.0586 0.96388,0.59544 1.93923,1.17272 2.89164,1.78633 0.12209,0.0787 -0.27795,-0.0962 -0.39713,-0.1792 -0.51625,-0.35948 -0.64598,-1.07504 -0.69228,-1.64667 0.0832,-1.64176 0.562,-3.24333 1.31759,-4.7014 0.85641,-1.52313 1.87871,-2.9524 3.1487,-4.16198 0,0 -3.36112,-2.09536 -3.36112,-2.09536 z" />
  </g>
</svg>
