<?xml version="1.0" encoding="UTF-8" standalone="no"?>
<!-- Created with Inkscape (http://www.inkscape.org/) -->

<svg
   width="210mm"
   height="297mm"
   viewBox="0 0 210 297"
   version="1.1"
   id="svg5"
   sodipodi:docname="Graphen1.svg"
   inkscape:version="1.2.2 (732a01da63, 2022-12-09)"
   xmlns:inkscape="http://www.inkscape.org/namespaces/inkscape"
   xmlns:sodipodi="http://sodipodi.sourceforge.net/DTD/sodipodi-0.dtd"
   xmlns="http://www.w3.org/2000/svg"
   xmlns:svg="http://www.w3.org/2000/svg">
  <sodipodi:namedview
     id="namedview7"
     pagecolor="#ffffff"
     bordercolor="#000000"
     borderopacity="0.25"
     inkscape:showpageshadow="2"
     inkscape:pageopacity="0.0"
     inkscape:pagecheckerboard="0"
     inkscape:deskcolor="#d1d1d1"
     inkscape:document-units="mm"
     showgrid="false"
     inkscape:zoom="0.74564394"
     inkscape:cx="396.97231"
     inkscape:cy="562.60096"
     inkscape:window-width="1346"
     inkscape:window-height="1040"
     inkscape:window-x="122"
     inkscape:window-y="34"
     inkscape:window-maximized="0"
     inkscape:current-layer="layer1" />
  <defs
     id="defs2" />
  <g
     inkscape:label="Ebene 1"
     inkscape:groupmode="layer"
     id="layer1">
    <ellipse
       style="fill:#000000;stroke-width:0.264583"
       id="path111"
       cx="32.645161"
       cy="53.580643"
       rx="3.9032259"
       ry="3.5483871" />
    <ellipse
       style="fill:#000000;stroke-width:0.264583"
       id="path113"
       cx="58.903225"
       cy="100.77419"
       rx="3.1935484"
       ry="3.5483871" />
    <ellipse
       style="fill:#000000;stroke-width:0.264583"
       id="path115"
       cx="149.56451"
       cy="72.032257"
       rx="4.0806451"
       ry="3.9032259" />
    <circle
       style="fill:#000000;stroke-width:0.264583"
       id="path117"
       cx="80.193542"
       cy="29.80645"
       r="3.9032259" />
    <ellipse
       style="fill:#000000;stroke-width:0.264583"
       id="path119"
       cx="83.032249"
       cy="62.983868"
       rx="4.2580643"
       ry="3.7258065" />
    <ellipse
       style="fill:#000000;stroke-width:0.264583"
       id="path121"
       cx="83.209671"
       cy="144.06451"
       rx="4.0806451"
       ry="3.1935484" />
    <circle
       style="fill:#000000;stroke-width:0.264583"
       id="path123"
       cx="118.33871"
       cy="89.951614"
       r="3.3709676" />
    <ellipse
       style="fill:#000000;stroke-width:0.264583"
       id="path125"
       cx="121"
       cy="35.306454"
       rx="3.1935484"
       ry="2.6612904" />
    <text
       xml:space="preserve"
       style="font-size:3.175px;fill:#000000;stroke-width:0.264583"
       x="19.516129"
       y="56.064514"
       id="text181"><tspan
         sodipodi:role="line"
         id="tspan179"
         style="stroke-width:0.264583"
         x="19.516129"
         y="56.064514">A</tspan></text>
    <text
       xml:space="preserve"
       style="font-size:3.175px;fill:#000000;stroke-width:0.264583"
       x="62.80645"
       y="31.225807"
       id="text185"><tspan
         sodipodi:role="line"
         id="tspan183"
         style="stroke-width:0.264583"
         x="62.80645"
         y="31.225807">B</tspan></text>
    <text
       xml:space="preserve"
       style="font-size:3.175px;fill:#000000;stroke-width:0.264583"
       x="113.54839"
       y="37.967743"
       id="text189"><tspan
         sodipodi:role="line"
         id="tspan187"
         style="stroke-width:0.264583"
         x="113.54839"
         y="37.967743">C</tspan></text>
    <text
       xml:space="preserve"
       style="font-size:3.175px;fill:#000000;stroke-width:0.264583"
       x="134.12903"
       y="68.483871"
       id="text193"><tspan
         sodipodi:role="line"
         id="tspan191"
         style="stroke-width:0.264583"
         x="134.12903"
         y="68.483871">D</tspan></text>
    <text
       xml:space="preserve"
       style="font-size:3.175px;fill:#000000;stroke-width:0.264583"
       x="107.87096"
       y="84.80645"
       id="text247"><tspan
         sodipodi:role="line"
         id="tspan245"
         style="stroke-width:0.264583"
         x="107.87096"
         y="84.80645">E</tspan></text>
    <text
       xml:space="preserve"
       style="font-size:3.175px;fill:#000000;stroke-width:0.264583"
       x="89.774193"
       y="56.419353"
       id="text251"><tspan
         sodipodi:role="line"
         id="tspan249"
         style="stroke-width:0.264583"
         x="89.774193"
         y="56.419353">F</tspan></text>
    <text
       xml:space="preserve"
       style="font-size:3.175px;fill:#000000;stroke-width:0.264583"
       x="68.838707"
       y="92.6129"
       id="text255"><tspan
         sodipodi:role="line"
         id="tspan253"
         style="stroke-width:0.264583"
         x="68.838707"
         y="92.6129">G</tspan></text>
    <text
       xml:space="preserve"
       style="font-size:3.175px;fill:#000000;stroke-width:0.264583"
       x="92.967743"
       y="132.35484"
       id="text259"><tspan
         sodipodi:role="line"
         id="tspan257"
         style="stroke-width:0.264583"
         x="92.967743"
         y="132.35484">H</tspan></text>
    <path
       style="fill:#000000;stroke-width:0.264583"
       d="m 32.290321,55 c 1.603409,1.302803 0.564063,3.111535 1.064517,4.612902 0.423172,1.269516 0.354838,0.814404 0.354838,2.483872 0,0.62484 -0.197448,1.536686 0,2.129033 0.0529,0.158686 0.236561,0.236559 0.35484,0.354838 0.11828,0.236558 0.290693,0.453093 0.354838,0.709676 0.114748,0.458994 -0.114747,0.960363 0,1.419354 0.19348,0.77392 1.258205,2.194113 1.419355,2.838712 0.229127,0.916506 0.06926,1.984815 0.709679,2.83871 0.158686,0.211584 0.550986,0.143253 0.709676,0.354838 0.448839,0.598453 0.260839,1.53058 0.709678,2.129033 0.158689,0.211585 0.522661,0.16782 0.709676,0.354838 2.333133,2.333133 -0.667078,-0.179761 1.064517,2.12903 0.260837,0.347785 0.901155,0.219597 1.064517,0.709679 0.0748,0.22442 -0.05738,0.480182 0,0.709679 0.252536,1.010145 1.148577,2.714233 1.774192,3.548385 0.200729,0.267637 0.537557,0.422807 0.709679,0.709679 0.583824,0.973042 1.040717,2.876359 1.774192,3.903226 0.853319,1.194644 2.37788,1.970042 3.193548,3.193547 0.216095,0.324141 0.302884,0.861121 0.709678,1.064516 0.105794,0.0529 0.271203,-0.08364 0.354838,0 0.08364,0.08364 -0.08364,0.271204 0,0.354838 0.08364,0.08364 0.271203,-0.08363 0.354841,0 0.167272,0.167273 -0.105794,0.498094 0,0.709679 0.0367,0.0734 1.362287,1.717125 1.419355,1.774193 1.813358,1.813361 -0.494906,-1.487832 1.419354,1.064516 0.158689,0.211585 0.134776,0.56297 0.354838,0.709676 0.196829,0.13122 0.542404,-0.167272 0.709679,0 0.06621,0.06621 0.1701,1.280803 0.354838,1.419355 0.903171,0.677378 2.065454,0.646099 2.838709,1.419357"
       id="path324" />
    <path
       style="fill:#000000;stroke-width:0.264583"
       d="m 34.419354,50.387096 c 1.262171,0.41991 2.631702,0.346384 3.903226,0.709679 0.971698,0.277627 1.872816,0.767318 2.83871,1.064514 0.576439,0.177366 1.209484,0.143073 1.774192,0.35484 0.399312,0.149741 0.674809,0.536475 1.064517,0.709676 4.23582,1.882587 9.333716,2.923879 13.838711,3.903226 3.469113,0.754155 8.299458,0.601342 11.354837,2.129033 0.423172,0.211585 0.980077,-0.175712 1.419354,0 0.310619,0.124246 0.410454,0.560065 0.709679,0.709676 0.595281,0.297641 1.542261,0.06146 2.129033,0.354841 0.5104,0.255199 1.446504,0.381989 1.774193,0.709676 0.08364,0.08364 -0.08364,0.271203 0,0.354838 0.164028,0.164031 0.850273,-0.107119 1.064516,0 0.763511,0.381757 1.891507,0.709679 2.83871,0.709679"
       id="path326" />
    <path
       style="fill:#000000;stroke-width:0.264583"
       d="m 82.322579,32.645162 c 0,0.946234 -0.07257,1.89526 0,2.838709 0.11358,1.476534 0.721646,2.886583 1.064517,4.258064 0.333965,1.335863 -0.333965,2.922201 0,4.258064 0.06414,0.256585 0.290692,0.453093 0.354838,0.709678 0.646308,2.585228 -0.423506,6.467266 0.35484,9.580645 0.05737,0.229497 -0.105793,0.498091 0,0.709678 0.587108,1.174216 2.899635,2.301095 2.483869,3.548386 -0.0529,0.158689 -0.292714,0.19953 -0.354838,0.35484 -0.181118,0.452798 -0.136742,0.98316 -0.354838,1.419355 -0.304808,0.609616 -1.774193,1.724043 -1.774193,2.483869"
       id="path328" />
    <path
       style="fill:#000000;stroke-width:0.264583"
       d="m 31.580645,50.387096 c 3.570314,-1.212903 6.950924,-3.405547 10.645161,-4.258064 0.92918,-0.214426 1.913581,-0.123558 2.838709,-0.354838 3.454525,-0.863632 1.888173,-0.956776 4.612905,-1.774195 0.577673,-0.173302 1.202031,-0.164119 1.774193,-0.354838 0.501816,-0.167272 0.910743,-0.564362 1.419354,-0.709679 1.055238,-0.301495 2.121948,-0.173876 3.193547,-0.709676 0.381442,-0.190719 0.665208,-0.559938 1.064517,-0.709679 4.135049,-1.55064 -0.986994,1.404909 4.258064,-1.419354 2.802895,-1.50925 5.513816,-3.202758 8.161292,-4.96774 1.16698,-0.777989 2.343775,-1.795523 3.548386,-2.483871 0.947684,-0.541534 2.094883,-1.030367 2.838709,-1.774196"
       id="path330" />
    <path
       style="fill:#000000;stroke-width:0.264583"
       d="m 115.32259,90.129031 c -0.25017,1.490147 -0.0582,3.129786 -0.35484,4.612902 -0.12157,0.607817 -1.30917,1.908659 -1.41936,2.129034 -0.21809,0.436194 -0.13674,0.983162 -0.35484,1.419354 -0.62259,1.245193 -1.2768,1.489603 -2.12903,2.483869 -2.04774,2.38903 -3.88104,4.88536 -5.67742,7.45161 -1.03673,1.48104 -2.56188,2.77831 -3.54838,4.25807 -0.20748,0.31121 -0.1624,0.74378 -0.35484,1.06451 -0.17213,0.28687 -0.52411,0.43132 -0.70968,0.70968 -0.29342,0.44012 -0.40223,0.98892 -0.70969,1.41935 -0.291668,0.40835 -0.776739,0.65342 -1.064513,1.06452 -0.698341,0.99763 -1.043535,2.21934 -1.774192,3.19355 -0.200727,0.26763 -0.537557,0.42281 -0.709679,0.70968 -0.466008,0.77668 -0.522991,2.11667 -1.064514,2.83871 -0.158689,0.21158 -0.56297,0.13477 -0.709679,0.35483 -0.499668,0.74951 -0.846042,1.60998 -1.064516,2.48387 -0.05737,0.2295 0.13122,0.51285 0,0.70968 -0.146706,0.22006 -0.573601,0.12805 -0.709676,0.35484 -0.25091,0.41818 -0.162732,0.97111 -0.354838,1.41936 -0.504569,1.17732 -1.50975,1.87132 -1.774196,3.19355 -0.554773,2.77386 0.951842,-1.90369 -0.709676,1.41935 -0.144364,0.28873 -0.210476,1.48547 -0.35484,1.77419 -0.452739,0.90548 -1.158719,1.79617 -1.419355,2.83871 -0.230089,0.92036 -0.473988,1.95292 -1.064514,2.83871 -0.493596,0.74039 -0.0058,1.7742 -0.709678,1.7742"
       id="path332" />
    <path
       style="fill:#000000;stroke-width:0.264583"
       d="m 117.09677,85.870967 c 1.41778,-6.178915 1.19333,-12.518967 0.70968,-18.806451 -0.0454,-0.589656 0.10579,-1.192337 0,-1.774195 -0.13382,-0.736 -0.57586,-1.393031 -0.70968,-2.129031 -0.10579,-0.581858 0.0535,-1.185225 0,-1.774195 -0.0651,-0.71651 -0.29509,-1.41205 -0.35484,-2.129031 -0.3538,-4.245655 0.56504,-7.35898 1.06452,-11.354839 0.23495,-1.879579 1.19254,-3.577617 1.77419,-5.322581 0.5363,-1.608894 0.94991,-3.324685 1.41936,-4.967742 0.20011,-0.700379 0.70968,-1.766068 0.70968,-2.483869"
       id="path334" />
    <path
       style="fill:#000000;stroke-width:0.264583"
       d="m 150.80645,71.32258 c -0.82796,0.591397 -1.68935,1.138579 -2.48387,1.774193 -2.12047,1.696373 0.11277,0.60566 -2.83871,2.483871 -2.57407,1.638046 -5.51259,2.744523 -8.16129,4.258064 -0.59881,0.34218 -1.28652,0.576836 -1.7742,1.064516 -0.0836,0.08364 0.11221,0.317437 0,0.354838 -0.33663,0.11221 -0.74713,-0.158686 -1.06451,0 -0.23656,0.118282 -0.14326,0.55099 -0.35484,0.709679 -0.16833,0.126251 -4.25741,2.128845 -4.25806,2.129033 -0.34119,0.09748 -0.72028,-0.08606 -1.06452,0 -0.32456,0.08114 -0.41045,0.560062 -0.70968,0.709676 -0.10579,0.0529 -0.2712,-0.08364 -0.35483,0 -0.0836,0.08364 0.0836,0.271203 0,0.354838 -0.0836,0.08364 -0.27121,-0.08364 -0.35485,0 -0.0836,0.08364 0.1058,0.301943 0,0.354841 -0.21158,0.105791 -0.49809,-0.105794 -0.70967,0 -2.29374,1.146868 0.54439,0.212669 -1.06452,1.419355 -0.39014,0.292608 -1.07451,0.01 -1.41935,0.354838 -0.18702,0.187015 -0.16783,0.52266 -0.35484,0.709678 -0.0836,0.08364 -0.24905,-0.0529 -0.35484,0 -0.51751,0.258752 -0.56765,0.567645 -0.70968,0.709676 -0.22958,0.229582 -1.04885,0.339175 -1.41935,0.709679"
       id="path336" />
    <path
       style="fill:#000000;stroke-width:0.264583"
       d="m 147.25806,69.548387 c -8.31165,-0.464592 -16.59748,-2.32097 -24.83871,-3.548388 -4.73338,-0.704971 -9.18401,-0.39956 -13.83871,-1.064516 -0.59704,-0.08529 -1.17574,-0.280033 -1.77419,-0.354838 -0.0454,-0.0057 -1.51085,0.131672 -1.77419,0 -1.03698,-0.518491 -2.38616,-0.515975 -3.54839,-0.709679 -0.84937,-0.14156 -1.643287,-0.52288 -2.483871,-0.709676 -2.629609,-0.584359 -5.481666,-1.151392 -8.16129,-1.419354 -3.022954,-0.302297 -5.649682,0.354838 -8.51613,0.354838"
       id="path338" />
    <path
       style="fill:#000000;stroke-width:0.264583"
       d="m 121,34.064516 c -5.99142,-1.804868 -12.13981,-3.807221 -18.45161,-4.258064 -3.041685,-0.217265 -6.212951,-0.207536 -9.225809,-0.709678 -1.295863,-0.215977 -2.560498,-1.227537 -3.903226,-1.419355 -1.895226,-0.270745 -3.705024,-0.354838 -5.677421,-0.354838 -0.146109,0 -0.970587,0.09393 -1.064517,0 -0.08364,-0.08364 0.08364,-0.271203 0,-0.35484 -0.338339,-0.338339 -1.838881,0 -2.483869,0"
       id="path340" />
    <path
       style="fill:#000000;stroke-width:0.264583"
       d="m 58.548386,98.999999 c 2.381107,0.840719 2.201531,3.198651 2.838709,5.322581 1.58546,5.28486 0.601578,7.32702 1.064517,12.41935 0.201131,2.21244 0.990904,4.24484 1.419354,6.3871 0.04639,0.23197 -0.07481,0.48526 0,0.70968 0.167272,0.50182 0.542407,0.91753 0.709679,1.41935 0.190719,0.57216 0.109892,1.22307 0.354838,1.7742 0.240189,0.54042 0.800036,0.89039 1.064516,1.41935 0.334545,0.66909 0.375132,1.45994 0.709676,2.12903 1.345248,2.6905 1.02362,1.44125 2.483872,3.19355 0.724328,0.86919 1.331428,2.04111 2.129033,2.83871 0.418182,0.41818 0.970333,0.67964 1.419355,1.06452 0.381008,0.32658 0.638976,0.79855 1.064516,1.06451 1.35536,0.8471 1.789748,0.3704 2.838709,1.41936 0.187016,0.18701 0.167823,0.52266 0.354838,0.70967 1.195295,1.1953 0.224063,-0.48561 1.419355,0.70968 0.08364,0.0836 -0.105791,0.30195 0,0.35484 0.400214,0.20011 1.306444,0.19893 1.774195,0.35484 1.437741,0.47925 2.366092,1.38991 3.903226,1.77419"
       id="path342" />
    <path
       style="fill:#000000;stroke-width:0.264583"
       d="m 83.387096,63.16129 c -0.151723,1.823093 0.572399,3.537958 0.709678,5.322581 0.226036,2.93847 -0.244737,5.934149 0,8.870965 0.05975,0.716984 0.283247,1.413137 0.354838,2.129034 0.04708,0.47077 -0.09279,0.955423 0,1.419354 0.146706,0.733539 0.528244,1.403303 0.709676,2.129034 0.115462,0.46184 0.49752,3.319793 0.709679,3.903226 0.271153,0.745672 0.793361,1.383358 1.064517,2.12903 0.6591,1.812531 0.170214,1.702144 0.354838,3.548388 0.256696,2.566972 0.615939,5.195446 0.354838,7.806448 -0.298948,2.9895 -1.186805,5.93403 -1.774193,8.87097 -0.445643,2.22822 -0.620654,4.52262 -1.064517,6.74194 -0.426791,2.13396 -1.176771,4.20383 -1.419354,6.38709 -0.205944,1.85351 -0.307235,4.54369 0,6.3871 0.153453,0.92071 0.817515,1.38802 1.064516,2.12903 0.157197,0.4716 -0.225269,1.32366 0,1.77419 0.661408,1.32282 1.63058,5.04375 1.064517,6.74194 -0.158689,0.47607 -0.786159,0.64698 -1.064517,1.06452 -0.173445,0.26016 -0.152476,1.21699 -0.354838,1.41935 -0.08364,0.0836 -0.271203,-0.0836 -0.35484,0 -0.08364,0.0836 0.08364,0.2712 0,0.35484 -0.335275,0.33528 -1.34302,0.84893 -1.774193,1.06452"
       id="path344" />
    <path
       style="fill:#000000;stroke-width:0.264583"
       d="m 149.03226,67.774192 c 0.20653,-1.043202 -0.84605,-1.609976 -1.06452,-2.483871 -0.2226,-0.890381 0.18019,-1.937769 0,-2.838709 -0.38398,-1.91992 -0.63464,-3.743 -1.06452,-5.677419 -0.0773,-0.348041 -0.3817,-2.313956 -0.70967,-2.838709 -0.57796,-0.92473 -1.56799,-1.548789 -2.12904,-2.483871 -0.19243,-0.320731 -0.13041,-0.765292 -0.35483,-1.064517 -0.64829,-0.864375 -0.65612,0.107124 -1.06452,-0.709676 -0.16727,-0.334547 -0.1624,-0.743786 -0.35484,-1.064517 -0.41293,-0.688223 -1.194,-0.935863 -1.77419,-1.419354 -0.84702,-0.70585 -1.83882,-2.505414 -2.83871,-2.83871 -0.35121,-0.11707 -1.14204,-0.07752 -1.41936,-0.35484 -0.0836,-0.08364 0.0836,-0.271201 0,-0.354838 -0.0836,-0.08364 -0.2712,0.08364 -0.35484,0 -0.0836,-0.08364 0.0529,-0.249047 0,-0.354838 -0.39431,-0.788638 -1.2014,-1.767885 -1.77419,-2.483871 -0.62711,-0.783884 -3.69647,-3.090172 -4.6129,-3.548388 -1.5022,-0.7511 -3.04351,-1.501275 -4.61291,-2.129031 -0.39596,-0.158385 -0.65993,-0.574818 -1.06451,-0.709679 -0.24314,-0.08105 -1.97949,-0.205292 -2.12903,-0.354838 -0.0296,-0.0296 -0.35484,-0.610161 -0.35484,-0.709678"
       id="path346" />
    <path
       style="fill:#ff0000;stroke-width:0.264583"
       id="path460"
       d="m 18.950942,48.867946 c -1.180682,-0.0011 -2.352815,-0.02085 -3.525679,0.123245 -0.877084,0.194599 -1.399831,0.396984 -1.74557,1.259449 -0.344716,0.986996 -0.372806,2.037281 -0.517648,3.061814 -0.172035,1.006829 -0.263131,2.023528 -0.423865,3.031807 -0.235792,1.029441 -0.203783,1.993334 0.194731,2.968845 1.083036,1.95857 3.382478,3.206112 5.578107,3.494592 1.133589,0.108382 2.273333,0.113829 3.411026,0.113152 1.123667,0.07742 1.70604,-0.218122 2.423053,-1.074227 0.619245,-0.827444 1.130212,-1.745448 1.545555,-2.691855 0.316078,-0.781177 0.332097,-1.625832 0.355791,-2.455584 0.09863,-0.881735 -0.08878,-1.700356 -0.341791,-2.534976 -0.143366,-0.536884 -0.423187,-0.992153 -0.760832,-1.424503 0,0 -3.647299,-1.543823 -3.647299,-1.543823 v 0 c 0.357606,0.379484 0.677799,0.761857 0.828124,1.274763 0.242685,0.804018 0.520669,1.56465 0.403349,2.424485 -0.01747,0.780106 -0.01853,1.577883 -0.290324,2.320219 -0.382896,0.915323 -0.862638,1.807879 -1.470327,2.592805 -0.694242,0.758397 -1.241346,0.838888 -2.243331,0.789477 -1.121604,5.29e-4 -2.249854,0.003 -3.361065,-0.168857 -1.452662,-0.36717 -3.076299,-1.553803 2.088248,1.467094 0.126277,0.07386 -0.258319,-0.141307 -0.370627,-0.235054 -0.25165,-0.210058 -0.373148,-0.437615 -0.551456,-0.706712 -0.488724,-0.941986 -0.528021,-1.724515 -0.302815,-2.761999 0.16353,-1.010407 0.264077,-2.026843 0.425886,-3.037694 0.146958,-0.993839 0.157472,-2.017012 0.494156,-2.974994 0.236977,-0.6654 0.850475,-0.79366 1.49969,-0.904023 1.166764,-0.124497 2.338094,-0.08815 3.50999,-0.07882 0,0 -3.205077,-2.328624 -3.205077,-2.328624 z" />
    <path
       style="fill:#ff00ff;stroke-width:0.264583"
       id="path513"
       d="m 62.869492,22.612381 c -1.155647,0.09257 -2.352157,0.301852 -3.415207,0.789185 -0.617723,0.283181 -1.138172,0.670195 -1.697384,1.048827 -1.172721,0.85403 -2.064719,1.994601 -2.869679,3.186698 -0.172196,0.255011 -0.354888,0.505217 -0.495044,0.779151 -0.117295,0.229253 -0.182208,0.481732 -0.273311,0.722598 -0.03065,0.446947 -0.115713,0.784614 0.07412,1.20927 0.397361,0.888873 2.216464,1.774074 3.012514,2.258483 2.658562,1.224196 5.193852,3.477991 8.171195,4.099179 1.192956,0.09567 2.020091,-0.523237 2.797768,-1.342996 1.074719,-1.065998 1.734677,-2.363819 2.207189,-3.783742 0.308483,-1.075309 0.306517,-2.170708 -0.169297,-3.186547 -0.498372,-0.723228 -1.085403,-1.378447 -1.65618,-2.043958 0,0 -3.609766,-1.529158 -3.609766,-1.529158 v 0 c 0.552373,0.653327 1.104876,1.303496 1.649386,1.961555 0.601937,0.854202 0.589235,1.921124 0.352491,2.909001 -0.445349,1.371119 -1.090239,2.603117 -2.137884,3.61705 -0.73302,0.728845 -1.484931,1.218129 -2.565275,1.006994 -0.643401,-0.181446 -0.544534,-0.133059 -1.207596,-0.414994 -1.181555,-0.502401 -5.278712,-2.725264 -0.215265,0.104497 -1.591844,-0.957688 -0.490558,-0.285927 -1.97295,-1.211781 -0.178168,-0.111278 -0.906817,-0.520456 -1.087009,-0.75601 -0.238889,-0.31229 -0.190756,-0.63161 -0.207444,-0.996156 0.0717,-0.218884 0.11471,-0.449352 0.215104,-0.656648 0.130863,-0.270216 0.307798,-0.515855 0.473863,-0.765982 0.770919,-1.161164 1.646817,-2.254861 2.7969,-3.063041 0.578112,-0.376155 1.010473,-0.695321 1.647158,-0.964949 1.060456,-0.449088 2.236613,-0.630188 3.379796,-0.652901 0,0 -3.198196,-2.323625 -3.198196,-2.323625 z" />
    <path
       style="fill:#ff00ff;stroke-width:0.264583"
       id="path515"
       d="m 109.78976,30.843767 c -1.05272,1.214975 -2.17016,2.378644 -3.34842,3.471982 -1.18519,1.133141 -2.22284,2.384798 -2.79847,3.929438 -0.36133,1.719707 0.74066,2.508623 2.00086,3.405547 2.1265,1.207649 4.47271,3.043471 7.10006,3.065661 1.05781,-0.06208 1.73738,-0.294293 2.54354,-0.982554 0.87482,-0.75538 1.33613,-1.790343 1.78922,-2.823776 0.61606,-1.25993 1.24877,-2.519328 1.62942,-3.873447 0.33193,-1.300948 -0.24375,-2.520889 -0.7684,-3.683754 -0.0879,-0.166994 -0.1758,-0.333989 -0.2637,-0.500983 0,0 -3.60093,-1.608617 -3.60093,-1.608617 v 0 c 0.0946,0.15838 0.18917,0.316757 0.28376,0.475136 0.50316,1.077154 1.14319,2.214042 0.88781,3.439568 -0.33684,1.34616 -0.98771,2.580007 -1.59392,3.821025 -0.44263,0.971664 -0.86524,1.959356 -1.71435,2.655811 -0.68859,0.540562 -1.49874,0.771363 -2.37706,0.742712 -0.54373,-0.05332 -1.05492,-0.155612 -1.57704,-0.323456 -1.2923,-0.41543 -3.83787,-1.875952 1.31087,1.031581 -1.11306,-0.746564 -2.41939,-1.386514 -2.20842,-2.932959 0.52883,-1.497359 1.53317,-2.701502 2.68312,-3.781933 1.18239,-1.102304 2.29446,-2.277126 3.39669,-3.459001 0,0 -3.37464,-2.067981 -3.37464,-2.067981 z" />
    <path
       style="fill:#ff00ff;stroke-width:0.264583"
       id="path517"
       d="m 95.183784,48.407007 c -1.31133,-0.747395 -2.613289,-1.51148 -3.933989,-2.242187 -1.12867,-0.624462 -2.083247,-0.635958 -3.285043,-0.274074 -1.067821,0.49394 -1.92573,1.217694 -2.698617,2.088287 -0.741281,0.864074 -1.354463,1.859465 -1.773444,2.918444 -0.38395,1.223878 -0.453287,2.503972 -0.308586,3.770455 0.217339,1.44213 0.955799,2.698182 1.738701,3.899337 0.270833,0.403365 0.585856,0.787104 1.015439,1.031034 2.352302,1.335714 2.723721,2.026512 4.620308,2.225942 1.009113,0.06374 2.028227,-0.227457 2.985629,-0.527982 0.859962,-0.393199 1.633845,-0.964414 2.250477,-1.679863 0.627243,-0.747281 1.012548,-1.631077 1.37141,-2.526742 0.424839,-1.082653 0.614749,-2.216909 0.699188,-3.369825 -0.0083,-0.874858 0.196583,-1.808779 -0.06064,-2.667987 -0.05796,-0.193601 -0.153016,-0.374092 -0.229523,-0.561139 -0.517361,-0.873863 -1.296808,-1.528771 -2.071018,-2.164781 0,0 -3.645752,-1.460379 -3.645752,-1.460379 v 0 c 0.775189,0.588053 1.537875,1.211043 2.1277,1.993286 0.08768,0.157229 0.196315,0.304486 0.263048,0.471684 0.32225,0.807363 0.09288,1.739842 0.118023,2.575692 -0.07577,1.112314 -0.233339,2.214459 -0.642472,3.26027 -0.346421,0.852199 -0.719486,1.693989 -1.317495,2.405827 -0.578157,0.65505 -1.309524,1.175054 -2.124371,1.495777 -0.937371,0.263903 -1.910109,0.538406 -2.890007,0.382109 -1.521862,-0.308118 -2.518368,-1.295713 2.235668,1.573051 0.125233,0.07557 -0.268062,-0.11941 -0.3923,-0.196612 -0.403752,-0.250891 -0.396984,-0.306605 -0.704998,-0.679159 -0.777076,-1.156534 -1.570924,-2.339274 -1.820672,-3.739007 -0.17186,-1.203672 -0.122362,-2.417919 0.229161,-3.590041 0.391871,-1.02071 0.981437,-1.974612 1.701961,-2.796612 0.728652,-0.807908 1.542754,-1.494576 2.570128,-1.898081 0.623216,-0.140597 1.167006,-0.209698 1.800267,-0.04324 1.340049,0.352253 3.978085,2.201125 -1.520033,-1.1055 0,0 3.691847,1.432012 3.691847,1.432012 z" />
    <path
       style="fill:#ff00ff;stroke-width:0.264583"
       id="path1081"
       d="m 133.87291,60.106744 c -1.41138,0.667494 -2.35441,1.034706 -3.35475,2.287694 -0.9675,1.446924 -1.18324,3.16375 -1.39753,4.849704 -0.14406,1.591265 -0.32081,3.191446 -0.26397,4.79136 0.16722,1.179875 0.99958,1.929466 1.91368,2.590105 2.42504,1.633712 3.87561,2.883598 6.54479,2.559645 1.19024,-0.304006 2.41009,-0.478716 3.57718,-0.865804 1.27516,-0.48382 1.97188,-1.532358 2.50116,-2.73318 0.54718,-1.700874 0.6075,-3.491217 0.54613,-5.261134 -0.10457,-1.48477 -0.67857,-2.604439 -1.5717,-3.750315 -1.59877,-1.59507 -3.68375,-2.75181 -5.85432,-3.379068 -0.43262,-0.149418 -0.86493,-0.28507 -1.2893,-0.456642 0,0 3.11423,2.439236 3.11423,2.439236 v 0 c 0.43092,0.15176 0.8642,0.29559 1.29873,0.436695 1.42685,0.493363 2.95442,1.616948 -2.01759,-1.367327 -0.12907,-0.07746 0.27609,0.122582 0.40352,0.202689 0.17361,0.109128 0.56288,0.451676 0.7136,0.580364 0.96794,1.099169 1.52529,2.037556 1.7072,3.531478 0.083,1.713389 0.049,3.446074 -0.47408,5.097547 -0.48584,1.115129 -1.13611,2.040602 -2.33698,2.440882 -1.15386,0.346866 -2.3457,0.565079 -3.52695,0.795653 -0.54762,0.02885 -1.07032,0.04176 -1.60566,-0.106138 -0.17384,-0.04803 -0.6614,-0.279194 -0.50964,-0.181732 1.05504,0.677556 4.19781,2.451563 2.44998,1.462752 -0.86838,-0.587738 -1.77753,-1.188397 -2.05855,-2.265966 -0.13535,-1.579337 0.0751,-3.17446 0.1867,-4.749186 0.20208,-1.606571 0.41005,-3.261138 1.32609,-4.641424 0.90978,-1.113573 1.98026,-1.558115 3.27465,-2.117302 0,0 -3.29662,-2.190586 -3.29662,-2.190586 z" />
    <path
       style="fill:#000080;stroke-width:0.264583"
       id="path521"
       d="m 150.99811,64.839119 c -1.30758,-0.0104 -2.58692,-0.03419 -3.84433,0.359651 -0.91407,0.430135 -1.68964,1.124672 -2.4056,1.828622 -1.18882,1.551469 -1.72512,3.525825 -2.38238,5.341885 -0.36544,1.471112 -1.39378,3.101843 -0.95689,4.678783 0.18112,0.653772 0.51645,0.929759 0.94144,1.41609 2.438,2.117915 4.30938,3.00261 7.21024,3.23674 0.92355,0.01704 1.86526,0.115179 2.78095,-0.03585 1.21737,-0.235677 2.13031,-1.507781 2.8887,-2.407457 0.83872,-1.007779 1.49203,-2.131107 2.07248,-3.300627 0.60654,-0.972997 1.02439,-2.035323 1.30396,-3.142935 0.20179,-0.83209 0.62377,-1.719191 0.18775,-2.547032 -0.10437,-0.198168 -0.25355,-0.369282 -0.38033,-0.553921 -1.68851,-1.730881 -4.15655,-2.815712 -6.1754,-3.968681 0,0 3.01796,2.430293 3.01796,2.430293 v 0 c -5.42978,-3.19468 -1.43076,-0.998694 -0.42881,-0.0073 0.0975,0.118689 0.56883,0.658315 0.64456,0.859297 0.22832,0.60597 -0.23285,1.342808 -0.30788,1.926257 -0.26561,1.081566 -0.67975,2.115439 -1.25799,3.070548 -0.57142,1.137986 -1.19682,2.241288 -2.00615,3.23165 -0.74832,0.882801 -1.54853,1.977226 -2.7777,2.132163 -0.89838,0.07493 -1.80466,0.03889 -2.70344,-0.01291 -0.65367,-0.06726 -1.3067,-0.136435 -1.93532,-0.342553 -1.03278,-0.338643 -3.50154,-1.808485 2.079,1.349679 0.22099,0.125066 -0.42073,-0.284437 -0.63109,-0.426656 -0.36149,-0.337175 -0.85116,-0.720826 -1.05223,-1.199065 -0.58908,-1.401107 0.45657,-3.217844 0.8008,-4.5471 0.66175,-1.754352 1.22642,-3.642077 2.41426,-5.125112 0.67698,-0.656198 1.41107,-1.311029 2.29055,-1.674042 1.2479,-0.333505 2.52565,-0.285645 3.80852,-0.248688 0,0 -3.19563,-2.321761 -3.19563,-2.321761 z" />
    <path
       style="fill:#000080;stroke-width:0.264583"
       id="path523"
       d="m 86.816344,54.327911 c -1.261573,0.356725 -2.544506,0.620308 -3.823814,0.904296 -1.353605,0.317613 -2.351307,1.278157 -3.337925,2.195663 -0.840597,0.961035 -1.741686,1.861674 -2.659475,2.748579 -0.891042,0.916128 -1.462331,1.683663 -1.795999,2.924625 -0.255207,1.241134 -0.03519,2.410531 0.417888,3.567549 0.323569,0.735414 0.865293,1.260943 1.562028,1.650508 4.041048,2.259457 2.549938,1.814134 4.726787,2.369592 3.418194,0.490736 6.869237,0.682977 10.313881,0.882311 1.769769,0.0027 3.394739,0.361358 4.596424,-1.168442 0.489122,-1.016444 0.508474,-2.341443 0.234585,-3.429156 -0.09852,-0.391245 -0.261131,-0.763495 -0.391695,-1.145244 -0.888195,-1.945214 -2.105615,-3.697584 -3.864969,-4.929915 -5.433357,-2.890149 -2.479186,-1.644459 -5.174203,-2.540275 -0.350189,-0.116401 -0.712472,-0.204978 -1.045673,-0.363596 -0.411813,-0.19604 -1.595019,-0.881067 -1.178507,-0.695211 1.795148,0.801029 3.016737,1.823233 1.007978,0.290359 0,0 -3.53451,-1.4122 -3.53451,-1.4122 v 0 c 2.302737,1.813671 1.051173,0.897072 5.478772,3.506343 0.407704,0.240268 0.820817,0.474636 1.252823,0.667821 0.340839,0.152416 0.705548,0.24456 1.058669,0.365835 0.327528,0.112487 1.24968,0.556707 0.983271,0.335451 -0.748744,-0.621844 -1.643073,-1.043818 -2.464609,-1.565724 1.882698,1.147487 3.042004,2.756082 4.013295,4.720381 0.129913,0.354081 0.290721,0.698312 0.389736,1.062243 0.266483,0.979469 0.255834,2.179797 -0.144089,3.116408 -0.992939,1.252432 -2.824509,0.945751 -4.240236,0.963999 -3.468913,-0.167857 -6.95991,-0.346501 -10.371635,-1.034708 -1.76508,-0.57049 -0.733065,-0.296987 1.996503,1.405075 0.184275,0.114908 -0.390919,-0.19085 -0.575881,-0.304647 -0.457925,-0.281734 -0.805225,-0.633232 -1.066416,-1.103426 -0.480841,-1.120566 -0.767419,-2.10666 -0.544203,-3.346331 0.29959,-1.135375 0.866632,-1.91181 1.692018,-2.741549 0.908246,-0.89036 1.804699,-1.791031 2.643915,-2.747449 0.950034,-0.881298 1.918745,-1.746361 3.226403,-2.023581 1.299292,-0.299583 2.605363,-0.566166 3.896188,-0.901951 0,0 -3.277325,-2.223633 -3.277325,-2.223633 z" />
    <path
       style="fill:#000080;stroke-width:0.264583"
       id="path525"
       d="m 124.89139,85.258546 c -2.37443,-1.459309 -4.77232,-2.879553 -7.21991,-4.214495 -0.30629,-0.167055 -0.6294,-0.305072 -0.95925,-0.418737 -0.32776,-0.112943 -0.67151,-0.172609 -1.00727,-0.258913 -2.12762,-0.327113 -4.05832,0.289933 -5.85142,1.404855 -1.19318,0.805797 -2.15152,1.858145 -2.84268,3.114826 -0.45916,1.040246 -0.50752,2.189078 -0.54289,3.308866 -0.007,1.558613 1.1891,2.629929 2.30929,3.542575 2.3681,1.685401 4.94913,3.038258 7.7595,3.747616 1.59021,0.399243 3.22396,0.275619 4.8379,0.123664 1.61163,-0.277797 3.28628,-0.345281 4.76852,-1.084995 1.04603,-0.603105 1.49496,-1.589773 1.8941,-2.671715 0.10706,-0.90596 0.89789,-2.07037 0.93273,-2.93946 0.007,-0.178898 -0.046,-0.355119 -0.069,-0.532678 -0.46083,-0.929778 -1.2914,-1.614231 -2.01491,-2.338874 0,0 -3.57956,-1.482241 -3.57956,-1.482241 v 0 c 0.69666,0.692502 1.41314,1.37169 2.05318,2.116926 0.0484,0.131307 0.13277,0.254532 0.14524,0.393922 0.0642,0.717518 -0.80603,2.095452 -0.88587,2.882236 -0.38028,0.982035 -0.75628,1.891342 -1.7359,2.417649 -1.45976,0.656791 -3.08331,0.758788 -4.64983,0.996362 -1.60001,0.114078 -3.21307,0.191675 -4.77695,-0.243607 -0.78614,-0.2204 -1.54168,-0.46949 -2.29482,-0.787151 -0.24125,-0.101756 -0.93661,-0.46227 -0.71854,-0.317349 0.62957,0.41838 4.01485,2.420979 1.9454,1.165309 -0.82506,-0.625342 -2.10649,-1.599157 -2.38931,-2.651196 -0.0475,-0.176752 -0.0287,-0.364927 -0.0431,-0.547391 0.0259,-1.061802 0.0401,-2.153206 0.45517,-3.148799 0.63356,-1.20561 1.55415,-2.20609 2.68755,-2.966833 1.72396,-1.01695 3.65055,-1.601261 5.65606,-1.155068 0.32375,0.100912 0.65505,0.180181 0.97123,0.302739 1.0993,0.426096 2.89445,1.612675 -1.37144,-0.922385 -0.34805,-0.206833 0.70202,0.403614 1.04922,0.61187 0.34191,0.205086 0.67978,0.416854 1.01794,0.62806 0.26971,0.168447 0.53709,0.340588 0.80564,0.510881 0,0 3.66394,1.413531 3.66394,1.413531 z" />
    <path
       style="fill:#000080;stroke-width:0.264583"
       id="path527"
       d="m 88.945341,133.84981 c -1.550961,-0.31956 -2.990141,-1.25735 -4.593485,-1.33575 -0.308964,-0.0151 -0.617759,0.0335 -0.926642,0.0503 -1.905582,0.48956 -3.672559,1.50636 -5.1845,2.75356 -1.249635,1.01073 -1.579488,1.43351 -1.812681,3.0225 -0.132464,1.4481 -0.129688,2.90497 -0.127241,4.35797 0.0072,1.35017 0.0217,2.70023 0.02762,4.05042 0.02368,1.23507 0.215443,2.47485 0.921671,3.50661 2.383999,2.30307 4.627491,2.83201 7.564083,3.06535 1.658099,0.16485 3.213936,-0.45605 4.568089,-1.36235 0.239403,-0.23049 0.504116,-0.4373 0.718209,-0.69147 1.202267,-1.42734 2.121096,-3.55767 2.936542,-5.24805 0.548468,-1.37527 1.434213,-2.56068 2.195965,-3.81486 0.04275,-0.17194 0.139805,-0.33902 0.128264,-0.51583 -0.07333,-1.12351 -1.12499,-2.38275 -1.734037,-3.28812 0,0 -3.537529,-1.54467 -3.537529,-1.54467 v 0 c 0.469069,0.68764 1.651598,2.19868 1.80684,2.97621 0.02673,0.13389 -0.04319,0.26963 -0.06478,0.40444 -0.734332,1.28353 -1.589773,2.50371 -2.138177,3.88797 -0.798097,1.70512 -1.598475,3.71129 -2.874423,5.11456 -0.210444,0.23144 -0.468035,0.41515 -0.702053,0.62273 -1.346251,0.83892 -2.818966,1.35134 -4.427244,1.14866 -0.793941,-0.0722 -1.590807,-0.14148 -2.365068,-0.34478 -0.245581,-0.0645 -0.932127,-0.38053 -0.724977,-0.23371 0.718201,0.50903 4.031186,2.43614 2.259095,1.36775 -0.838462,-0.90622 -1.007555,-2.08599 -1.063898,-3.28516 -5.29e-4,-1.34805 0.0033,-2.6961 -0.01257,-4.04407 -0.01288,-1.43649 -0.04374,-2.87706 0.09405,-4.30909 0.213344,-1.46967 0.508055,-1.82205 1.655013,-2.78284 1.45646,-1.20115 3.1465,-2.21746 5.026716,-2.54737 0.294624,0.004 0.590862,-0.0182 0.883872,0.0129 1.579835,0.1676 3.087992,1.03081 4.610897,1.43904 0,0 -3.107619,-2.4328 -3.107619,-2.4328 z" />
    <path
       style="fill:#000080;stroke-width:0.264583"
       id="path529"
       d="m 83.973513,20.127606 c -1.478931,0.132202 -2.995443,-0.115861 -4.465577,0.137798 -1.286343,0.221947 -1.644078,0.49752 -2.857934,1.066103 -2.572242,1.4118 -4.989607,3.123555 -7.256753,4.985053 -1.063368,0.851293 -1.767771,1.939334 -2.252353,3.19249 -0.204687,0.669139 -0.540107,1.518161 0.02983,2.114026 0.143283,0.149802 0.329449,0.251685 0.494173,0.377526 1.371315,0.743728 2.715202,1.54042 4.113943,2.231184 0.18184,0.0898 2.102067,0.594532 2.207313,0.622559 1.180063,0.314256 2.35046,0.651428 3.522575,0.993968 0.624896,0.173673 1.092634,0.271579 1.674447,0.547995 0.245968,0.116858 0.948693,0.535175 0.709817,0.404431 -4.054338,-2.21901 -3.104021,-1.792782 -1.695257,-0.747659 1.675603,1.004123 3.590406,2.840865 5.725911,2.658014 0.901488,-0.19549 1.747332,-0.583324 2.547866,-1.033428 0.695529,-0.365193 1.37273,-0.741098 1.91294,-1.318559 0.630508,-0.871431 0.91031,-1.946605 1.214533,-2.965341 0.341043,-1.161391 0.455218,-2.367616 0.442188,-3.573407 0.01984,-0.945258 -0.30149,-1.670148 -0.947248,-2.332077 -0.664128,-0.534665 -1.401101,-0.938583 -2.026497,-1.524748 -1.238684,-1.074817 -2.90848,-1.780881 -4.280815,-2.478959 -0.12771,-0.06496 -0.284377,-0.03685 -0.425032,-0.06416 -0.53784,-0.104448 -0.362458,-0.0493 -0.804384,-0.370049 3.183647,1.643429 3.482435,2.55223 2.70523,0.958376 0,0 -3.543229,-1.631296 -3.543229,-1.631296 v 0 c 0.736716,2.046018 0.04407,0.527534 3.89777,3.142824 0.684692,0.283851 0.179054,0.102858 0.880494,0.282288 0.133538,0.03416 0.513913,0.187747 0.397502,0.113942 -5.335214,-3.382491 -3.646384,-2.161489 -2.476272,-1.449066 0.199334,0.184342 0.378502,0.390016 0.58113,0.570731 0.436026,0.38887 0.980618,0.607039 1.448494,0.949426 0.69352,0.618042 1.085627,1.076724 1.09982,2.066811 0.06198,1.165587 -0.08109,2.335543 -0.381165,3.463647 -0.283964,0.956408 -0.546152,1.977615 -1.153752,2.784713 -0.524579,0.530693 -1.18949,0.864293 -1.836031,1.224917 -0.765162,0.407004 -1.571244,0.790218 -2.445218,0.869792 -0.375772,-0.02707 -0.711325,-0.08042 -1.065485,-0.217199 -0.122413,-0.04728 -0.472033,-0.227796 -0.35976,-0.159859 0.834922,0.505217 4.288319,2.525937 2.529629,1.473787 -2.275552,-1.627417 -4.606592,-3.34922 -7.368302,-3.988249 -1.566619,-0.44563 -3.154471,-0.837782 -4.70856,-1.32479 -0.344527,-0.107966 -1.307078,-0.575985 -1.024696,-0.351005 0.788992,0.628611 1.717743,1.058302 2.576615,1.587455 -1.154586,-0.586853 -1.097428,-0.791588 -0.740243,-2.001972 0.439079,-1.196784 1.096044,-2.230691 2.085324,-3.059737 2.195851,-1.879573 4.547846,-3.621147 7.123316,-4.944316 0.500423,-0.209461 0.985777,-0.459373 1.501267,-0.628385 1.898433,-0.622428 3.937762,-0.310038 5.89312,-0.330159 0,0 -3.20068,-2.325432 -3.20068,-2.325432 z" />
    <path
       style="fill:#000080;stroke-width:0.264583"
       id="path531"
       d="m 124.94978,27.980351 c -1.61469,-0.531915 -3.17286,-1.344644 -4.87652,-1.56934 -0.80662,-0.106385 -1.64277,-0.05127 -2.45124,-0.02803 -1.70956,0.352482 -3.70817,0.75074 -5.12899,1.843173 -0.26464,0.203475 -0.49046,0.452985 -0.73569,0.679477 -1.27363,1.455851 -2.19622,3.161784 -2.865,4.967128 -0.3903,1.331841 -0.70519,2.723391 -0.47227,4.107056 0.077,0.187092 0.13407,0.383662 0.23094,0.561271 0.96459,1.76865 4.47508,3.132709 5.62264,3.750077 1.79806,0.289187 3.6524,0.255397 5.44526,-0.05097 1.55807,-0.416679 2.96258,-1.206986 4.39973,-1.912331 0.90623,-0.485627 1.88667,-0.874641 2.74971,-1.440397 0.43496,-0.285128 0.88997,-0.677638 1.28871,-1.004668 1.1649,-0.988949 2.14689,-2.092664 2.7523,-3.500768 0.34206,-1.159042 0.25595,-2.406769 0.0979,-3.592311 -0.079,-0.17811 -0.12359,-0.37591 -0.23703,-0.534329 -0.28502,-0.398034 -0.79364,-0.739481 -1.20527,-0.973974 -1.35657,-0.772784 -2.73107,-1.513647 -4.09661,-2.270471 0,0 3.03129,2.413103 3.03129,2.413103 v 0 c -6.63839,-4.013118 -1.66776,-1.106022 -1.30847,-0.768863 0.12175,0.11426 0.19229,0.273031 0.28844,0.409545 0.22149,1.105215 0.28548,2.305392 0.0116,3.402989 -0.54269,1.364763 -1.4897,2.420721 -2.61542,3.354218 -1.22667,0.95853 -2.56909,1.731754 -3.98769,2.375726 -1.41189,0.684247 -2.80441,1.443678 -4.3418,1.812994 -1.76729,0.259199 -3.60789,0.329803 -5.34922,-0.124442 0.91985,0.56401 1.84102,1.125889 2.75956,1.692029 0.15107,0.09311 -0.3097,-0.174101 -0.4571,-0.27292 -0.63199,-0.423709 -1.22467,-0.921597 -1.55447,-1.622177 -0.047,-0.176638 -0.11605,-0.34885 -0.14108,-0.52992 -0.15625,-1.130221 0.24175,-2.315295 0.48157,-3.399452 0.62888,-1.756291 1.48087,-3.428605 2.75042,-4.815689 0.23433,-0.205986 0.45179,-0.432911 0.70299,-0.617961 1.42017,-1.046207 3.28631,-1.419447 4.98328,-1.694121 0.9064,-0.0097 1.47949,-0.05422 2.38537,0.0953 1.71106,0.282432 3.30025,1.075971 4.9036,1.692222 0,0 -3.06139,-2.433185 -3.06139,-2.433185 z" />
    <path
       style="fill:#000080;stroke-width:0.264583"
       id="path1324"
       d="m 254.8211,63.384855 c 0.10948,1.215647 0.18139,2.435265 0.32845,3.64694 0.51693,4.259286 1.21185,8.495083 1.81411,12.743146 0.94658,6.676837 1.83319,13.357939 2.66918,20.049378 0.28652,2.235801 0.64436,5.420371 1.09748,7.737711 0.13471,0.68893 0.33882,1.36246 0.50823,2.04369 0,0 3.32781,1.58048 3.32781,1.58048 v 0 c -0.22415,-0.69527 -0.49071,-1.37826 -0.67246,-2.0858 -0.6906,-2.68836 -0.99991,-5.11613 -1.44714,-7.88998 -0.9877,-6.701569 -1.97376,-13.403539 -2.82445,-20.124292 -0.34807,-2.74992 -1.16417,-9.443 -1.36782,-12.49373 -0.0772,-1.156986 -0.0425,-2.318735 -0.0637,-3.478104 0,0 -3.36968,-1.729439 -3.36968,-1.729439 z" />
  </g>
</svg>
