<?xml version="1.0" encoding="UTF-8" standalone="no"?>
<!-- Created with Inkscape (http://www.inkscape.org/) -->

<svg
   width="210mm"
   height="297mm"
   viewBox="0 0 210 297"
   version="1.1"
   id="svg12"
   inkscape:version="1.2.2 (732a01da63, 2022-12-09)"
   sodipodi:docname="graph6mitunterschied.svg"
   xmlns:inkscape="http://www.inkscape.org/namespaces/inkscape"
   xmlns:sodipodi="http://sodipodi.sourceforge.net/DTD/sodipodi-0.dtd"
   xmlns="http://www.w3.org/2000/svg"
   xmlns:svg="http://www.w3.org/2000/svg">
  <sodipodi:namedview
     id="namedview14"
     pagecolor="#ffffff"
     bordercolor="#000000"
     borderopacity="0.25"
     inkscape:showpageshadow="2"
     inkscape:pageopacity="0.0"
     inkscape:pagecheckerboard="0"
     inkscape:deskcolor="#d1d1d1"
     inkscape:document-units="mm"
     showgrid="false"
     inkscape:zoom="0.74564394"
     inkscape:cx="396.97231"
     inkscape:cy="561.9304"
     inkscape:window-width="1920"
     inkscape:window-height="1017"
     inkscape:window-x="-8"
     inkscape:window-y="-8"
     inkscape:window-maximized="1"
     inkscape:current-layer="layer1" />
  <defs
     id="defs9" />
  <g
     inkscape:label="Ebene 1"
     inkscape:groupmode="layer"
     id="layer1">
    <ellipse
       style="fill:#241c1c;stroke-width:0.264583"
       id="path172"
       cx="21.467743"
       cy="56.596775"
       rx="4.0806451"
       ry="3.7258065" />
    <ellipse
       style="fill:#241c1c;stroke-width:0.264583"
       id="path174"
       cx="56.774193"
       cy="142.29033"
       rx="3.1935484"
       ry="3.5483871" />
    <ellipse
       style="fill:#241c1c;stroke-width:0.264583"
       id="path176"
       cx="117.09678"
       cy="15.967742"
       rx="4.2580643"
       ry="3.9032259" />
    <ellipse
       style="fill:#241c1c;stroke-width:0.264583"
       id="path178"
       cx="149.03226"
       cy="82.5"
       rx="4.6129031"
       ry="4.0806451" />
    <ellipse
       style="fill:#241c1c;stroke-width:0.264583"
       id="path180"
       cx="72.741936"
       cy="76.290321"
       rx="4.9677415"
       ry="4.2580643" />
    <ellipse
       style="fill:#241c1c;stroke-width:0.264583"
       id="path182"
       cx="165.35484"
       cy="26.258064"
       rx="4.2580643"
       ry="3.5483871" />
    <ellipse
       style="fill:#241c1c;stroke-width:0.264583"
       id="path184"
       cx="59.258064"
       cy="33.709675"
       rx="3.5483871"
       ry="2.8387096" />
    <ellipse
       style="fill:#241c1c;stroke-width:0.264583"
       id="path186"
       cx="81.435486"
       cy="126.5"
       rx="6.2096772"
       ry="3.7258065" />
    <ellipse
       style="fill:#241c1c;stroke-width:0.264583"
       id="path188"
       cx="24.306452"
       cy="187.88708"
       rx="5.8548388"
       ry="3.7258065" />
    <ellipse
       style="fill:#241c1c;stroke-width:0.264583"
       id="path190"
       cx="17.387096"
       cy="113.72581"
       rx="5.3225808"
       ry="4.0806451" />
    <ellipse
       style="fill:#241c1c;stroke-width:0.264583"
       id="path192"
       cx="112.83871"
       cy="57.30645"
       rx="6.032258"
       ry="6.2096772" />
    <ellipse
       style="fill:#241c1c;stroke-width:0.264583"
       id="path194"
       cx="107.51613"
       cy="106.45161"
       rx="7.8064518"
       ry="4.6129031" />
    <path
       style="fill:#241c1c;stroke-width:0.264583"
       id="path245"
       d="m 121.2342,17.458285 c 5.42373,1.133209 10.91492,1.934473 16.3781,2.859714 4.3841,0.68601 8.64167,1.871662 12.84279,3.27083 2.95311,1.092572 6.09137,1.494298 9.17282,2.060705 1.65448,0.346714 3.31479,0.660063 4.98322,0.931095 0,0 -0.77873,-0.585138 -0.77873,-0.585138 v 0 c -1.66456,-0.269556 -3.3208,-0.582578 -4.97197,-0.925141 -3.07928,-0.564399 -6.21221,-0.97479 -9.16217,-2.069364 -4.19412,-1.388848 -8.44604,-2.557466 -12.82093,-3.236012 -5.48194,-0.924511 -10.99433,-1.723189 -16.42732,-2.904074 0,0 0.78419,0.597385 0.78419,0.597385 z" />
    <path
       style="fill:#241c1c;stroke-width:0.264583"
       id="path247"
       d="m 166.33295,27.8346 c -0.38964,3.401642 -0.82925,6.797686 -1.41342,10.171827 -0.52337,2.733373 -0.97061,5.482153 -1.58712,8.19671 -0.80766,2.874631 -1.80921,5.690324 -2.74594,8.524885 -1.01502,3.180985 -2.2922,6.26972 -3.45633,9.397614 -0.86794,2.490261 -1.8778,4.92742 -2.72042,7.426422 -0.60615,1.881209 -1.31267,3.725043 -2.03276,5.564807 -0.55726,1.549897 -1.42821,2.952395 -2.17566,4.411141 0,0 0.85643,0.488487 0.85643,0.488487 v 0 c 0.74199,-1.465344 1.61016,-2.873362 2.16916,-4.42582 0.72103,-1.840945 1.43482,-3.683712 2.03703,-5.567894 0.83767,-2.500699 1.833,-4.943462 2.70051,-7.433826 1.16895,-3.12697 2.44742,-6.216267 3.46318,-9.397913 0.94009,-2.836288 1.94257,-5.6544 2.75471,-8.530539 0.62321,-2.715821 1.06667,-5.468186 1.58072,-8.205976 0.57997,-3.376424 1.00406,-6.774473 1.45239,-10.170279 0,0 -0.88248,-0.449646 -0.88248,-0.449646 z" />
    <path
       style="fill:#241c1c;stroke-width:0.264583"
       id="path249"
       d="m 148.97217,82.555182 c -2.29678,-0.9681 -4.55339,-2.025555 -6.76548,-3.173338 -1.10539,-0.626086 -2.29775,-1.08925 -3.39189,-1.736095 -0.0523,-0.0309 0.2168,0.106423 0.16811,0.07015 -0.25121,-0.187095 -0.51945,-0.350174 -0.77917,-0.525262 -1.83167,-1.437338 -3.50893,-3.063975 -5.18485,-4.677658 -0.97853,-0.9133 -1.97978,-1.803138 -3.01826,-2.647392 -1.28856,-1.023816 -2.63156,-1.979896 -3.97597,-2.929017 -0.72715,-0.483103 -1.32921,-1.15166 -2.0824,-1.598255 -0.42075,-0.249484 -0.85148,-0.481756 -1.27722,-0.722635 -1.40879,-0.730166 -2.85162,-1.39236 -4.30644,-2.025388 -1.34517,-0.456468 -2.5889,-1.110613 -3.81538,-1.816989 0,0 0.76111,0.61609 0.76111,0.61609 v 0 c 1.22878,0.704736 2.48052,1.344721 3.82304,1.809266 1.45536,0.636079 2.9003,1.29836 4.30714,2.036288 -0.13771,-0.08599 -0.25919,-0.206396 -0.41313,-0.25796 -0.13576,-0.04547 0.2408,0.15521 0.35682,0.239101 0.59581,0.430789 1.13929,0.928243 1.73368,1.360718 1.34719,0.943559 2.68604,1.904666 3.97776,2.92269 1.04438,0.838221 2.03976,1.736762 3.02706,2.641759 1.67653,1.615535 3.35993,3.236444 5.17795,4.69287 1.79466,1.22342 3.71755,2.198933 5.66503,3.151761 2.22175,1.147159 4.48725,2.204247 6.78801,3.183885 0,0 -0.77552,-0.614593 -0.77552,-0.614593 z" />
    <path
       style="fill:#241c1c;stroke-width:0.264583"
       id="path251"
       d="m 112.78155,59.090096 c -1.62438,-0.872061 -3.25908,-1.727261 -4.91354,-2.541029 -2.01965,-1.055304 -4.05441,-2.080305 -6.15993,-2.954316 -2.410872,-1.02144 -4.863199,-1.938769 -7.346666,-2.767545 C 92.321686,50.066942 90.24486,49.46638 88.126243,48.977544 86.254925,48.629731 84.606624,47.698583 82.95878,46.799161 80.782043,45.631285 78.595629,44.482284 76.376537,43.396844 73.967969,42.208658 71.554448,41.002002 69.238341,39.638374 67.291555,38.555205 65.635705,37.133429 64.278562,35.376495 63.845651,34.72789 63.337214,34.184719 62.6952,33.74867 c 0,0 -0.919588,-0.358981 -0.919588,-0.358981 v 0 c 0.657656,0.4157 1.170037,0.948835 1.603261,1.600311 1.352828,1.771814 3.004145,3.211814 4.958363,4.302286 2.876875,1.66316 5.78776,3.276521 8.790011,4.704059 2.222453,1.090639 4.412433,2.244466 6.593001,3.416422 1.649791,0.9003 3.308536,1.81025 5.181182,2.155309 2.115693,0.488624 4.186113,1.102383 6.225265,1.853774 2.482196,0.830865 4.933355,1.75016 7.342855,2.7735 2.10369,0.881433 4.13882,1.908386 6.16044,2.962579 1.65604,0.819983 3.29738,1.671397 4.92122,2.55333 0,0 -0.76966,-0.621163 -0.76966,-0.621163 z" />
    <path
       style="fill:#241c1c;stroke-width:0.264583"
       id="path253"
       d="m 58.902306,30.936824 c 0.621313,-0.127939 1.240512,-0.266597 1.863936,-0.383818 2.253279,-0.423677 4.128749,-0.705368 6.416329,-1.097748 4.051202,-0.694886 8.092982,-1.441874 12.133791,-2.194229 6.758744,-1.339919 13.52681,-2.685536 20.145507,-4.616707 2.751851,-0.776369 5.417571,-1.811237 8.130551,-2.704578 1.92514,-0.510916 3.83724,-1.072372 5.72561,-1.706657 0.25539,-0.08533 0.51078,-0.170667 0.76617,-0.256 0,0 -0.81089,-0.549937 -0.81089,-0.549937 v 0 c -0.25464,0.08585 -0.50927,0.171707 -0.76391,0.257561 -1.8878,0.634176 -3.80016,1.19155 -5.72332,1.707642 -2.70304,0.896671 -5.35712,1.938716 -8.098025,2.722782 -6.603409,1.942851 -13.356814,3.302096 -20.10583,4.632888 -6.816886,1.268976 -13.655894,2.40674 -20.47944,3.632639 0,0 0.799521,0.556162 0.799521,0.556162 z" />
    <path
       style="fill:#241c1c;stroke-width:0.264583"
       id="path255"
       d="m 15.818736,56.217343 c 5.539518,-1.860449 11.031315,-3.859488 16.508246,-5.89593 2.560658,-1.076113 5.244295,-1.894525 7.753027,-3.096622 1.182933,-0.566823 1.333058,-0.713439 2.439265,-1.426869 2.093659,-1.505363 3.882845,-3.370964 5.61753,-5.265073 1.355847,-1.500077 2.729966,-2.983432 4.12854,-4.443741 1.13207,-1.192765 2.26926,-2.375744 3.607488,-3.338327 0.177321,-0.105008 0.354639,-0.210016 0.53196,-0.315024 0,0 -0.826465,-0.534842 -0.826465,-0.534842 v 0 c -0.178184,0.107858 -0.356368,0.215715 -0.534554,0.323575 -1.335408,0.974463 -2.47873,2.159296 -3.616195,3.353917 -1.39346,1.464926 -2.762017,2.953152 -4.119168,4.451752 -1.73024,1.886722 -3.511164,3.748852 -5.600359,5.246441 -0.399021,0.255709 -0.787503,0.528664 -1.197065,0.76713 -2.799207,1.629844 -6.00035,2.461834 -8.946457,3.764262 -5.483002,2.049285 -10.98209,4.065534 -16.558139,5.849027 0,0 0.812346,0.560324 0.812346,0.560324 z" />
    <path
       style="fill:#241c1c;stroke-width:0.264583"
       id="path257"
       d="m 26.490006,57.245384 c 3.604469,1.171893 7.240114,2.233388 10.906289,3.193608 3.743648,1.014582 7.55419,1.734818 11.366656,2.43055 3.09808,0.560816 6.20653,1.062091 9.308357,1.602097 2.708843,0.495332 5.461174,0.583607 8.202271,0.749149 2.942545,0.206952 5.85829,0.655471 8.765632,1.138505 1.967862,0.309753 3.883821,0.830487 5.780569,1.42744 3.931886,1.171144 7.979264,1.919208 12.002439,2.703267 3.672068,0.65687 7.296391,1.551516 10.865531,2.631966 2.08023,0.636455 3.9621,1.740615 5.87743,2.746756 2.30993,1.163071 4.69869,2.181328 7.18151,2.9103 1.93583,0.630545 3.92367,1.044552 5.92453,1.401686 1.81977,0.339204 3.67094,0.386366 5.51137,0.516163 0.57308,0.04042 2.77032,0.246615 3.3311,0.298431 2.80059,0.186195 5.55633,0.723831 8.31917,1.188746 1.85575,0.323385 3.71235,0.643721 5.55475,1.036461 0,0 -0.77205,-0.585849 -0.77205,-0.585849 v 0 c -1.84324,-0.385336 -3.69893,-0.706808 -5.55388,-1.030811 -2.76173,-0.465952 -5.51738,-0.997773 -8.31754,-1.178563 -2.95049,-0.27251 -5.91805,-0.376957 -8.84851,-0.829413 -1.99873,-0.361331 -3.98297,-0.784206 -5.91838,-1.410419 -2.47666,-0.73809 -4.86241,-1.753783 -7.1662,-2.92244 -1.91746,-1.00684 -3.80246,-2.110893 -5.89032,-2.733328 -3.564091,-1.066173 -7.181387,-1.950247 -10.844816,-2.60418 -4.033858,-0.786971 -8.090863,-1.543116 -12.02827,-2.736474 -1.896565,-0.593971 -3.813567,-1.105488 -5.780929,-1.410595 -2.908893,-0.480083 -5.826498,-0.922731 -8.770011,-1.129262 -2.739483,-0.164989 -5.489684,-0.260607 -8.196302,-0.75813 -3.099292,-0.536053 -6.204633,-1.036846 -9.299689,-1.596569 -3.809153,-0.69277 -7.614452,-1.419588 -11.354877,-2.43069 -3.67724,-0.965111 -7.324016,-2.031969 -10.935503,-3.221226 0,0 0.779673,0.602824 0.779673,0.602824 z" />
    <path
       style="fill:#241c1c;stroke-width:0.264583"
       id="path259"
       d="m 146.78825,83.451167 c -1.43678,0.05791 -2.85253,0.303181 -4.21323,0.765064 -1.99217,0.900112 -3.83559,2.106602 -5.63617,3.338036 -2.16942,1.488453 -4.31273,3.003767 -6.59805,4.310539 -1.77407,1.057759 -3.64039,1.92387 -5.53232,2.744666 -2.59547,0.979585 -5.15068,2.061861 -7.73618,3.067433 -2.38383,0.808948 -4.46989,2.169626 -6.44384,3.699915 -1.49555,1.18223 -2.84184,2.53471 -4.18222,3.88565 0,0 0.82658,0.50591 0.82658,0.50591 v 0 c 1.33302,-1.35176 2.67418,-2.70303 4.16997,-3.87803 1.97466,-1.51506 4.05786,-2.863678 6.43037,-3.675909 2.58583,-1.011262 5.1465,-2.086123 7.74432,-3.066212 1.8969,-0.81729 3.76182,-1.69341 5.53731,-2.754481 2.28307,-1.31353 4.42542,-2.833275 6.59805,-4.319567 1.79748,-1.22555 3.64088,-2.424202 5.63469,-3.306844 1.35855,-0.448972 2.76887,-0.695243 4.20113,-0.734634 0,0 -0.80041,-0.581536 -0.80041,-0.581536 z" />
    <path
       style="fill:#241c1c;stroke-width:0.264583"
       id="path261"
       d="m 55.565886,141.41637 c -4.614085,-1.849 -8.982975,-4.23098 -13.336222,-6.61396 -3.483975,-1.99365 -6.88258,-4.13024 -10.219029,-6.36046 -2.342655,-1.6216 -4.428429,-3.56701 -6.407425,-5.60666 -1.126804,-1.32841 -2.454095,-2.42701 -3.8643,-3.43514 -1.48421,-1.14046 -2.821393,-2.47054 -3.968574,-3.94826 -0.898021,-1.23603 -1.143426,-2.75288 -1.476485,-4.20913 -0.72223,-3.71901 -0.794786,-7.52378 -0.895886,-11.299053 -0.08818,-4.361484 -0.08352,-8.724109 -0.08177,-13.08627 0.0041,-3.547412 0.0092,-7.094821 0.01236,-10.64223 0.01823,-2.469795 0.01908,-4.977566 0.460606,-7.417869 0.09449,-0.522242 0.224867,-1.037349 0.337301,-1.556022 0.704058,-2.888856 1.575973,-5.770859 2.889107,-8.44631 1.114198,-1.79805 2.437833,-1.545836 4.330797,-1.455644 3.511235,0.210743 7.027232,0.279111 10.537237,0.511471 3.929383,0.252923 7.816273,0.945306 11.632406,1.897367 1.344658,0.37429 2.683018,0.755483 3.970121,1.29812 0,0 -0.771673,-0.608457 -0.771673,-0.608457 v 0 c -1.287288,-0.526529 -2.621325,-0.905376 -3.96177,-1.273078 -3.818477,-0.938691 -7.704307,-1.624017 -11.632785,-1.876562 -3.516759,-0.232495 -7.039788,-0.302829 -10.55726,-0.52388 -1.943696,-0.08894 -3.267003,-0.296699 -4.394431,1.549355 -1.300382,2.690151 -2.173033,5.578948 -2.887562,8.473437 -0.114918,0.520075 -0.248551,1.036365 -0.344753,1.560224 -0.448787,2.443821 -0.441653,4.958614 -0.461619,7.432508 -9e-4,3.548782 -0.0036,7.097564 -0.0044,10.646347 0.0013,4.364071 0.0025,8.728519 0.08747,13.091943 0.09588,3.775793 0.161525,7.579753 0.861224,11.302843 0.326605,1.46558 0.560701,2.99362 1.450926,4.24419 1.141506,1.4864 2.48017,2.81988 3.956868,3.97463 1.41477,1.00484 2.756412,2.09078 3.882739,3.4235 1.980314,2.04494 4.064992,3.99845 6.407438,5.62867 3.85173,2.57523 7.792167,5.01575 11.830712,7.2888 4.373813,2.39177 8.765275,4.77325 13.391766,6.64935 0,0 -0.77315,-0.61377 -0.77315,-0.61377 z" />
    <path
       style="fill:#241c1c;stroke-width:0.264583"
       id="path263"
       d="m 71.614069,76.270357 c -4.679609,2.089023 -9.160404,4.649235 -13.409205,7.512772 -0.97573,0.657609 -1.923399,1.355924 -2.885099,2.033884 -3.716128,2.667495 -7.200114,5.638207 -10.731087,8.541888 -1.921065,1.61308 -4.019928,2.958012 -6.190244,4.20343 -1.663436,0.973248 -3.296441,2.000219 -4.850853,3.140369 -1.170328,0.88967 -2.330204,1.79351 -3.50916,2.67055 -1.258644,0.87915 -2.523316,1.7567 -3.744796,2.68714 -1.179182,0.9315 -2.3845,1.83861 -3.511807,2.83318 -0.657031,0.52825 -1.22666,1.15378 -1.808043,1.76145 0,0 0.839129,0.51172 0.839129,0.51172 v 0 c 0.580209,-0.60541 1.152137,-1.22416 1.804483,-1.75397 1.124643,-0.99366 2.326667,-1.90065 3.505063,-2.82892 1.223238,-0.92852 2.48674,-1.80718 3.746754,-2.68488 1.175491,-0.88067 2.337509,-1.77991 3.50493,-2.67219 1.551962,-1.13631 3.179086,-2.16424 4.839129,-3.135097 2.170972,-1.251186 4.271171,-2.601201 6.189631,-4.223068 3.515563,-2.910456 6.981121,-5.891501 10.685917,-8.562054 0.959686,-0.677741 1.904704,-1.376746 2.879058,-2.033222 4.252394,-2.865075 8.744479,-5.431348 13.458809,-7.453715 0,0 -0.812609,-0.549267 -0.812609,-0.549267 z" />
    <path
       style="fill:#241c1c;stroke-width:0.264583"
       id="path265"
       d="m 72.225944,76.318265 c 7.871,-2.954983 15.726021,-5.954927 23.631528,-8.816816 3.543725,-1.173149 7.005548,-2.641193 10.646738,-3.498919 1.26089,-0.279659 2.35638,-0.918334 3.41873,-1.621758 0,0 -0.82975,-0.531754 -0.82975,-0.531754 v 0 c -1.05439,0.695338 -2.14378,1.320607 -3.39301,1.597811 -3.62219,0.886084 -7.065629,2.365028 -10.594366,3.547617 -7.905353,2.892328 -15.762464,5.915179 -23.674713,8.789154 0,0 0.794843,0.534665 0.794843,0.534665 z" />
    <path
       style="fill:#241c1c;stroke-width:0.264583"
       id="path267"
       d="m 82.986247,121.04637 c -2.964659,-3.03476 -6.423002,-5.67591 -8.827397,-9.21913 -0.427935,-0.63062 -0.774298,-1.3129 -1.161447,-1.96935 -1.778614,-3.6059 -2.223667,-7.59506 -2.309109,-11.560262 0.02702,-2.699853 0.494636,-5.365583 0.826125,-8.038174 0.21691,-1.594154 0.551177,-3.164985 0.988766,-4.712274 0.352338,-1.300781 0.820497,-2.562799 1.279245,-3.828076 0,0 -0.857449,-0.475131 -0.857449,-0.475131 v 0 c -0.45911,1.267743 -0.928846,2.531594 -1.280583,3.835183 -0.444616,1.550546 -0.780711,3.126777 -0.994487,4.726504 -0.321675,2.680708 -0.781436,5.354037 -0.813628,8.060113 0.08257,3.979767 0.529937,7.984507 2.299716,11.609397 0.386832,0.66051 0.732372,1.34702 1.160492,1.98155 2.391119,3.54398 5.84519,6.17794 8.793659,9.21847 0,0 0.896097,0.37118 0.896097,0.37118 z" />
    <path
       style="fill:#241c1c;stroke-width:0.264583"
       id="path269"
       d="m 58.574349,140.55837 c -1.499748,3.64861 -3.259166,7.17859 -5.150307,10.63761 -1.813666,3.1917 -3.592158,6.40333 -5.493994,9.54373 -1.795473,3.03231 -3.805716,5.92339 -5.805006,8.82204 -1.327486,2.16068 -3.033276,4.0333 -4.600898,6.01226 -1.343638,1.77906 -2.974019,3.30684 -4.558723,4.8651 -1.641403,1.53492 -3.142982,3.21362 -4.790749,4.74143 -0.04893,0.0454 -2.569918,2.2765 -2.64938,2.34684 -1.692497,1.41093 -0.856658,0.72121 -2.506849,2.06999 0,0 0.814055,0.51003 0.814055,0.51003 v 0 c 1.648273,-1.35227 0.81296,-0.66074 2.505291,-2.07535 0.06261,-0.0555 2.62051,-2.32374 2.650254,-2.35132 1.648413,-1.5285 3.154151,-3.20446 4.799301,-4.73688 1.591178,-1.55877 3.231327,-3.08381 4.575768,-4.86913 1.562452,-1.98477 3.260627,-3.86558 4.588584,-6.02688 1.997453,-2.90214 4.006289,-5.79602 5.803225,-8.82956 1.904148,-3.14065 3.683415,-6.35367 5.493695,-9.54892 1.884116,-3.46642 3.635562,-7.00114 5.183825,-10.63181 0,0 -0.858092,-0.47918 -0.858092,-0.47918 z" />
    <path
       style="fill:#241c1c;stroke-width:0.264583"
       id="path271"
       d="m 58.36544,139.42125 c 4.184962,-2.61397 8.489484,-5.02938 12.701119,-7.59989 1.449077,-0.92884 2.937779,-1.80076 4.535826,-2.44949 1.223867,-0.49684 2.506461,-0.83737 3.76892,-1.21828 2.024703,-0.52849 4.014838,-1.23325 5.865487,-2.21439 0.271627,-0.22982 0.564137,-0.43701 0.814877,-0.68945 0.564608,-0.56843 1.494875,-1.78776 1.947945,-2.37821 1.180751,-1.53881 2.348058,-3.08882 3.517405,-4.63633 1.519462,-1.98354 2.988567,-4.00496 4.610235,-5.90705 1.071843,-1.30156 2.269469,-2.46538 3.57754,-3.52394 1.224476,-0.93084 2.714946,-1.24244 4.203086,-1.46215 0.90437,-0.15019 1.81395,-0.26192 2.7243,-0.36771 0,0 -0.79758,-0.56536 -0.79758,-0.56536 v 0 c -0.91077,0.10786 -1.8207,0.22201 -2.72601,0.37029 -1.50396,0.22765 -3.00357,0.55265 -4.234644,1.50382 -1.310026,1.06477 -2.509181,2.23417 -3.580823,3.543 -1.621123,1.90435 -3.083914,3.93129 -4.595309,5.92263 -1.166752,1.54877 -2.333755,3.09879 -3.520483,4.63233 -0.457758,0.59154 -1.379357,1.7864 -1.951185,2.35274 -0.248463,0.24608 -0.538348,0.44646 -0.807519,0.6697 -1.847131,0.97262 -3.828624,1.6755 -5.845982,2.20484 -1.265137,0.38173 -2.548993,0.72601 -3.772908,1.23068 -1.594072,0.65731 -3.077126,1.53893 -4.522221,2.47281 -4.210955,2.58656 -8.513686,5.01753 -12.741429,7.5759 0,0 0.829353,0.53351 0.829353,0.53351 z" />
    <path
       style="fill:#ff00ff;stroke-width:0.264583"
       id="path273"
       d="m 152.87956,71.078793 c -2.29342,0.207984 -4.59703,0.339272 -6.86206,0.772268 -1.39586,0.327769 -2.35329,1.30097 -3.13225,2.447166 -0.69956,1.078598 -1.42206,2.137966 -1.98767,3.295388 -0.59042,1.24238 -0.97402,2.579426 -1.22746,3.928454 -0.0424,0.64974 -0.12986,1.370163 0.005,2.017244 0.36971,1.772462 1.47497,3.279487 2.55288,4.679461 1.07082,1.329033 2.32554,2.053547 3.95315,2.564944 0,0 -0.77178,-0.598551 -0.77178,-0.598551 v 0 c -0.29356,-0.09805 -0.58205,-0.212828 -0.88067,-0.294166 -0.0268,-0.0073 0.0712,0.08418 0.0489,0.0676 -0.89011,-0.660985 -0.67036,-0.505611 -1.45909,-1.357768 -1.07715,-1.379844 -2.19491,-2.870859 -2.57331,-4.625229 -0.13806,-0.640125 -0.051,-1.348864 -0.009,-1.99182 0.25129,-1.340289 0.62912,-2.670196 1.21717,-3.903885 0.5645,-1.152689 1.28118,-2.209945 1.98035,-3.283283 0.77122,-1.125879 1.70639,-2.075717 3.08621,-2.385351 2.26322,-0.430228 4.56424,-0.573722 6.8574,-0.760005 0,0 -0.79774,-0.572463 -0.79774,-0.572463 z" />
    <path
       style="fill:#ff00ff;stroke-width:0.264583"
       id="path324"
       d="m 153.22371,70.695904 c 1.46853,2.278856 3.25979,4.324104 4.60395,6.682708 0.56118,1.153411 1.09276,2.428176 0.7001,3.725119 -0.08,0.264081 -0.21038,0.510164 -0.31557,0.765246 -0.83437,1.385136 -1.90151,2.675052 -3.31762,3.483859 -1.65136,0.596895 -3.41855,0.743577 -5.14854,0.970275 -0.94438,0.156167 -1.88453,0.335274 -2.82975,0.48637 0,0 0.80642,0.56633 0.80642,0.56633 v 0 c 0.94189,-0.154802 1.8789,-0.336431 2.8212,-0.488818 1.73996,-0.22987 3.52188,-0.373954 5.1755,-0.998699 1.42318,-0.836525 2.49999,-2.138349 3.34691,-3.540834 0.10923,-0.260582 0.24382,-0.511934 0.32769,-0.781751 0.40979,-1.318305 -0.10649,-2.612596 -0.67793,-3.790794 -1.33647,-2.36157 -3.13268,-4.400272 -4.59513,-6.681348 0,0 -0.89723,-0.397663 -0.89723,-0.397663 z" />
    <path
       style="fill:#ff00ff;stroke-width:0.264583"
       id="path326"
       d="m 114.85866,46.810112 c -3.16206,-0.478549 -6.34661,-0.290084 -9.50361,0.09696 -1.73421,0.305297 -3.90437,0.417248 -4.97928,2.063033 -0.572078,0.875905 -0.44502,1.202623 -0.484159,2.210077 0.427499,2.657068 2.256789,4.639914 3.959279,6.595031 1.6879,2.082549 3.51358,2.775434 5.98976,3.620836 2.52021,0.842775 5.05844,1.627741 7.57081,2.494037 1.70795,0.675788 2.64891,0.421772 4.33749,-0.131607 0.22493,-0.09572 1.10453,-0.446267 1.31616,-0.62448 1.0391,-0.875025 1.23886,-2.561431 1.48405,-3.791545 0.23714,-1.964862 0.337,-3.988075 -0.18627,-5.914017 -0.0737,-0.176993 -0.12156,-0.367181 -0.22123,-0.530982 -0.60752,-0.998381 -2.2719,-1.675019 -3.36621,-1.789861 -0.41655,-0.04371 -0.83721,-0.02784 -1.25582,-0.04176 -1.91184,0.102055 -0.95671,0.02045 -2.86532,0.24551 0,0 0.7863,0.557493 0.7863,0.557493 v 0 c 1.90465,-0.218086 0.95119,-0.141433 2.86031,-0.23055 0.41734,0.01971 0.83725,0.0089 1.25202,0.05917 0.31765,0.03848 0.61756,0.207401 0.93753,0.206076 0.0879,-2.65e-4 -0.24217,-0.241911 -0.16052,-0.209299 0.56986,0.227632 0.94525,0.762572 1.14464,1.311725 0.55001,1.908625 0.45011,3.925453 0.22007,5.879719 -0.23855,1.196472 -0.42855,2.866078 -1.45177,3.710003 -0.21597,0.178126 -1.07419,0.516131 -1.30346,0.612714 -1.68492,0.544627 -2.60741,0.748176 -4.30007,0.0807 -2.50885,-0.859999 -5.04491,-1.634884 -7.55747,-2.483699 -0.48412,-0.167942 -0.96824,-0.335881 -1.45236,-0.503823 -0.38461,-0.159707 -0.76295,-0.335436 -1.15383,-0.479118 -0.0523,-0.01924 0.175,0.138261 0.13154,0.103333 -0.67158,-0.539652 -1.29332,-1.121836 -1.86166,-1.772838 -1.6958,-1.939213 -3.5322,-3.896394 -3.99037,-6.529178 0.0258,-0.977344 -0.10446,-1.297435 0.45078,-2.148546 1.0566,-1.619647 3.22917,-1.709936 4.92734,-2.016983 3.16062,-0.38241 6.3531,-0.566679 9.51395,-0.05104 0,0 -0.78862,-0.597093 -0.78862,-0.597093 z" />
    <path
       style="fill:#ff00ff;stroke-width:0.264583"
       id="path328"
       d="m 27.386727,49.214211 c -2.331582,0.72589 -4.777631,1.064112 -7.051947,1.965301 -0.297579,0.17394 -0.623046,0.307168 -0.892737,0.52182 -2.302738,1.832782 -3.774288,5.488323 -4.8953,8.132778 -0.972364,2.450028 -1.659191,5.026371 -1.788425,7.665582 0.09973,0.192 0.12072,0.4537 0.299192,0.576001 0.478425,0.32785 1.022132,0.579562 1.585886,0.715785 0.342146,0.08268 0.70548,-0.0227 1.053088,-0.07811 1.402947,-0.22357 2.663323,-0.803994 3.94204,-1.389282 1.161848,-0.576966 2.251763,-1.259752 3.266986,-2.064821 0.213937,-0.169654 1.129493,-0.896131 1.294414,-1.187609 0.185323,-0.327538 0.246819,-0.711047 0.370229,-1.06657 0.04652,-0.459758 0.116601,-0.917742 0.139549,-1.379278 0.07755,-1.559676 -0.02745,-3.133236 -0.03117,-4.693729 -0.0022,-0.928172 0.02449,-1.59044 0.052,-2.507428 0.02744,-0.333385 0.05488,-0.666768 0.08232,-1.000151 0,0 -0.864918,-0.449572 -0.864918,-0.449572 v 0 c -0.02694,0.33555 -0.05388,0.671102 -0.08081,1.006655 -0.02495,0.902234 -0.05099,1.603761 -0.04704,2.514901 0.0067,1.556957 0.109593,3.126039 0.03372,4.682392 -0.02212,0.453734 -0.08981,0.904098 -0.134718,1.356149 -0.118514,0.342035 -0.176753,0.711356 -0.355542,1.026109 -0.162721,0.286467 -1.071889,1.01405 -1.279736,1.179513 -1.007627,0.80215 -2.092143,1.479796 -3.247953,2.051145 -1.069301,0.485008 -1.564753,0.757153 -2.693451,1.082445 -0.405673,0.116914 -0.819012,0.212923 -1.237113,0.271502 -0.343209,0.04809 -0.711364,-0.06675 -1.038606,0.04734 -0.09359,0.03263 0.158597,0.35465 0.08954,0.283546 -0.14443,-0.148715 -0.21839,-0.352433 -0.327585,-0.528651 0.103012,-2.632477 0.789298,-5.203473 1.746027,-7.649427 1.110797,-2.635334 2.569814,-6.260973 4.88453,-8.066725 0.268538,-0.209492 0.590761,-0.339116 0.886141,-0.508672 2.276949,-0.891556 4.715429,-1.253953 7.053677,-1.952649 0,0 -0.812286,-0.556297 -0.812286,-0.556297 z" />
    <path
       style="fill:#ff00ff;stroke-width:0.264583"
       id="path330"
       d="m 64.666978,27.782856 c -1.909529,-0.783326 -3.750384,-1.878899 -5.852898,-2.047805 -0.469273,-0.0377 -0.941562,0.0036 -1.412343,0.0054 -2.54763,0.207835 -4.613703,1.163006 -6.511327,2.827706 -1.600628,2.088441 -1.406649,3.688268 -0.648509,6.075794 0.525213,1.230696 1.239509,2.3847 2.096759,3.413289 0.183451,0.220118 0.326842,0.502484 0.582221,0.632434 0.547216,0.278452 1.170445,0.371469 1.755666,0.557204 0.494086,-0.233 1.007912,-0.428056 1.482254,-0.699 1.123924,-0.641982 3.914426,-2.584013 4.834512,-3.193227 2.590792,-1.715434 3.577325,-2.315162 6.201532,-3.966591 0,0 -0.763596,-0.491739 -0.763596,-0.491739 v 0 c -2.594917,1.634361 -3.641746,2.276703 -6.211266,3.963583 -0.961215,0.631037 -3.693625,2.514714 -4.860766,3.157818 -0.46855,0.258178 -0.978815,0.432086 -1.468223,0.648129 -0.02249,0.133839 0.06105,0.445188 -0.06744,0.401513 -0.270475,-0.09193 -0.402902,-0.40595 -0.587364,-0.624086 -0.861277,-1.018503 -1.57825,-2.16739 -2.116458,-3.385944 -0.746744,-2.290464 -0.970761,-3.970494 0.600139,-5.973363 1.884444,-1.650582 3.931676,-2.5887 6.462273,-2.776364 0.468048,0.0031 0.937977,-0.03277 1.404144,0.0093 2.098384,0.18921 3.942871,1.28899 5.848604,2.080208 0,0 -0.767909,-0.614254 -0.767909,-0.614253 z" />
    <path
       style="fill:#ff00ff;stroke-width:0.264583"
       id="path332"
       d="m 122.76411,13.285774 c -1.46149,-1.060467 -2.98999,-2.05031 -4.6132,-2.848397 -0.75301,-0.370227 -1.27498,-0.4567117 -2.08769,-0.6642972 -1.34903,-0.1438566 -2.99307,-0.6488811 -4.34779,-0.2744732 -0.83305,0.2302325 -1.16386,0.5922004 -1.84216,1.1094214 -2.83701,2.722663 -5.04633,5.987089 -6.99039,9.381722 -0.87474,1.870024 -2.43622,4.549334 -1.46391,6.671791 0.11621,0.253696 0.31294,0.462097 0.46941,0.693147 1.01551,0.663663 1.24518,0.897589 2.73468,1.212559 0.45113,0.0954 0.92496,0.04741 1.38332,-0.0029 1.89733,-0.208063 3.58941,-1.007121 5.30178,-1.785152 2.05694,-1.092767 4.05425,-2.347299 5.63595,-4.081783 0.92658,-1.016078 1.18121,-1.491162 1.94659,-2.635773 0.93945,-1.424424 1.53813,-3.019868 2.15962,-4.596608 0,0 -0.83766,-0.467111 -0.83766,-0.467111 v 0 c -0.61611,1.571707 -1.21045,3.161454 -2.14883,4.578991 -0.76283,1.138392 -1.01472,1.608094 -1.93771,2.61809 -1.57534,1.723857 -3.56064,2.975826 -5.60963,4.058884 -1.70998,0.770171 -3.39522,1.558471 -5.29088,1.742603 -0.45656,0.04435 -0.92102,-0.07483 -1.37601,-0.01656 -0.12051,0.01543 -0.16489,0.255278 -0.28352,0.229063 -0.29531,-0.06525 -0.51978,-0.309322 -0.77967,-0.463984 -0.16164,-0.222163 -0.36315,-0.420201 -0.4849,-0.666491 -1.00398,-2.030959 0.54926,-4.812301 1.40368,-6.614514 1.9329,-3.388705 4.13593,-6.644526 6.98945,-9.336877 0.68448,-0.511815 0.98143,-0.844564 1.8167,-1.062376 1.35504,-0.3533544 2.97874,0.141553 4.32309,0.299249 1.78012,0.47392 0.42217,0.06579 2.07527,0.682795 0.0358,0.01337 0.0801,-0.0016 0.11347,0.01698 0.98458,0.549271 1.91327,1.196801 2.82731,1.854153 0,0 0.91363,0.367813 0.91363,0.367813 z" />
    <path
       style="fill:#2b0000;stroke-width:0.264583"
       id="path334"
       d="m 72.788327,73.289522 c -0.519573,-3.406064 -0.412594,-6.855558 -0.32643,-10.286678 0.06968,-3.69775 0.390811,-7.4028 0.0735,-11.095489 -0.233886,-1.733312 -0.268962,-3.179609 -1.327658,-4.623451 -0.152043,-0.151831 -0.292947,-0.315698 -0.456126,-0.455491 -0.731393,-0.626568 -1.546995,-1.156517 -2.279126,-1.786033 -1.012682,-0.870743 -1.018974,-0.924128 -1.972974,-1.91009 -1.418347,-1.538962 -2.499646,-3.304522 -3.347958,-5.205336 -0.332293,-0.939779 -0.652132,-1.869781 -1.078077,-2.77236 0,0 -0.89971,-0.409461 -0.89971,-0.409461 v 0 c 0.427456,0.903171 0.76263,1.827062 1.083815,2.772659 0.854184,1.910662 1.929771,3.691591 3.351925,5.243862 0.937524,0.978807 0.964091,1.053803 1.961308,1.917906 0.728144,0.630944 1.530811,1.162402 2.27134,1.773354 0.164221,0.135485 0.307665,0.294346 0.461499,0.441521 1.095526,1.420415 1.120045,2.851023 1.36697,4.581911 0.338976,3.691652 0.02273,7.399231 -0.04577,11.097305 -0.08899,3.426706 -0.207986,6.870207 0.27613,10.276043 0,0 0.887349,0.439828 0.887349,0.439828 z" />
    <path
       style="fill:#ff00ff;stroke-width:0.264583"
       id="path385"
       d="m 75.171564,69.259806 c -3.611486,0.04792 -7.208991,0.381733 -10.769796,0.977413 -2.954396,0.561751 -5.858417,1.538465 -8.459343,3.07089 -0.522896,0.308083 -1.012875,0.668901 -1.519314,1.003352 -1.926349,1.394365 -3.784886,3.00649 -4.918205,5.128004 -0.147071,0.609089 -0.323995,0.93473 -0.08157,1.564735 0.758005,1.969855 3.869878,3.181583 5.489104,4.021738 2.753249,1.220174 5.547325,2.459347 8.52175,3.035379 0.448585,0.08687 0.90392,0.134276 1.355878,0.201414 1.432563,0.130832 2.893997,0.05357 4.243467,-0.490418 0.823098,-0.331803 1.117796,-0.576363 1.85642,-1.059228 1.27285,-0.941922 2.544712,-1.868598 3.626414,-3.031175 0.399052,-0.471096 0.933635,-0.885669 1.23291,-1.437314 0.245047,-0.451689 0.311132,-0.800725 0.45398,-1.300565 0.418243,-1.40933 0.773176,-2.844644 1.297491,-4.219384 0.08115,-0.200941 0.386103,-0.908296 0.412686,-1.149882 0.118798,-1.079701 -1.091327,-1.993969 -1.743609,-2.671958 -0.236157,-0.220901 -0.472313,-0.441804 -0.70847,-0.662705 0,0 -0.902777,-0.370128 -0.902777,-0.370128 v 0 c 0.237202,0.219443 0.474406,0.438883 0.711608,0.658325 0.579977,0.598911 1.864831,1.628908 1.778751,2.57306 -0.0218,0.239072 -0.32875,0.951063 -0.406974,1.14545 -0.527457,1.376646 -0.878565,2.816233 -1.300125,4.227608 -0.140759,0.490828 -0.202939,0.825137 -0.444117,1.266724 -0.299013,0.547473 -0.82787,0.959657 -1.224214,1.428547 -1.073091,1.15793 -2.336572,2.081942 -3.602548,3.017691 -0.297884,0.192715 -0.584295,0.404445 -0.893654,0.578149 -1.58479,0.889847 -3.372247,1.10154 -5.159989,0.917943 -3.508049,-0.534344 -6.642308,-1.744758 -9.846632,-3.250239 -1.407435,-0.600321 -4.053308,-1.887019 -3.989435,-3.755663 0.0088,-0.256881 0.115734,-0.500861 0.173601,-0.751292 1.118346,-2.109415 2.960693,-3.71465 4.87182,-5.099688 0.504685,-0.33171 0.993138,-0.689544 1.514052,-0.995135 2.597687,-1.523902 5.49534,-2.49175 8.444322,-3.044721 3.564171,-0.594456 7.16493,-0.936644 10.780909,-0.949767 0,0 -0.794393,-0.57716 -0.794393,-0.57716 z" />
    <text
       xml:space="preserve"
       style="font-size:6.35px;fill:#ff00ff;stroke-width:0.264583"
       x="7.0967741"
       y="40.80645"
       id="text441"><tspan
         sodipodi:role="line"
         id="tspan439"
         style="stroke-width:0.264583"
         x="7.0967741"
         y="40.80645">a</tspan></text>
    <text
       xml:space="preserve"
       style="font-size:6.35px;fill:#ff00ff;stroke-width:0.264583"
       x="43.290325"
       y="21.290323"
       id="text495"><tspan
         sodipodi:role="line"
         id="tspan493"
         style="stroke-width:0.264583"
         x="43.290325"
         y="21.290323">b</tspan></text>
    <text
       xml:space="preserve"
       style="font-size:6.35px;fill:#ff00ff;stroke-width:0.264583"
       x="101.48387"
       y="14.548388"
       id="text499"><tspan
         sodipodi:role="line"
         id="tspan497"
         style="stroke-width:0.264583"
         x="101.48387"
         y="14.548388">c</tspan></text>
    <text
       xml:space="preserve"
       style="font-size:6.35px;fill:#ff00ff;stroke-width:0.264583"
       x="156.83871"
       y="19.516129"
       id="text503"><tspan
         sodipodi:role="line"
         id="tspan501"
         style="stroke-width:0.264583"
         x="156.83871"
         y="19.516129">d</tspan></text>
    <text
       xml:space="preserve"
       style="font-size:6.35px;fill:#ff00ff;stroke-width:0.264583"
       x="115.67741"
       y="42.225807"
       id="text507"><tspan
         sodipodi:role="line"
         id="tspan505"
         style="stroke-width:0.264583"
         x="115.67741"
         y="42.225807">e</tspan></text>
    <text
       xml:space="preserve"
       style="font-size:6.35px;fill:#ff00ff;stroke-width:0.264583"
       x="162.51613"
       y="76.645157"
       id="text511"><tspan
         sodipodi:role="line"
         id="tspan509"
         style="stroke-width:0.264583"
         x="162.51613"
         y="76.645157">f</tspan></text>
    <text
       xml:space="preserve"
       style="font-size:6.35px;fill:#ff00ff;stroke-width:0.264583"
       x="84.096771"
       y="77.709679"
       id="text515"><tspan
         sodipodi:role="line"
         id="tspan513"
         style="stroke-width:0.264583"
         x="84.096771"
         y="77.709679">g</tspan></text>
    <text
       xml:space="preserve"
       style="font-size:6.35px;fill:#ff00ff;stroke-width:0.264583"
       x="116.3871"
       y="108.58064"
       id="text519"><tspan
         sodipodi:role="line"
         id="tspan517"
         style="stroke-width:0.264583"
         x="116.3871"
         y="108.58064">h</tspan></text>
    <text
       xml:space="preserve"
       style="font-size:6.35px;fill:#ff00ff;stroke-width:0.264583"
       x="89.419357"
       y="128.80646"
       id="text523"><tspan
         sodipodi:role="line"
         id="tspan521"
         style="stroke-width:0.264583"
         x="89.419357"
         y="128.80646">i</tspan></text>
    <text
       xml:space="preserve"
       style="font-size:6.35px;fill:#ff00ff;stroke-width:0.264583"
       x="65.645157"
       y="142.99998"
       id="text527"><tspan
         sodipodi:role="line"
         id="tspan525"
         style="stroke-width:0.264583"
         x="65.645157"
         y="142.99998">j</tspan></text>
    <text
       xml:space="preserve"
       style="font-size:6.35px;fill:#ff00ff;stroke-width:0.264583"
       x="27.677418"
       y="112.83871"
       id="text531"><tspan
         sodipodi:role="line"
         id="tspan529"
         style="stroke-width:0.264583"
         x="27.677418"
         y="112.83871">k</tspan></text>
    <text
       xml:space="preserve"
       style="font-size:6.35px;fill:#ff00ff;stroke-width:0.264583"
       x="34.064518"
       y="188.7742"
       id="text535"><tspan
         sodipodi:role="line"
         id="tspan533"
         style="stroke-width:0.264583"
         x="34.064518"
         y="188.7742">l</tspan></text>
  </g>
</svg>
