<?xml version="1.0" encoding="UTF-8" standalone="no"?>
<!-- Created with Inkscape (http://www.inkscape.org/) -->

<svg
   width="210mm"
   height="297mm"
   viewBox="0 0 210 297"
   version="1.1"
   id="svg728"
   inkscape:version="1.2.2 (732a01da63, 2022-12-09)"
   sodipodi:docname="Graphen3.svg"
   xmlns:inkscape="http://www.inkscape.org/namespaces/inkscape"
   xmlns:sodipodi="http://sodipodi.sourceforge.net/DTD/sodipodi-0.dtd"
   xmlns="http://www.w3.org/2000/svg"
   xmlns:svg="http://www.w3.org/2000/svg">
  <sodipodi:namedview
     id="namedview730"
     pagecolor="#ffffff"
     bordercolor="#000000"
     borderopacity="0.25"
     inkscape:showpageshadow="2"
     inkscape:pageopacity="0.0"
     inkscape:pagecheckerboard="0"
     inkscape:deskcolor="#d1d1d1"
     inkscape:document-units="mm"
     showgrid="false"
     inkscape:zoom="0.74564394"
     inkscape:cx="396.97231"
     inkscape:cy="561.9304"
     inkscape:window-width="1920"
     inkscape:window-height="1017"
     inkscape:window-x="-8"
     inkscape:window-y="-8"
     inkscape:window-maximized="1"
     inkscape:current-layer="layer1" />
  <defs
     id="defs725" />
  <g
     inkscape:label="Ebene 1"
     inkscape:groupmode="layer"
     id="layer1">
    <ellipse
       style="fill:#000000;stroke-width:0.264583"
       id="path732"
       cx="36.193546"
       cy="35.306454"
       rx="2.8387096"
       ry="3.016129" />
    <circle
       style="fill:#000000;stroke-width:0.264583"
       id="path734"
       cx="157.01613"
       cy="49.145161"
       r="3.016129" />
    <circle
       style="fill:#000000;stroke-width:0.264583"
       id="path736"
       cx="23.774193"
       cy="264"
       r="3.5483871" />
    <ellipse
       style="fill:#000000;stroke-width:0.264583"
       id="path738"
       cx="75.935478"
       cy="165.17741"
       rx="3.9032259"
       ry="3.7258065" />
    <ellipse
       style="fill:#000000;stroke-width:0.264583"
       id="path740"
       cx="105.74194"
       cy="87.290321"
       rx="3.9032259"
       ry="4.2580643" />
    <ellipse
       style="fill:#000000;stroke-width:0.264583"
       id="path742"
       cx="22"
       cy="110.53226"
       rx="4.6129031"
       ry="3.3709676" />
    <ellipse
       style="fill:#000000;stroke-width:0.264583"
       id="path744"
       cx="163.04839"
       cy="117.80645"
       rx="4.7903223"
       ry="4.2580643" />
    <ellipse
       style="fill:#000000;stroke-width:0.264583"
       id="path746"
       cx="157.90323"
       cy="207.75807"
       rx="3.9032259"
       ry="4.0806451" />
    <ellipse
       style="fill:#000000;stroke-width:0.264583"
       id="path748"
       cx="95.629028"
       cy="234.19356"
       rx="4.0806451"
       ry="4.2580643" />
    <ellipse
       style="fill:#000000;stroke-width:0.264583"
       id="path750"
       cx="22.532259"
       cy="175.29031"
       rx="3.7258065"
       ry="3.9032259" />
    <ellipse
       style="fill:#000000;stroke-width:0.264583"
       id="path752"
       cx="108.93549"
       cy="131.82259"
       rx="4.2580643"
       ry="4.4354839" />
    <ellipse
       style="fill:#000000;stroke-width:0.264583"
       id="path754"
       cx="154.53224"
       cy="164.64517"
       rx="4.7903223"
       ry="4.6129031" />
    <ellipse
       style="fill:#000000;stroke-width:0.264583"
       id="path756"
       cx="92.258064"
       cy="26.080645"
       rx="3.9032259"
       ry="4.0806451" />
    <ellipse
       style="fill:#000000;stroke-width:0.264583"
       id="path758"
       cx="131.29031"
       cy="247.14516"
       rx="4.6129031"
       ry="4.7903223" />
    <path
       style="fill:#000000;stroke-width:0.264583"
       d="m 25.193548,110.35484 c 2.676337,-0.20291 5.032981,1.12127 7.451614,2.12903 2.349299,0.97888 4.445804,2.48863 6.741935,3.54839 3.234878,1.49302 0.965221,0.0852 3.903226,1.06451 1.715899,0.57197 3.359015,1.8806 4.96774,2.48387 0.56471,0.21177 1.19652,0.18154 1.774195,0.35484 4.139949,1.24199 -0.308383,0.28631 3.193547,1.06452 1.734955,0.38554 3.617434,0.59947 5.322581,1.06451 7.760271,2.11644 -5.044644,-0.81761 3.903226,1.41936 5.406786,1.3517 10.714204,2.34769 15.967741,4.25807 3.411913,1.24069 6.297229,3.47527 9.580647,4.96773 0.443966,0.20181 0.971106,0.16274 1.419355,0.35485 0.313499,0.13435 1.285311,0.96674 1.774192,1.06451 1.579277,0.31586 6.345534,0.2087 7.806452,0 1.808641,-0.25838 3.491361,-1.06451 5.322581,-1.06451"
       id="path811" />
    <path
       style="fill:#000000;stroke-width:0.264583"
       d="m 18.806451,112.83871 c 1.313362,-3.11454 2.944023,-6.31936 3.903226,-9.58065 0.752963,-2.56007 1.041097,-5.240612 1.774194,-7.806449 2.728545,-9.549905 -0.69075,2.856683 2.483871,-6.032256 0.241983,-0.677553 0.18034,-1.431047 0.354838,-2.129034 1.063583,-4.254328 0.410234,0.09633 1.419355,-4.612902 0.798994,-3.728643 0.828717,-7.58205 1.064517,-11.354839 0.208155,-3.330506 0.912746,-6.642539 1.419354,-9.935483 0.234498,-1.524246 0.120338,-3.088661 0.354838,-4.612904 0.130935,-0.851075 0.568116,-1.634498 0.709679,-2.483871 0.09722,-0.583351 -0.04912,-1.184839 0,-1.774193 0.129196,-1.550352 0.590357,-3.061761 0.709676,-4.612905 0.0635,-0.825518 -0.05508,-1.657746 0,-2.483868 C 33.278105,41.247779 33.709678,37.193778 33.709678,33 c 0,-0.11828 0,0.236558 0,0.354838 0,0.47312 0,0.946237 0,1.419354 0,1.355442 0.0748,0.05561 -0.354841,1.774195 -0.232796,0.931188 0,2.229115 0,3.193548"
       id="path813" />
    <path
       style="fill:#000000;stroke-width:0.264583"
       d="m 162.87097,118.87097 c -0.70968,0 -1.43213,-0.13403 -2.12904,0 -2.39452,0.46048 -4.69872,1.33244 -7.09677,1.77419 -2.10669,0.38807 -4.26809,0.39575 -6.3871,0.70968 -3.08882,0.4576 -6.0939,1.14701 -9.2258,1.41935 -5.29853,0.46074 -12.34335,0.46637 -17.3871,2.48387 -1.31564,0.52626 -1.56991,2.20431 -2.83871,2.83871 -4.05958,2.02979 2.57956,-1.94392 -2.12903,1.41936 -0.90801,0.64857 -1.86989,1.22058 -2.83871,1.77419 -2.3989,1.3708 0.0115,-0.2404 -1.7742,0.35484 -0.31737,0.10579 -0.41045,0.56006 -0.70967,0.70968 -0.21159,0.10579 -0.54241,-0.16728 -0.70968,0 -0.0836,0.0836 0,0.23656 0,0.35483"
       id="path815" />
    <path
       style="fill:#000000;stroke-width:0.264583"
       d="m 76.290322,162.51613 c 0.802767,-0.89002 2.259905,-0.44209 3.193548,-1.06452 0.417539,-0.27836 0.646977,-0.78616 1.064516,-1.06452 1.453074,-0.96871 3.115398,-1.58536 4.612902,-2.48387 3.927253,-2.35635 -3.233338,1.735 2.838712,-2.12903 0.669396,-0.42598 1.509456,-0.56885 2.129031,-1.06451 0.591399,-0.47312 0.883822,-1.23866 1.419354,-1.7742 5.655884,-5.65588 -1.518208,2.39817 4.258064,-3.90322 0.859002,-0.93709 2.469235,-2.69604 3.19355,-3.90323 0.192437,-0.32073 0.09036,-0.80004 0.354838,-1.06452 0.26448,-0.26448 0.800033,-0.0904 1.064513,-0.35483 0.48768,-0.48768 0.61036,-1.25516 1.06452,-1.7742 0.38944,-0.44507 1.00117,-0.64633 1.41936,-1.06452 0.83636,-0.83636 1.35927,-1.94066 2.12903,-2.8387 0.60119,-0.7014 1.55194,-1.05284 2.12903,-1.7742 0.23366,-0.29207 0.13042,-0.76529 0.35484,-1.06451 0.15869,-0.21159 0.56297,-0.13478 0.70968,-0.35484 0.13122,-0.19683 -0.13122,-0.51285 0,-0.70968 0.1467,-0.22006 0.48961,-0.20813 0.70967,-0.35484 0.48982,-0.32655 0.29687,-0.6517 0.70968,-1.06452"
       id="path817" />
    <path
       style="fill:#000000;stroke-width:0.264583"
       d="m 22.354838,260.80645 c 6.486721,-0.0887 12.771356,-1.97521 19.161289,-2.83871 15.554021,-1.5554 0.785382,0.11284 11.000002,-1.41936 2.022422,-0.30336 3.14026,-0.21127 4.96774,-0.70967 2.158521,-0.58869 4.248378,-1.47097 6.387097,-2.12904 2.241256,-0.68961 4.674021,-1.33502 6.741935,-2.48387 0.516975,-0.2872 0.890395,-0.80003 1.419355,-1.06451 1.105633,-0.55282 2.447192,-0.7901 3.548388,-1.41936 1.828257,-1.04472 3.826039,-2.40668 5.32258,-3.90322 0.996921,-0.99692 1.714307,-2.25655 2.83871,-3.19355 0.327617,-0.27302 0.762963,-0.40812 1.064516,-0.70968 0.301556,-0.30155 0.376666,-0.79811 0.709679,-1.06452 0.292071,-0.23365 0.765289,-0.13041 1.064514,-0.35483 0.211587,-0.15869 0.167822,-0.52266 0.354841,-0.70968 0.62467,-0.62467 5.084355,-2.83871 5.677418,-2.83871"
       id="path819" />
    <path
       style="fill:#000000;stroke-width:0.264583"
       d="m 94.387095,231.70967 c -1.648032,-1.51069 -1.900354,-1.32801 -3.548386,-2.83871 -6.050213,-5.54602 -12.630692,-10.50165 -18.451612,-16.32257 -0.946238,-0.94624 -2.002756,-1.79377 -2.83871,-2.83871 -0.595709,-0.74464 -0.919575,-1.67173 -1.419357,-2.48388 -0.756684,-1.22961 -1.782704,-2.28629 -2.483869,-3.54838 -0.309334,-0.5568 -0.372094,-1.23406 -0.709678,-1.7742 -0.265962,-0.42554 -0.77284,-0.65617 -1.064517,-1.06451 -0.648573,-0.908 -1.232289,-1.86329 -1.774192,-2.83871 -0.309333,-0.5568 -0.40467,-1.21502 -0.709679,-1.7742 -0.913265,-1.67432 -1.903682,-3.30547 -2.838709,-4.96774 -1.952234,-3.47064 -4.477592,-6.66476 -6.741935,-9.93548 -0.417095,-0.60247 -2.442316,-3.26708 -2.83871,-4.25807 -0.223988,-0.55997 -0.109892,-1.22306 -0.354838,-1.77419 -0.240191,-0.54043 -0.800036,-0.89039 -1.064516,-1.41936 -0.218096,-0.43619 -0.162732,-0.9711 -0.354838,-1.41935 -0.312553,-0.72929 -0.656294,-1.44866 -1.064517,-2.12903 -0.172122,-0.28687 -0.560065,-0.41045 -0.709679,-0.70968 -0.105791,-0.21158 0.13122,-0.51285 0,-0.70968 -0.146706,-0.22006 -0.550986,-0.14325 -0.709676,-0.35484 -0.224419,-0.29922 -0.162401,-0.74378 -0.354838,-1.06451 -0.172122,-0.28687 -0.515228,-0.43745 -0.709678,-0.70968 -1.117394,-1.56435 -1.690772,-3.24936 -2.483871,-4.96774 -1.023591,-2.21778 -2.103581,-4.562 -3.193548,-6.74194 -0.07481,-0.14961 -0.301942,-0.19615 -0.35484,-0.35483 -0.300935,-0.90281 -0.48963,-3.13672 -1.064514,-3.90323 -0.15869,-0.21158 -0.573604,-0.12805 -0.709679,-0.35484 -2.220113,-3.70019 0.522123,0.0634 -0.354838,-2.12903 -0.158385,-0.39596 -0.541687,-0.67254 -0.709679,-1.06452 -0.568158,-1.3257 -0.557723,-2.90661 -1.064516,-4.25806 -0.668825,-1.78354 -1.458691,-3.53501 -2.129031,-5.32258 -0.900319,-2.40085 0.148167,-0.48224 -0.709679,-2.48387 -0.734446,-1.71371 -1.889569,-3.18485 -2.483871,-4.96775 -0.674462,-2.02338 -0.02745,-1.37427 -0.709676,-3.19354 -0.495493,-1.32132 -1.2482,-2.58825 -1.774193,-3.90323 -0.831387,-2.07847 -1.42595,-4.27785 -2.129033,-6.3871 -0.177193,-0.53158 -0.361342,-1.78069 -0.709677,-2.12903 -0.08364,-0.0836 -0.271203,0.0836 -0.354839,0 -0.482131,-0.48213 0.687275,-2.12903 -0.354839,-2.12903"
       id="path821" />
    <path
       style="fill:#000000;stroke-width:0.264583"
       d="m 76.290322,164.29032 c 0.939057,0.56344 1.830766,0.90339 2.483872,1.7742 0.976024,1.30136 1.183751,3.13679 1.774192,4.6129 1.23326,3.08315 2.277642,6.37497 3.193548,9.58064 0.267951,0.93783 0.325466,1.94222 0.709678,2.83871 0.66865,1.56018 2.314969,4.65164 3.193548,6.03226 0.406609,0.63896 1.029697,1.12476 1.419354,1.77419 0.655423,1.09237 0.80069,2.43479 1.419355,3.54839 0.28721,0.51698 0.844878,0.87026 1.064516,1.41936 0.267203,0.668 0.127323,1.44648 0.354838,2.12903 0.700794,2.10238 1.425419,2.31757 2.483872,4.25806 0.34631,0.6349 1.261295,3.32368 1.419354,3.90323 1.323036,4.85113 1.532962,10.31837 0.709679,15.25806 -0.442299,2.65379 0,7.40606 0,10.29032"
       id="path823" />
    <path
       style="fill:#000000;stroke-width:0.264583"
       d="m 153.64516,164.64516 c -4.46752,-8.65992 -9.02883,-17.36102 -14.90323,-25.19355 -2.11146,-2.81528 -4.5696,-5.39651 -6.74193,-8.16129 -0.52696,-0.67067 -0.87333,-1.4738 -1.41936,-2.12903 -2.13384,-2.56061 -2.1996,-1.84477 -4.6129,-4.25807 -1.30644,-1.30644 -2.30557,-2.89096 -3.54839,-4.25806 -0.56259,-0.61886 -1.25172,-1.1211 -1.77419,-1.77419 -0.86168,-1.07711 -1.33802,-2.41837 -2.12903,-3.54839 -0.43432,-0.62045 -1.0297,-1.12476 -1.41936,-1.77419 -0.32771,-0.54619 -0.42482,-1.20449 -0.70967,-1.7742 -1.15795,-2.31589 -2.50769,-5.71314 -3.90323,-7.80645 -0.42011,-0.63016 -1.01275,-1.13524 -1.41936,-1.77419 -0.42597,-0.6694 -0.62439,-1.46885 -1.06451,-2.12903 -0.27836,-0.417543 -0.78616,-0.646985 -1.06452,-1.064521 -0.20747,-0.311213 -0.14736,-0.753303 -0.35484,-1.064516 -0.0656,-0.09842 -0.2712,0.08364 -0.35483,0 -0.33455,-0.334545 0.11474,-0.960364 0,-1.419355 -0.0616,-0.246264 -0.87739,-1.587063 -1.06452,-1.774193 -0.0836,-0.08364 -0.28923,0.09842 -0.35484,0 -0.20747,-0.311216 -0.18756,-0.729972 -0.35484,-1.064516 -0.83781,-1.675614 0.18661,2.165797 -0.70968,-1.419355 -0.25089,-1.003596 -0.16624,-4.612904 0.70968,-4.612904"
       id="path825" />
    <path
       style="fill:#000000;stroke-width:0.264583"
       d="m 105.74193,84.096774 c -1.72114,-0.963718 -3.6234,-1.464368 -5.32258,-2.483871 -1.051977,-0.177305 -1.360386,-1.261766 -2.129029,-1.774195 -1.96432,-1.309548 -4.196856,-2.373723 -6.032257,-3.903226 -0.385508,-0.321255 -0.64698,-0.786157 -1.064517,-1.064514 -0.311213,-0.207478 -0.743786,-0.162401 -1.064516,-0.354841 -1.595215,-0.95713 -0.0078,-0.362672 -1.064517,-1.419354 -0.187015,-0.187016 -0.498091,-0.196149 -0.709676,-0.354838 -0.809725,-0.607296 -1.071335,-1.362279 -1.774195,-2.129034 -3.955905,-4.315531 -7.933301,-8.35829 -12.774192,-11.709675 -4.036996,-2.794844 -8.728577,-4.333552 -13.129032,-6.387097 -4.10809,-1.91711 -8.227721,-4.549981 -11.709678,-7.451614 -0.692041,-0.576699 -2.868554,-3.283079 -3.193547,-4.258063 -0.315756,-0.94727 -0.11457,-2.152108 -0.709679,-3.19355 -0.523065,-0.915366 -1.113147,-1.210406 -1.419354,-2.129031 -0.154218,-0.462653 -0.08432,-1.013582 -0.354838,-1.419355 -0.236559,-0.35484 -0.762963,-0.408122 -1.064517,-0.709678 -0.187015,-0.187016 -0.167822,-0.522661 -0.354838,-0.709676 -0.298738,-0.298739 -2.946252,-1.473126 -3.548388,-1.774196 -1.063778,-0.531889 -1.589085,0.879407 -1.774192,1.064517 -0.08364,0.08364 -0.271204,-0.08364 -0.354841,0 -0.167272,0.167272 0.167272,0.542407 0,0.709679 -0.203012,0.203012 -1.503958,0 -1.774193,0"
       id="path827" />
    <path
       style="fill:#000000;stroke-width:0.264583"
       d="m 76.64516,163.2258 c 0.473118,0.47312 1.075111,0.84562 1.419355,1.41936 0.384876,0.64146 0.396195,1.44982 0.709679,2.12903 1.505712,3.26238 3.634639,6.30755 5.677418,9.22581 1.67077,2.38681 0.528257,1.23527 2.129031,3.90322 1.583116,2.63853 2.415212,2.59835 4.612904,4.61291 1.361956,1.24846 2.312416,2.88476 3.548388,4.25806 0.447596,0.49733 1.008573,0.89121 1.419355,1.41936 0.423423,0.5444 0.641091,1.22979 1.064514,1.77419 1.005385,1.29264 5.655986,4.94845 5.677426,4.96774 0.99466,0.8952 1.80572,1.98802 2.8387,2.83871 0.9876,0.81332 2.17004,1.3614 3.19355,2.12903 1.47807,1.10856 2.86762,2.33175 4.25807,3.54839 1.58809,1.38958 2.87046,3.05185 4.25806,4.6129 1.1113,1.25021 2.50344,2.24221 3.54839,3.54839 1.46866,1.83583 2.66308,4.04802 3.90322,6.03226 0.62689,1.00301 1.64866,1.75786 2.12904,2.83871 0.24494,0.55113 0.14873,1.20739 0.35483,1.77419 2.3656,6.50538 0,-1.18279 1.7742,3.54839 0.55984,1.49291 0.91446,3.09821 1.41935,4.6129 0.36838,1.10514 1.09933,2.07345 1.41936,3.19355 0.23685,0.82897 0.15829,4.01797 0,4.96774 -0.23424,1.40546 -1.06452,2.42903 -1.06452,3.90323"
       id="path829" />
    <path
       style="fill:#000000;stroke-width:0.264583"
       d="m 157.19355,206.87096 c -0.23656,0.82796 -0.47312,1.65592 -0.70968,2.48388 -0.23656,0.70967 -0.49472,1.41251 -0.70968,2.12903 -0.3466,1.15535 -0.2617,2.42844 -0.70968,3.54839 -0.21963,0.54909 -0.7773,0.90238 -1.06451,1.41935 -1.02447,1.84405 -0.32655,1.55433 -1.41936,3.19355 -0.4201,0.63016 -1.01274,1.13524 -1.41935,1.77419 -1.45963,2.2937 -0.68133,1.7175 -1.77419,3.90323 -0.83609,1.67216 -2.10696,3.2603 -2.83871,4.96774 -0.38422,0.8965 -0.44173,1.90088 -0.70968,2.83871 -0.24984,0.87443 -0.50664,2.09487 -1.06452,2.83871 -0.20073,0.26763 -0.53755,0.42281 -0.70968,0.70968 -0.59409,0.99015 -0.67999,1.55967 -1.41935,2.48387 -0.53282,0.66602 -0.76412,1.583 -1.41935,2.12903 -0.93552,0.77959 -2.21934,1.04354 -3.19355,1.77419 -1.62353,1.21765 -2.49968,2.12903 -4.61291,2.12903"
       id="path831" />
    <path
       style="fill:#000000;stroke-width:0.264583"
       d="m 152.93548,165 c -8.19919,0.35148 -16.30449,-1.7742 -24.48387,-1.7742 -2.87525,0 -4.24864,0.70732 -7.09677,1.41936 -4.55351,1.13838 -9.17031,2.28949 -13.83871,2.83871 -3.66174,0.43079 -8.456835,0.0961 -12.064519,-0.35484 -1.427821,-0.17848 -2.825041,-0.5794 -4.258064,-0.70968 -1.301075,-0.11828 -2.600634,-0.25464 -3.903225,-0.35483 -1.297245,-0.0998 -2.668919,0.41143 -3.903226,0 -0.752727,-0.25091 -1.392338,-0.76984 -2.129034,-1.06452 -2.074926,-0.82997 -0.740963,-0.005 -2.838709,-0.35484 -1.156147,-0.19269 -2.345933,-1.11874 -3.548385,-1.41936"
       id="path833" />
    <path
       style="fill:#000000;stroke-width:0.264583"
       d="m 105.03226,83.387096 c 4.97475,-0.90636 9.21565,-4.050946 13.83871,-6.03226 3.13395,-1.343122 6.43274,-2.222955 9.58064,-3.548385 2.14726,-0.90411 4.2056,-2.020649 6.3871,-2.838709 0.80626,-0.30235 1.68902,-0.378492 2.48387,-0.709679 0.76628,-0.31928 4.31456,-2.294392 4.96774,-2.838709 0.32762,-0.273016 0.40812,-0.76296 0.70968,-1.064517 1.27087,-1.270867 2.97904,-2.269363 4.25806,-3.548387 1.36707,-1.367065 2.20911,-3.273619 3.54839,-4.612902 0.41818,-0.418182 1.02992,-0.619445 1.41935,-1.064517 0.73479,-0.839761 1.05985,-1.981491 1.7742,-2.838709 0.32125,-0.385506 0.78616,-0.646978 1.06451,-1.064517 0.20748,-0.311213 0.1624,-0.743786 0.35484,-1.064516 0.17212,-0.28687 0.58543,-0.399058 0.70968,-0.709676 0.13178,-0.32946 -0.13178,-0.735058 0,-1.064517 0.12425,-0.310618 0.53756,-0.422807 0.70968,-0.709676 0.43838,-0.730636 0.79364,-2.026084 1.06451,-2.838712"
       id="path835" />
    <path
       style="fill:#000000;stroke-width:0.264583"
       d="m 40.806452,31.225807 c 6.131049,0.253561 12.046174,-1.694664 18.096774,-2.483871 3.882496,-0.506413 7.872,0.05786 11.709675,-0.709679 2.123324,-0.424664 4.207225,-1.221184 6.387097,-1.419354 2.408976,-0.218998 5.442961,-0.03908 7.806452,0.354838 0.521767,0.08696 0.906188,0.581387 1.419355,0.709678 0.458994,0.114747 0.970515,-0.149614 1.419355,0 0.158689,0.0529 0.196151,0.301943 0.35484,0.354838 0.313227,0.10441 1.046581,0 1.419355,0"
       id="path837" />
    <path
       style="fill:#000000;stroke-width:0.264583"
       d="M 20.580645,175.64516 C 21.053763,175.4086 21.763441,175.4086 22,174.93548 c 1.155367,-2.31073 1.064516,-7.40265 1.064516,-9.93548 0,-4.25281 0.08979,-8.53342 0.354839,-12.7742 0.173969,-2.7835 1.146078,-5.42853 1.419354,-8.16129 0.07062,-0.70615 -0.11667,-1.42901 0,-2.12903 0.122982,-0.73788 0.586697,-1.39114 0.709678,-2.12903 0.11667,-0.70002 -0.06425,-1.42227 0,-2.12903 0.0546,-0.60064 0.294827,-1.17408 0.354839,-1.7742 0.18694,-1.8694 0.307697,-5.25059 0,-7.09677 -0.260821,-1.56492 -1.159739,-3.0552 -1.419355,-4.6129 -0.150377,-0.90226 0.221581,-1.95239 0,-2.83871 -0.719058,-2.87623 -0.354839,-6.19854 -0.354839,-9.22581"
       id="path839" />
    <path
       style="fill:#000000;stroke-width:0.264583"
       d="m 91.548385,26.258064 c 0.5914,0 1.200455,-0.143435 1.774196,0 0.413729,0.103433 0.672533,0.541685 1.064514,0.709677 0.448249,0.192106 0.946237,0.236561 1.419354,0.35484 1.301076,0.591397 2.634467,1.116317 3.903226,1.774193 4.052405,2.101244 7.929295,4.44111 12.064515,6.387097 2.01075,0.946237 3.98967,1.963314 6.03226,2.838709 0.68758,0.294677 1.45994,0.375132 2.12903,0.709679 0.52896,0.26448 0.90238,0.777306 1.41936,1.064514 2.70677,1.503765 6.47594,2.697588 9.58064,2.838709 4.93321,0.224237 7.23242,-0.210756 12.41936,-0.354838 3.42878,-0.09524 6.86021,0 10.29032,0 1.77419,0 3.58284,-0.347948 5.32258,0 0.19763,0.03953 -0.62036,0.79656 -0.70968,1.064517 -0.5571,1.671317 -1.77419,3.491637 -1.77419,5.32258"
       id="path841" />
    <text
       xml:space="preserve"
       style="font-size:4.23333px;fill:#000000;stroke-width:0.264583"
       x="19.870966"
       y="26.967741"
       id="text845"><tspan
         sodipodi:role="line"
         id="tspan843"
         style="font-size:4.23333px;stroke-width:0.264583"
         x="19.870966"
         y="26.967741">A</tspan></text>
    <text
       xml:space="preserve"
       style="font-size:4.23333px;fill:#000000;stroke-width:0.264583"
       x="80.548386"
       y="20.580647"
       id="text849"><tspan
         sodipodi:role="line"
         id="tspan847"
         style="stroke-width:0.264583"
         x="80.548386"
         y="20.580647">B</tspan></text>
    <text
       xml:space="preserve"
       style="font-size:4.23333px;fill:#000000;stroke-width:0.264583"
       x="169.6129"
       y="48.258064"
       id="text853"><tspan
         sodipodi:role="line"
         id="tspan851"
         style="stroke-width:0.264583"
         x="169.6129"
         y="48.258064">C</tspan></text>
    <text
       xml:space="preserve"
       style="font-size:4.23333px;fill:#000000;stroke-width:0.264583"
       x="122.06451"
       y="87.290321"
       id="text857"><tspan
         sodipodi:role="line"
         id="tspan855"
         style="stroke-width:0.264583"
         x="122.06451"
         y="87.290321">D</tspan></text>
    <text
       xml:space="preserve"
       style="font-size:4.23333px;fill:#000000;stroke-width:0.264583"
       x="174.2258"
       y="110.70967"
       id="text861"><tspan
         sodipodi:role="line"
         id="tspan859"
         style="stroke-width:0.264583"
         x="174.2258"
         y="110.70967">E</tspan></text>
    <text
       xml:space="preserve"
       style="font-size:4.23333px;fill:#000000;stroke-width:0.264583"
       x="100.77419"
       y="122.77419"
       id="text865"><tspan
         sodipodi:role="line"
         id="tspan863"
         style="stroke-width:0.264583"
         x="100.77419"
         y="122.77419">F</tspan></text>
    <text
       xml:space="preserve"
       style="font-size:4.23333px;fill:#000000;stroke-width:0.264583"
       x="29.806454"
       y="104.67742"
       id="text869"><tspan
         sodipodi:role="line"
         id="tspan867"
         style="stroke-width:0.264583"
         x="29.806454"
         y="104.67742">G</tspan></text>
    <text
       xml:space="preserve"
       style="font-size:4.23333px;fill:#000000;stroke-width:0.264583"
       x="17.387096"
       y="184.87097"
       id="text873"><tspan
         sodipodi:role="line"
         id="tspan871"
         style="stroke-width:0.264583"
         x="17.387096"
         y="184.87097">H</tspan></text>
    <text
       xml:space="preserve"
       style="font-size:4.23333px;fill:#000000;stroke-width:0.264583"
       x="31.935484"
       y="267.19354"
       id="text877"><tspan
         sodipodi:role="line"
         id="tspan875"
         style="stroke-width:0.264583"
         x="31.935484"
         y="267.19354">I</tspan></text>
    <text
       xml:space="preserve"
       style="font-size:4.23333px;fill:#000000;stroke-width:0.264583"
       x="97.580643"
       y="242.70967"
       id="text881"><tspan
         sodipodi:role="line"
         id="tspan879"
         style="stroke-width:0.264583"
         x="97.580643"
         y="242.70967">J</tspan></text>
    <text
       xml:space="preserve"
       style="font-size:4.23333px;fill:#000000;stroke-width:0.264583"
       x="166.77419"
       y="161.80644"
       id="text885"><tspan
         sodipodi:role="line"
         id="tspan883"
         style="stroke-width:0.264583"
         x="166.77419"
         y="161.80644">K</tspan></text>
    <text
       xml:space="preserve"
       style="font-size:4.23333px;fill:#000000;stroke-width:0.264583"
       x="137.32257"
       y="251.93547"
       id="text889"><tspan
         sodipodi:role="line"
         id="tspan887"
         style="stroke-width:0.264583"
         x="137.32257"
         y="251.93547">L</tspan></text>
    <text
       xml:space="preserve"
       style="font-size:4.23333px;fill:#000000;stroke-width:0.264583"
       x="66.709679"
       y="154"
       id="text893"><tspan
         sodipodi:role="line"
         id="tspan891"
         style="stroke-width:0.264583"
         x="66.709679"
         y="154">N</tspan></text>
    <text
       xml:space="preserve"
       style="font-size:4.23333px;fill:#ff0000;stroke-width:0.264583"
       x="163.58064"
       y="210.06451"
       id="text897"><tspan
         sodipodi:role="line"
         id="tspan895"
         style="stroke-width:0.264583;fill:#ff0000"
         x="163.58064"
         y="210.06451">M</tspan></text>
    <path
       style="fill:#ff0000;stroke-width:0.264583"
       id="path899"
       d="m 20.725135,17.2873 c -1.66067,0.132752 -3.312373,0.388713 -4.925113,0.805593 -1.257586,0.428007 -2.679315,0.577743 -3.828828,1.287006 -0.191595,0.118217 -0.362858,0.266589 -0.544287,0.399883 -1.22658,1.058692 -1.4793048,2.676657 -1.7944352,4.183582 -0.2439982,1.357201 -0.8221747,2.599583 -1.5345717,3.768202 -0.6059154,1.198306 -1.5742391,2.246228 -2.0351104,3.520231 -0.082663,0.22851 -0.1155695,0.472062 -0.1733542,0.708094 0.025514,0.224393 0.00808,0.457967 0.076543,0.673182 0.1240917,0.390088 0.5556097,0.97041 0.8915458,1.184468 3.1620737,2.014889 3.6060427,2.452412 6.5335777,3.023095 2.356324,0.485865 4.723579,0.374999 7.09413,0.126169 1.761718,-0.170455 3.015627,-0.845309 4.272013,-2.055011 1.342022,-1.356116 1.998141,-2.51483 2.482585,-4.350279 0.418105,-2.036551 0.637604,-4.10709 0.954955,-6.161352 0.151361,-1.310631 0.639535,-2.827791 -0.136009,-4.04197 -0.121004,-0.189441 -0.291271,-0.342463 -0.436909,-0.513695 -1.987562,-1.660443 -4.349282,-2.787896 -6.840037,-3.402236 -0.616278,-0.117617 -0.317295,-0.04741 -0.897646,-0.207634 0,0 3.141,2.404147 3.141,2.404147 v 0 c 0.586046,0.137363 0.289353,0.06906 0.890118,0.204748 0.551256,0.152264 1.09559,0.317813 1.630611,0.52147 0.205691,0.0783 0.796176,0.36838 0.611918,0.248013 -0.702595,-0.458972 -4.107496,-2.480317 -2.170033,-1.276563 0.160121,0.138534 0.340657,0.256503 0.480363,0.415604 0.928441,1.057334 0.414858,2.595391 0.284857,3.827885 -0.311313,2.040521 -0.542824,4.094891 -0.951731,6.117871 -0.453248,1.769962 -1.0805,2.857447 -2.37765,4.157459 -1.228027,1.130266 -2.444532,1.700236 -4.123929,1.84803 -2.337236,0.249155 -4.672356,0.309017 -6.987561,-0.201102 C 9.8795325,34.399934 9.4397437,34.324305 9.0143027,34.195416 8.657764,34.087403 7.6739985,33.569013 7.9715968,33.793115 c 6.0999502,4.593494 1.783744,1.006615 1.5371497,0.560517 -0.089446,-0.161811 -0.1046093,-0.354671 -0.156914,-0.532006 0.042586,-0.210441 0.059004,-0.427926 0.1277583,-0.63133 0.4293407,-1.270169 1.4061992,-2.308968 2.0096742,-3.488751 0.743622,-1.206087 1.359622,-2.477704 1.599633,-3.88802 0.283426,-1.409342 0.488373,-2.951458 1.658468,-3.921702 1.271258,-0.871327 2.799892,-1.171624 4.265865,-1.581791 1.611471,-0.383128 3.258464,-0.647948 4.916982,-0.694107 0,0 -3.205078,-2.328625 -3.205078,-2.328625 z" />
    <path
       style="fill:#ff00ff;stroke-width:0.264583"
       id="path1014"
       d="m 36.687466,27.051116 c -2.757316,-0.169108 -5.510747,0.364601 -8.149373,1.124008 -1.63209,0.585912 -2.994074,1.661483 -3.902925,3.132482 -0.703974,1.313563 -0.807082,2.829464 -0.948552,4.285567 -0.123734,1.665793 0.08047,3.417088 1.164595,4.763153 0.216909,0.269317 0.485365,0.492692 0.728048,0.739037 3.564388,2.763428 6.422931,3.675378 10.584242,4.204722 2.878262,0.288681 4.780616,-0.914789 6.980835,-2.597288 1.104813,-0.983663 2.081414,-2.098537 2.956798,-3.288879 0.459193,-0.624409 0.871588,-1.206138 1.147305,-1.935803 0.112183,-0.296881 0.157692,-0.614841 0.236538,-0.922261 0.0019,-0.295442 0.05049,-0.594347 0.0054,-0.886325 -0.293198,-1.896583 -2.57523,-3.403748 -3.959985,-4.501761 -1.89313,-1.474991 -4.047815,-2.468756 -6.157555,-3.618296 0,0 3.054157,2.421213 3.054157,2.421213 v 0 c -5.169281,-3.211254 -1.463524,-0.983668 -0.482576,-0.238054 1.217258,0.944959 3.665146,2.588583 4.052848,4.168029 0.0637,0.259511 0.03162,0.533495 0.04744,0.800243 -0.06138,0.284572 -0.0882,0.578868 -0.184156,0.853718 -0.238995,0.684519 -0.660593,1.301403 -1.07914,1.882499 -0.843663,1.171319 -1.797463,2.261931 -2.889311,3.209145 -2.243005,1.656844 -3.95878,2.653466 -6.833086,2.334998 -1.298189,-0.179816 -2.584601,-0.375589 -3.843184,-0.756539 -0.435004,-0.131667 -1.601436,-0.779298 -1.286534,-0.451575 0.595857,0.620117 1.455121,0.91708 2.179391,1.380786 0.305874,0.195832 -0.616114,-0.384765 -0.924173,-0.577146 -0.251781,-0.220977 -0.527453,-0.417393 -0.755346,-0.662932 -1.141696,-1.230095 -1.393092,-2.903723 -1.286084,-4.516369 0.140393,-1.39165 0.257326,-2.845932 0.902337,-4.110825 0.838748,-1.406446 2.144274,-2.384595 3.689811,-2.923101 2.602981,-0.751554 5.374243,-1.317051 8.083288,-0.895154 0,0 -3.131008,-2.417292 -3.131008,-2.417292 z" />
    <path
       style="fill:#ff00ff;stroke-width:0.264583"
       id="path1016"
       d="m 95.400838,19.014007 c -2.486763,-0.08132 -4.972778,-0.184306 -7.459935,-0.253236 -1.858005,-0.172066 -3.598254,0.351279 -5.313587,0.997067 -1.237044,0.626791 -2.727778,1.044206 -3.708538,2.083465 -0.166248,0.176166 -0.299045,0.381137 -0.448567,0.571706 -0.232508,0.478795 -0.549119,1.037614 -0.619037,1.57769 -0.200957,1.552248 0.51399,2.922225 1.25254,4.216723 0.632333,0.920374 1.330436,1.937948 2.316398,2.525043 3.92775,2.338798 2.516663,1.99059 4.712972,2.40239 2.141114,0.119907 4.069975,-0.932148 5.866276,-1.970172 1.712603,-0.979101 3.281241,-2.157508 4.578344,-3.644828 1.048772,-1.359351 1.663716,-2.996579 1.595777,-4.730357 -0.01447,-0.3691 -0.08791,-0.733518 -0.131871,-1.100277 -0.08099,-0.322778 -0.161978,-0.645556 -0.242967,-0.968335 0,0 -3.522276,-1.678022 -3.522276,-1.678022 v 0 c 0.09142,0.308843 0.182837,0.617685 0.274256,0.926528 0.05298,0.347486 0.134776,0.691789 0.158948,1.042459 0.113573,1.647733 -0.475808,3.202111 -1.480005,4.485713 -1.278818,1.442313 -2.812253,2.595325 -4.485333,3.551823 -1.747607,0.993968 -3.655681,1.993381 -5.730716,1.701718 -1.661014,-0.514654 -1.109853,-0.403069 2.05867,1.424257 0.210344,0.121306 -0.415332,-0.253672 -0.606933,-0.40283 -0.7092,-0.552109 -1.312468,-1.239155 -1.805294,-1.986953 -0.720847,-1.166719 -1.527273,-2.468067 -1.375728,-3.914214 0.05098,-0.486475 0.350748,-1.013104 0.560483,-1.442497 0.137287,-0.169584 0.259543,-0.352529 0.411858,-0.508752 0.959835,-0.984441 2.403698,-1.3912 3.600183,-1.984359 1.700157,-0.600375 3.412125,-1.033955 5.233887,-0.87475 2.495031,0.05306 4.99155,0.114278 7.48135,0.291709 0,0 -3.171155,-2.338709 -3.171155,-2.338709 z" />
    <path
       style="fill:#ff00ff;stroke-width:0.264583"
       id="path1018"
       d="m 163.04167,42.361479 c -2.34979,-0.449059 -4.73077,-0.636947 -7.11903,-0.678402 -1.2665,0.06741 -2.72021,0.07735 -3.82644,0.814866 -0.88817,0.592138 -1.49718,1.36897 -2.20706,2.150457 -1.53657,2.08098 -3.11673,4.373086 -3.59185,6.976565 -0.0699,0.383069 -0.0689,0.775745 -0.10328,1.163616 0.0551,0.762855 0.0115,1.067996 0.29846,1.767838 0.73643,1.795967 3.74964,2.836087 4.89448,3.378297 0.28917,0.136951 0.63531,0.07669 0.95296,0.115031 1.66886,0.01902 3.3832,-0.20878 4.97972,-0.714844 1.02631,-0.325318 1.52489,-0.613116 2.48708,-1.083638 2.10626,-1.192953 3.96582,-2.763226 5.75531,-4.380515 0.68578,-0.759556 1.60935,-1.745729 1.52971,-2.875034 -0.0677,-0.959528 -0.49853,-1.590321 -0.91915,-2.427801 0,0 -3.52335,-1.585878 -3.52335,-1.585878 v 0 c 0.33223,0.606155 0.882,1.447517 0.97965,2.179132 0.13791,1.033256 -0.77823,1.96528 -1.38398,2.655649 -1.74707,1.605992 -3.57368,3.160469 -5.66437,4.30461 -0.39885,0.188513 -0.78891,0.396854 -1.19654,0.565536 -1.93419,0.800399 -4.08021,1.152835 -6.16459,1.014637 -0.30338,-0.06681 -1.14906,-0.399007 -0.91015,-0.20044 0.8034,0.667747 1.76222,1.123143 2.66099,1.655651 0.18495,0.10958 -0.36527,-0.23323 -0.5171,-0.385421 -0.59577,-0.597157 -0.75628,-1.383292 -0.80931,-2.194483 0.0188,-0.36989 5.3e-4,-0.743503 0.0563,-1.109668 0.38428,-2.530419 1.96789,-4.833871 3.46865,-6.826186 0.78727,-0.832001 1.19843,-1.392907 2.17487,-1.977028 1.09704,-0.656267 2.48811,-0.633986 3.71199,-0.695444 2.39783,0.05132 4.79498,0.256895 7.13873,0.79048 0,0 -3.15265,-2.397583 -3.15265,-2.397583 z" />
    <path
       style="fill:#ff00ff;stroke-width:0.264583"
       id="path1020"
       d="m 111.01175,80.498044 c -1.49755,-0.547396 -2.98747,-1.239308 -4.59223,-1.414219 -1.00876,-0.10995 -1.7536,0.0028 -2.76127,0.08699 -2.55395,0.345712 -4.895357,1.420683 -7.093597,2.717435 -1.206051,0.724476 -2.257862,1.623718 -2.761481,2.976795 -0.106513,0.286163 -0.163578,0.58837 -0.245366,0.882555 -0.286618,1.923169 0.394533,3.233541 1.602679,4.652332 2.094307,2.337721 3.693268,2.914193 6.675485,4.535305 1.65053,0.353539 3.29806,-0.04504 4.86946,-0.550791 1.43271,-0.406929 2.74206,-1.083275 3.89072,-2.025822 1.16162,-1.117605 2.07042,-2.441286 2.87988,-3.825417 0.13642,-0.274037 0.27284,-0.548074 0.40926,-0.822111 0,0 -3.39793,-1.933133 -3.39793,-1.933133 v 0 c -0.13135,0.266266 -0.2627,0.532535 -0.39405,0.798804 -0.7913,1.340559 -1.68782,2.619936 -2.82845,3.691112 -1.12986,0.893723 -2.40746,1.517137 -3.79493,1.912122 -1.53781,0.463945 -3.15714,0.82123 -4.735374,0.32149 6.234414,3.752919 2.674854,1.725621 1.816354,1.065864 -0.642414,-0.493694 -1.204624,-1.078553 -1.779453,-1.646389 -1.195469,-1.292346 -1.986843,-2.458749 -1.776407,-4.306096 0.0715,-0.272799 0.118147,-0.553352 0.214503,-0.818393 0.46563,-1.280806 1.509321,-2.094278 2.629779,-2.786841 2.148618,-1.278315 4.443148,-2.315815 6.956368,-2.592556 1.0785,-0.06024 1.63943,-0.147569 2.70592,0.0063 1.60587,0.23164 3.09858,0.935474 4.60038,1.504752 0,0 -3.09025,-2.430055 -3.09025,-2.430055 z" />
    <path
       style="fill:#d40000;stroke-width:0.264583"
       id="path1022"
       d="m 96.963306,225.63739 c -2.796461,0.53832 -5.568104,1.19198 -8.361437,1.7461 -1.612617,0.2577 -3.295938,0.49758 -4.480843,1.73601 -0.186518,0.19495 -0.337566,0.42098 -0.506349,0.63146 -0.821613,1.34006 -1.482259,2.77563 -2.072521,4.23077 -0.52152,1.17821 -0.800947,2.41642 -0.854395,3.69922 0.09185,1.41301 0.953175,2.41128 2.02878,3.23313 2.87869,2.11238 4.345321,2.95073 7.480025,3.21228 1.937104,0.13768 3.883578,-0.11502 5.792049,-0.4351 1.409031,-0.2472 2.749063,-0.70383 4.063105,-1.2562 1.20517,-0.62539 2.17939,-1.56792 3.08902,-2.55854 0.81262,-1.06042 1.55046,-2.18469 2.11919,-3.3951 0.41863,-1.02773 0.6328,-2.12245 0.68425,-3.2274 -0.11762,-0.9848 -0.78302,-1.75441 -1.62378,-2.24984 -3.91674,-2.30798 -2.6514,-1.83622 -4.91109,-2.56511 -1.997657,-0.49639 -4.062037,-0.61533 -6.110907,-0.70383 -0.249693,-0.007 -0.499382,-0.0148 -0.749075,-0.0222 0,0 3.169269,2.31636 3.169269,2.31636 v 0 c 0.245409,0.007 0.490821,0.0133 0.736232,0.0199 2.028963,0.0871 4.080011,0.21139 6.037521,0.79371 1.76777,0.67959 1.238,0.53134 -1.82299,-1.2736 -0.21885,-0.12904 0.44077,0.25499 0.6449,0.40624 0.52243,0.38709 0.98215,0.82393 1.1208,1.47785 -0.009,1.05857 -0.23273,2.09696 -0.61272,3.0854 -0.53124,1.18197 -1.23806,2.28078 -2.039047,3.29794 -0.882436,0.9456 -1.826644,1.8477 -3.008728,2.409 -1.290661,0.53 -2.605482,0.9719 -3.988464,1.19679 -1.89217,0.29952 -3.81413,0.5508 -5.730878,0.35335 -0.786987,-0.0913 -1.564923,-0.17645 -2.315546,-0.44811 -0.212193,-0.0768 -0.812067,-0.38992 -0.620612,-0.27047 0.733328,0.45754 4.205203,2.4948 2.254314,1.28143 -1.055976,-0.70567 -1.98488,-1.55993 -2.183154,-2.88152 0.01344,-1.24019 0.292672,-2.43842 0.786916,-3.57798 0.557977,-1.42546 1.190276,-2.83346 2.002724,-4.13335 0.157072,-0.19006 0.29764,-0.39506 0.47122,-0.57017 1.141394,-1.1515 2.80162,-1.31285 4.309705,-1.61288 2.801276,-0.58578 5.589826,-1.25953 8.42701,-1.6516 0,0 -3.224494,-2.29398 -3.224494,-2.29398 z" />
    <path
       style="fill:#d40000;stroke-width:0.264583"
       id="path1024"
       d="m 25.70975,245.57021 c -1.837976,1.28182 -4.015871,2.18827 -5.615494,3.79539 -0.324932,0.32645 -0.59727,0.70134 -0.895905,1.05202 -1.036665,1.51169 -1.786045,3.19771 -2.006465,5.03067 -0.129248,1.07481 -0.05288,1.51484 0.01779,2.56799 0.247737,1.99451 0.924474,3.47304 2.249522,4.95984 2.455316,2.09166 5.422184,3.56224 8.20208,5.14387 0.32018,0.10078 0.627414,0.26114 0.960543,0.30236 2.398517,0.29681 5.865035,-1.41411 8.003913,-2.39508 2.110346,-1.07884 4.380712,-2.04529 5.916427,-3.91672 0.08483,-0.18995 0.21136,-0.36635 0.254485,-0.56987 0.19881,-0.9382 -0.674037,-1.63756 -1.369171,-2.06727 -3.774708,-2.33339 -3.313409,-2.06504 -5.986016,-3.30325 -3.552081,-1.42165 -7.208348,-2.54575 -10.782341,-3.91085 -0.610062,-0.25307 -1.220124,-0.50613 -1.830186,-0.75919 0,0 2.985992,2.35283 2.985992,2.35283 v 0 c 0.610631,0.24921 1.221263,0.49843 1.831892,0.74764 3.585625,1.35984 7.259944,2.47225 10.795857,3.96066 0.488683,0.23866 1.883786,1.06421 1.466048,0.71598 -0.622109,-0.5186 -1.372531,-0.86369 -2.091219,-1.23712 -0.332978,-0.17302 0.634363,0.40317 0.930291,0.6339 0.327718,0.25551 0.653312,0.4798 0.60941,0.93866 -0.01632,0.17055 -0.123442,0.31966 -0.185164,0.47948 -1.472295,1.82043 -3.69548,2.7696 -5.726178,3.82655 -2.203683,0.99943 -5.416921,2.61046 -7.901261,2.10706 -0.320693,-0.065 -0.611721,-0.23252 -0.917581,-0.34877 0.805422,0.47564 1.608649,0.95501 2.416266,1.42692 0.304165,0.17775 -0.604373,-0.36214 -0.905868,-0.54438 -1.055617,-0.63802 -2.106215,-1.29551 -3.066039,-2.07333 -1.401496,-1.42249 -2.061366,-2.74907 -2.391476,-4.7369 -0.09662,-1.01517 -0.186153,-1.44398 -0.07728,-2.48278 0.185263,-1.76772 0.906723,-3.40189 1.905572,-4.85418 0.290013,-0.33228 0.556001,-0.68717 0.870037,-0.99684 1.566827,-1.54507 3.767993,-2.55106 5.618298,-3.70558 0,0 -3.286782,-2.13971 -3.286782,-2.13971 z" />
    <path
       style="fill:#d40000;stroke-width:0.264583"
       id="path1026"
       d="m 74.647929,158.57342 c -1.238691,0.28382 -2.46222,0.62845 -3.690101,0.95448 -0.529193,0.14052 -2.144482,0.54486 -2.704851,0.75068 -0.391621,0.14383 -0.761849,0.3403 -1.142773,0.51045 -2.78434,1.65559 -3.81921,4.09315 -4.81272,7.03933 -0.732544,2.64259 -0.949555,5.58479 0.192066,8.15698 0.195009,0.43936 0.472279,0.8374 0.708419,1.2561 0.283292,0.33246 0.52482,0.70562 0.849876,0.99737 1.224339,1.09892 5.653601,2.71148 5.692992,2.72276 0.518671,0.14845 1.074299,-0.12246 1.600118,-0.24317 1.261409,-0.28956 2.233758,-0.72164 3.436067,-1.19125 1.499913,-0.64842 2.956764,-1.39397 4.394449,-2.16934 0.785543,-0.42366 1.199086,-0.63072 1.881007,-1.18502 0.258948,-0.21048 0.490551,-0.45254 0.735825,-0.67881 1.398675,-1.50132 2.010146,-3.48816 2.652019,-5.39207 0.434121,-1.13249 0.807713,-2.27693 0.977938,-3.47908 0.172833,-1.06003 -0.218168,-1.87725 -1.155155,-2.41074 -1.359633,-0.77413 -2.74047,-1.51042 -4.110702,-2.26562 -1.138965,-0.4992 -0.563507,-0.24615 -1.726337,-0.75922 0,0 3.059586,2.42368 3.059586,2.42368 v 0 c 1.168241,0.51741 0.590118,0.25978 1.734431,0.77273 -0.874498,-0.52759 -1.762951,-1.03271 -2.623495,-1.58277 -0.01511,-0.01 0.60112,0.17062 1.021392,0.6516 0.34666,0.39674 0.374256,0.83032 0.302551,1.33024 -0.14298,1.18466 -0.490074,2.31673 -0.905287,3.43415 -0.597377,1.84961 -1.181455,3.77864 -2.544837,5.2236 -0.235802,0.21394 -0.459383,0.44217 -0.707403,0.6418 -0.63735,0.51302 -1.095245,0.75861 -1.820905,1.16249 -1.409136,0.7843 -2.84153,1.53362 -4.331515,2.15418 -1.186913,0.44492 -2.15211,0.86808 -3.403909,1.10042 -0.514538,0.0955 -1.697292,-0.35953 -1.563143,0.14631 0.225973,0.85207 1.460281,1.01674 2.046248,1.67533 0.550013,0.61818 -2.906085,-1.77282 -1.966121,-1.51535 -0.249857,-0.39821 -0.541309,-0.77316 -0.749565,-1.19461 -1.217051,-2.46296 -1.024644,-5.36269 -0.320532,-7.93306 0.956421,-2.84668 1.962653,-5.19094 4.684281,-6.74148 2.398821,-1.02648 4.985488,-1.57963 7.540543,-2.07021 0,0 -3.230457,-2.29288 -3.230457,-2.29288 z" />
    <path
       style="fill:#d40000;stroke-width:0.264583"
       id="path1028"
       d="m 15.97751,103.14364 c -0.238826,0.13382 -0.473629,0.27508 -0.716477,0.40145 -0.05908,0.0307 -1.661087,0.80596 -1.710818,0.8337 -0.890858,0.49678 -1.66997,1.12481 -2.448409,1.77643 -1.6197599,1.49627 -2.4228481,3.50113 -2.9933726,5.58041 -0.6387137,2.65708 -0.5189537,4.98119 0.08245,7.61799 0.6645341,2.30068 1.8700076,4.14468 3.6842826,5.68187 1.75636,1.15476 1.908777,1.28458 4.860392,2.69319 0.285692,0.13634 0.61668,0.14587 0.929296,0.19566 1.165251,0.18561 2.353891,0.20506 3.530043,0.24802 2.068268,0.0583 4.181905,0.0209 6.168171,-0.63121 0.324908,-0.10667 0.63501,-0.25404 0.952516,-0.38106 1.776214,-0.7096 2.951506,-2.12055 4.014316,-3.64299 0.737688,-1.26571 1.248111,-2.63921 1.557854,-4.06727 0.289684,-1.22351 -0.150117,-2.31483 -0.708793,-3.38335 -0.801568,-1.39683 -1.916189,-2.48307 -3.222074,-3.39844 -3.607869,-2.24183 -4.376531,-2.78676 -8.032437,-3.07268 0,0 3.154025,2.33246 3.154025,2.33246 v 0 c 0.802393,0.0731 1.60333,0.14796 2.387442,0.3452 1.343932,0.33805 4.024032,1.88685 -1.159659,-1.03633 1.318186,0.86101 2.459117,1.86424 3.291872,3.22345 0.546391,0.97704 1.050483,1.97626 0.810638,3.12785 -0.265128,1.38709 -0.737004,2.71986 -1.452885,3.94261 -1.022318,1.4687 -2.154208,2.79796 -3.878024,3.4564 -2.299232,0.8734 -4.561539,1.03433 -7.008561,0.89447 -1.171455,-0.0551 -2.356141,-0.0869 -3.509063,-0.32677 -0.304901,-0.0635 -1.143295,-0.4414 -0.901607,-0.24498 0.573915,0.4664 4.056077,2.45273 1.843598,1.18333 -1.929001,-1.48445 -3.0664,-3.12966 -3.822567,-5.46248 -0.631395,-2.58666 -0.785554,-4.81951 -0.157744,-7.44007 0.539416,-2.00725 1.313845,-3.93624 2.889559,-5.36533 0.572359,-0.47358 0.890874,-0.76358 1.515617,-1.17305 1.060262,-0.69493 2.24973,-1.13854 3.355161,-1.75094 0,0 -3.304742,-2.15754 -3.304742,-2.15754 z" />
    <path
       style="fill:#ffff00;stroke-width:0.264583"
       id="path1103"
       d="m 76.149741,153.90895 c -2.516851,0.0929 -5.044305,-0.11735 -7.550708,0.16809 -1.7649,0.29305 -2.345941,1.39421 -3.129941,2.85437 -1.077145,2.18826 -1.703126,4.55914 -1.987013,6.97338 -0.175361,1.65043 -0.03045,2.94641 0.718952,4.42201 1.65322,2.7223 4.228309,3.72173 6.978034,5.2983 1.512379,0.83105 3.219098,0.89693 4.900951,0.99137 1.101947,0.0624 2.238256,0.0651 3.303796,-0.26903 0.486736,-0.1526 0.937837,-0.39031 1.395034,-0.61044 1.012473,-0.56876 1.989096,-1.24132 2.814405,-2.06287 0.592566,-0.64603 1.050346,-1.40198 1.544185,-2.12377 0.455509,-0.66769 0.737328,-1.40141 0.968425,-2.16872 0.393171,-1.48154 0.288825,-3.00859 -0.025,-4.49078 -0.359624,-1.3554 -0.876218,-2.65783 -1.65014,-3.82923 -1.562658,-1.86215 -3.868864,-2.93752 -6.052375,-3.91377 -1.265291,-0.50015 -2.617912,-0.70822 -3.942609,-0.99065 -1.211107,-0.15983 -2.421607,-0.32099 -3.634277,-0.46867 0,0 3.09836,2.3106 3.09836,2.3106 v 0 c 1.223122,0.15732 2.447121,0.31196 3.661011,0.53213 1.316154,0.28993 2.664219,0.49966 3.899712,1.06471 1.570731,0.73556 0.880409,0.43501 -2.308201,-1.43823 -0.155104,-0.0911 0.310973,0.18154 0.459491,0.28304 0.324551,0.22181 0.546309,0.41378 0.830543,0.68187 0.125966,0.11882 0.245867,0.24389 0.368803,0.36584 0.829217,1.10978 1.357294,2.37573 1.740667,3.70335 0.349748,1.41144 0.468241,2.86661 0.0817,4.28822 -0.227377,0.72662 -0.468336,1.43276 -0.908523,2.06605 -0.476568,0.70219 -0.925171,1.43474 -1.502093,2.05956 -0.799822,0.7816 -1.732245,1.43938 -2.717043,1.96533 -1.593842,0.72126 -2.812087,0.88203 -4.567849,0.73255 -1.671237,-0.1153 -3.336136,-0.26959 -4.812932,-1.13844 5.38225,3.16951 2.228385,1.42917 1.203741,0.56608 -0.610368,-0.51412 -1.09854,-1.1361 -1.540867,-1.79587 -0.810615,-1.39928 -0.993074,-2.607 -0.856716,-4.22625 0.231092,-2.371 0.827339,-4.70694 1.925987,-6.83228 0.789765,-1.4223 1.214064,-2.26409 2.927807,-2.53785 2.505192,-0.26503 5.031285,-0.10781 7.545671,-0.11887 0,0 -3.18099,-2.31113 -3.18099,-2.31113 z" />
    <path
       style="fill:#ffff00;stroke-width:0.264583"
       id="path1117"
       d="m 111.56384,120.19053 c -2.20482,-0.0258 -4.38087,0.34614 -6.55267,0.6747 -1.47156,0.19586 -2.94299,0.44432 -4.36241,0.88608 -1.00214,0.36107 -1.911474,0.95795 -2.761609,1.59232 -0.92379,0.68683 -1.672193,1.53414 -2.350246,2.4566 -0.755592,0.93377 -1.27359,1.97963 -1.565092,3.13946 -0.192908,1.84638 0.623578,3.48366 1.558774,5.01129 1.964499,2.61978 4.603253,4.42771 7.880333,5.2259 1.55063,0.31439 3.12453,0.69651 4.71609,0.64784 1.10876,-0.18682 2.20718,-0.50212 3.22254,-0.98807 1.05179,-0.56163 1.94561,-1.35385 2.81301,-2.16138 1.00278,-0.8856 1.78712,-1.94065 2.44542,-3.09723 0.65387,-1.30157 1.06442,-2.69514 1.31354,-4.12497 0.16974,-1.24561 0.29143,-2.50938 0.10363,-3.75743 -0.36093,-1.23261 -1.30272,-2.03474 -2.34292,-2.70242 -3.94341,-2.21398 -2.4214,-1.71137 -4.23774,-2.27238 0,0 3.11985,2.43313 3.11985,2.43313 v 0 c 1.45789,0.58697 0.51828,0.23134 -2.56612,-1.58081 1.03089,0.56906 2.00446,1.27555 2.48197,2.39298 0.24315,1.20522 0.11932,2.43145 -0.0302,3.6443 -0.22661,1.38753 -0.61336,2.74197 -1.24285,4.00491 -0.64847,1.11599 -1.42006,2.13129 -2.38953,2.99253 -0.84436,0.77837 -1.72904,1.52841 -2.762,2.0466 -0.9858,0.43718 -2.04141,0.7611 -3.11853,0.85498 -1.56095,-0.0344 -3.10338,-0.3483 -4.61852,-0.7064 -1.89405,-0.56292 -1.259172,-0.4682 1.50915,1.26693 0.24703,0.15484 -0.50699,-0.29109 -0.73965,-0.46677 -0.77089,-0.58208 -1.351452,-1.36558 -1.988246,-2.07973 -0.927161,-1.4279 -1.763329,-2.95067 -1.661705,-4.71122 0.266576,-1.11441 0.765741,-2.1094 1.486546,-3.00567 0.658603,-0.89317 1.401075,-1.69066 2.302795,-2.34658 0.82541,-0.60155 1.69568,-1.17592 2.67673,-1.4862 1.40476,-0.40951 2.84761,-0.66315 4.29552,-0.86623 2.17352,-0.34636 4.35919,-0.699 6.56925,-0.58844 0,0 -3.20508,-2.32862 -3.20508,-2.32862 z" />
    <path
       style="fill:#ffff00;stroke-width:0.264583"
       id="path1119"
       d="m 155.44167,153.19427 c -2.46981,0.0743 -4.9442,-0.082 -7.4051,0.17404 -1.64164,0.25748 -3.19136,0.86999 -4.61228,1.7173 -2.17105,1.38773 -3.39029,3.28371 -4.50352,5.55286 -0.70945,1.80568 -1.44161,3.7506 -1.12983,5.72879 0.0495,0.31387 0.15343,0.61669 0.23015,0.92503 1.36415,3.29541 3.85554,4.13182 6.93165,5.88863 1.28186,0.5634 2.66211,0.7097 4.04342,0.78592 1.21851,0.003 2.44586,0.0799 3.65978,-0.044 1.21607,-0.24181 2.31768,-0.88057 3.39503,-1.47319 1.24455,-0.74554 2.27709,-1.77726 3.33619,-2.7565 1.22304,-1.09069 1.79784,-2.6223 2.45011,-4.07964 0.29293,-0.76557 0.71266,-1.52723 0.82528,-2.3521 0.0559,-0.40941 0.005,-0.64959 -0.0385,-1.05506 -0.14657,-1.02708 -0.80025,-1.6438 -1.57051,-2.25481 -0.46347,-0.32226 -0.85934,-0.71754 -1.248,-1.12299 0,0 -3.63286,-1.525 -3.63286,-1.525 v 0 c 0.36999,0.42846 0.73702,0.86283 1.21218,1.18147 0.72531,0.55343 1.47806,1.0235 1.69731,1.97474 0.0356,0.2254 0.12497,0.69317 0.10481,0.93118 -0.0681,0.80389 -0.50545,1.55439 -0.7618,2.30108 -0.61945,1.41784 -1.19535,2.87916 -2.37797,3.93687 -1.03488,0.96109 -2.05727,1.96327 -3.29114,2.66921 -1.04595,0.56312 -2.1154,1.17956 -3.31087,1.3328 -1.20544,0.0783 -2.41697,0.0404 -3.62338,-7.9e-4 -1.35261,-0.0947 -2.69711,-0.28792 -3.9246,-0.90494 0.88244,0.52364 1.75866,1.0579 2.64731,1.57092 0.23181,0.13383 -0.46009,-0.27517 -0.67626,-0.43302 -1.02079,-0.74538 -1.80276,-1.74025 -2.31955,-2.89148 -0.088,-0.28836 -0.20315,-0.56979 -0.2641,-0.86506 -0.3929,-1.90349 0.31946,-3.81407 0.99032,-5.56151 0.20492,-0.41722 0.38714,-0.84638 0.61476,-1.25166 0.92607,-1.64887 2.20568,-3.07993 3.81929,-4.07475 1.40198,-0.78314 2.90372,-1.37365 4.50496,-1.59029 2.46649,-0.24091 4.94795,-0.12111 7.4225,-0.11292 0,0 -3.19476,-2.32113 -3.19476,-2.32113 z" />
    <path
       style="fill:#ffff00;stroke-width:0.264583"
       id="path1121"
       d="m 164.09305,109.48533 c -2.31347,-0.10631 -4.63002,-0.22876 -6.94628,-0.18792 -1.03125,0.0838 -2.09164,0.15454 -3.0105,0.68329 -0.28778,0.16561 -0.75509,0.55495 -1.0131,0.76107 -1.21999,1.14137 -2.15546,2.53874 -3.05557,3.93506 -0.81991,1.26886 -1.58501,2.58701 -2.10816,4.00802 -0.3026,1.0042 -0.36278,2.05603 -0.31,3.09735 0.27343,1.73968 1.3322,3.14701 2.47975,4.42061 2.05101,1.96409 4.55273,3.6557 7.34807,4.29467 1.70155,0.21602 3.42724,0.23411 5.1382,0.14362 1.42426,-0.123 2.81155,-0.42762 4.19606,-0.76457 1.09391,-0.32751 2.09703,-0.89508 3.01042,-1.57176 1.00779,-0.85337 1.99483,-1.75404 2.82176,-2.78655 0.66819,-0.97039 1.14981,-2.05388 1.48264,-3.18023 0.32546,-1.0823 0.36714,-2.17893 0.14479,-3.28069 -0.19105,-0.83333 -0.61626,-1.46324 -1.30174,-1.95869 -1.94963,-1.50945 -4.12255,-2.24881 -6.29744,-3.22331 -1.0399,-0.54173 -2.04169,-1.1322 -3.13202,-1.56821 0,0 3.08195,2.43277 3.08195,2.43277 v 0 c 1.07375,0.47666 2.07752,1.08165 3.13965,1.58266 1.50598,0.65518 5.77471,2.60169 -0.47966,-0.65745 0.75557,0.41689 1.1593,0.83508 1.42418,1.67484 0.26424,1.04225 0.27839,2.07059 -0.0343,3.11232 -0.31142,1.07808 -0.77802,2.11409 -1.41397,3.04189 -0.80697,1.00596 -1.75439,1.89729 -2.76243,2.69987 -0.89124,0.63621 -1.87133,1.15872 -2.93564,1.43948 -1.3523,0.34645 -2.71874,0.62438 -4.11478,0.72578 -1.69626,0.0623 -3.4165,0.0558 -5.09074,-0.25142 -1.58926,-0.44397 -3.15151,-1.509 1.41482,1.16664 0.23187,0.13586 -0.46776,-0.26628 -0.68834,-0.41982 -0.54037,-0.37614 -0.8647,-0.70081 -1.35293,-1.14448 -1.13444,-1.19794 -2.20154,-2.50204 -2.55163,-4.15983 -0.0798,-0.98868 -0.0191,-1.99316 0.23602,-2.955 0.48098,-1.40519 1.22325,-2.70432 2.02548,-3.94932 0.88544,-1.35482 1.80553,-2.7195 3.01823,-3.80656 0.29101,-0.22423 0.62923,-0.50624 0.9588,-0.67842 0.88683,-0.46332 1.90625,-0.50106 2.88024,-0.58404 2.32708,-0.0333 4.65936,0.0615 6.97704,0.27213 0,0 -3.17892,-2.3638 -3.17892,-2.3638 z" />
    <path
       style="fill:#ff6600;stroke-width:0.264583"
       id="path1186"
       d="m 88.836158,219.96275 c -3.770048,0.50922 -7.507089,1.22496 -11.186054,2.19195 -1.725819,0.50018 -3.538308,1.0774 -4.720493,2.52158 -0.180853,0.22093 -0.324093,0.47014 -0.48614,0.70521 -0.796462,1.27651 -1.200718,2.70996 -1.376148,4.19035 -0.107201,1.2919 -0.107738,2.59504 0.131522,3.87182 0.232455,0.7377 0.373428,1.48396 0.437518,2.25352 0.01217,1.35648 0.455559,2.63315 0.923316,3.88828 0.656598,1.83781 1.811597,3.42584 2.913457,5.01557 0.940789,1.32411 1.921425,2.6233 3.072659,3.77217 1.403559,1.18067 3.03385,2.11965 4.742013,2.78634 0.447138,0.17451 0.909622,0.27906 1.357022,0.45244 0.862917,0.31857 1.78318,0.42765 2.678771,0.62256 1.361953,0.35818 2.722703,0.42766 4.116647,0.29426 2.297443,-0.39314 4.519308,-1.11307 6.641147,-2.06653 2.629975,-1.26541 5.073295,-2.87845 7.427615,-4.59407 1.86949,-1.31343 2.97946,-3.01673 3.93513,-5.04306 0.75649,-1.61859 1.35207,-3.29814 1.73195,-5.04311 0.30097,-1.3214 -0.0756,-2.22493 -0.83704,-3.27844 -1.09787,-1.3936 -2.37738,-2.61304 -3.66344,-3.82768 -1.88058,-1.64184 -3.70537,-3.33426 -5.447,-5.12314 -1.894937,-2.12849 -4.074376,-3.93095 -6.512659,-5.39535 -1.975914,-0.97126 -4.276162,-2.955 -6.737956,-3.03991 -0.722075,-0.0249 -1.096103,0.0574 -1.811028,0.15472 -0.285038,0.0502 -0.570074,0.10034 -0.855112,0.15052 0,0 3.204593,2.24696 3.204593,2.24696 v 0 c 0.279837,-0.0457 0.559676,-0.0913 0.839513,-0.13701 0.8695,-0.0855 1.68308,-0.14546 2.542296,0.0691 0.262073,0.0654 0.518001,0.15506 0.770454,0.25114 0.273865,0.10423 1.04776,0.51584 0.80678,0.34913 -0.761261,-0.52666 -1.584804,-0.95706 -2.377207,-1.43559 2.468883,1.40527 4.680037,3.16753 6.565458,5.30268 1.724351,1.79584 3.518378,3.51042 5.412958,5.12682 1.26209,1.20656 2.54652,2.38356 3.64175,3.75083 0.72017,0.89419 1.27434,1.78144 0.9908,2.979 -0.33656,1.72722 -0.90745,3.38541 -1.65496,4.9796 -0.94412,2.00356 -1.98101,3.56872 -3.80577,4.89554 -2.330763,1.71788 -4.76407,3.30306 -7.403736,4.51014 -2.104133,0.91904 -4.299804,1.64757 -6.586209,1.9423 -1.379752,0.0745 -2.728968,-0.0544 -4.07117,-0.39943 -0.896393,-0.18654 -1.806329,-0.34 -2.662195,-0.67678 -0.446728,-0.14736 -0.897499,-0.27928 -1.326783,-0.47442 -0.159041,-0.0723 -0.618363,-0.3246 -0.468873,-0.23419 3.856977,2.3326 3.730543,2.2611 2.458318,1.40632 -1.18717,-1.1146 -2.194568,-2.39039 -3.137477,-3.71644 -1.089176,-1.57008 -2.272117,-3.11862 -2.945876,-4.92396 -0.457526,-1.21563 -0.925216,-2.44895 -0.931225,-3.76751 -0.04974,-0.78662 -0.12474,-1.56371 -0.410816,-2.30657 -0.329507,-1.22119 -0.302895,-2.51193 -0.211328,-3.76365 0.153114,-1.42036 0.497097,-2.8054 1.268688,-4.02877 0.150786,-0.21671 0.28408,-0.44671 0.452358,-0.65013 1.133377,-1.3701 2.906323,-1.88458 4.534773,-2.39289 3.674388,-0.99391 7.420107,-1.73909 11.215955,-2.07377 0,0 -3.186766,-2.28841 -3.186766,-2.28841 z" />
    <path
       style="fill:#ff6600;stroke-width:0.264583"
       id="path1188"
       d="m 20.401558,98.15819 c -3.831239,1.350074 -7.756004,2.43153 -11.6896436,3.44006 -1.4894806,0.31381 -3.0042114,0.69101 -4.1701624,1.72692 -0.6725028,0.59749 -0.9294553,0.99621 -1.4886136,1.7109 -0.9616809,1.42169 -1.8831977,2.89838 -2.51166671,4.50296 -0.33581622,0.8574 -0.45481988,1.36055 -0.69899582,2.23176 -0.42735457,2.55746 0.24406014,3.70644 1.87777303,5.58611 2.5312578,2.55259 5.1487881,5.00807 7.5219998,7.71132 1.9254303,2.16163 3.5273033,4.57343 5.1892963,6.93497 1.758134,2.37904 2.147729,2.57332 5.66196,4.02589 0.248512,0.10272 0.535913,-0.0451 0.803869,-0.0677 2.739564,-0.4555 5.31598,-1.53765 7.894214,-2.52651 1.531522,-0.56928 2.95621,-1.37719 4.468526,-1.99108 1.214435,-0.5012 2.322359,-1.14648 3.228602,-2.10279 1.15393,-1.28867 1.727219,-2.95177 2.356054,-4.53452 0.459428,-1.49562 1.151522,-2.93996 1.442376,-4.48579 0.06092,-0.32381 0.08498,-0.65349 0.127468,-0.98023 0.21019,-1.59548 -0.0046,-3.12325 -0.66983,-4.57826 -0.521438,-0.84627 -1.312939,-1.45958 -2.162516,-1.9543 -4.113808,-2.39555 -2.808729,-1.76434 -5.109884,-2.81899 -1.533515,-0.76097 -3.136207,-1.35895 -4.719543,-2.00365 -0.214923,-0.10679 -0.429844,-0.21358 -0.644765,-0.32038 0,0 3.072164,2.44761 3.072164,2.44761 v 0 c 0.217625,0.099 0.43525,0.19801 0.652875,0.29702 1.578134,0.63496 3.162448,1.25511 4.689629,2.00844 1.754409,0.85548 1.230368,0.62857 -1.593459,-1.02463 -0.234974,-0.13756 0.474155,0.26838 0.703379,0.41533 0.570907,0.366 1.104855,0.79147 1.525183,1.32783 0.726003,1.37369 0.993576,2.83447 0.801314,4.38869 -0.228727,1.89767 -0.890563,3.58705 -1.51711,5.38164 -0.614558,1.53596 -1.180899,3.14149 -2.314967,4.38314 -0.886261,0.90635 -1.976879,1.49497 -3.148801,1.9636 -1.479822,0.64419 -2.881137,1.45528 -4.392579,2.02839 -2.549846,0.99655 -5.124204,2.07732 -7.86759,2.38383 -0.254437,-0.007 -0.956851,-0.18689 -0.76331,-0.0216 0.851383,0.72727 1.895799,1.1921 2.839366,1.79496 0.143195,0.0915 -0.306698,-0.15294 -0.438069,-0.26072 -0.544974,-0.44712 -0.84895,-1.13967 -1.351359,-1.62517 -1.705275,-2.36297 -3.309785,-4.80468 -5.238471,-6.99758 -2.351502,-2.70285 -4.9434357,-5.16162 -7.4731254,-7.6952 -1.5929565,-1.73484 -2.3801554,-2.7748 -2.0327355,-5.2323 0.2325444,-0.88257 0.3235875,-1.3208 0.6577661,-2.18932 0.606884,-1.57727 1.5068486,-3.03075 2.4686635,-4.41204 0.5549485,-0.68855 0.7871378,-1.04731 1.452853,-1.61286 1.1377189,-0.96653 2.6162623,-1.29453 4.0277353,-1.64586 3.946502,-1.08236 7.880427,-2.21512 11.792134,-3.417 0,0 -3.258004,-2.192957 -3.258004,-2.192957 z" />
    <path
       style="fill:#ff6600;stroke-width:0.264583"
       id="path1190"
       d="m 77.692651,150.80267 c -2.325767,-0.61461 -4.684495,-1.11903 -7.063472,-1.47701 -1.494764,-0.16406 -3.006712,-0.35402 -4.514337,-0.33348 -0.962716,0.0131 -1.4726,0.10604 -2.427005,0.22803 -2.406472,0.31581 -4.649284,1.21359 -6.640684,2.58255 -1.18518,0.95922 -2.202302,2.19273 -2.579547,3.70302 -0.08167,0.32696 -0.11049,0.66489 -0.165735,0.99733 0.02895,0.42225 0.0041,0.85167 0.08684,1.26675 0.835422,4.19302 3.865976,7.73056 6.503194,10.91909 3.528621,3.98597 7.518045,7.54452 11.768796,10.74066 3.090074,2.23194 6.316634,4.32315 9.776196,5.94097 1.755253,0.81182 3.369294,0.85973 5.223216,0.43682 2.165022,-0.80812 2.703639,-1.72845 3.559979,-3.83058 0.578834,-1.84594 1.046507,-3.76148 0.897461,-5.7119 -0.09166,-1.19941 -0.261352,-1.63717 -0.56344,-2.79061 -0.971669,-2.83554 -2.479945,-5.45074 -4.001942,-8.02015 -1.439373,-2.23084 -2.732392,-4.56613 -4.275725,-6.72743 -1.996776,-2.6583 -3.71008,-3.20728 -6.800368,-4.94402 -0.504966,-0.1715 -0.98833,-0.39024 -1.465734,-0.62559 0,0 3.090079,2.4594 3.090079,2.4594 v 0 c 0.482074,0.21553 0.970714,0.41358 1.454338,0.6256 -6.43587,-3.78583 -2.533393,-1.60083 -1.742046,-1.00097 0.727139,0.55119 1.336977,1.23177 1.900235,1.9454 1.600351,2.12485 2.849274,4.49884 4.326708,6.70943 1.520907,2.54032 3.005534,5.13148 4.029935,7.91839 0.319402,1.12149 0.491963,1.53672 0.606599,2.70585 0.186264,1.89962 -0.258164,3.76825 -0.834041,5.56475 -0.161655,0.38304 -0.29428,0.77966 -0.48497,1.1491 -0.618977,1.19918 -1.639861,1.95423 -2.915182,2.33581 -1.864831,0.35907 -3.321246,0.19744 -5.052356,-0.6286 -1.761226,-0.8661 -1.154073,-0.59551 1.458865,0.94377 0.319206,0.18804 -0.643107,-0.36817 -0.959734,-0.56052 -1.271971,-0.77273 -2.479675,-1.64055 -3.698301,-2.49342 -4.312168,-3.1536 -8.327967,-6.72484 -11.902913,-10.69874 -2.622392,-3.14517 -5.544035,-6.4979 -6.430235,-10.62972 -0.08234,-0.38391 -0.07153,-0.78202 -0.107302,-1.17303 0.04785,-0.31094 0.07046,-0.62682 0.143547,-0.93281 0.34226,-1.43279 1.307193,-2.59945 2.435109,-3.49687 1.965568,-1.31764 4.160321,-2.16827 6.523193,-2.43769 2.297904,-0.25293 4.59531,-0.1572 6.882008,0.19315 2.380263,0.38255 4.757907,0.85424 7.062431,1.5691 0,0 -3.103661,-2.42183 -3.10366,-2.42183 z" />
    <path
       style="fill:#ff6600;stroke-width:0.264583"
       id="path1192"
       d="m 110.73646,117.79769 c -3.40631,-1.45513 -7.00114,-2.38418 -10.61701,-3.14277 -1.947679,-0.3079 -3.912088,-0.71373 -5.891828,-0.75953 -0.90938,-0.021 -1.18383,0.055 -2.058823,0.1833 -2.403613,0.66938 -4.036534,2.54438 -5.592871,4.37657 -1.338143,1.82001 -2.481821,3.92271 -2.891036,6.17415 -0.07794,0.42879 -0.08343,0.86763 -0.12514,1.30144 0.09118,3.22598 1.482416,4.94412 3.807444,6.99746 2.110269,1.60742 4.397399,3.09116 6.922513,3.94422 1.536648,0.51913 3.130175,0.77856 4.726014,1.02798 3.738427,0.43237 7.497327,0.63811 11.239487,1.03192 2.04935,0.16174 4.15088,0.66808 6.20708,0.25846 0.40001,-0.0797 0.78358,-0.22679 1.17537,-0.34018 2.63464,-0.98869 4.75393,-2.66258 6.68337,-4.66746 0.8959,-1.23874 2.00114,-2.64643 2.04503,-4.25667 0.0222,-0.81528 -0.1676,-1.07453 -0.46143,-1.79711 -1.14612,-1.7001 -2.89719,-2.85721 -4.46169,-4.14402 -0.68853,-0.60893 -1.40625,-1.1764 -2.17766,-1.6755 0,0 -3.67702,-1.42131 -3.67702,-1.42131 v 0 c 0.80415,0.46008 1.54146,1.00911 2.22651,1.63503 1.55038,1.27576 3.25137,2.42078 4.53049,3.98174 0.31736,0.60846 0.54561,0.8839 0.57252,1.60116 0.056,1.49219 -1.07328,2.92994 -1.89625,4.06281 -1.89247,1.9555 -3.97412,3.58782 -6.58119,4.48395 -0.38171,0.094 -0.75741,0.21718 -1.14514,0.28204 -2.0323,0.33996 -4.09423,-0.15875 -6.11875,-0.28725 -3.73887,-0.35793 -7.492553,-0.56472 -11.218913,-1.04675 -1.589712,-0.27555 -3.175691,-0.55307 -4.695735,-1.11707 -0.447085,-0.16589 -1.673955,-0.88151 -1.311389,-0.57176 0.625155,0.53411 1.374524,0.91391 2.119411,1.26209 0.416721,0.19478 -0.750692,-0.53184 -1.126035,-0.79776 -2.302053,-1.89863 -3.774938,-3.55394 -3.949089,-6.65892 0.0305,-0.41435 0.02313,-0.83325 0.0915,-1.24306 0.367081,-2.20018 1.492076,-4.2596 2.797683,-6.02816 1.513105,-1.76317 3.114768,-3.56682 5.473169,-4.11619 2.612173,-0.31896 5.220608,0.17024 7.792278,0.62349 3.65149,0.77507 7.26579,1.75973 10.68807,3.27544 0,0 -3.10094,-2.43178 -3.10094,-2.43178 z" />
    <text
       xml:space="preserve"
       style="font-size:6.35px;fill:#ff00ff;stroke-width:0.264583"
       x="103.25806"
       y="235.6129"
       id="text239"><tspan
         sodipodi:role="line"
         id="tspan237"
         style="stroke-width:0.264583"
         x="103.25806"
         y="235.6129">I</tspan></text>
    <text
       xml:space="preserve"
       style="font-size:6.35px;fill:#ff00ff;stroke-width:0.264583"
       x="32.290321"
       y="262.58063"
       id="text243"><tspan
         sodipodi:role="line"
         id="tspan241"
         style="stroke-width:0.264583"
         x="32.290321"
         y="262.58063">J</tspan></text>
  </g>
</svg>
