<?xml version="1.0" encoding="UTF-8" standalone="no"?>
<!-- Created with Inkscape (http://www.inkscape.org/) -->

<svg
   width="210mm"
   height="297mm"
   viewBox="0 0 210 297"
   version="1.1"
   id="svg1059"
   inkscape:version="1.2.2 (732a01da63, 2022-12-09)"
   sodipodi:docname="Graphen2.svg"
   xmlns:inkscape="http://www.inkscape.org/namespaces/inkscape"
   xmlns:sodipodi="http://sodipodi.sourceforge.net/DTD/sodipodi-0.dtd"
   xmlns="http://www.w3.org/2000/svg"
   xmlns:svg="http://www.w3.org/2000/svg">
  <sodipodi:namedview
     id="namedview1061"
     pagecolor="#ffffff"
     bordercolor="#000000"
     borderopacity="0.25"
     inkscape:showpageshadow="2"
     inkscape:pageopacity="0.0"
     inkscape:pagecheckerboard="0"
     inkscape:deskcolor="#d1d1d1"
     inkscape:document-units="mm"
     showgrid="false"
     inkscape:zoom="0.74564394"
     inkscape:cx="396.97231"
     inkscape:cy="561.9304"
     inkscape:window-width="1920"
     inkscape:window-height="1017"
     inkscape:window-x="-8"
     inkscape:window-y="-8"
     inkscape:window-maximized="1"
     inkscape:current-layer="layer1" />
  <defs
     id="defs1056" />
  <g
     inkscape:label="Ebene 1"
     inkscape:groupmode="layer"
     id="layer1">
    <ellipse
       style="fill:#000000;stroke-width:0.264583"
       id="path1063"
       cx="18.806452"
       cy="47.016129"
       rx="3.1935484"
       ry="3.016129" />
    <ellipse
       style="fill:#000000;stroke-width:0.264583"
       id="path1065"
       cx="131.82259"
       cy="53.225803"
       rx="2.6612904"
       ry="2.8387096" />
    <ellipse
       style="fill:#000000;stroke-width:0.264583"
       id="path1067"
       cx="140.69354"
       cy="138.74193"
       rx="4.4354839"
       ry="4.6129031" />
    <ellipse
       style="fill:#000000;stroke-width:0.264583"
       id="path1069"
       cx="42.580647"
       cy="143.35483"
       rx="3.5483871"
       ry="2.1290321" />
    <ellipse
       style="fill:#000000;stroke-width:0.264583"
       id="path1071"
       cx="22.709677"
       cy="99.177414"
       rx="3.5483871"
       ry="3.3709676" />
    <ellipse
       style="fill:#000000;stroke-width:0.264583"
       id="path1073"
       cx="78.241936"
       cy="40.451611"
       rx="3.3709676"
       ry="3.5483871" />
    <ellipse
       style="fill:#000000;stroke-width:0.264583"
       id="path1075"
       cx="146.19354"
       cy="90.306458"
       rx="3.5483871"
       ry="3.7258065" />
    <ellipse
       style="fill:#000000;stroke-width:0.264583"
       id="path1077"
       cx="50.387096"
       cy="182.38708"
       rx="4.6129031"
       ry="3.1935484" />
    <ellipse
       style="fill:#000000;stroke-width:0.264583"
       id="path1079"
       cx="56.951611"
       cy="82.145164"
       rx="5.1451616"
       ry="4.0806451" />
    <path
       style="fill:#000000;stroke-width:0.264583"
       d="m 16.32258,46.48387 c 0.363774,1.078579 0.06858,4.177549 0.354839,5.322581 0.803072,3.212287 -0.104105,-4.026387 0.709677,2.483871 0.229775,1.838195 -0.362681,3.864012 0,5.677418 0.532498,2.662486 0.354839,5.413809 0.354839,8.16129 0,4.139787 0,8.279572 0,12.419356 0,1.258544 -0.36203,8.856586 0,9.580645 0.189742,0.379484 0.975622,1.6853 1.064516,1.774192 0.08364,0.08364 0.271203,-0.08363 0.354839,0 0.167273,0.167275 -0.167272,0.542407 0,0.709679 0.08364,0.08364 0.271203,-0.08364 0.354839,0 0.431359,0.431358 0,2.814079 0,3.548388"
       id="path1128" />
    <path
       style="fill:#000000;stroke-width:0.264583"
       d="m 23.064516,101.48387 c 2.569747,3.57317 3.018666,8.18159 3.548387,12.41935 0.305874,2.447 -0.272404,4.99999 0,7.45162 0.175392,1.57853 0.841605,3.05252 1.064516,4.6129 0.17254,1.20778 0.135432,2.39989 0.709676,3.54839 0.588717,1.17743 1.277752,2.30728 1.774195,3.54839 0.170839,0.42709 0.376812,1.35811 0.709676,1.77419 0.313484,0.39185 0.751033,0.67266 1.064517,1.06451 0.770022,0.96253 1.048967,2.47351 2.129033,3.19355 0.524264,0.34951 1.620978,0.72581 2.129031,1.06452 0.492075,0.32805 1.001175,0.64633 1.419355,1.06452 0.183663,0.18366 0.171177,1.23569 0.35484,1.41935 0.167272,0.16727 0.542404,-0.16727 0.709676,0 0.08364,0.0836 -0.08364,0.2712 0,0.35484 0.310129,0.31013 1.422951,0.17921 1.774196,0.35484 0.946234,0.47312 -1.064517,0.35484 0.354838,0.35484"
       id="path1130" />
    <path
       style="fill:#000000;stroke-width:0.264583"
       d="m 25.193548,98.290321 c 4.919522,-5.152033 11.849812,-5.662504 18.096775,-8.16129 1.473956,-0.589582 2.565749,-1.381138 3.548385,-1.774193 1.369534,-0.547814 2.884943,-0.830874 4.258067,-1.419354 1.300199,-0.557231 1.827035,-1.064517 3.193547,-1.064517"
       id="path1132" />
    <path
       style="fill:#000000;stroke-width:0.264583"
       d="m 20.225806,47.193549 c 3.579099,-0.767768 6.941846,-1.911192 10.64516,-2.129034 4.132641,-0.243096 8.279572,0 12.419357,0 6.387097,0 12.774191,0 19.161289,0 2.589252,0 5.573135,0.369737 8.161289,0 1.246127,-0.178017 2.333051,-0.821449 3.548388,-1.064516 0.398024,-0.0796 3.410673,-0.571961 3.548388,-0.709676 0.473117,-0.47312 -0.591399,-0.354841 0.354838,-0.354841"
       id="path1134" />
    <path
       style="fill:#000000;stroke-width:0.264583"
       d="m 79.129032,39.032259 c 4.117541,1.460386 1.472327,0.101952 5.32258,1.064514 1.088594,0.27215 2.095519,0.833353 3.193548,1.064517 1.163198,0.244885 2.380686,0.132418 3.548387,0.354837 8.570908,1.632556 -0.74962,0.607457 7.806452,1.774196 0.347134,0.04734 6.915981,0.602551 7.451611,0.709676 0.62459,0.124917 1.14591,0.604964 1.7742,0.709678 1.95161,0.325269 2.23041,-0.185867 3.90322,0 3.08162,0.342403 0.50785,0.01701 3.54839,0.354838 1.3483,0.149813 2.56019,0.872654 3.90322,1.064517 0.35128,0.05018 0.71657,-0.06959 1.06452,0 0.22206,0.04441 2.05252,1.013505 2.12903,1.064517 0.94624,0.630822 -1.42182,0.117459 0.35484,0.709676 0.60352,0.201173 1.05021,-0.0286 1.41936,0.709678 0.31033,0.620663 1.09208,1.119661 1.41935,1.774193 0.0529,0.105794 -0.10579,0.301942 0,0.354838 0.21158,0.105794 0.49809,-0.105791 0.70968,0 0.10579,0.0529 -0.0836,0.271203 0,0.354841 0.0836,0.08363 0.24904,-0.0529 0.35484,0 0.4258,0.212902 0.63871,0.851611 1.06451,1.064514 0.56704,0.283522 1.29169,0.227176 1.7742,0.709678"
       id="path1136" />
    <path
       style="fill:#000000;stroke-width:0.264583"
       d="m 41.516127,142.29032 c 8.414105,-0.1895 16.79702,0.4098 25.193548,0.70968 6.027703,0.21527 6.618529,0.84522 13.483873,0.35484 2.269371,-0.1621 4.477362,-0.84537 6.741936,-1.06452 1.412753,-0.13672 2.840048,0.0616 4.258063,0 1.305209,-0.0568 2.598018,-0.29809 3.903226,-0.35484 5.622287,-0.24444 11.087077,0.43016 16.677417,0.70968 3.40975,0.17049 6.87446,0 10.29032,0 2.01509,0 6.7879,0.43206 8.51613,0 0.97056,-0.24264 1.75297,-0.35484 2.83871,-0.35484 0.59582,0 2.12903,0.32645 2.12903,-0.35484"
       id="path1138" />
    <path
       style="fill:#000000;stroke-width:0.264583"
       d="m 140.16129,137.67742 c -0.47312,0 -0.95099,0.0669 -1.41936,0 -2.3035,-0.32907 -4.97347,-1.83765 -7.09677,-2.48387 -4.30881,-1.31138 -8.74632,-2.15554 -13.12903,-3.19355 -5.95146,-1.40956 -11.79841,-3.17205 -17.74194,-4.61291 -1.645831,-0.39898 -3.32843,-0.6395 -4.967741,-1.06451 -1.55729,-0.40374 -3.052159,-1.02917 -4.612902,-1.41936 -5.021685,-1.25542 -2.503154,-0.11511 -6.741935,-1.41935 -1.466728,-0.4513 -3.173907,-0.87973 -4.612904,-1.41936 -3.353393,-1.25752 0.871373,-0.24075 -3.548386,-1.41935 -4.011871,-1.06983 -8.093612,-2.00228 -12.064515,-3.19355 -1.990619,-0.59718 -3.745394,-1.79386 -5.677421,-2.48387 -0.918536,-0.32805 -1.920174,-0.38163 -2.83871,-0.70968 -0.747217,-0.26686 -1.370676,-0.83117 -2.12903,-1.06451 -1.292908,-0.1847 -2.648432,-0.29142 -3.903226,-0.70968 -2.073966,-0.69132 -4.389882,-1.27308 -6.387097,-2.12903 -1.298721,-0.5566 -1.767303,-1.01186 -3.19355,-1.41936 -4.064693,-1.16134 4.037597,0.99103 -3.193547,-1.41935 -0.682546,-0.22752 -1.452883,-0.10897 -2.129034,-0.35484 C 34.126035,106.9256 33.640355,106.35292 33,106.09677 c -0.905598,-0.36224 -1.933112,-0.34744 -2.83871,-0.70967 -0.270118,-0.10805 -0.895286,-0.37122 -1.064516,-0.70968 -0.0529,-0.10579 0.11221,-0.31744 0,-0.35484 -0.33663,-0.11221 -0.716569,0.0696 -1.064517,0 -1.055719,-0.21115 -1.650988,-1.27446 -2.48387,-1.77419 -0.418182,-0.25091 -1.013581,-0.0843 -1.419355,-0.35484 -0.595893,-0.39726 -1.12258,-1.09355 -1.774194,-1.41936 -0.211584,-0.10579 -0.542404,0.16727 -0.709677,0 -0.08364,-0.0836 0,-0.23656 0,-0.35484"
       id="path1140" />
    <path
       style="fill:#000000;stroke-width:0.264583"
       d="m 56.064514,81.258062 c 2.991673,0.0326 5.855277,-0.596093 8.870969,-0.354838 1.667399,0.133393 3.300343,0.576287 4.967742,0.709679 4.344684,0.347575 8.772581,-0.18152 13.129033,0 2.742393,-0.04492 5.433684,0.579789 8.161289,0.709676 1.299602,0.06189 2.60395,-0.06838 3.903226,0 5.753677,0.302826 11.350877,1.852607 17.032257,2.483871 0.58778,0.06531 1.18641,-0.06531 1.77419,0 0.9694,0.107712 1.87089,0.588701 2.83871,0.709679 0.46947,0.05868 0.94914,-0.05225 1.41936,0 3.41854,0.379838 0.43241,0.402884 3.19355,0.709676 0.58778,0.06531 1.18967,-0.08993 1.77419,0 2.17763,0.335021 4.17536,1.235043 6.3871,1.419355 0.70722,0.05893 1.42144,-0.05443 2.12903,0 2.15729,0.165946 4.24815,0.850622 6.3871,1.064516 1.31166,0.131167 6.69205,0.304962 7.45161,1.064517"
       id="path1142" />
    <path
       style="fill:#000000;stroke-width:0.264583"
       d="m 132.35484,53.225805 c 0.70968,0.591399 1.58568,1.027089 2.12903,1.774195 0.43999,0.604986 0.415,1.44145 0.70968,2.129031 0.77124,1.799572 1.60828,3.571404 2.48387,5.322581 1.71913,3.438273 3.48347,6.728073 4.96774,10.290323 0.72659,1.743826 1.53174,3.530708 2.12903,5.32258 0.15422,0.462653 0.13674,0.983163 0.35484,1.419355 0.26448,0.528963 0.80004,0.890391 1.06452,1.419354 0.43619,0.872387 0.27348,1.966323 0.70967,2.83871 0.14962,0.299228 0.56007,0.41045 0.70968,0.709678 0.21159,0.42317 -0.14961,0.970516 0,1.419355 0.0529,0.158689 0.28003,0.205224 0.35484,0.354838 0.24668,0.49336 0,1.94628 0,2.483871"
       id="path1144" />
    <path
       style="fill:#000000;stroke-width:0.264583"
       d="m 50.741934,178.12903 c 0.205983,-5.97465 -2.172729,-11.60246 -3.193547,-17.3871 -0.165722,-0.93909 -0.179102,-1.90144 -0.354838,-2.83871 -0.269621,-1.43798 -0.88305,-2.80632 -1.064517,-4.25806 -0.05869,-0.46946 0.114747,-0.96036 0,-1.41936 -0.128294,-0.51317 -0.564362,-0.91074 -0.709679,-1.41935 -0.191672,-0.67085 -0.127926,-1.4483 -0.354838,-2.12903 -0.305146,-0.91544 -1.060987,-1.58796 -1.419354,-2.48387 -1.327343,-3.31836 -1.774193,-3.96785 -1.774193,-7.80645"
       id="path1146" />
    <path
       style="fill:#ff00ff;stroke-width:0.264583"
       d="m 57.129031,82.322581 c -0.578697,2.877838 0.796211,5.158083 1.419355,7.806451 0.245316,1.042594 0.168703,2.138778 0.35484,3.193548 0.72948,4.133725 2.472894,8.03142 3.548386,12.06451 0.340735,1.27776 0.388948,2.62031 0.709678,3.90323 0.613154,2.45262 1.460098,4.93885 1.774193,7.45161 0.216379,1.73104 0.309189,8.38955 0,9.93548 -0.124918,0.62459 -0.584761,1.14961 -0.709676,1.7742 -0.231966,1.15982 0.117692,2.37146 0,3.54838 -0.309417,3.09417 -0.354841,5.74723 -0.354841,8.87097 0,3.66667 0,7.33334 0,11 0,1.82418 0.25762,3.87408 0,5.67742 -0.05289,0.37028 -0.308446,0.69337 -0.354838,1.06452 -0.07335,0.58683 0.128291,1.19688 0,1.77419 -0.114747,0.51637 -0.501308,0.93316 -0.709678,1.41936 -1.313318,3.0644 0.956489,-1.6044 -0.709676,2.83871 -0.149741,0.39931 -0.559938,0.6652 -0.709679,1.06451 -0.498914,1.33044 -0.515673,2.69832 -1.419355,3.90323 -0.200726,0.26764 -0.560064,0.41045 -0.709676,0.70968 -0.886878,1.77375 1.097352,-0.39589 -0.354838,1.41935 -0.550772,0.68847 -1.372147,1.32494 -1.774195,2.12903 -0.393943,0.78789 -0.517668,1.75474 -1.064517,2.48387 -0.200726,0.26764 -0.537554,0.42281 -0.709676,0.70968 -0.715621,1.1927 0.0084,0.81675 -0.709678,1.7742 -0.200726,0.26763 -0.537554,0.4228 -0.709676,0.70967 -0.715621,1.1927 0.0084,0.81675 -0.709679,1.7742 -0.403153,0.53753 -1.064516,0.96749 -1.064516,1.41935"
       id="path1148" />
    <text
       xml:space="preserve"
       style="font-size:4.23333px;fill:#000000;stroke-width:0.264583"
       x="6.032258"
       y="45.419353"
       id="text1152"><tspan
         sodipodi:role="line"
         id="tspan1150"
         style="stroke-width:0.264583"
         x="6.032258"
         y="45.419353">A</tspan></text>
    <text
       xml:space="preserve"
       style="font-size:4.23333px;fill:#000000;stroke-width:0.264583"
       x="62.451611"
       y="29.096775"
       id="text1156"><tspan
         sodipodi:role="line"
         id="tspan1154"
         style="stroke-width:0.264583"
         x="62.451611"
         y="29.096775">B</tspan></text>
    <text
       xml:space="preserve"
       style="font-size:4.23333px;fill:#000000;stroke-width:0.264583"
       x="141.22581"
       y="43.645161"
       id="text1160"><tspan
         sodipodi:role="line"
         id="tspan1158"
         style="stroke-width:0.264583"
         x="141.22581"
         y="43.645161">C</tspan></text>
    <text
       xml:space="preserve"
       style="font-size:4.23333px;fill:#000000;stroke-width:0.264583"
       x="156.12903"
       y="89.419357"
       id="text1164"><tspan
         sodipodi:role="line"
         id="tspan1162"
         style="stroke-width:0.264583"
         x="156.12903"
         y="89.419357">D</tspan></text>
    <text
       xml:space="preserve"
       style="font-size:4.23333px;fill:#000000;stroke-width:0.264583"
       x="24.483871"
       y="88.354836"
       id="text1172"><tspan
         sodipodi:role="line"
         id="tspan1170"
         style="stroke-width:0.264583"
         x="24.483871"
         y="88.354836">F</tspan></text>
    <text
       xml:space="preserve"
       style="font-size:4.23333px;fill:#000000;stroke-width:0.264583"
       x="32.645161"
       y="147.25806"
       id="text1176"><tspan
         sodipodi:role="line"
         id="tspan1174"
         style="stroke-width:0.264583"
         x="32.645161"
         y="147.25806">G</tspan></text>
    <text
       xml:space="preserve"
       style="font-size:4.23333px;fill:#000000;stroke-width:0.264583"
       x="154.35484"
       y="140.16129"
       id="text1180"><tspan
         sodipodi:role="line"
         id="tspan1178"
         style="stroke-width:0.264583"
         x="154.35484"
         y="140.16129">H</tspan></text>
    <text
       xml:space="preserve"
       style="font-size:4.23333px;fill:#000000;stroke-width:0.264583"
       x="68.483871"
       y="188.7742"
       id="text1184"><tspan
         sodipodi:role="line"
         id="tspan1182"
         style="stroke-width:0.264583"
         x="68.483871"
         y="188.7742">I</tspan></text>
    <path
       style="fill:#ff00ff;stroke-width:0.264583"
       id="path265"
       d="m 69.657107,179.9835 c -0.918535,0.29924 -1.881566,0.45606 -2.788388,0.79437 -0.494845,0.1846 -0.965964,0.43805 -1.436227,0.67501 -1.265928,0.76066 -2.291554,1.83807 -3.124589,3.04485 -1.019074,1.54566 -1.753515,3.25157 -2.513896,4.9328 -0.659112,1.39682 -1.081085,2.57606 -0.875742,4.12804 0.766043,2.49033 3.04464,3.05446 5.275228,4.3026 1.825826,0.11719 3.636965,-0.38898 5.410933,-0.76199 1.960949,-0.40061 3.897149,-0.87447 5.646415,-1.86706 1.519859,-1.06849 1.997421,-2.85911 2.422559,-4.57284 0.302604,-1.25666 0.420412,-2.51688 0.254759,-3.79746 -0.297394,-1.17962 -0.863613,-2.28816 -1.743109,-3.13402 0,0 -3.663407,-1.48201 -3.663407,-1.48201 v 0 c 0.952957,0.70555 1.50433,1.76836 1.874681,2.87991 0.198345,1.2328 0.09462,2.45373 -0.169185,3.67402 -0.375089,1.61536 -0.799605,3.32015 -2.259989,4.29211 -1.728105,0.93764 -3.629536,1.40465 -5.548918,1.79073 -1.34927,0.277 -3.41253,0.81852 -4.778825,0.65646 -0.185806,-0.022 -0.36386,-0.0875 -0.545791,-0.13118 0.987616,0.58763 1.975888,1.17417 2.962847,1.7629 0.12859,0.0767 -0.265406,-0.14045 -0.38772,-0.22681 -0.564174,-0.39834 -0.940433,-1.03374 -1.211115,-1.65347 -0.300254,-1.52417 0.122706,-2.55025 0.738603,-3.94077 0.746075,-1.65998 1.469443,-3.34502 2.492216,-4.85883 0.822376,-1.13716 1.779813,-2.18818 3.019412,-2.88087 1.350407,-0.65509 2.770484,-1.04793 4.225864,-1.40334 0,0 -3.276616,-2.22315 -3.276616,-2.22315 z" />
    <path
       style="fill:#ff00ff;stroke-width:0.264583"
       id="path267"
       d="m 159.42634,132.61113 c -1.52486,0.0331 -3.05139,-0.0347 -4.574,0.0613 -1.55204,0.22725 -2.67949,1.22207 -3.71165,2.32286 -0.91123,1.11902 -1.69352,2.32029 -2.40314,3.57553 -0.72214,1.47771 -1.51461,2.92522 -2.10241,4.46366 -0.4266,1.14084 -0.14634,1.9329 0.66915,2.77457 2.64864,2.13939 5.05893,3.1581 8.22374,3.68622 2.18925,0.17733 4.47586,-0.092 6.52325,-0.92345 0.35014,-0.14218 0.68062,-0.32868 1.02093,-0.49302 1.26752,-0.82755 2.47711,-2.05548 2.4995,-3.67561 0.004,-0.29306 -0.062,-0.58289 -0.093,-0.87433 -0.20786,-1.28349 -0.8941,-2.40241 -1.26403,-3.63476 -0.0854,-0.49503 -0.003,-0.98733 0.062,-1.47814 0,0 -3.49239,-1.84077 -3.49239,-1.84077 v 0 c -0.0781,0.53771 -0.17128,1.07684 -0.13262,1.62297 0.31834,1.25159 1.02498,2.33941 1.31401,3.60014 0.0442,0.26144 0.12047,0.51945 0.13254,0.78432 0.0683,1.49927 -1.10717,2.61881 -2.27046,3.3523 -0.32808,0.15351 -0.64696,0.32846 -0.98423,0.46053 -2.029,0.7945 -4.27218,1.01945 -6.4245,0.7558 -0.99365,-0.19011 -1.95275,-0.3946 -2.89526,-0.77343 -0.2729,-0.10969 -1.05109,-0.52257 -0.80468,-0.36199 0.72113,0.46994 4.00177,2.429 2.23826,1.28768 -0.82285,-0.66345 -1.25801,-1.27611 -0.87824,-2.35744 0.54878,-1.53157 1.3189,-2.969 2.04882,-4.41976 0.70564,-1.22111 1.48468,-2.38877 2.37037,-3.48738 0.98241,-1.03965 2.05404,-1.94192 3.54061,-2.07814 1.52822,-0.0728 3.05947,-0.0224 4.589,-0.0236 0,0 -3.20164,-2.32612 -3.20164,-2.32612 z" />
    <path
       style="fill:#ff00ff;stroke-width:0.264583"
       id="path269"
       d="m 41.293092,135.50891 c -1.284407,0.23565 -2.698589,-0.0346 -3.934122,0.46519 -0.26657,0.10782 -0.505962,0.27339 -0.758944,0.41009 -1.684829,1.21538 -2.814989,3.00803 -4.027707,4.66003 -0.718386,0.97251 -1.385683,1.95096 -1.743122,3.11246 -0.261284,0.96211 -0.352682,1.90413 -0.04183,2.85753 0.552588,1.23021 1.622348,2.09243 2.641664,2.92787 1.970875,1.33345 3.924141,2.98059 6.270315,3.52631 1.763337,0.29006 3.558852,0.25407 5.328407,0.0509 1.236728,-0.20174 2.481008,-0.59893 3.307733,-1.6022 0.158205,-0.19199 0.276109,-0.41391 0.414163,-0.62087 0.721532,-1.3688 1.165077,-2.85525 1.531723,-4.35153 0.442272,-1.78096 0.159438,-2.69268 -0.874038,-4.16563 -1.700554,-1.94605 -4.107611,-3.28853 -6.562367,-4.05719 -1.18136,-0.23761 -2.385984,-0.34228 -3.582615,-0.47549 0,0 3.128031,2.32709 3.128031,2.32709 v 0 c 1.192239,0.13782 2.400689,0.23984 3.55963,0.56684 1.336786,0.51107 3.539731,1.84432 -1.679884,-1.18015 -0.180769,-0.10475 0.356454,0.2188 0.525661,0.34135 0.512217,0.37098 0.556948,0.45824 1.011682,0.92323 1.063093,1.36448 1.433644,2.10678 1.017243,3.85383 -0.348525,1.45326 -0.754004,2.90513 -1.464312,4.22944 -0.124386,0.18258 -0.229691,0.37974 -0.373156,0.54775 -0.78994,0.92507 -2.000345,1.22353 -3.149761,1.39733 -1.750467,0.17404 -3.533785,0.20443 -5.259845,-0.18568 -1.639327,-0.54104 -0.787273,-0.30608 2.317456,1.53197 0.144079,0.0853 -0.288523,-0.17022 -0.428514,-0.26208 -0.463153,-0.30388 -0.906364,-0.63942 -1.378913,-0.92963 -1.016979,-0.77381 -2.07723,-1.5967 -2.710735,-2.72787 -0.408255,-0.89806 -0.312177,-1.68562 -0.0858,-2.63029 0.326988,-1.12459 0.987163,-2.0596 1.651108,-3.0142 1.147475,-1.6239 2.245606,-3.3786 3.930762,-4.49878 0.238617,-0.11063 0.467084,-0.24649 0.715848,-0.3319 1.25172,-0.42977 2.647418,-0.19632 3.934696,-0.40283 0,0 -3.230454,-2.29288 -3.230454,-2.29288 z" />
    <path
       style="fill:#ff00ff;stroke-width:0.264583"
       id="path271"
       d="m 21.667478,89.323306 c -1.783053,-0.05111 -2.954406,0.190778 -4.44529,1.17933 -1.175952,0.835586 -2.072706,1.958969 -2.930167,3.101678 -0.692051,0.831911 -1.200658,1.771664 -1.528397,2.799115 -0.51791,1.914599 -0.06568,3.535251 0.632779,5.331341 0.813504,1.74987 2.003348,3.27083 3.405273,4.5832 1.892128,1.46206 3.971448,2.78978 6.329998,3.27132 1.126091,0.23458 1.94138,0.0819 2.946632,-0.42698 1.098148,-0.63432 1.908297,-1.65019 2.737409,-2.58894 1.191448,-1.22348 2.037403,-2.68451 2.848657,-4.17074 0.665589,-1.22572 1.068666,-2.537025 1.247175,-3.913861 0.09838,-1.004986 0.213759,-2.018372 -0.492329,-2.843012 -0.176347,-0.205957 -0.392832,-0.373835 -0.589245,-0.560752 -1.629328,-1.234255 -3.511177,-2.168454 -5.294464,-3.118557 -0.53019,-0.282474 -1.213867,-0.401277 -1.780902,-0.598773 -0.83999,-0.365546 -0.419392,-0.184804 -1.261787,-0.54224 0,0 3.085597,2.435942 3.085597,2.435942 v 0 c 0.847548,0.356246 0.419711,0.181356 1.283621,0.524383 0.103399,0.03474 1.091342,0.365747 1.190384,0.402815 0.187867,0.07032 0.725659,0.336632 0.556747,0.228431 -5.28136,-3.383116 -2.599164,-1.505871 -1.410404,-0.809585 1.382786,1.126167 1.362998,1.296998 1.221129,3.049002 -0.14921,1.333881 -0.506879,2.610496 -1.147094,3.799557 -0.793615,1.46418 -1.642853,2.88526 -2.815803,4.08592 -0.80423,0.89658 -1.593535,1.87223 -2.67539,2.44241 -0.957494,0.42697 -1.764045,0.46208 -2.791928,0.21321 -0.413229,-0.10367 -0.592859,-0.13645 -0.996856,-0.28906 -0.171555,-0.0648 -0.661717,-0.31299 -0.505781,-0.21648 5.365228,3.32073 3.123529,1.85234 1.960339,1.11169 -1.456466,-1.23662 -2.66602,-2.73533 -3.533375,-4.4429 -0.705988,-1.69578 -1.168033,-3.22817 -0.686879,-5.058533 0.301171,-0.988816 0.794547,-1.887939 1.449317,-2.690442 0.824173,-1.109628 1.698114,-2.192393 2.845314,-2.988249 1.459534,-0.903015 2.639933,-1.051367 4.340475,-0.979114 0,0 -3.194755,-2.321126 -3.194755,-2.321126 z" />
    <path
       style="fill:#ff00ff;stroke-width:0.264583"
       id="path273"
       d="m 62.254341,64.775651 c -1.619528,-0.210027 -3.221935,-0.14949 -4.837356,0.03821 -1.309912,0.155572 -2.418591,0.620199 -3.366175,1.532233 -0.772615,0.768938 -1.286578,1.714961 -1.601943,2.749114 -0.214564,1.289195 -0.348245,2.593914 -0.484272,3.894301 -0.08368,1.049893 -0.168717,2.104814 -0.109326,3.157818 0.14665,0.46691 0.132548,0.5486 0.419325,0.95435 1.116552,1.579758 4.143618,2.749722 5.310222,3.391751 2.815714,0.67431 5.742805,0.144429 8.556085,-0.280852 2.187855,-0.474766 4.556088,-0.782529 6.447641,-2.089706 0.830623,-0.574011 0.976027,-0.86674 1.574374,-1.624594 1.041223,-1.662216 1.021977,-3.186676 0.412065,-4.983007 -0.412708,-0.945798 -1.220168,-1.533577 -2.093806,-2.02579 -4.12627,-2.324756 -2.585167,-1.80654 -4.776587,-2.461508 -1.479468,-0.386528 -3.030238,-0.235816 -4.508796,-0.600237 0,0 3.141784,2.382737 3.141784,2.382737 v 0 c 1.482556,0.25377 3.014779,0.175459 4.465825,0.623718 1.72755,0.627886 0.805244,0.343623 -1.984295,-1.354627 -0.215077,-0.130937 0.441235,0.242943 0.657458,0.371973 0.45739,0.272949 0.816647,0.47762 1.175194,0.878356 0.142288,0.159027 0.242062,0.351496 0.363096,0.527243 0.666916,1.664438 0.7713,3.052209 -0.198896,4.644736 -0.202697,0.2594 -0.378909,0.541875 -0.608094,0.778198 -1.84686,1.904391 -4.716023,2.220505 -7.168737,2.746483 -2.807121,0.389811 -5.773349,0.900467 -8.540046,0.02957 0.91839,0.557308 1.835597,1.116565 2.755164,1.671926 0.16918,0.102171 -0.34131,-0.200097 -0.503976,-0.312354 -0.568954,-0.392636 -1.069202,-0.864267 -1.359058,-1.501756 -0.106723,-1.030185 0.008,-2.070865 0.06546,-3.101711 0.118067,-1.277869 0.264244,-2.555404 0.458523,-3.823311 0.278868,-0.974693 0.759028,-1.858169 1.493123,-2.570136 0.910402,-0.826857 1.980297,-1.202992 3.201212,-1.339014 1.61149,-0.171275 3.215531,-0.177213 4.823738,0.0597 0,0 -3.178924,-2.363808 -3.178924,-2.363808 z" />
    <path
       style="fill:#ff0000;stroke-width:0.264583"
       id="path338"
       d="m 7.216573,36.923903 c -1.5506559,0.347482 -3.0669936,0.80002 -4.5193785,1.447615 -1.2407824,0.692438 -2.16757509,1.817647 -3.01140446,2.938451 -0.96352814,1.100934 -1.17718134,2.454749 -1.33331824,3.8587 -0.1838186,1.329732 0.00382,2.593763 0.646536,3.767881 1.62221989,1.91262 3.9791901,3.121805 6.3305339,3.934843 1.2232923,0.436063 2.4861107,0.387639 3.7522314,0.217085 1.1993969,-0.27024 2.4603329,-0.530381 3.5274389,-1.18011 0.215574,-0.131257 0.405159,-0.30108 0.607739,-0.45162 0.941325,-1.018913 1.457475,-2.3373 2.049335,-3.574759 0.344323,-0.929732 1.159617,-1.752153 1.124135,-2.800083 -0.0077,-0.226261 -0.08313,-0.445084 -0.124689,-0.667628 -0.551972,-1.217147 -1.546274,-2.152293 -2.431542,-3.130084 0,0 -3.621418,-1.51987 -3.621418,-1.51987 v 0 c 0.869784,0.949333 1.808231,1.85906 2.501621,2.949744 0.06044,0.181414 0.154931,0.354854 0.181323,0.544243 0.138377,0.99296 -0.771902,1.802389 -1.058956,2.681332 -0.54949,1.181394 -1.032114,2.451386 -1.9346405,3.410897 -1.2010752,0.830652 -2.5910331,1.242865 -4.0272837,1.464665 -1.2438219,0.123433 -2.4679889,0.0988 -3.6470118,-0.36957 C 0.89697649,49.92136 -1.4134285,48.56241 3.9531763,51.622996 4.1262146,51.721681 3.6126515,51.414716 3.4548722,51.293119 3.2993687,51.173274 3.1619909,51.031589 3.0157885,50.900557 2.8785058,50.77752 2.7415413,50.654129 2.6044178,50.530915 1.878265,49.469529 1.6725313,48.260701 1.8285892,46.986753 c 0.1373201,-1.338485 0.3234892,-2.617208 1.2389296,-3.669628 0.8027598,-1.071901 1.6950296,-2.143016 2.9005143,-2.77051 1.446054,-0.628346 2.952355,-1.074587 4.5029999,-1.365255 0,0 -3.25446,-2.257457 -3.25446,-2.257457 z" />
    <path
       style="fill:#ff0000;stroke-width:0.264583"
       id="path340"
       d="M 35.080982,80.966002 C 33.1397,79.808765 31.183704,78.677166 29.216397,77.564336 28.661852,77.250649 28.173801,77.015032 27.55987,76.836264 c -0.281977,-0.08211 -0.574294,-0.12328 -0.861441,-0.184923 -1.636492,-0.162877 -3.269893,0.05301 -4.832908,0.540446 -0.673786,0.32698 -1.468069,0.517099 -2.044143,1.023694 -0.240092,0.211135 -0.512302,0.591291 -0.704881,0.842253 -0.522933,0.919655 -1.046291,1.84172 -1.404951,2.83944 -0.36325,0.905359 -0.655132,1.832409 -0.848924,2.78819 -0.156619,1.021175 -0.06482,2.077534 0.19733,3.073196 0.279647,0.852345 0.919648,1.438457 1.615344,1.961584 2.520545,1.879462 4.182423,2.64655 7.004352,2.766615 1.6304,-0.05083 3.246697,-0.319778 4.807482,-0.788101 1.51275,-0.405545 2.140056,-0.837168 3.113749,-2.043829 0.841886,-1.122532 1.452377,-2.387701 1.880537,-3.718894 0.294592,-1.006072 0.421838,-2.020988 0.140663,-3.038594 -0.179771,-0.480102 -0.485844,-0.867542 -0.936956,-1.122219 -3.714107,-2.096797 -2.750558,-1.817344 -5.237186,-2.466306 -0.248383,-0.08962 -0.496763,-0.179252 -0.745146,-0.268877 0,0 3.09328,2.407708 3.09328,2.407708 v 0 c 0.255583,0.08351 0.511165,0.167023 0.766747,0.250534 0.239218,0.06496 0.479647,0.125616 0.717651,0.194887 0.210253,0.06119 0.80814,0.319288 0.626872,0.196437 -0.934794,-0.63355 -1.9441,-1.149731 -2.906099,-1.741162 -0.566547,-0.348311 0.584475,0.256455 0.810025,0.497409 0.100097,0.106934 0.154625,0.248814 0.231936,0.373221 0.393171,0.951828 0.222343,1.847527 -0.01752,2.822734 -0.38859,1.292944 -0.971502,2.519426 -1.802598,3.590599 -0.253166,0.30875 -0.494543,0.635071 -0.806439,0.890633 -0.620927,0.508769 -1.423638,0.715544 -2.169668,0.958812 -1.535367,0.43107 -3.122204,0.696214 -4.72102,0.683872 -0.779944,-0.06349 -1.53497,-0.14781 -2.28843,-0.372129 -0.18114,-0.05393 -0.693176,-0.292494 -0.533985,-0.190624 1.17573,0.752393 4.244118,2.464824 2.651987,1.574445 -0.672873,-0.472302 -1.36985,-0.958106 -1.722339,-1.730129 -0.32579,-0.917868 -0.395457,-1.935115 -0.281939,-2.899537 0.172943,-0.942676 0.455031,-1.851699 0.822295,-2.737432 0.326213,-0.964943 0.828436,-1.850969 1.333586,-2.732352 0.199954,-0.253627 0.388858,-0.524301 0.642538,-0.730647 0.563702,-0.45852 1.310524,-0.649737 1.961187,-0.938667 1.526308,-0.436007 3.117922,-0.639609 4.69749,-0.382421 0.83371,0.227253 0.85612,0.194657 1.651786,0.571677 0.269192,0.127556 1.044273,0.573072 0.789435,0.41882 -4.984025,-3.016824 -1.98841,-1.095447 -0.844992,-0.480084 0,0 3.676396,1.429459 3.676396,1.429459 z" />
    <path
       style="fill:#ff0000;stroke-width:0.264583"
       id="path342"
       d="m 63.986489,22.552852 c -1.566548,-0.09838 -3.132921,-0.199353 -4.701675,-0.254908 -1.275506,-0.0025 -2.459789,0.428601 -3.608483,0.938708 -1.016831,0.487741 -1.663922,1.264253 -2.176727,2.241176 -0.593812,1.057311 -0.988952,2.191487 -1.284714,3.36284 -0.270298,1.239517 -0.344913,2.508427 -0.386588,3.772733 -0.07071,1.147556 -0.03373,1.962571 0.557388,2.969337 0.279799,0.41592 0.657095,0.730602 1.089271,0.979064 1.966142,1.130366 2.866416,1.957451 4.667006,2.414103 0.768411,0.161499 1.556039,0.167034 2.337642,0.168275 1.193924,-0.279754 2.365464,-0.64118 3.550531,-0.955442 1.052832,-0.207565 2.048824,-0.554974 2.997054,-1.048903 0.803185,-0.519285 1.48486,-1.249662 2.107036,-1.97308 0.687321,-0.71196 1.222915,-1.546284 1.808496,-2.339007 0.600847,-0.910362 1.105566,-1.892162 1.542372,-2.891666 0.492419,-1.176483 0.512842,-1.853856 -0.0024,-3.021851 -0.47012,-0.871752 -1.01682,-1.692254 -1.790663,-2.318655 -2.257658,-1.592045 -3.29879,-2.32543 -5.597451,-2.352884 -0.470148,-0.0043 -0.940313,-0.0021 -1.410464,-2.91e-4 0,0 3.199267,2.323109 3.199267,2.323109 v 0 c 0.467863,-6.61e-4 0.935855,-0.0029 1.403527,0.01367 0.376497,0.02198 0.751549,0.03949 1.120299,0.126336 1.299443,0.306026 3.286951,1.92737 -2.399435,-1.562102 0.845929,0.511487 1.38034,1.306094 1.883802,2.140933 0.569812,1.066648 0.615503,1.581698 0.154024,2.717731 -0.420822,0.974566 -0.910899,1.929318 -1.500229,2.812841 -0.579062,0.784013 -1.118079,1.601981 -1.789285,2.312998 -0.603575,0.680379 -1.249333,1.378572 -2.038966,1.840833 -0.923131,0.475851 -1.916144,0.759259 -2.926226,0.993937 -1.160473,0.315436 -2.316996,0.697275 -3.511894,0.850423 -0.762791,-0.01643 -1.532723,-0.03879 -2.271093,-0.252989 -1.378426,-0.457033 -2.937854,-1.573879 2.151957,1.426906 0.58728,0.346242 -1.720916,-0.862653 -1.157399,-0.817134 -0.7308,-1.010208 -0.708274,-1.531228 -0.664419,-2.756024 0.02737,-1.239748 0.08166,-2.485343 0.336619,-3.702802 0.279963,-1.143822 0.674492,-2.243269 1.252082,-3.273787 0.469077,-0.902108 1.08375,-1.589801 2.029204,-2.016946 1.118494,-0.472216 2.269635,-0.848735 3.501686,-0.799732 1.570942,0.05755 3.142427,0.133207 4.707014,0.290037 0,0 -3.178125,-2.357793 -3.178125,-2.357793 z" />
    <circle
       id="path584"
       style="fill:#ff0000;stroke:#000000;stroke-width:0.264583"
       cx="406.64517"
       cy="98.645164"
       r="0.047264166" />
    <text
       xml:space="preserve"
       style="font-size:6.35px;fill:#ff00ff;stroke-width:0.264583"
       x="62.096775"
       y="73.096771"
       id="text391"><tspan
         sodipodi:role="line"
         id="tspan389"
         style="stroke-width:0.264583"
         x="62.096775"
         y="73.096771">E</tspan></text>
  </g>
</svg>
