<?xml version="1.0" encoding="UTF-8" standalone="no"?>
<!-- Created with Inkscape (http://www.inkscape.org/) -->

<svg
   width="210mm"
   height="297mm"
   viewBox="0 0 210 297"
   version="1.1"
   id="svg382"
   inkscape:version="1.2.2 (732a01da63, 2022-12-09)"
   sodipodi:docname="Kreissechsknotenbeispiel.svg"
   xmlns:inkscape="http://www.inkscape.org/namespaces/inkscape"
   xmlns:sodipodi="http://sodipodi.sourceforge.net/DTD/sodipodi-0.dtd"
   xmlns="http://www.w3.org/2000/svg"
   xmlns:svg="http://www.w3.org/2000/svg">
  <sodipodi:namedview
     id="namedview384"
     pagecolor="#ffffff"
     bordercolor="#000000"
     borderopacity="0.25"
     inkscape:showpageshadow="2"
     inkscape:pageopacity="0.0"
     inkscape:pagecheckerboard="0"
     inkscape:deskcolor="#d1d1d1"
     inkscape:document-units="mm"
     showgrid="false"
     inkscape:zoom="0.78127806"
     inkscape:cx="396.78575"
     inkscape:cy="561.89982"
     inkscape:window-width="1920"
     inkscape:window-height="1017"
     inkscape:window-x="-8"
     inkscape:window-y="-8"
     inkscape:window-maximized="1"
     inkscape:current-layer="layer1" />
  <defs
     id="defs379" />
  <g
     inkscape:label="Ebene 1"
     inkscape:groupmode="layer"
     id="layer1">
    <ellipse
       style="fill:#2b0000;stroke-width:0.264583"
       id="path386"
       cx="94.653938"
       cy="37.421322"
       rx="3.2172177"
       ry="2.8785632" />
    <ellipse
       style="fill:#2b0000;stroke-width:0.264583"
       id="path388"
       cx="155.2731"
       cy="68.746864"
       rx="2.5399086"
       ry="2.7092361" />
    <ellipse
       style="fill:#2b0000;stroke-width:0.264583"
       id="path390"
       cx="119.71436"
       cy="105.15222"
       rx="2.5399086"
       ry="2.8785632" />
    <circle
       style="fill:#2b0000;stroke-width:0.264583"
       id="path392"
       cx="69.424171"
       cy="95.839226"
       r="3.3865454" />
    <ellipse
       style="fill:#2b0000;stroke-width:0.264583"
       id="path394"
       cx="61.973774"
       cy="70.609467"
       rx="2.3705816"
       ry="2.2012541" />
    <ellipse
       style="fill:#2b0000;stroke-width:0.264583"
       id="path396"
       cx="69.085518"
       cy="45.718357"
       rx="3.3865454"
       ry="2.7092361" />
    <path
       style="fill:#2b0000;stroke-width:0.264583"
       id="path398"
       d="m 97.987465,37.71956 c 2.087235,0.877584 4.198855,1.689905 6.289185,2.560188 1.42258,0.561044 2.78948,1.245526 4.15014,1.939568 0.79464,0.405331 1.73537,0.818488 2.46851,1.334487 1.88899,1.179629 3.78222,2.375357 5.8539,3.208319 2.28186,0.856213 4.6157,1.565312 6.86831,2.499005 2.62208,1.326153 5.14494,2.83468 7.74646,4.200041 2.74402,1.428496 5.59632,2.630416 8.35611,4.024815 2.17403,1.040305 4.1027,2.502908 6.0356,3.929748 1.44936,1.2006 3.0007,2.359713 4.14938,3.868496 0.53004,0.930371 0.77434,1.969461 1.05003,2.992964 0.045,0.125492 0.09,0.250982 0.13507,0.376473 0,0 0.89705,0.417783 0.89705,0.417783 v 0 c -0.0468,-0.123002 -0.0935,-0.246007 -0.1403,-0.369009 -0.27797,-1.033151 -0.52677,-2.07854 -1.03821,-3.028598 -1.12737,-1.537616 -2.71657,-2.685582 -4.16054,-3.903925 -2.44326,-1.806927 -4.94123,-3.562871 -7.68553,-4.890193 -2.75849,-1.385435 -5.60637,-2.585058 -8.34315,-4.016584 -2.60283,-1.371772 -5.12782,-2.886556 -7.76103,-4.200223 -2.2581,-0.926592 -4.59389,-1.63802 -6.87499,-2.503686 -2.73352,-1.125852 0.86896,0.385612 -1.71184,-0.783886 -0.0246,-0.01117 0.0703,0.07947 0.0467,0.06626 -0.85682,-0.480031 -1.67925,-1.027785 -2.51734,-1.538838 -2.67424,-1.566791 -5.40154,-3.054779 -8.27984,-4.218847 -2.09759,-0.874927 -4.21818,-1.688621 -6.310785,-2.575417 0,0 0.77707,0.611057 0.77707,0.611057 z" />
    <path
       style="fill:#2b0000;stroke-width:0.264583"
       id="path400"
       d="m 150.85235,70.628805 c -1.77687,1.84784 -3.49969,3.744688 -5.13369,5.719943 -1.06424,1.186563 -1.87442,2.559714 -2.7628,3.874066 -1.34353,1.954689 -2.50141,4.026643 -3.74431,6.045258 -0.76702,1.382152 -1.51404,2.773471 -2.45636,4.045707 -0.68137,0.937545 -1.50735,1.744985 -2.32805,2.557581 -1.55191,1.596361 -3.01973,3.270274 -4.57417,4.866227 -0.77223,0.944269 -1.69268,1.713051 -2.68579,2.407833 -1.1227,0.88408 -2.27048,1.73286 -3.39463,2.6149 -1.14307,0.8691 -2.44263,1.42353 -3.75673,1.97115 -1.30793,0.50625 -0.65763,0.25051 -1.95095,0.76707 0,0 0.80807,0.54143 0.80807,0.54143 v 0 c 1.29352,-0.51629 0.64228,-0.26063 1.95379,-0.76676 1.32447,-0.54788 2.63098,-1.10977 3.77863,-1.98893 1.1194,-0.88611 2.26543,-1.73448 3.39446,-2.60845 0.99631,-0.69928 1.91078,-1.481542 2.68383,-2.430896 1.54864,-1.600652 3.01498,-3.276925 4.57915,-4.860658 0.8282,-0.812956 1.65785,-1.624102 2.33972,-2.568535 0.93956,-1.277689 1.68254,-2.674096 2.44726,-4.06064 1.2389,-2.019339 2.39569,-4.091059 3.749,-6.037511 0.88959,-1.309616 1.69993,-2.678361 2.75463,-3.868309 1.62395,-1.980483 3.33617,-3.885149 5.13748,-5.706618 0,0 -0.83854,-0.513858 -0.83854,-0.513858 z" />
    <path
       style="fill:#2b0000;stroke-width:0.264583"
       id="path402"
       d="m 73.004399,95.712837 c 2.954787,1.384668 5.97636,2.631882 9.099272,3.588512 0.896958,0.274762 1.806786,0.505608 2.710182,0.758411 4.129448,1.00749 8.29097,1.90177 12.464619,2.70958 1.98198,0.46257 3.980108,0.85177 5.967108,1.29061 1.3856,0.40625 2.8137,0.62477 4.23134,0.88377 1.82406,0.49713 3.70967,0.65642 5.57535,0.91241 1.16342,0.18285 2.32938,0.33854 3.50547,0.40443 0.61566,0.0296 1.23218,0.03 1.84839,0.033 0,0 -0.79845,-0.58075 -0.79845,-0.58075 v 0 c -0.61538,-0.004 -1.23104,-0.006 -1.84581,-0.0375 -1.17101,-0.0694 -2.33216,-0.2271 -3.49156,-0.40355 -1.8682,-0.24977 -3.75158,-0.42647 -5.57782,-0.91993 -1.41614,-0.25966 -2.84119,-0.48233 -4.22651,-0.88438 -1.98465,-0.43133 -3.977248,-0.82664 -5.957255,-1.28007 -4.162229,-0.79919 -8.314526,-1.6765 -12.428892,-2.692267 -0.90401,-0.255264 -1.814438,-0.488807 -2.712032,-0.765794 -3.135926,-0.967711 -6.171089,-2.225751 -9.133168,-3.63221 0,0 0.769766,0.615738 0.769766,0.615738 z" />
    <path
       style="fill:#2b0000;stroke-width:0.264583"
       id="path404"
       d="m 68.419426,92.610658 c -1.172871,-0.990483 -2.463869,-1.864055 -3.437009,-3.067915 -0.52787,-0.653023 -0.664323,-0.955323 -1.06667,-1.662885 -0.741918,-1.419339 -0.657873,-2.723364 -0.367557,-4.235828 0.493001,-1.752063 1.060355,-3.470399 1.429769,-5.256094 0.201374,-1.327861 0.452308,-2.801776 0.06568,-4.129317 -0.05975,-0.205169 -0.163449,-0.394896 -0.245174,-0.592344 -0.427196,-0.873784 -1.155949,-1.493962 -1.845315,-2.149726 0,0 -0.911863,-0.375291 -0.911863,-0.375291 v 0 c 0.681789,0.654667 1.424437,1.253281 1.863619,2.114458 0.0849,0.190791 0.192622,0.372991 0.254717,0.572376 0.399526,1.282864 0.157679,2.812367 -0.03908,4.100766 -0.367419,1.786665 -0.939405,3.502226 -1.438523,5.252828 -0.296693,1.529493 -0.397201,2.858154 0.342841,4.300495 0.399267,0.712301 0.540015,1.025663 1.063377,1.684695 0.961789,1.21112 2.248347,2.084216 3.417559,3.075969 0,0 0.91363,0.367813 0.913629,0.367813 z" />
    <path
       style="fill:#2b0000;stroke-width:0.264583"
       id="path406"
       d="m 61.356594,69.673728 c -0.236567,-3.070232 -0.531699,-6.135335 -0.750692,-9.206973 -0.137387,-1.795354 -0.230336,-3.586247 -0.07273,-5.381286 0.450099,-1.663671 1.18363,-3.233788 1.976472,-4.758153 0.813954,-1.56504 2.010368,-2.824464 3.366945,-3.92461 0.649666,-0.453128 0.339492,-0.232417 0.93145,-0.66082 0,0 -0.83271,-0.528471 -0.83271,-0.528471 v 0 c -0.5901,0.430141 -0.280284,0.207097 -0.930196,0.668086 -1.3604,1.114269 -2.561431,2.38769 -3.380711,3.962802 -0.797732,1.535851 -1.539301,3.114231 -2.005515,4.786149 -0.154112,1.80399 -0.05419,3.60231 0.08716,5.405985 0.224872,3.067227 0.52751,6.127776 0.731941,9.196514 0,0 0.878586,0.440777 0.878586,0.440777 z" />
    <path
       style="fill:#2b0000;stroke-width:0.264583"
       id="path408"
       d="m 68.7849,44.776339 c 3.405132,-1.095198 6.851941,-2.050812 10.278986,-3.073805 2.481599,-0.756769 4.988666,-1.425786 7.500874,-2.071166 1.523801,-0.452739 2.964746,-1.122127 4.489937,-1.56845 1.119312,-0.251619 2.250368,-0.456573 3.381314,-0.651282 0,0 -0.806982,-0.565285 -0.806982,-0.565285 v 0 c -1.131231,0.199707 -2.263981,0.402939 -3.38238,0.664197 -1.522053,0.452868 -2.963992,1.119602 -4.489112,1.565089 -2.50322,0.656098 -5.000265,1.338252 -7.476254,2.092288 -3.434212,1.025449 -6.886414,1.988161 -10.308098,3.055435 0,0 0.811715,0.552979 0.811715,0.552979 z" />
    <text
       xml:space="preserve"
       style="font-size:6.35px;fill:#2b0000;stroke-width:0.264583"
       x="59.603191"
       y="44.025082"
       id="text464"><tspan
         sodipodi:role="line"
         id="tspan462"
         style="stroke-width:0.264583"
         x="59.603191"
         y="44.025082">a</tspan></text>
    <text
       xml:space="preserve"
       style="font-size:6.35px;fill:#2b0000;stroke-width:0.264583"
       x="89.066132"
       y="29.462942"
       id="text518"><tspan
         sodipodi:role="line"
         id="tspan516"
         style="stroke-width:0.264583"
         x="89.066132"
         y="29.462942">b</tspan></text>
    <text
       xml:space="preserve"
       style="font-size:6.35px;fill:#2b0000;stroke-width:0.264583"
       x="168.64995"
       y="69.762825"
       id="text522"><tspan
         sodipodi:role="line"
         id="tspan520"
         style="stroke-width:0.264583"
         x="168.64995"
         y="69.762825">c</tspan></text>
    <text
       xml:space="preserve"
       style="font-size:6.35px;fill:#2b0000;stroke-width:0.264583"
       x="126.31813"
       y="107.01482"
       id="text526"><tspan
         sodipodi:role="line"
         id="tspan524"
         style="stroke-width:0.264583"
         x="126.31813"
         y="107.01482">d</tspan></text>
    <text
       xml:space="preserve"
       style="font-size:6.35px;fill:#2b0000;stroke-width:0.264583"
       x="57.232609"
       y="99.225769"
       id="text530"><tspan
         sodipodi:role="line"
         id="tspan528"
         style="stroke-width:0.264583"
         x="57.232609"
         y="99.225769">e</tspan></text>
    <text
       xml:space="preserve"
       style="font-size:6.35px;fill:#2b0000;stroke-width:0.264583"
       x="47.750286"
       y="65.698975"
       id="text534"><tspan
         sodipodi:role="line"
         id="tspan532"
         style="stroke-width:0.264583"
         x="47.750286"
         y="65.698975">f</tspan></text>
  </g>
</svg>
