<?xml version="1.0" encoding="UTF-8" standalone="no"?>
<!-- Created with Inkscape (http://www.inkscape.org/) -->

<svg
   width="210mm"
   height="297mm"
   viewBox="0 0 210 297"
   version="1.1"
   id="svg5"
   inkscape:version="1.2.2 (732a01da63, 2022-12-09)"
   sodipodi:docname="kreisfünfknoten.svg"
   xmlns:inkscape="http://www.inkscape.org/namespaces/inkscape"
   xmlns:sodipodi="http://sodipodi.sourceforge.net/DTD/sodipodi-0.dtd"
   xmlns="http://www.w3.org/2000/svg"
   xmlns:svg="http://www.w3.org/2000/svg">
  <sodipodi:namedview
     id="namedview7"
     pagecolor="#ffffff"
     bordercolor="#000000"
     borderopacity="0.25"
     inkscape:showpageshadow="2"
     inkscape:pageopacity="0.0"
     inkscape:pagecheckerboard="0"
     inkscape:deskcolor="#d1d1d1"
     inkscape:document-units="mm"
     showgrid="false"
     inkscape:zoom="0.74564394"
     inkscape:cx="396.97231"
     inkscape:cy="561.9304"
     inkscape:window-width="1920"
     inkscape:window-height="1017"
     inkscape:window-x="-8"
     inkscape:window-y="-8"
     inkscape:window-maximized="1"
     inkscape:current-layer="layer1" />
  <defs
     id="defs2" />
  <g
     inkscape:label="Ebene 1"
     inkscape:groupmode="layer"
     id="layer1">
    <ellipse
       style="fill:#2b0000;stroke-width:0.264583"
       id="path111"
       cx="98.822578"
       cy="27.32258"
       rx="3.3709676"
       ry="2.8387096" />
    <ellipse
       style="fill:#2b0000;stroke-width:0.264583"
       id="path113"
       cx="44.354839"
       cy="60.5"
       rx="3.5483871"
       ry="4.0806451" />
    <ellipse
       style="fill:#2b0000;stroke-width:0.264583"
       id="path115"
       cx="87.1129"
       cy="104.85484"
       rx="4.0806451"
       ry="3.016129" />
    <ellipse
       style="fill:#2b0000;stroke-width:0.264583"
       id="path117"
       cx="133.06451"
       cy="84.80645"
       rx="3.1935484"
       ry="3.5483871" />
    <ellipse
       style="fill:#2b0000;stroke-width:0.264583"
       id="path119"
       cx="139.98386"
       cy="43.467739"
       rx="3.7258065"
       ry="3.016129" />
    <path
       style="fill:#2b0000;stroke-width:0.264583"
       id="path170"
       d="m 97.438013,29.297304 c -6.035701,0.931707 -11.889438,2.717787 -17.721569,4.483209 -0.949127,0.309933 -1.899658,0.615582 -2.847375,0.929793 -1.642752,0.54465 -2.664973,0.873784 -4.234452,1.51878 -1.767308,0.7263 -3.4456,1.598107 -5.120783,2.511681 -3.811886,2.136363 -7.327662,4.740297 -10.619068,7.604107 -1.241827,1.050591 -2.298221,2.29721 -3.521884,3.366286 -1.229535,1.074205 -1.583246,1.305618 -2.950366,2.351254 -2.761152,2.117685 -5.795825,3.864972 -8.349057,6.244563 -0.75203,0.83919 -0.416864,0.419621 -1.017905,1.248691 0,0 0.84528,0.499546 0.84528,0.499546 v 0 c 0.589688,-0.82051 0.26021,-0.404857 1.001091,-1.236816 2.537103,-2.388097 5.561174,-4.142705 8.321813,-6.250059 1.284993,-0.975055 1.805916,-1.333534 2.975112,-2.346735 1.226555,-1.062902 2.271596,-2.318247 3.508322,-3.371291 3.277045,-2.870563 6.785856,-5.473706 10.602516,-7.589814 1.673529,-0.907251 3.350421,-1.774976 5.112144,-2.502561 1.537356,-0.634924 2.607942,-0.989629 4.212502,-1.527879 0.943721,-0.316571 1.89071,-0.623311 2.836066,-0.934966 5.84173,-1.772941 11.710983,-3.561837 17.769004,-4.434504 0,0 -0.801391,-0.563285 -0.801391,-0.563285 z" />
    <path
       style="fill:#2b0000;stroke-width:0.264583"
       id="path172"
       d="m 42.973511,61.725121 c 0.932833,4.043701 3.093119,7.589203 5.348568,11.012281 1.691608,2.607903 3.655171,5.003046 5.6442,7.382796 2.275154,2.609075 4.894476,4.894675 7.457593,7.213822 1.462929,1.259914 2.75485,2.68723 4.037851,4.123539 1.179034,1.271445 2.094579,2.755509 3.113664,4.153398 1.396537,1.783387 2.960355,3.43509 4.736579,4.841603 1.95603,1.41368 3.943265,1.71535 6.258285,1.91897 1.561341,0.13496 3.051802,0.54993 4.478422,1.17741 0.111961,0.0492 -0.22008,-0.1068 -0.330121,-0.16019 0.417717,0.24843 0.75814,0.59541 1.111973,0.92283 0,0 0.914836,0.37484 0.914836,0.37484 v 0 c -0.355923,-0.32985 -0.689602,-0.6885 -1.108771,-0.94124 -0.452255,-0.26884 -0.894815,-0.5547 -1.356764,-0.80651 -1.364398,-0.74376 -2.984934,-0.91971 -4.491842,-1.14628 -1.031357,-0.0948 -2.059363,-0.18829 -3.066661,-0.44475 -0.301816,-0.0768 -0.586065,-0.22346 -0.893527,-0.2731 -0.05161,-0.008 0.11843,0.16063 0.07032,0.14017 -0.241035,-0.10248 -0.451559,-0.26552 -0.677338,-0.39828 -1.784337,-1.395886 -3.356126,-3.038255 -4.754904,-4.820253 -1.017072,-1.397352 -1.925629,-2.88434 -3.099215,-4.157821 -1.289286,-1.441996 -2.582921,-2.879297 -4.055102,-4.141904 -2.564054,-2.312885 -5.179423,-4.597967 -7.457652,-7.199202 -1.988397,-2.385856 -3.969485,-4.773392 -5.66887,-7.381827 -2.252067,-3.402494 -4.424029,-6.927522 -5.323236,-10.962785 0,0 -0.888291,-0.427517 -0.888291,-0.427517 z" />
    <path
       style="fill:#2b0000;stroke-width:0.264583"
       id="path174"
       d="m 88.452676,105.27587 c 3.26966,-0.32985 6.542783,-0.64053 9.779275,-1.22012 2.789539,-0.47448 5.471519,-1.38049 8.137559,-2.30317 2.32204,-0.85033 4.60261,-1.812037 6.888,-2.756065 3.13619,-1.369018 6.24349,-2.802062 9.3644,-4.205584 0.51756,-0.231616 1.03367,-0.466516 1.5527,-0.694846 1.17909,-0.518713 1.39444,-0.561473 2.49222,-1.155605 1.22093,-0.660786 2.35485,-1.439116 3.48381,-2.242754 1.76941,-1.311939 3.38339,-2.834476 4.59907,-4.677098 0.49084,-0.938376 0.27038,-0.469183 0.66614,-1.405347 0,0 -0.856,-0.480012 -0.856,-0.480012 v 0 c -0.38825,0.927134 -0.17137,0.462867 -0.65536,1.390589 -1.20998,1.830961 -2.80152,3.354916 -4.56528,4.655581 -1.12915,0.796904 -2.26308,1.568898 -3.48088,2.227247 -1.07651,0.58197 -1.32725,0.646033 -2.48133,1.157806 -0.51772,0.229587 -1.03293,0.464791 -1.5494,0.697188 -3.12169,1.407385 -6.23348,2.836047 -9.37739,4.193235 -2.2834,0.940282 -4.55776,1.908175 -6.87708,2.756575 -2.66448,0.91797 -5.3454,1.81601 -8.131976,2.28888 -3.237259,0.58117 -6.510838,0.90668 -9.785173,1.20139 0,0 0.796695,0.57211 0.796695,0.57211 z" />
    <path
       style="fill:#2b0000;stroke-width:0.264583"
       id="path176"
       d="m 135.289,80.644991 c 1.58866,-1.889506 3.04812,-3.852693 4.2113,-6.032873 0.85332,-2.027407 1.22047,-4.204369 1.71184,-6.335667 0.52854,-2.235833 1.0121,-4.481886 1.51134,-6.724507 0.25752,-1.573401 0.63929,-3.1823 0.45893,-4.788064 -0.10759,-0.957856 -0.33235,-1.578703 -0.60122,-2.495833 -0.61144,-1.479487 -1.39517,-2.873095 -1.74525,-4.449882 -0.188,-0.84677 -0.2111,-1.399908 -0.28848,-2.255845 -0.037,-1.139071 0.0849,-2.274668 0.18077,-3.407969 0,0 -0.86913,-0.452072 -0.86913,-0.452072 v 0 c -0.0954,1.139576 -0.22024,2.281044 -0.18166,3.426457 0.10326,1.170676 0.22888,2.288183 0.59585,3.412511 0.38455,1.178158 0.41233,1.015313 0.92835,2.141469 0.17703,0.386342 0.33641,0.780529 0.50461,1.170792 0.26888,0.899811 0.50029,1.533218 0.61112,2.473293 0.18835,1.597692 -0.19467,3.19953 -0.44916,4.765551 -0.49689,2.242568 -0.98463,4.487402 -1.51317,6.72266 -0.48851,2.123596 -0.85338,4.292237 -1.69847,6.313945 -1.15336,2.180921 -2.60996,4.141782 -4.21382,6.013826 0,0 0.84625,0.502208 0.84625,0.502208 z" />
    <path
       style="fill:#2b0000;stroke-width:0.264583"
       id="path178"
       d="m 137.67008,41.042859 c -2.17217,-1.297598 -4.34097,-2.606495 -6.73725,-3.454744 -1.74984,-0.619418 -2.57516,-0.779216 -4.36953,-1.225777 -1.77694,-0.361185 -3.55623,-0.712766 -5.34412,-1.016109 -0.99153,-0.168227 -1.40493,-0.17654 -2.3612,-0.499821 -0.41471,-0.1402 -0.81051,-0.331108 -1.21576,-0.49666 -2.83169,-1.321282 -5.48886,-2.973777 -8.19793,-4.522084 -1.20157,-0.610431 -2.42389,-1.242086 -3.73236,-1.59268 -1.29029,-0.146728 -2.59089,-0.215318 -3.88711,-0.316339 -0.96224,-0.0468 -1.918869,-0.137668 -2.875618,-0.24783 0,0 0.788022,0.586312 0.788022,0.586312 v 0 c 0.957016,0.108005 1.914306,0.194778 2.876356,0.244057 1.29479,0.101983 2.59779,0.15875 3.88299,0.336745 1.2945,0.366369 2.51025,0.984703 3.70089,1.598634 2.75378,1.463752 5.3349,3.261939 8.20472,4.51117 0.40856,0.162851 0.80792,0.350972 1.22566,0.488553 0.94315,0.310618 1.38565,0.325421 2.35984,0.489008 1.78189,0.29922 3.5556,0.645372 5.32511,1.010145 3.38261,0.849595 6.52135,1.787048 9.43818,3.750053 0,0 0.91911,0.357367 0.91911,0.357367 z" />
    <circle
       id="path564"
       style="fill:#2b0000;stroke:#000000;stroke-width:0.264583"
       cx="33"
       cy="61.741936"
       r="0.011816128" />
    <text
       xml:space="preserve"
       style="font-size:6.35px;fill:#2b0000;stroke-width:0.264583"
       x="26.612902"
       y="66"
       id="text568"><tspan
         sodipodi:role="line"
         id="tspan566"
         style="stroke-width:0.264583"
         x="26.612902"
         y="66">a</tspan></text>
    <text
       xml:space="preserve"
       style="font-size:6.35px;fill:#2b0000;stroke-width:0.264583"
       x="87.290321"
       y="23.419355"
       id="text572"><tspan
         sodipodi:role="line"
         id="tspan570"
         style="stroke-width:0.264583"
         x="87.290321"
         y="23.419355">b</tspan></text>
    <text
       xml:space="preserve"
       style="font-size:6.35px;fill:#2b0000;stroke-width:0.264583"
       x="157.90321"
       y="44"
       id="text576"><tspan
         sodipodi:role="line"
         id="tspan574"
         style="stroke-width:0.264583"
         x="157.90321"
         y="44">c</tspan></text>
    <text
       xml:space="preserve"
       style="font-size:6.35px;fill:#2b0000;stroke-width:0.264583"
       x="144.41934"
       y="91.193542"
       id="text580"><tspan
         sodipodi:role="line"
         id="tspan578"
         style="stroke-width:0.264583"
         x="144.41934"
         y="91.193542">d</tspan></text>
    <text
       xml:space="preserve"
       style="font-size:6.35px;fill:#2b0000;stroke-width:0.264583"
       x="83.741936"
       y="119.58064"
       id="text584"><tspan
         sodipodi:role="line"
         id="tspan582"
         style="stroke-width:0.264583"
         x="83.741936"
         y="119.58064">e</tspan></text>
  </g>
</svg>
