<?xml version="1.0" encoding="UTF-8" standalone="no"?>
<!-- Created with Inkscape (http://www.inkscape.org/) -->

<svg
   width="210mm"
   height="297mm"
   viewBox="0 0 210 297"
   version="1.1"
   id="svg642"
   inkscape:version="1.2.2 (732a01da63, 2022-12-09)"
   sodipodi:docname="Standardbeispielmitunterschiedertierungtrianglemitunterschied.svg"
   xmlns:inkscape="http://www.inkscape.org/namespaces/inkscape"
   xmlns:sodipodi="http://sodipodi.sourceforge.net/DTD/sodipodi-0.dtd"
   xmlns="http://www.w3.org/2000/svg"
   xmlns:svg="http://www.w3.org/2000/svg">
  <sodipodi:namedview
     id="namedview644"
     pagecolor="#ffffff"
     bordercolor="#000000"
     borderopacity="0.25"
     inkscape:showpageshadow="2"
     inkscape:pageopacity="0.0"
     inkscape:pagecheckerboard="0"
     inkscape:deskcolor="#d1d1d1"
     inkscape:document-units="mm"
     showgrid="false"
     inkscape:zoom="1.4627806"
     inkscape:cx="347.2838"
     inkscape:cy="331.56032"
     inkscape:window-width="1920"
     inkscape:window-height="986"
     inkscape:window-x="-11"
     inkscape:window-y="-11"
     inkscape:window-maximized="1"
     inkscape:current-layer="layer1" />
  <defs
     id="defs639" />
  <g
     inkscape:label="Ebene 1"
     inkscape:groupmode="layer"
     id="layer1">
    <ellipse
       style="fill:#000000;stroke-width:0.264583"
       id="path646"
       cx="3.5271013"
       cy="146.23904"
       rx="2.9844701"
       ry="2.6227162" />
    <ellipse
       style="fill:#000000;stroke-width:0.264583"
       id="path648"
       cx="3.8888552"
       cy="77.053589"
       rx="2.0800853"
       ry="2.7131548" />
    <ellipse
       style="fill:#000000;stroke-width:0.264583"
       id="path650"
       cx="48.022839"
       cy="77.867538"
       rx="3.707978"
       ry="2.9844701" />
    <ellipse
       style="fill:#000000;stroke-width:0.264583"
       id="path652"
       cx="52.635201"
       cy="149.94702"
       rx="2.7131548"
       ry="2.1705236" />
    <ellipse
       style="fill:#000000;stroke-width:0.264583"
       id="path654"
       cx="124.89555"
       cy="77.686668"
       rx="2.2609622"
       ry="2.9844701" />
    <ellipse
       style="fill:#000000;stroke-width:0.264583"
       id="path656"
       cx="121.18757"
       cy="154.46895"
       rx="4.883678"
       ry="2.3514009" />
    <ellipse
       style="fill:#000000;stroke-width:0.264583"
       id="path658"
       cx="192.27223"
       cy="105.81303"
       rx="3.0749087"
       ry="3.6175394" />
    <ellipse
       style="fill:#000000;stroke-width:0.264583"
       id="path660"
       cx="82.570335"
       cy="194.62363"
       rx="3.3462241"
       ry="3.6175394" />
    <ellipse
       style="fill:#000000;stroke-width:0.264583"
       id="path662"
       cx="84.831306"
       cy="12.751826"
       rx="2.8940315"
       ry="2.8035932" />
    <path
       style="fill:#000000;stroke-width:0.264583"
       id="path664"
       d="m 6.9086147,78.753035 c 3.3385493,-0.07179 6.6760953,0.129371 10.0072053,0.328025 3.384314,0.227828 6.770635,0.449509 10.163429,0.472149 2.404645,-0.01624 4.799015,-0.23573 7.186226,-0.504698 0.293082,-0.03905 0.586706,-0.07423 0.879242,-0.117163 1.01314,-0.148706 0.611572,-0.122033 1.665023,-0.246732 0.981467,-0.116175 1.958317,-0.173246 2.945567,-0.202514 1.701109,-0.0091 3.374213,0.349834 5.050718,0.595685 0.94488,0.131077 1.897124,0.194876 2.850039,0.224825 0.29164,0.0061 0.583353,0.0052 0.875035,0.0055 0,0 -3.20232,-2.327712 -3.20232,-2.327712 v 0 c -0.287812,-0.0011 -0.575633,-0.0024 -0.863341,-0.01119 -0.929992,-0.0289 -1.858709,-0.09549 -2.780255,-0.22783 -1.676291,-0.2373 -3.352943,-0.572532 -5.05402,-0.512072 -0.998469,0.04183 -1.989789,0.105087 -2.982709,0.222895 -1.056548,0.125357 -0.665951,0.09758 -1.665036,0.246536 -0.288034,0.04295 -0.577051,0.07899 -0.865577,0.118491 -2.357395,0.286925 -4.725971,0.499957 -7.102984,0.506003 -3.357591,-0.02862 -6.710602,-0.213548 -10.061339,-0.421696 -3.406978,-0.20615 -6.8161631,-0.399179 -10.2293359,-0.462134 0,0 3.1844326,2.313625 3.1844326,2.313625 z" />
    <path
       style="fill:#000000;stroke-width:0.264583"
       id="path666"
       d="m 51.268838,78.359645 c 1.077167,-4.216173 2.480869,-8.339524 3.938164,-12.436658 2.259767,-6.067687 5.29974,-11.799956 8.481912,-17.424516 2.295057,-3.936066 4.713984,-7.796218 6.973536,-11.753368 2.206336,-4.052377 4.528119,-8.037555 6.98994,-11.939684 1.869405,-2.967323 3.920452,-5.810974 6.033042,-8.608002 0.879911,-1.141048 1.787131,-2.26323 2.747669,-3.337635 0,0 -3.356327,-2.021269 -3.356327,-2.021269 v 0 c -0.916226,1.11679 -1.804718,2.257081 -2.658801,3.422151 -2.067626,2.838063 -4.086495,5.71248 -5.936943,8.698519 -2.438574,3.921195 -4.760785,7.912839 -7.022914,11.938221 -2.25429,3.960209 -4.624269,7.852116 -6.865263,11.819596 -3.123737,5.676669 -6.128113,11.442432 -8.504582,17.478134 -1.493858,4.066571 -2.902497,8.162821 -4.252102,12.279376 0,0 3.432669,1.885135 3.432669,1.885135 z" />
    <path
       style="fill:#000000;stroke-width:0.264583"
       id="path668"
       d="m 83.70041,11.822916 c 1.389152,3.840683 3.006929,7.590763 4.677434,11.315614 0.501176,1.090918 0.998349,2.183684 1.503531,3.272753 1.111597,2.396373 2.240373,4.78474 3.356391,7.179058 1.02108,2.190636 2.017175,4.392998 3.05567,6.575435 0.470334,0.988428 0.960472,1.967312 1.440709,2.950967 1.788404,3.659219 4.043115,7.066502 6.657755,10.18626 1.32005,1.575072 1.9705,2.192271 3.37441,3.633694 2.12353,2.112357 4.46732,3.976138 6.83835,5.797979 1.13292,0.870559 2.23207,1.793864 3.18891,2.858934 0.61578,0.68544 1.0315,1.243364 1.60365,1.973932 1.20702,1.607513 2.27543,3.313038 3.4994,4.908182 0.44081,0.574493 1.0954,1.363197 1.56573,1.935829 0,0 3.52585,1.497545 3.52585,1.497545 v 0 c -0.45152,-0.531646 -1.20376,-1.409097 -1.62031,-1.937002 -1.2425,-1.574644 -2.3021,-3.278907 -3.47524,-4.903808 -0.49914,-0.657358 -1.02139,-1.366912 -1.56028,-1.995273 -0.93617,-1.091626 -2.02304,-2.039401 -3.15989,-2.915566 -2.42217,-1.844299 -4.84543,-3.695578 -7.03329,-5.820987 -1.41663,-1.417859 -2.12674,-2.078156 -3.45757,-3.62844 -2.65504,-3.092868 -4.93026,-6.489869 -6.74643,-10.140915 -3.275739,-6.57605 -6.3375,-13.258414 -9.349713,-19.958619 -1.57817,-3.641989 -3.117056,-7.310736 -4.321661,-11.096511 0,0 -3.563406,-1.689061 -3.563406,-1.689061 z" />
    <path
       style="fill:#000000;stroke-width:0.264583"
       id="path670"
       d="m 7.0673935,147.75829 c 0.2914097,-0.0591 0.5803144,-0.13228 0.8742289,-0.17729 1.4712259,-0.22532 2.7988746,-0.33675 4.2983186,-0.45993 2.900033,-0.23823 5.802715,-0.38897 8.708884,-0.52568 0.932451,-0.0338 1.864756,-0.0719 2.797353,-0.10142 1.715441,-0.0543 3.738712,-0.10736 5.455829,-0.1026 2.496052,0.007 4.989491,0.11266 7.482136,0.23025 2.988767,0.17907 5.96901,0.47944 8.947245,0.78334 1.445038,0.13827 2.867419,0.42164 4.257617,0.83463 1.247827,0.54118 3.592912,1.88972 -1.848517,-1.14329 -0.163245,-0.091 0.31778,0.1971 0.47135,0.30362 0.292973,0.20319 0.519078,0.39415 0.793977,0.61683 1.260092,1.02283 2.463425,1.60203 4.278366,2.03955 0.225679,0.0544 0.156654,-0.44065 0.187375,-0.67076 0.09323,-0.69835 0.04826,-2.1903 0.04286,-2.79684 -0.251892,-5.88042 -0.811456,-11.74718 -1.502908,-17.59101 -0.113667,-0.86705 -0.220405,-1.73503 -0.341005,-2.60113 -0.460296,-3.3057 -1.164386,-6.55665 -1.813827,-9.82792 -0.747911,-3.88445 -1.018628,-7.83186 -1.187564,-11.77663 -0.137105,-3.70782 -0.270243,-7.415883 -0.355952,-11.125302 -0.07878,-2.425893 -0.06072,-4.851495 0.161068,-7.269083 0.09015,-1.060984 0.297537,-2.105837 0.506912,-3.148121 0.173107,-0.819007 0.407416,-1.623123 0.5588,-2.446729 0.02215,-0.152836 0.04429,-0.30567 0.06644,-0.458507 0,0 -3.479046,-1.833906 -3.479046,-1.833906 v 0 c -0.01987,0.147957 -0.03973,0.295918 -0.05959,0.443875 -0.14763,0.822058 -0.381762,1.623304 -0.564602,2.437665 -0.202843,1.065794 -0.386824,2.136912 -0.459738,3.221101 -0.189023,2.449674 -0.184094,4.903925 -0.07957,7.358295 0.110966,3.717332 0.265904,7.433164 0.392237,11.149972 0.160255,3.9589 0.441833,7.91932 1.152816,11.82302 0.815464,4.14976 1.799569,8.2699 2.307111,12.47464 0.753165,5.78935 1.326766,11.61517 1.34688,17.4588 -0.02596,1.03793 -0.0076,1.66042 -0.134655,2.64159 -0.01865,0.14401 -0.214799,0.3393 -0.0973,0.42463 1.035645,0.7521 2.221507,1.27203 3.32546,1.91973 0.205457,0.12055 -1.012658,-0.48761 -0.6053,-0.37988 -0.264644,-0.21767 -0.519851,-0.44717 -0.792237,-0.65508 -1.625983,-1.24107 -3.449222,-2.27485 -5.371076,-2.9754 -1.3921,-0.37273 -2.81015,-0.6283 -4.248483,-0.74046 -2.932499,-0.26366 -5.867101,-0.52004 -8.808752,-0.65636 -5.226743,-0.19671 -10.457638,-0.25336 -15.682459,0.0529 -2.921072,0.14709 -5.840257,0.30909 -8.7586019,0.50385 -1.3322392,0.0889 -3.1420768,0.20545 -4.5122861,0.34943 -0.313536,0.0329 -0.6243796,0.0878 -0.9365697,0.13172 0,0 3.2267802,2.26394 3.2267802,2.26394 z" />
    <path
       style="fill:#000000;stroke-width:0.264583"
       id="path672"
       d="m 1.71768,77.87655 c 0.2321579,1.708623 0.3635009,3.428894 0.559447,5.141576 0.1552496,1.356971 0.2892458,2.248514 0.4806327,3.617032 0.5258681,3.427891 1.0480217,6.85692 1.6583906,10.27095 0.4835173,2.627717 1.0265315,5.250342 1.2874014,7.912782 0.05015,0.51184 0.078587,1.02557 0.1178795,1.53835 0.2199061,2.79795 0.00201,5.59823 -0.3081165,8.3793 -0.2256708,1.83141 -0.6404629,3.64178 -1.1861946,5.40403 -0.020566,0.0664 -0.8122674,2.41768 -0.8494019,2.52803 -0.728405,2.09952 -1.423654,4.20728 -1.9798683,6.35932 -0.53890863,2.43821 -0.87504133,4.91241 -1.08299028,7.39884 -0.17927554,1.95144 0.10497894,3.88326 0.47501521,5.79341 0.21435667,1.17378 0.50552637,2.33106 0.76001307,3.49615 0,0 3.5476511,1.71052 3.5476511,1.71052 v 0 c -0.2677631,-1.17443 -0.5972943,-2.33451 -0.8251434,-3.51831 -0.3910377,-1.88078 -0.7009741,-3.78461 -0.5529304,-5.71372 0.1761976,-2.46724 0.4674123,-4.92843 1.0561343,-7.33554 0.5669778,-2.14241 1.2205039,-4.2571 1.9390167,-6.35379 0.8534556,-2.62102 1.7455523,-5.24859 2.0815948,-7.99895 0.2965968,-2.8096 0.5037365,-5.63772 0.2983351,-8.46265 -0.038936,-0.51833 -0.067439,-1.03754 -0.1168071,-1.55497 -0.2546853,-2.66942 -0.7897636,-5.299 -1.2751393,-7.932842 C 7.1795972,95.13962 6.6192169,91.711578 6.0933038,88.278927 5.7225027,85.404454 5.3905443,82.524424 5.2421893,79.628351 c 0,0 -3.5245093,-1.751801 -3.5245093,-1.751801 z" />
    <path
       style="fill:#000000;stroke-width:0.264583"
       id="path674"
       d="m 3.5559949,75.942337 c 1.3299525,2.791764 2.6499132,5.588151 4.011282,8.364934 2.0433485,4.249844 4.5662211,8.247063 7.3124971,12.073933 0.638162,0.889262 1.298541,1.762371 1.947812,2.643558 4.038264,5.408718 8.394809,10.564888 12.867591,15.616038 0.6126,0.65638 1.214969,1.32246 1.837795,1.96915 1.321303,1.37192 2.188711,2.20884 3.621921,3.4639 1.559894,1.366 3.202215,2.62815 4.850273,3.8841 1.865368,1.37467 3.713155,2.80393 5.335426,4.46655 0.329028,0.33721 0.637485,0.6939 0.956228,1.04085 1.982825,2.29304 3.453657,4.95056 4.73048,7.6835 0.886542,1.97105 1.446472,3.94075 1.736731,6.075 0.180906,1.35145 -0.07804,2.65948 -0.456637,3.94952 -0.241541,0.77348 -0.481198,1.54723 -0.719156,2.32177 0,0 3.460403,1.89179 3.460403,1.89179 v 0 c 0.227489,-0.78099 0.445334,-1.56455 0.686719,-2.3416 0.395168,-1.34182 0.689625,-2.6987 0.508476,-4.10736 -0.0972,-0.71254 -0.12477,-1.01113 -0.279601,-1.72909 -0.333015,-1.54418 -0.874517,-3.03508 -1.487517,-4.48781 -1.278279,-2.75434 -2.737363,-5.43927 -4.684522,-7.78656 -0.312089,-0.35309 -0.612661,-0.71671 -0.936265,-1.05928 -1.614093,-1.70869 -3.488163,-3.16077 -5.384252,-4.53753 -1.682793,-1.25747 -3.362968,-2.5191 -4.955614,-3.8912 -1.410195,-1.21491 -2.356491,-2.11912 -3.660963,-3.44896 -0.636974,-0.64936 -1.254234,-1.31777 -1.881349,-1.97665 -1.487945,-1.658 -2.717623,-3.01094 -4.176167,-4.70965 -3.032874,-3.53228 -5.941287,-7.17151 -8.740602,-10.89122 -0.642185,-0.874857 -1.294974,-1.742035 -1.926556,-2.624581 -2.717879,-3.797848 -5.235073,-7.754549 -7.239454,-11.9799 -1.306327,-2.712317 -2.5579487,-5.44808 -3.7397443,-8.216688 0,0 -3.5952348,-1.656514 -3.5952348,-1.656514 z" />
    <path
       style="fill:#000000;stroke-width:0.264583"
       id="path676"
       d="m 6.2536064,148.32375 c 0.1617178,-0.31085 0.3330302,-0.6169 0.4851537,-0.93257 0.4686679,-0.9725 1.2533749,-2.75877 1.6591505,-3.6887 1.0157076,-2.32774 1.9907844,-4.67005 2.9470044,-7.02272 0.328274,-0.82584 0.656439,-1.65173 0.984822,-2.47753 0.879662,-2.21213 1.146218,-2.92608 2.089153,-5.11461 1.05623,-2.45149 2.183014,-4.87233 3.305171,-7.29402 1.912512,-4.00133 3.965363,-7.93271 5.942077,-11.90233 1.284189,-2.55674 2.661776,-5.06784 4.168338,-7.50078 0.764032,-1.23384 1.46314,-2.28057 2.258848,-3.491681 2.020663,-3.049767 4.259903,-5.942012 6.472322,-8.852386 1.892486,-2.520456 3.769712,-5.052531 5.643018,-7.587382 0.573585,-0.727843 1.096661,-1.497227 1.693852,-2.206705 0.517887,-0.615262 1.093332,-1.171644 1.678127,-1.721636 0.759683,-0.60163 0.38625,-0.313589 1.119151,-0.865608 0,0 -3.299809,-2.080847 -3.299809,-2.080847 v 0 c -0.730232,0.576752 -0.354579,0.274365 -1.125686,0.908746 -0.591839,0.568306 -1.178033,1.141108 -1.700657,1.77564 -0.59136,0.717983 -1.10408,1.498391 -1.656162,2.245645 -1.809782,2.574002 -3.657293,5.121688 -5.571569,7.619291 -2.207112,2.923392 -4.445471,5.825585 -6.44452,8.89875 -0.717178,1.102794 -1.565473,2.39268 -2.254024,3.510973 -1.504881,2.44412 -2.892917,4.9607 -4.193072,7.51902 -1.995536,3.96579 -3.969838,7.94347 -5.880648,11.95079 -2.250994,4.91413 -4.443675,9.85468 -6.3855004,14.90095 -0.9603364,2.34339 -1.9253724,4.68251 -2.9865751,6.98269 -0.5886363,1.27588 -1.1002955,2.36344 -1.7954773,3.56899 -0.1666118,0.28893 -0.3632571,0.55947 -0.5448858,0.83921 0,0 3.392398,2.01881 3.392398,2.01881 z" />
    <path
       style="fill:#000000;stroke-width:0.264583"
       id="path678"
       d="m 49.965657,78.795416 c 6.562243,0.140322 13.124495,0.278545 19.686481,0.432067 7.719193,0.100269 15.428362,0.491244 23.139495,0.823124 3.316529,0.113043 6.640338,0.188167 9.956287,0.0067 1.81536,-0.09936 2.90263,-0.227037 4.70851,-0.40595 0.72608,-0.09144 1.45286,-0.177412 2.17822,-0.274305 1.53842,-0.205499 2.37192,-0.327644 3.88348,-0.609822 1.59456,-0.297672 3.17906,-0.655203 4.76534,-0.993531 1.68615,-0.358979 3.37326,-0.712695 5.05767,-1.079664 0,0 -3.20573,-2.219556 -3.20573,-2.219556 v 0 c -1.64727,0.403842 -3.30168,0.776941 -4.95775,1.142969 -3.53859,0.7874 -7.08496,1.552051 -10.69842,1.915014 -0.77632,0.07537 -1.55154,0.163044 -2.32896,0.226113 -4.081035,0.331078 -8.180039,0.328668 -12.268767,0.160811 -7.608091,-0.24982 -15.216433,-0.467903 -22.82794,-0.590293 -6.760213,-0.195927 -13.529336,-0.362522 -20.273415,-0.888794 0,0 3.185499,2.355114 3.185499,2.355114 z" />
    <path
       style="fill:#000000;stroke-width:0.264583"
       id="path680"
       d="m 125.17903,76.635527 c 2.37558,1.256668 4.73775,2.538111 7.1403,3.742769 2.56237,1.165421 5.19754,2.159744 7.75215,3.34332 1.58259,0.733235 2.05222,0.995551 3.58377,1.785697 0.55435,0.298659 1.10958,0.595688 1.66304,0.895982 1.17209,0.63594 2.05221,1.13651 3.24279,1.741078 1.6519,0.838827 3.34381,1.58542 5.04089,2.326454 2.46236,1.091854 4.96021,2.10937 7.37035,3.315769 2.09903,1.050674 2.54003,1.337929 4.61116,2.513941 -0.24826,-0.12633 -0.9747,-0.536233 -0.74477,-0.378986 0.73185,0.500515 1.50931,0.931053 2.2545,1.411491 0.71118,0.458513 3.70638,2.469309 4.41044,2.940338 2.81181,1.88113 1.54475,1.04314 4.41739,2.9143 2.90474,1.77384 3.547,2.19477 7.2409,4.22147 0.94056,0.51605 2.46919,1.19848 3.50264,1.56599 1.3149,0.4676 1.7587,0.51857 3.10063,0.8066 1.91157,0.36945 3.85263,0.52688 5.79445,0.61652 0,0 -3.12469,-2.29079 -3.12469,-2.29079 v 0 c -1.90217,-0.0756 -3.80389,-0.22787 -5.67265,-0.60943 -0.49679,-0.11427 -0.99891,-0.20746 -1.49038,-0.3428 -1.13812,-0.31344 -2.09146,-0.67459 -3.16935,-1.16543 -0.60664,-0.27625 -1.15172,-0.70441 -1.79354,-0.88438 -0.0621,-0.0174 5.17541,3.1306 -1.02917,-0.60783 -5.4595,-3.54954 -10.75776,-7.355873 -16.49609,-10.460115 -2.06748,-1.164865 -2.58206,-1.489665 -4.6822,-2.538124 -2.42911,-1.212689 -4.94481,-2.238732 -7.42327,-3.343262 -1.69223,-0.746424 -3.37582,-1.501148 -5.02192,-2.346259 -1.08826,-0.558715 -2.16098,-1.160102 -3.23806,-1.739707 -0.55234,-0.297227 -1.10706,-0.589994 -1.6606,-0.884989 -1.57494,-0.799308 -1.94345,-1.006324 -3.57114,-1.749372 -2.57862,-1.177149 -5.23171,-2.183227 -7.79271,-3.39962 -2.454,-1.250032 -4.8795,-2.554798 -7.29419,-3.879128 0,0 3.07933,2.478503 3.07933,2.478503 z" />
    <path
       style="fill:#000000;stroke-width:0.264583"
       id="path682"
       d="m 192.48408,106.25948 c -2.63546,1.28895 -4.94449,3.13307 -7.08982,5.11407 -0.70151,0.64777 -1.37579,1.3244 -2.06368,1.98661 -3.78257,3.9057 -7.20013,8.14251 -10.86018,12.16004 -0.69814,0.76633 -1.41562,1.51483 -2.12342,2.27224 -2.76832,2.90595 -5.81558,5.54244 -9.27374,7.59959 -2.72638,1.62183 -4.00611,2.1163 -6.96776,3.49209 -6.90526,2.98406 -14.08182,5.25518 -21.23849,7.54249 -3.77947,1.25008 -7.5394,2.55734 -11.25355,3.99034 -1.40884,0.5929 -2.81627,1.19653 -4.1935,1.86039 0,0 3.27222,2.15366 3.27222,2.15366 v 0 c 1.32863,-0.68477 2.68706,-1.31411 4.0571,-1.91101 3.65438,-1.47289 7.37274,-2.77508 11.09182,-4.07398 7.08222,-2.40477 14.1767,-4.79747 21.07602,-7.69711 2.98699,-1.33073 4.37979,-1.84453 7.12931,-3.44844 3.50399,-2.04402 6.55633,-4.72453 9.32688,-7.6691 0.70293,-0.76356 1.41437,-1.51938 2.10881,-2.29068 3.63155,-4.03351 7.06372,-8.25191 10.89444,-12.10284 0.69593,-0.65019 1.37482,-1.31911 2.08779,-1.95057 1.95378,-1.73041 4.07024,-3.3745 6.44929,-4.48345 0.27196,-0.12677 0.55915,-0.2179 0.83872,-0.32685 0,0 -3.26826,-2.21749 -3.26826,-2.21749 z" />
    <path
       style="fill:#000000;stroke-width:0.264583"
       id="path684"
       d="m 118.23188,150.81614 c -5.91448,0.37623 -11.84286,0.45675 -17.76728,0.52959 -3.393913,0.023 -6.796182,-0.0136 -10.173956,-0.37677 -1.961126,-0.21089 -2.323659,-0.29629 -4.252611,-0.61018 -0.698826,-0.12348 -1.398146,-0.24417 -2.096474,-0.37043 -1.731788,-0.31309 -2.677956,-0.513 -4.420931,-0.78172 -2.132301,-0.32875 -4.273208,-0.55396 -6.420059,-0.75867 -2.723374,-0.24399 -5.455729,-0.20022 -8.184343,-0.11166 -1.429369,0.057 -2.859579,0.0818 -4.289922,0.0949 -1.037436,0.007 -2.074902,0.002 -3.112341,-0.002 -0.748673,-0.013 -1.492925,0.0953 -2.232094,0.20159 -0.499869,0.10384 -1.004364,0.18139 -1.51022,0.24883 0,0 3.228112,2.27475 3.228112,2.27475 v 0 c 0.502523,-0.0794 1.003091,-0.16998 1.505588,-0.24951 0.726977,-0.0994 1.459185,-0.1733 2.193977,-0.16123 1.030037,-0.003 2.060062,-0.009 3.090048,-0.0199 1.421543,-0.0185 2.842617,-0.0594 4.262691,-0.12784 2.674536,-0.12072 5.354032,-0.17955 8.02535,0.0576 2.133364,0.19767 4.255717,0.42379 6.373032,0.7581 1.901095,0.30017 2.543498,0.45266 4.43479,0.7945 0.700079,0.12653 1.401619,0.24484 2.102429,0.36726 1.887043,0.29172 2.335212,0.38692 4.252129,0.57704 3.346238,0.33188 6.712844,0.31391 10.071255,0.25641 6.02874,-0.11489 12.05735,-0.25628 18.08704,-0.30655 0,0 -3.16621,-2.2843 -3.16621,-2.2843 z" />
    <path
       style="fill:#000000;stroke-width:0.264583"
       id="path686"
       d="m 51.685335,148.53056 c 2.29947,3.20046 4.438353,6.50947 6.466054,9.88737 2.074336,3.56661 3.942876,7.24625 5.901544,10.87623 1.169991,2.16443 2.424623,4.28559 3.483626,6.50783 0.825754,1.7308 1.254321,3.60187 1.808073,5.42652 0.502735,1.63235 1.251945,3.16388 2.061501,4.66155 0.54746,1.00185 1.109929,1.99876 1.791848,2.91603 0.511498,0.66505 1.179669,1.17577 1.790255,1.74225 0.621271,0.54319 1.114558,1.20276 1.620833,1.84883 0.509561,0.56723 0.892664,1.23015 1.363789,1.82576 0.193376,0.19718 0.355616,0.42042 0.518438,0.64244 0,0 3.631181,1.5729 3.631181,1.5729 v 0 c -0.162872,-0.22974 -0.314383,-0.46785 -0.494538,-0.68476 -0.566719,-0.52109 -0.869929,-1.26197 -1.411248,-1.81095 -0.508187,-0.64709 -0.965607,-1.34088 -1.580165,-1.89491 -0.598824,-0.57738 -1.265037,-1.07661 -1.826959,-1.69219 -0.721021,-0.89021 -1.295691,-1.88213 -1.858354,-2.87798 -0.824182,-1.47666 -1.5886,-2.9887 -2.117412,-4.60036 -0.571664,-1.83393 -0.976342,-3.72601 -1.790462,-5.47792 -1.045906,-2.26629 -2.376879,-4.38627 -3.573762,-6.57384 -2.004279,-3.63871 -3.907057,-7.33325 -5.987002,-10.93017 -1.974937,-3.32437 -4.067289,-6.57261 -6.20644,-9.79353 0,0 -3.5908,-1.5711 -3.5908,-1.5711 z" />
    <path
       style="fill:#000000;stroke-width:0.264583"
       id="path688"
       d="m 84.910728,194.47694 c 1.012798,-2.671 2.786422,-4.98093 4.690149,-7.08082 0.56523,-0.62347 1.168453,-1.21141 1.75268,-1.81712 3.799369,-3.61765 8.138578,-6.59855 12.476513,-9.52386 2.26734,-1.54822 4.64071,-2.9454 6.83664,-4.59776 0.8049,-0.60566 1.81687,-1.45584 2.59935,-2.10241 1.42352,-1.22429 2.82606,-2.47745 4.11816,-3.84174 0.67987,-0.71785 0.98551,-1.0898 1.62149,-1.82856 0.77219,-0.89974 1.48428,-1.85536 1.93861,-2.95871 0.3125,-0.75889 0.34107,-0.99652 0.54594,-1.80385 0.34538,-1.75089 0.4574,-3.53569 0.53495,-5.31516 0,0 -3.47527,-1.78321 -3.47527,-1.78321 v 0 c -0.0237,1.76129 -0.10318,3.53042 -0.45286,5.26161 -0.2018,0.79136 -0.2208,0.98731 -0.52686,1.72963 -0.44015,1.06753 -1.12385,2.00258 -1.84438,2.89563 -1.72051,2.04162 -3.60829,3.92754 -5.65172,5.64864 -0.96048,0.80964 -1.5509,1.32654 -2.56037,2.09605 -2.17359,1.65689 -4.50258,3.09176 -6.75201,4.63993 -4.322167,2.98551 -8.683693,5.96635 -12.50271,9.59406 -0.59313,0.60887 -1.203582,1.20134 -1.779387,1.82662 -1.947918,2.11529 -3.774185,4.41204 -4.999132,7.0285 0,0 3.430217,1.93253 3.430217,1.93253 z" />
    <text
       xml:space="preserve"
       style="font-size:3.175px;fill:#000000;stroke-width:0.264583"
       x="5.6071858"
       y="68.552368"
       id="text692"><tspan
         sodipodi:role="line"
         id="tspan690"
         style="stroke-width:0.264583"
         x="5.6071858"
         y="68.552368">a</tspan></text>
    <text
       xml:space="preserve"
       style="font-size:3.175px;fill:#000000;stroke-width:0.264583"
       x="44.495739"
       y="71.627281"
       id="text696"><tspan
         sodipodi:role="line"
         id="tspan694"
         style="stroke-width:0.264583"
         x="44.495739"
         y="71.627281">b</tspan></text>
    <text
       xml:space="preserve"
       style="font-size:3.175px;fill:#000000;stroke-width:0.264583"
       x="4.5219245"
       y="154.28806"
       id="text700"><tspan
         sodipodi:role="line"
         id="tspan698"
         style="stroke-width:0.264583"
         x="4.5219245"
         y="154.28806">g</tspan></text>
    <text
       xml:space="preserve"
       style="font-size:3.175px;fill:#000000;stroke-width:0.264583"
       x="59.327648"
       y="142.35017"
       id="text704"><tspan
         sodipodi:role="line"
         id="tspan702"
         style="stroke-width:0.264583"
         x="59.327648"
         y="142.35017">f</tspan></text>
    <text
       xml:space="preserve"
       style="font-size:3.175px;fill:#000000;stroke-width:0.264583"
       x="120.10232"
       y="144.52071"
       id="text708"><tspan
         sodipodi:role="line"
         id="tspan706"
         style="stroke-width:0.264583"
         x="120.10232"
         y="144.52071">e</tspan></text>
    <text
       xml:space="preserve"
       style="font-size:3.175px;fill:#000000;stroke-width:0.264583"
       x="80.128494"
       y="200.59256"
       id="text712"><tspan
         sodipodi:role="line"
         id="tspan710"
         style="stroke-width:0.264583"
         x="80.128494"
         y="200.59256">i</tspan></text>
    <text
       xml:space="preserve"
       style="font-size:3.175px;fill:#000000;stroke-width:0.264583"
       x="199.32643"
       y="108.52619"
       id="text716"><tspan
         sodipodi:role="line"
         id="tspan714"
         style="stroke-width:0.264583"
         x="199.32643"
         y="108.52619">d</tspan></text>
    <text
       xml:space="preserve"
       style="font-size:3.175px;fill:#000000;stroke-width:0.264583"
       x="124.44337"
       y="83.565163"
       id="text720"><tspan
         sodipodi:role="line"
         id="tspan718"
         style="stroke-width:0.264583"
         x="124.44337"
         y="83.565163">c</tspan></text>
    <text
       xml:space="preserve"
       style="font-size:3.175px;fill:#000000;stroke-width:0.264583"
       x="93.694275"
       y="7.7777104"
       id="text724"><tspan
         sodipodi:role="line"
         id="tspan722"
         style="stroke-width:0.264583"
         x="93.694275"
         y="7.7777104">h</tspan></text>
    <path
       style="fill:#000000;stroke-width:0.264583"
       id="path213"
       d="m 83.816356,10.597103 c 0.281741,0.319961 0.537292,0.665041 0.845222,0.959884 1.390446,1.331364 3.143324,2.649517 4.672158,3.749648 1.233913,0.887908 2.480632,1.759072 3.75223,2.59211 3.946565,2.585435 6.979554,4.333616 11.069874,6.775453 7.7888,4.641042 15.80533,8.917709 23.38731,13.901361 4.70849,3.094895 5.25023,3.638838 9.58212,6.984058 1.26462,1.096759 2.55816,2.161043 3.79387,3.290276 2.42937,2.22004 4.19744,4.104079 6.45016,6.498281 3.11852,3.314387 5.1567,5.523248 8.205,8.982276 1.38772,1.574696 2.74573,3.17532 4.11859,4.762978 4.11615,4.885436 8.12776,9.898005 11.44665,15.370633 1.3287,2.19093 1.68416,2.992437 2.79624,5.195946 1.57006,3.295856 3.63649,6.319623 6.01171,9.082092 0.93481,1.066959 1.9897,2.033821 3.21707,2.757771 4.07468,2.40342 3.0492,1.88736 5.67202,3.0884 1.10913,0.47047 2.22925,0.91418 3.34644,1.36496 0,0 -2.99925,-2.35663 -2.99925,-2.35663 v 0 c -1.09252,-0.42301 -2.18675,-0.84304 -3.25593,-1.32326 -1.03234,-0.49649 -3.34099,-1.65524 0.74253,0.59675 0.34511,0.19033 -0.66911,-0.4173 -0.99242,-0.64268 -0.83313,-0.58078 -1.57099,-1.26929 -2.25284,-2.02021 -2.50613,-2.747028 -4.69883,-5.774436 -6.33541,-9.125098 -1.19483,-2.266794 -1.56326,-3.061552 -2.98084,-5.315222 -3.48458,-5.539785 -7.63954,-10.622637 -11.87285,-15.598457 -3.23914,-3.743516 -5.00006,-5.804575 -8.28973,-9.502797 -4.41872,-4.967501 -8.92204,-9.891611 -14.14596,-14.038275 -4.43828,-3.406725 -4.95028,-3.923736 -9.75793,-7.081912 -7.58799,-4.984604 -15.60058,-9.275246 -23.39867,-13.911643 -4.27924,-2.571898 -6.5833,-3.884018 -10.652258,-6.591566 -1.212215,-0.806626 -2.402581,-1.64646 -3.577206,-2.506906 -1.277814,-0.936037 -3.088865,-2.333108 -4.286213,-3.511818 -0.266745,-0.262591 -0.480362,-0.574177 -0.720543,-0.861266 0,0 -3.591144,-1.565137 -3.591144,-1.565137 z" />
    <path
       style="fill:#000000;stroke-width:0.264583"
       id="path215"
       d="m 86.012736,195.71333 c 0.560763,-0.0739 2.751484,-0.36138 2.961272,-0.39783 1.179166,-0.20489 2.352458,-0.44292 3.524538,-0.68507 3.997564,-0.8259 6.616513,-1.38963 10.625984,-2.58858 2.2287,-0.66645 4.42145,-1.44772 6.63218,-2.17157 2.22082,-0.83641 4.46517,-1.61282 6.66246,-2.50923 2.12087,-0.86524 4.2322,-1.76165 6.28709,-2.77368 2.02118,-0.99543 3.98454,-2.10707 5.93009,-3.24325 3.54998,-2.07314 7.10698,-4.45997 10.46259,-6.83709 1.52341,-1.07918 3.01081,-2.20831 4.51621,-3.31247 1.40269,-1.06379 2.79843,-2.1368 4.20807,-3.19135 3.28328,-2.4562 5.33949,-3.97193 8.73113,-6.2609 3.82255,-2.57977 7.76906,-4.95688 11.71314,-7.34315 4.10364,-2.52291 8.23287,-5.10946 11.69878,-8.49143 0.46041,-0.44926 0.88601,-0.93289 1.32902,-1.39933 1.99511,-2.20041 3.39564,-4.82219 4.83355,-7.39643 1.1826,-2.13445 2.80235,-3.95478 4.43809,-5.74547 1.2939,-1.46452 2.87408,-2.84149 3.56067,-4.73221 0.16203,-0.44619 0.24673,-0.91678 0.3701,-1.37517 0.46138,-2.26191 0.4208,-4.5765 0.1426,-6.85848 -0.1155,-0.94739 -0.40549,-2.56225 -0.56981,-3.51499 -0.35179,-2.00388 -0.69057,-4.01221 -0.88845,-6.03798 -0.0109,-0.14902 -0.0218,-0.29805 -0.0327,-0.44707 0,0 -3.4994,-1.74416 -3.4994,-1.74416 v 0 c 0.0161,0.15501 0.0322,0.31003 0.0483,0.46504 0.26287,2.06912 0.71436,4.10885 1.08275,6.16048 0.1804,0.98096 0.47585,2.51476 0.60097,3.49646 0.28398,2.22814 0.31379,4.49266 -0.15785,6.69809 -0.33069,1.12611 -0.31117,1.32247 -0.86609,2.29699 -0.78398,1.37679 -1.95488,2.4732 -2.99144,3.65115 -1.65983,1.80918 -3.32728,3.6361 -4.49709,5.81538 -1.37827,2.5703 -2.74752,5.16938 -4.67125,7.38639 -0.424,0.46815 -0.8309,0.95237 -1.272,1.40444 -3.33519,3.41809 -7.34678,6.06196 -11.33621,8.64114 -2.09936,1.32948 -5.30991,3.35194 -7.34731,4.68867 -5.8642,3.84747 -11.58736,7.91848 -17.08035,12.28122 -3.62026,2.73419 -5.52743,4.25409 -9.34948,6.8036 -3.663,2.44342 -7.36745,4.71239 -11.3164,6.67343 -5.06219,2.51388 -7.58033,3.2919 -12.904,5.27772 -2.25822,0.68485 -4.49755,1.43537 -6.77464,2.05455 -5.867612,1.59551 -11.905795,2.67552 -17.981425,2.99619 0,0 3.176381,2.26595 3.176381,2.26595 z" />
    <text
       xml:space="preserve"
       style="font-size:3.175px;fill:#000000;stroke-width:0.264583"
       x="11.395249"
       y="67.286232"
       id="text271"><tspan
         sodipodi:role="line"
         id="tspan269"
         style="stroke-width:0.264583"
         x="11.395249"
         y="67.286232">0</tspan></text>
    <text
       xml:space="preserve"
       style="font-size:3.175px;fill:#000000;stroke-width:0.264583"
       x="43.953102"
       y="63.48782"
       id="text275"><tspan
         sodipodi:role="line"
         id="tspan273"
         style="stroke-width:0.264583"
         x="43.953102"
         y="63.48782">1</tspan></text>
    <text
       xml:space="preserve"
       style="font-size:3.175px;fill:#000000;stroke-width:0.264583"
       x="134.02983"
       y="73.616928"
       id="text329"><tspan
         sodipodi:role="line"
         id="tspan327"
         style="stroke-width:0.264583"
         x="134.02983"
         y="73.616928" /></text>
    <text
       xml:space="preserve"
       style="font-size:3.175px;fill:#000000;stroke-width:0.264583"
       x="196.43239"
       y="96.950058"
       id="text333"><tspan
         sodipodi:role="line"
         id="tspan331"
         style="stroke-width:0.264583"
         x="196.43239"
         y="96.950058" /></text>
    <text
       xml:space="preserve"
       style="font-size:3.175px;fill:#000000;stroke-width:0.264583"
       x="126.79476"
       y="142.89281"
       id="text337"><tspan
         sodipodi:role="line"
         id="tspan335"
         style="stroke-width:0.264583"
         x="126.79476"
         y="142.89281">7</tspan></text>
    <text
       xml:space="preserve"
       style="font-size:3.175px;fill:#000000;stroke-width:0.264583"
       x="13.565773"
       y="153.02193"
       id="text341"><tspan
         sodipodi:role="line"
         id="tspan339"
         style="stroke-width:0.264583"
         x="13.565773"
         y="153.02193">2</tspan></text>
    <text
       xml:space="preserve"
       style="font-size:3.175px;fill:#000000;stroke-width:0.264583"
       x="64.211327"
       y="141.62668"
       id="text345"><tspan
         sodipodi:role="line"
         id="tspan343"
         style="stroke-width:0.264583"
         x="64.211327"
         y="141.62668">3</tspan></text>
    <text
       xml:space="preserve"
       style="font-size:3.175px;fill:#000000;stroke-width:0.264583"
       x="136.01949"
       y="69.095009"
       id="text349"><tspan
         sodipodi:role="line"
         id="tspan347"
         style="stroke-width:0.264583"
         x="136.01949"
         y="69.095009">4</tspan></text>
    <text
       xml:space="preserve"
       style="font-size:3.175px;fill:#000000;stroke-width:0.264583"
       x="102.01461"
       y="7.0542016"
       id="text353"><tspan
         sodipodi:role="line"
         id="tspan351"
         style="stroke-width:0.264583"
         x="102.01461"
         y="7.0542016">5</tspan></text>
    <text
       xml:space="preserve"
       style="font-size:3.175px;fill:#000000;stroke-width:0.264583"
       x="95.864792"
       y="198.24117"
       id="text357"><tspan
         sodipodi:role="line"
         id="tspan355"
         style="stroke-width:0.264583"
         x="95.864792"
         y="198.24117">8</tspan></text>
  </g>
</svg>
