<?xml version="1.0" encoding="UTF-8" standalone="no"?>
<!-- Created with Inkscape (http://www.inkscape.org/) -->

<svg
   width="210mm"
   height="297mm"
   viewBox="0 0 210 297"
   version="1.1"
   id="svg134"
   inkscape:version="1.2.2 (732a01da63, 2022-12-09)"
   sodipodi:docname="Standardbeispielmitunterschied.svg"
   xmlns:inkscape="http://www.inkscape.org/namespaces/inkscape"
   xmlns:sodipodi="http://sodipodi.sourceforge.net/DTD/sodipodi-0.dtd"
   xmlns="http://www.w3.org/2000/svg"
   xmlns:svg="http://www.w3.org/2000/svg">
  <sodipodi:namedview
     id="namedview136"
     pagecolor="#ffffff"
     bordercolor="#000000"
     borderopacity="0.25"
     inkscape:showpageshadow="2"
     inkscape:pageopacity="0.0"
     inkscape:pagecheckerboard="0"
     inkscape:deskcolor="#d1d1d1"
     inkscape:document-units="mm"
     showgrid="false"
     inkscape:zoom="1.0544998"
     inkscape:cx="-92.93506"
     inkscape:cy="360.36044"
     inkscape:window-width="1920"
     inkscape:window-height="986"
     inkscape:window-x="2509"
     inkscape:window-y="-11"
     inkscape:window-maximized="1"
     inkscape:current-layer="layer1" />
  <defs
     id="defs131" />
  <g
     inkscape:label="Ebene 1"
     inkscape:groupmode="layer"
     id="layer1">
    <ellipse
       style="fill:#2b0000;stroke-width:0.264583"
       id="path190"
       cx="14.725806"
       cy="62.274193"
       rx="4.0806451"
       ry="5.1451616" />
    <ellipse
       style="fill:#2b0000;stroke-width:0.264583"
       id="path192"
       cx="14.903226"
       cy="111.24194"
       rx="3.9032259"
       ry="4.0806451" />
    <ellipse
       style="fill:#2b0000;stroke-width:0.264583"
       id="path194"
       cx="175.64516"
       cy="88.887093"
       rx="4.9677415"
       ry="3.016129" />
    <ellipse
       style="fill:#2b0000;stroke-width:0.264583"
       id="path196"
       cx="124.54839"
       cy="59.258064"
       rx="3.9032259"
       ry="3.1935484" />
    <ellipse
       style="fill:#2b0000;stroke-width:0.264583"
       id="path198"
       cx="125.08065"
       cy="109.46774"
       rx="4.4354839"
       ry="4.7903223" />
    <path
       style="fill:#2b0000;stroke-width:0.264583"
       id="path200"
       d="m 126.02783,59.025461 c 2.69721,1.242113 5.41281,2.443554 8.1294,3.642598 3.82928,1.817794 7.74057,3.456647 11.57734,5.25726 0.36361,0.185714 0.73673,0.353881 1.09083,0.557141 0.0489,0.02808 0.0648,0.09378 0.10745,0.130705 0.27311,0.236466 0.5673,0.448048 0.83769,0.687625 0.94935,0.841174 1.80952,1.79491 2.70163,2.694813 3.22175,3.039375 7.01403,5.385303 10.79321,7.65977 3.00146,1.724411 5.81338,3.736438 8.62514,5.747374 1.17734,0.839613 2.30494,1.744464 3.42836,2.653803 0,0 0.89765,0.360852 0.89765,0.360852 v 0 c -1.12564,-0.911897 -2.25503,-1.819916 -3.4344,-2.662434 -2.81569,-2.011881 -5.62512,-4.034769 -8.63186,-5.758169 -3.77756,-2.263616 -7.56591,-4.603033 -10.78764,-7.631867 -1.96484,-1.984531 -3.70302,-3.958423 -6.38065,-5.038394 -3.83809,-1.788893 -7.74316,-3.431997 -11.56912,-5.248132 -2.72712,-1.20705 -5.45458,-2.413645 -8.16056,-3.667538 0,0 0.77553,0.614593 0.77553,0.614593 z" />
    <path
       style="fill:#2b0000;stroke-width:0.264583"
       id="path202"
       d="m 128.11251,108.4248 c 0.47999,-0.084 0.96359,-0.14939 1.43997,-0.25187 4.64764,-0.99986 9.22726,-2.35821 13.79092,-3.67973 4.30979,-1.1491 8.44697,-2.8044 12.54081,-4.553565 3.01971,-1.347819 5.93811,-2.678784 8.70487,-4.494255 2.28762,-1.563962 4.84734,-2.666272 7.38946,-3.742197 0.4222,-0.184111 0.84439,-0.368224 1.26659,-0.552337 0,0 -0.8038,-0.534762 -0.8038,-0.534762 v 0 c -0.42048,0.184819 -0.84097,0.369638 -1.26145,0.554458 -2.54668,1.084051 -5.1176,2.182254 -7.41321,3.747701 -2.72253,1.806324 -5.68135,3.172219 -8.66051,4.502714 -4.09242,1.744393 -8.23584,3.369943 -12.53357,4.544903 -5.03111,1.47113 -10.0977,2.97526 -15.26235,3.89117 0,0 0.80227,0.56777 0.80227,0.56777 z" />
    <ellipse
       style="fill:#2b0000;stroke-width:0.264583"
       id="path204"
       cx="74.516129"
       cy="59.612904"
       rx="3.5483871"
       ry="4.2580643" />
    <ellipse
       style="fill:#2b0000;stroke-width:0.264583"
       id="path206"
       cx="74.338715"
       cy="111.95161"
       rx="3.7258065"
       ry="3.016129" />
    <path
       style="fill:#2b0000;stroke-width:0.264583"
       id="path208"
       d="m 15.575224,60.081993 c 5.660882,1.136292 11.440078,1.518179 17.190776,1.902015 2.787893,0.08932 5.57899,0.391374 8.371038,0.372557 0.882893,-0.006 2.043115,-0.105415 2.923156,-0.169791 2.762716,-0.231047 5.481921,-0.785643 8.214955,-1.228526 4.098489,-0.350862 8.186275,-0.827167 12.281855,-1.219314 2.836053,-0.260093 5.678062,-0.442902 8.520089,-0.621422 0,0 -0.762336,-0.546425 -0.762336,-0.546425 v 0 c -2.837765,0.186727 -5.675535,0.376476 -8.508042,0.633513 -4.110786,0.387522 -8.216257,0.839917 -12.328975,1.193877 -2.7267,0.452771 -5.441825,1.006345 -8.201067,1.227645 -0.923348,0.06618 -1.989008,0.157649 -2.915587,0.16351 -2.780482,0.0176 -5.560464,-0.259723 -8.336854,-0.352086 -5.76534,-0.379503 -11.564126,-0.759976 -17.229338,-1.954173 0,0 0.78033,0.59862 0.78033,0.59862 z" />
    <path
       style="fill:#2b0000;stroke-width:0.264583"
       id="path210"
       d="m 75.42237,58.529434 c 3.667884,0.01672 7.334988,-0.193895 10.989424,-0.494914 2.833695,-0.189831 5.642321,-0.605179 8.453646,-0.989449 1.777508,-0.262477 3.555717,-0.339768 5.33457,-0.08169 2.24156,0.38104 4.49861,0.655889 6.74971,0.971021 1.39512,0.128135 2.78957,0.408024 4.19601,0.38445 0.51974,-0.0087 1.0888,-0.08379 1.60529,-0.141264 1.88293,-0.230267 3.75476,-0.543001 5.63583,-0.789403 1.36685,-0.137609 2.73896,-0.35692 4.11223,-0.209772 0.48639,0.06707 0.25836,0.01357 0.68644,0.15003 0,0 -0.78548,-0.605708 -0.78548,-0.605708 v 0 c -0.43786,-0.117891 -0.20658,-0.07074 -0.6954,-0.133626 -1.37495,-0.125931 -2.74711,0.09752 -4.11385,0.236503 -1.88142,0.249764 -3.75485,0.558398 -5.63921,0.784371 -0.54132,0.05838 -1.04865,0.125775 -1.59495,0.131834 -1.40268,0.01556 -2.79382,-0.25572 -4.18492,-0.389287 -2.25309,-0.312158 -4.51066,-0.593545 -6.753831,-0.974259 -1.785122,-0.242919 -3.566723,-0.164058 -5.347898,0.10537 -2.804078,0.39097 -5.60641,0.805257 -8.43366,0.997146 -3.659656,0.301725 -7.334342,0.526338 -11.007759,0.461761 0,0 0.793808,0.586881 0.793808,0.586881 z" />
    <path
       style="fill:#2b0000;stroke-width:0.264583"
       id="path212"
       d="m 17.098668,112.51362 c 2.587326,0.59029 5.226918,0.8656 7.852764,1.22316 2.17291,0.24604 4.353249,0.56467 6.542856,0.6265 1.276752,0.0361 2.060792,-0.0464 3.35671,-0.12878 3.478133,-0.29119 6.917153,-0.90475 10.347076,-1.53189 2.212023,-0.41272 4.46255,-0.54459 6.707402,-0.62165 2.367412,-0.022 4.74222,0.0917 7.093244,0.37429 2.630114,0.36932 5.278622,0.59984 7.92105,0.86661 4.634217,0.73623 9.347801,0.45411 14.019745,0.38262 3.612615,-0.1308 7.232893,-0.17616 10.837568,-0.4723 2.108399,-0.17321 3.653732,-0.36463 5.761204,-0.60292 4.233053,-0.50592 8.468883,-0.98801 12.702473,-1.48935 2.1453,-0.2826 4.29751,-0.50536 6.45007,-0.72332 0,0 -0.77312,-0.54977 -0.77312,-0.54977 v 0 c -2.15225,0.22177 -4.30421,0.44748 -6.45018,0.72503 -4.22889,0.49509 -8.45829,0.98534 -12.684694,1.50138 -2.176148,0.24404 -3.590168,0.42055 -5.765808,0.59433 -3.598601,0.28744 -7.212121,0.3498 -10.818188,0.48046 -4.683165,0.067 -9.403842,0.31451 -14.049362,-0.41781 -2.644679,-0.26968 -5.294468,-0.50818 -7.927752,-0.87355 -2.356932,-0.2734 -4.736746,-0.39382 -7.109145,-0.36744 -2.244622,0.084 -4.495051,0.2224 -6.706063,0.64002 -3.423256,0.63464 -6.857331,1.24926 -10.3315,1.52872 -1.310788,0.0777 -2.065809,0.15451 -3.354263,0.11548 -2.187697,-0.0663 -4.365791,-0.38002 -6.536632,-0.63018 -2.633858,-0.35921 -5.281513,-0.64075 -7.873624,-1.24904 0,0 0.788169,0.5994 0.788169,0.5994 z" />
    <text
       xml:space="preserve"
       style="font-size:6.35px;fill:#2b0000;stroke-width:0.264583"
       x="12.774194"
       y="45.064518"
       id="text268"><tspan
         sodipodi:role="line"
         id="tspan266"
         style="stroke-width:0.264583"
         x="12.774194"
         y="45.064518">a</tspan></text>
    <text
       xml:space="preserve"
       style="font-size:6.35px;fill:#2b0000;stroke-width:0.264583"
       x="73.80645"
       y="46.838707"
       id="text322"><tspan
         sodipodi:role="line"
         id="tspan320"
         style="stroke-width:0.264583"
         x="73.80645"
         y="46.838707">b</tspan></text>
    <text
       xml:space="preserve"
       style="font-size:6.35px;fill:#2b0000;stroke-width:0.264583"
       x="125.96774"
       y="47.903225"
       id="text326"><tspan
         sodipodi:role="line"
         id="tspan324"
         style="stroke-width:0.264583"
         x="125.96774"
         y="47.903225">c</tspan></text>
    <text
       xml:space="preserve"
       style="font-size:6.35px;fill:#2b0000;stroke-width:0.264583"
       x="183.45161"
       y="83.032265"
       id="text330"><tspan
         sodipodi:role="line"
         id="tspan328"
         style="stroke-width:0.264583"
         x="183.45161"
         y="83.032265">d</tspan></text>
    <text
       xml:space="preserve"
       style="font-size:6.35px;fill:#2b0000;stroke-width:0.264583"
       x="125.25806"
       y="99.354836"
       id="text334"><tspan
         sodipodi:role="line"
         id="tspan332"
         style="stroke-width:0.264583"
         x="125.25806"
         y="99.354836">e</tspan></text>
    <text
       xml:space="preserve"
       style="font-size:6.35px;fill:#2b0000;stroke-width:0.264583"
       x="77.354836"
       y="100.06451"
       id="text338"><tspan
         sodipodi:role="line"
         id="tspan336"
         style="stroke-width:0.264583"
         x="77.354836"
         y="100.06451">f</tspan></text>
    <text
       xml:space="preserve"
       style="font-size:6.35px;fill:#2b0000;stroke-width:0.264583"
       x="18.096773"
       y="100.41936"
       id="text342"><tspan
         sodipodi:role="line"
         id="tspan340"
         style="stroke-width:0.264583"
         x="18.096773"
         y="100.41936">g</tspan></text>
    <path
       style="fill:#2b0000;stroke-width:0.264583"
       id="path374"
       d="m 14.107256,64.695434 c 0.04339,3.03815 -0.404265,6.062221 -0.867419,9.057542 -0.44441,2.581884 -1.009944,5.13951 -1.636292,7.682667 -0.809738,3.39445 -1.152981,6.873896 -1.524612,10.33677 -0.3596464,3.268422 -0.4856362,6.554137 -0.5539868,9.839377 0.016013,1.62355 -0.3405989,3.24619 -0.2474844,4.87071 0.019537,0.34083 0.073949,0.67877 0.1109234,1.01815 0.3155439,1.38318 0.1313079,0.70024 0.5520449,2.04899 0,0 0.8768579,0.41362 0.8768579,0.41362 v 0 c -0.424874,-1.33846 -0.238314,-0.66131 -0.559342,-2.03152 -0.03753,-0.33568 -0.09239,-0.66987 -0.112574,-1.00703 -0.09727,-1.62526 0.258258,-3.25084 0.233716,-4.87561 0.0596,-3.2854 0.18342,-6.571221 0.5339,-9.840457 0.368671,-3.457057 0.726582,-6.927353 1.538358,-10.314898 0.62782,-2.546911 1.195327,-5.107929 1.630075,-7.695702 0.455723,-2.99638 0.901279,-6.016416 0.908097,-9.053074 0,0 -0.882262,-0.449535 -0.882262,-0.449535 z" />
    <path
       style="fill:#2b0000;stroke-width:0.264583"
       id="path376"
       d="m 13.137611,112.08999 c 2.963885,-2.73047 6.213101,-5.13564 9.405734,-7.5892 0.576074,-0.4496 1.15091,-0.90079 1.728221,-1.3488 0.820111,-0.63643 2.145172,-1.63818 2.953596,-2.31107 2.191517,-1.824085 0.668544,-0.66074 3.015858,-2.688199 0.691205,-0.597019 1.406559,-1.165497 2.10984,-1.748245 0.928698,-0.659566 1.839643,-1.344871 2.786097,-1.978694 2.345034,-1.570424 5.011849,-3.143406 7.429921,-4.566721 4.046524,-2.381851 8.1412,-4.677178 12.237003,-6.972613 4.758756,-2.607974 9.54024,-5.169037 14.057786,-8.181937 2.235475,-1.430674 4.135194,-3.261143 5.854501,-5.264682 0.524933,-0.715185 1.455759,-1.894613 1.71142,-2.752289 0.150498,-0.504875 0.05074,-0.744302 -0.03608,-1.236974 -0.364117,-0.902073 -0.999961,-1.635469 -1.645613,-2.345913 0,0 -0.907696,-0.380708 -0.907696,-0.380708 v 0 c 0.644054,0.699206 1.276017,1.420129 1.669426,2.297101 0.09438,0.456007 0.2037,0.710179 0.06801,1.182622 -0.24234,0.843767 -1.178041,2.03209 -1.691656,2.735029 -1.70685,2.000102 -3.595486,3.826254 -5.818438,5.256192 -4.500401,3.01404 -9.253882,5.599334 -13.993074,8.21536 -4.089837,2.304253 -8.179684,4.606837 -12.230582,6.979274 -2.520331,1.47605 -5.031311,2.936409 -7.46506,4.552471 -0.952746,0.632645 -1.870871,1.315945 -2.806306,1.973919 -0.708691,0.58108 -1.429644,1.147524 -2.126075,1.743241 -2.773518,2.372436 -0.472924,0.555842 -3.021582,2.677556 -0.753456,0.62724 -2.185577,1.72426 -2.943924,2.31619 -0.57542,0.44915 -1.149045,0.90059 -1.723567,1.35089 -3.196866,2.46538 -6.446526,4.88069 -9.460045,7.57005 0,0 0.842285,0.51615 0.842285,0.51615 z" />
    <path
       style="fill:#2b0000;stroke-width:0.264583"
       id="path378"
       d="m 17.186517,65.749595 c 1.605585,1.678329 2.986638,3.54688 4.419338,5.37001 1.663778,2.154748 3.378121,4.275076 5.259397,6.244529 1.483092,1.394746 3.011418,2.738922 4.574275,4.043526 2.871867,2.307752 5.873906,4.444577 8.93282,6.495381 2.740036,1.850956 5.593871,3.5223 8.385768,5.291455 3.396032,2.275345 6.832007,4.480708 10.335942,6.585987 1.452031,0.837207 2.860873,1.687257 4.0518,2.882277 1.549823,1.55516 2.837759,3.37912 4.188333,5.10233 1.113422,1.43237 2.285346,2.81507 3.487401,4.17296 0,0 0.880949,0.37096 0.880949,0.37096 v 0 c -1.211892,-1.35705 -2.39142,-2.74079 -3.510454,-4.17635 -1.683975,-2.15044 -3.271441,-4.56929 -5.446327,-6.26972 -0.513207,-0.40125 -2.28125,-1.44587 -2.772796,-1.74335 -3.502512,-2.101306 -6.93869,-4.299927 -10.327603,-6.580241 -2.791462,-1.774225 -5.650317,-3.441825 -8.39367,-5.292043 -3.055898,-2.043549 -6.05255,-4.176215 -8.91975,-6.479323 -1.560314,-1.303964 -3.083507,-2.649265 -4.574328,-4.032033 -1.89008,-1.96306 -3.608208,-4.08273 -5.271729,-6.239446 -1.426926,-1.816571 -2.795034,-3.684244 -4.388868,-5.361551 0,0 -0.910498,-0.385358 -0.910498,-0.385358 z" />
    <ellipse
       style="fill:#2b0000;stroke-width:0.264583"
       id="path382"
       cx="24.129032"
       cy="183.2742"
       rx="3.9032259"
       ry="5.5" />
    <ellipse
       style="fill:#2b0000;stroke-width:0.264583"
       id="path384"
       cx="109.64516"
       cy="163.58064"
       rx="5.6774192"
       ry="6.3870969" />
    <ellipse
       style="fill:#2b0000;stroke-width:0.264583"
       id="path386"
       cx="185.04839"
       cy="187.70969"
       rx="3.7258065"
       ry="8.8709679" />
    <circle
       style="fill:#2b0000;stroke-width:0.264583"
       id="path388"
       cx="132.8871"
       cy="225.14516"
       r="6.2096772" />
    <ellipse
       style="fill:#2b0000;stroke-width:0.264583"
       id="path390"
       cx="23.419355"
       cy="244.48386"
       rx="5.6774192"
       ry="9.935483" />
    <path
       style="fill:#2b0000;stroke-width:0.264583"
       id="path392"
       d="m 28.948927,182.13885 c 7.037192,-2.4268 14.165122,-4.58294 21.287147,-6.74495 6.338443,-1.91293 12.674158,-3.83483 19.02329,-5.71194 5.34983,-1.66476 10.894558,-2.56233 16.394584,-3.57236 4.694954,-1.00736 9.448355,-1.65584 14.230918,-2.04633 1.495584,-0.14684 2.997374,-0.11933 4.496894,-0.0919 0,0 -0.77692,-0.56641 -0.77692,-0.56641 v 0 c -1.49774,-0.0216 -2.99761,-0.0417 -4.490903,0.10794 -4.775568,0.40917 -9.522315,1.06457 -14.211869,2.07101 -5.503405,1.01312 -11.052259,1.90936 -16.405526,3.57665 -6.336065,1.87708 -12.649602,3.82868 -18.973334,5.74685 -7.14561,2.17404 -14.294861,4.34091 -21.388946,6.67867 0,0 0.814665,0.55274 0.814665,0.55274 z" />
    <path
       style="fill:#2b0000;stroke-width:0.264583"
       id="path394"
       d="m 108.8522,164.80453 c 3.61046,1.33099 7.3473,2.2679 11.04974,3.30083 5.30991,1.45717 10.41385,3.50699 15.50871,5.56959 3.88348,1.63274 7.68534,3.4502 11.52556,5.1808 3.70518,1.66221 7.68289,2.50235 11.62786,3.37107 3.9588,0.82298 7.87375,1.8234 11.70611,3.1137 2.73312,1.02228 5.53253,1.84258 8.30986,2.7302 0.79146,0.27324 1.56976,0.56891 2.32818,0.92253 0,0 -0.76808,-0.61021 -0.76808,-0.61021 v 0 c -0.75854,-0.34278 -1.53413,-0.63622 -2.32302,-0.90332 -2.77693,-0.87772 -5.56826,-1.7104 -8.30039,-2.72473 -3.83099,-1.27695 -7.7421,-2.26949 -11.69515,-3.09266 -3.94738,-0.87296 -7.92473,-1.72616 -11.62956,-3.39695 -3.83394,-1.72615 -7.63026,-3.53788 -11.5088,-5.16293 -5.09614,-2.06097 -10.20418,-4.10101 -15.51376,-5.56038 -3.71803,-1.04074 -7.47036,-1.98856 -11.09127,-3.34151 0,0 0.77401,0.60397 0.77401,0.60397 z" />
    <path
       style="fill:#2b0000;stroke-width:0.264583"
       id="path396"
       d="m 180.79539,189.91484 c -3.14521,2.3188 -6.22867,4.71862 -9.3324,7.09222 -2.66868,2.09322 -5.49474,3.96657 -8.30325,5.86271 -2.77056,1.88233 -5.27172,4.11122 -7.73686,6.36835 -2.43742,2.03551 -4.57507,4.3714 -6.71521,6.70593 -0.97469,0.95704 -1.85787,2.01361 -2.94334,2.8528 -0.69662,0.53857 -1.4089,0.97531 -2.14875,1.45442 -2.16635,1.38256 -4.36498,2.7131 -6.74286,3.69802 -1.01783,0.35678 -0.52542,0.2019 -1.47476,0.47243 0,0 0.80842,0.55317 0.80842,0.55317 v 0 c 0.94907,-0.28023 0.45693,-0.12063 1.47395,-0.48635 2.37393,-1.00143 4.57188,-2.33753 6.74255,-3.71871 0.75981,-0.48938 1.4513,-0.90965 2.16485,-1.45906 1.09044,-0.83959 1.96757,-1.90511 2.94158,-2.86826 2.13111,-2.33767 4.26775,-4.66873 6.69788,-6.70661 2.46367,-2.25456 4.97213,-4.46687 7.73668,-6.35197 2.8066,-1.89901 5.63312,-3.77205 8.29463,-5.87487 3.10254,-2.38225 6.18324,-4.79342 9.36716,-7.06737 0,0 -0.83027,-0.52685 -0.83027,-0.52685 z" />
    <ellipse
       style="fill:#2b0000;stroke-width:0.264583"
       id="path398"
       cx="86.225807"
       cy="237.38708"
       rx="6.032258"
       ry="4.9677415" />
    <ellipse
       style="fill:#2b0000;stroke-width:0.264583"
       id="path400"
       cx="132.70969"
       cy="224.96774"
       rx="2.1290321"
       ry="0.7096774" />
    <path
       style="fill:#2b0000;stroke-width:0.264583"
       id="path402"
       d="m 133.44824,226.14372 c -4.67086,0.55697 -9.21712,1.77635 -13.73327,3.05125 -4.19512,1.26921 -8.36396,2.62462 -12.52587,3.99837 -1.99002,0.59919 -4.06248,0.83433 -6.08339,1.29789 -1.08926,0.24985 -2.350776,0.61749 -3.425714,0.91886 -2.416199,0.72386 -4.808686,1.49625 -7.283728,1.99662 0,0 0.796158,0.55426 0.796158,0.55426 v 0 c 2.469933,-0.51059 4.858596,-1.28423 7.269903,-2.01447 1.134763,-0.31695 2.274521,-0.65048 3.424271,-0.9112 2.02564,-0.45934 4.10218,-0.69624 6.09359,-1.30517 4.14667,-1.39199 8.30663,-2.74705 12.49285,-4.01563 4.52513,-1.27712 9.08428,-2.4999 13.77312,-2.99914 0,0 -0.79792,-0.57164 -0.79792,-0.57164 z" />
    <path
       style="fill:#2b0000;stroke-width:0.264583"
       id="path404"
       d="m 83.227383,239.58717 c -7.266618,0.0579 -14.4931,0.83989 -21.689687,1.78048 -5.53244,0.84252 -10.999306,2.04221 -16.523126,2.94306 -3.476135,0.55687 -6.977033,0.92704 -10.476518,1.2971 0,0 0.737632,0.52401 0.737632,0.52401 v 0 c 3.499408,-0.37818 7.000303,-0.75434 10.478492,-1.30172 3.470148,-0.55936 2.905117,-0.44488 6.204659,-1.06251 2.468792,-0.46213 4.924933,-1.00905 7.400861,-1.43188 0.967899,-0.1653 1.940782,-0.29996 2.911176,-0.44994 7.209126,-0.96079 14.454076,-1.74562 21.737738,-1.73101 0,0 -0.781227,-0.56759 -0.781227,-0.56759 z" />
    <path
       style="fill:#2b0000;stroke-width:0.264583"
       id="path406"
       d="m 25.987331,245.61754 c -0.240156,-2.86872 -0.673606,-5.72064 -0.741816,-8.60271 -0.05194,-2.19467 0.0294,-2.55326 0.196693,-4.70786 0.332794,-3.5869 1.617457,-6.929 3.008395,-10.21263 0.878822,-2.10679 1.687666,-4.24433 2.174679,-6.47997 0.322215,-1.47914 0.394555,-2.22415 0.599245,-3.71918 0.235317,-2.9068 0.296928,-5.83635 0.124266,-8.74855 -0.243033,-3.59708 -1.508521,-6.95353 -2.769348,-10.29127 -0.2706,-0.72207 -0.541203,-1.44415 -0.811806,-2.16622 0,0 -0.846095,-0.39367 -0.846095,-0.39367 v 0 c 0.268648,0.72129 0.537295,1.44259 0.805942,2.16388 1.256716,3.32487 2.522575,6.66809 2.756056,10.25294 0.17752,2.90985 0.143817,5.8368 -0.09594,8.74207 -0.204182,1.504 -0.27128,2.22162 -0.595493,3.70921 -0.486158,2.23066 -1.294995,4.36217 -2.176504,6.46234 -1.390773,3.29616 -2.668792,6.65315 -3.001835,10.25083 -0.168196,2.17433 -0.247388,2.50678 -0.196551,4.72157 0.06588,2.87032 0.495244,5.71108 0.692223,8.57191 0,0 0.877889,0.44731 0.877889,0.44731 z" />
    <text
       xml:space="preserve"
       style="font-size:3.175px;fill:#000000;stroke-width:0.264583"
       x="16.67742"
       y="156.12903"
       id="text206"><tspan
         sodipodi:role="line"
         id="tspan204"
         style="stroke-width:0.264583"
         x="16.67742"
         y="156.12903">unteres nein</tspan></text>
    <path
       style="fill:#000000;stroke-width:0.264583"
       id="path321"
       d="m 72.645309,59.895337 c -0.346599,2.561664 -0.731446,5.119407 -0.698752,7.711734 0.02439,1.933927 0.163664,3.02219 0.341755,4.939382 0.32417,3.004132 0.776732,5.992825 1.045612,9.002873 0.131096,1.560208 0.136924,3.12656 0.143462,4.691049 -0.04008,2.339333 0.06647,4.674431 0.166402,7.010742 0.05331,2.148295 0.256281,4.288472 0.413623,6.430605 0.153617,1.386818 0.05474,2.771268 -0.03254,4.157448 -0.103555,1.68641 -0.160612,3.37557 -0.189613,5.06481 -0.01233,0.90125 -0.007,0.46169 -0.01622,1.31865 0,0 3.526237,1.79989 3.526237,1.79989 v 0 c 0.003,-0.85752 5.29e-4,-0.41784 0.0078,-1.31906 0.02469,-1.68425 0.06056,-3.36898 0.174848,-5.04999 0.09813,-1.40109 0.226372,-2.80085 0.06678,-4.20411 -0.178544,-2.143968 -0.416489,-4.285432 -0.4601,-6.438089 -0.0969,-2.325833 -0.19934,-4.65065 -0.138708,-6.97918 -0.0011,-1.576461 -0.0021,-3.155378 -0.137313,-4.727331 -0.285599,-3.027048 -0.786022,-6.027314 -1.132057,-9.047453 -0.186579,-1.903696 -0.332071,-2.975552 -0.356516,-4.895578 -0.03265,-2.564246 0.345729,-5.100894 0.762252,-7.623791 0,0 -3.48697,-1.842601 -3.48697,-1.842601 z" />
    <text
       xml:space="preserve"
       style="font-size:3.175px;fill:#000000;stroke-width:0.264583"
       x="10.290323"
       y="127.38709"
       id="text209"><tspan
         sodipodi:role="line"
         id="tspan207"
         style="stroke-width:0.264583"
         x="10.290323"
         y="127.38709">Hier sieht man den Unterschied zwischen  Clique und Club sehr gut </tspan><tspan
         sodipodi:role="line"
         style="stroke-width:0.264583"
         x="10.290323"
         y="131.35583"
         id="tspan211">Im Club wären nur c oder e dabei</tspan><tspan
         sodipodi:role="line"
         style="stroke-width:0.264583"
         x="10.290323"
         y="135.32458"
         id="tspan263">in der Clique beide, weil sie über d verbunden sind welcher nicht in der Menge liegt</tspan></text>
    <path
       style="fill:#000000;stroke-width:0.264583"
       id="path222"
       d="m 77.05509,58.300519 c 0.247243,-2.598899 0.826421,-5.145731 1.619549,-7.6283 0.763341,-2.410241 2.246085,-4.411043 3.7142,-6.423081 1.706615,-2.169604 3.312784,-4.414022 4.940196,-6.642729 1.397313,-1.828639 2.834646,-3.635227 4.465746,-5.263901 0.835073,-0.833832 1.6656,-1.546067 2.54735,-2.326341 1.99924,-1.752585 4.229204,-3.211531 6.390779,-4.751984 1.47339,-0.970935 2.73663,-2.211949 4.11084,-3.31109 1.41716,-1.221822 2.8239,-2.452353 4.34323,-3.546449 0.42373,-0.108993 1.15376,-0.938649 1.57326,-0.992954 0.1088,-0.01409 0.39045,0.200336 0.29311,0.149715 -1.01435,-0.527532 -1.97872,-1.165734 -3.04419,-1.580451 -0.21257,-0.08274 0.26905,0.368421 0.40358,0.552632 1.25754,2.288421 1.78219,4.882221 2.44487,7.38517 0.80697,2.655478 1.47765,5.351336 2.06292,8.063728 0.47601,2.42933 1.02592,4.839994 1.70495,7.220966 0.56541,1.876549 1.31998,3.677959 2.36545,5.339326 0.49487,0.78641 1.16475,1.687608 1.71109,2.442604 1.20285,1.513774 2.28236,3.12865 3.00066,4.929005 0.35992,1.068432 0.44125,2.206659 0.37041,3.32573 -0.0189,0.150416 -0.0378,0.300834 -0.0568,0.451253 0,0 3.49914,1.839624 3.49914,1.839624 v 0 c 0.0207,-0.157888 0.0414,-0.315775 0.0621,-0.473663 0.0922,-1.167106 0.0252,-2.35976 -0.30531,-3.487676 -0.70029,-1.8517 -1.78434,-3.522912 -3.03198,-5.054227 -1.81012,-2.45432 -3.3024,-4.663109 -4.12405,-7.654547 -0.6847,-2.370301 -1.22102,-4.774583 -1.70647,-7.192499 -0.582,-2.724568 -1.26774,-5.42966 -2.08443,-8.093636 -0.65746,-2.516164 -1.17474,-5.103753 -2.31638,-7.457342 -1.01649,-1.857563 -0.38038,-0.948193 -4.13641,-2.920784 -0.12847,-0.06747 -0.2948,0.01646 -0.42967,0.07001 -0.57506,0.22831 -0.99963,0.790755 -1.56579,1.037056 -1.51483,1.105809 -2.89389,2.375112 -4.3355,3.572325 -1.37393,1.090496 -2.648122,2.307185 -4.102,3.294851 -2.145389,1.570026 -4.358187,3.059384 -6.353063,4.822653 -0.865415,0.778102 -1.731156,1.535919 -2.553171,2.361422 -1.63807,1.645018 -3.096538,3.458469 -4.52237,5.28646 -1.624533,2.231842 -3.2449,4.466743 -4.96154,6.629352 -1.499018,2.043589 -2.979965,4.093572 -3.74827,6.54695 -0.796187,2.487592 -1.395019,5.031118 -1.734886,7.623416 0,0 3.48879,1.857407 3.48879,1.857407 z" />
    <path
       style="fill:#000000;stroke-width:0.264583"
       id="path224"
       d="m 110.91406,18.424143 c 0.28004,0.153292 2.27855,1.239865 2.26801,1.276234 -0.14618,0.504305 -1.77205,-1.096363 -1.39572,-0.73021 0.63255,0.615443 1.46105,0.990527 2.18381,1.496991 1.82606,1.279591 2.83926,2.041064 4.63783,3.364248 3.95306,3.038616 7.8686,6.127349 11.94138,9.005409 1.87588,1.288892 3.68032,2.667791 5.42242,4.131196 2.42101,2.062279 4.41879,4.533432 6.44153,6.969752 2.41891,2.898172 4.29237,6.188303 6.40339,9.306034 1.84635,2.558521 3.53614,5.222533 5.33402,7.81476 2.30588,3.281171 4.93542,6.304914 7.74235,9.161822 2.4826,2.369698 4.97242,4.731834 7.45916,7.097236 1.75358,1.608688 3.41218,3.315245 5.07753,5.013862 1.12867,1.147585 2.19207,2.360464 3.1557,3.649856 0.5129,0.552071 0.88253,1.167981 1.17242,1.858491 0,0 3.58712,1.662155 3.58712,1.662155 v 0 c -0.26568,-0.727702 -0.56077,-1.417749 -1.1388,-1.958644 -0.97354,-1.314818 -2.0418,-2.557426 -3.19204,-3.72186 -1.66032,-1.711965 -3.32818,-3.418792 -5.08411,-5.033613 -2.51844,-2.366851 -5.02492,-4.746569 -7.54076,-7.116262 -0.97392,-0.985658 -1.96905,-1.966407 -2.89155,-3.001812 -1.723,-1.933895 -3.30456,-3.998936 -4.83849,-6.083284 -1.79105,-2.596549 -3.47182,-5.266907 -5.33532,-7.812614 -2.13843,-3.112055 -4.00996,-6.413394 -6.40208,-9.344094 -2.00892,-2.433671 -3.96779,-4.921874 -6.3552,-7.006248 -1.73894,-1.502444 -3.55649,-2.89973 -5.46205,-4.186243 -4.12545,-2.863993 -8.08129,-5.957512 -12.04666,-9.037205 -1.96778,-1.45342 -2.62424,-1.95194 -4.61055,-3.365106 -0.70867,-0.504188 -1.39968,-1.035621 -2.13639,-1.497877 -1.68102,-1.05477 -3.40403,-2.041152 -5.11265,-3.050597 -1.28532,-0.759363 -1.24268,-0.719155 -2.39256,-1.306589 0,0 3.10826,2.444212 3.10826,2.444212 z" />
    <path
       style="fill:#000000;stroke-width:0.264583"
       id="path226"
       d="m 70.19736,111.38993 c 1.390684,1.67029 2.740247,3.37282 4.037237,5.11676 1.11705,1.48494 2.310181,2.9099 3.488325,4.34606 1.383996,1.65809 2.423755,3.56157 3.496845,5.42541 1.667256,2.72514 3.726897,5.18416 5.741738,7.65525 1.096508,1.32878 2.298351,2.57031 3.295759,3.97735 0.689565,0.81443 1.189167,1.75097 1.669502,2.69643 0.546939,1.10964 1.239197,2.13312 1.770957,3.25023 0.432456,0.98542 0.913553,1.9482 1.360413,2.92665 0.273892,0.57419 0.589008,1.13045 0.821468,1.72318 0.640773,1.65718 1.0448,1.25778 3.94884,2.4161 0.0062,0.002 1.091166,-0.82522 1.144556,-0.86619 1.70615,-1.39808 3.52401,-2.65587 5.35716,-3.8808 1.99241,-1.25327 3.89706,-2.63096 5.70079,-4.14245 2.04707,-1.7184 3.64302,-3.87029 5.21142,-6.0127 1.57495,-2.26254 3.11662,-4.54762 4.60174,-6.87019 1.20121,-1.88804 2.07049,-3.94858 2.9331,-6.00505 0.80484,-2.04667 1.51742,-4.1215 2.45804,-6.11172 0.45903,-1.07353 1.05276,-2.0792 1.37783,-3.20532 0.14225,-0.75581 0.36621,-1.49129 0.6232,-2.21499 0.19547,-0.61337 0.0922,-0.30816 0.31003,-0.9156 0,0 -3.45541,-1.91518 -3.45541,-1.91518 v 0 c -0.22634,0.61472 -0.12167,0.31024 -0.3153,0.913 -0.26979,0.72919 -0.51377,1.47253 -0.641,2.24144 -0.28896,1.11525 -0.86686,2.10987 -1.30377,3.17015 -0.92581,2.0034 -1.61915,4.09322 -2.43694,6.14109 -0.85787,2.03523 -1.73476,4.06688 -2.91015,5.94425 -1.45368,2.33101 -2.96948,4.62203 -4.55299,6.8671 -1.56036,2.11314 -3.16311,4.22073 -5.19165,5.91493 -1.8008,1.48874 -3.69718,2.85207 -5.65966,4.12011 -1.84843,1.23269 -3.687503,2.4859 -5.439862,3.85299 -0.03863,0.0282 -0.685313,0.50358 -0.785834,0.56411 -0.08874,0.0534 -0.363553,0.0732 -0.280119,0.13459 5.341145,3.93055 3.511605,2.80555 2.898579,1.54244 -0.189217,-0.62071 -0.497293,-1.19138 -0.815605,-1.75593 -0.423156,-0.99712 -0.965457,-1.94112 -1.380471,-2.9436 -0.506572,-1.13093 -1.185895,-2.15388 -1.745348,-3.25718 -0.495755,-0.9504 -0.937294,-1.94639 -1.662845,-2.75164 -0.996429,-1.44444 -2.205115,-2.71277 -3.355584,-4.03548 -2.018138,-2.45039 -4.092315,-4.88233 -5.758026,-7.59239 -1.065964,-1.86742 -2.074455,-3.79317 -3.434882,-5.46796 -1.171493,-1.44289 -2.378879,-2.85717 -3.506533,-4.33541 -1.296774,-1.73241 -2.646836,-3.42033 -3.976315,-5.12731 0,0 -3.639235,-1.53253 -3.639235,-1.53253 z" />
    <path
       style="fill:#000000;stroke-width:0.264583"
       id="path228"
       d="m 100.36568,150.97079 c 4.81648,-2.80842 9.2389,-6.24454 13.71415,-9.55645 4.73352,-3.4126 9.42083,-6.89754 14.38126,-9.97734 3.8015,-2.1039 7.62027,-4.17153 11.37103,-6.36635 4.03111,-2.37368 7.83751,-5.09515 11.53111,-7.95859 3.38528,-2.68747 6.80387,-5.33981 10.06041,-8.18348 2.39531,-2.02704 4.73976,-4.11803 6.99864,-6.29667 1.74249,-1.47142 3.31531,-3.114023 4.90933,-4.739274 1.05964,-1.214181 2.22958,-2.307569 3.43796,-3.367503 0.73439,-0.527053 1.54621,-0.955889 2.21597,-1.564881 0.47378,-0.371715 0.81256,-0.865798 1.1858,-1.329266 0,0 -3.39995,-2.03072 -3.39995,-2.03072 v 0 c -0.35366,0.450358 -0.68527,0.919369 -1.14662,1.27068 -0.69099,0.584409 -1.49749,1.012698 -2.20839,1.572512 -1.19543,1.080463 -2.33098,2.214843 -3.40218,3.420893 -1.5897,1.623703 -3.16798,3.253417 -4.89386,4.736779 -2.24003,2.17703 -4.53474,4.29994 -6.91133,6.32728 -3.25378,2.83518 -6.66426,5.48541 -10.04346,8.16838 -3.67831,2.85416 -7.46033,5.57989 -11.48737,7.92737 -3.76725,2.18372 -7.61529,4.21576 -11.40218,6.36231 -4.89954,3.146 -9.53319,6.67052 -14.23163,10.10468 -4.50281,3.31347 -8.99662,6.73983 -13.980507,9.30716 0,0 3.301817,2.17248 3.301817,2.17248 z" />
    <text
       xml:space="preserve"
       style="font-size:3.175px;fill:#000000;stroke-width:0.264583"
       x="106.80645"
       y="6.7419353"
       id="text284"><tspan
         sodipodi:role="line"
         id="tspan282"
         style="stroke-width:0.264583"
         x="106.80645"
         y="6.7419353">h</tspan></text>
    <text
       xml:space="preserve"
       style="font-size:3.175px;fill:#000000;stroke-width:0.264583"
       x="118.16129"
       y="148.32259"
       id="text339"><tspan
         sodipodi:role="line"
         id="tspan337"
         style="stroke-width:0.264583"
         x="118.16129"
         y="148.32259">i</tspan></text>
  </g>
</svg>
