<?xml version="1.0" encoding="UTF-8" standalone="no"?>
<!-- Created with Inkscape (http://www.inkscape.org/) -->

<svg
   width="210mm"
   height="297mm"
   viewBox="0 0 210 297"
   version="1.1"
   id="svg502"
   inkscape:version="1.2.2 (732a01da63, 2022-12-09)"
   sodipodi:docname="Standardbeispielmit Unterschiederweterungtriangleohneunterschied.svg"
   xmlns:inkscape="http://www.inkscape.org/namespaces/inkscape"
   xmlns:sodipodi="http://sodipodi.sourceforge.net/DTD/sodipodi-0.dtd"
   xmlns="http://www.w3.org/2000/svg"
   xmlns:svg="http://www.w3.org/2000/svg">
  <sodipodi:namedview
     id="namedview504"
     pagecolor="#ffffff"
     bordercolor="#000000"
     borderopacity="0.25"
     inkscape:showpageshadow="2"
     inkscape:pageopacity="0.0"
     inkscape:pagecheckerboard="0"
     inkscape:deskcolor="#d1d1d1"
     inkscape:document-units="mm"
     showgrid="false"
     inkscape:zoom="1.4627806"
     inkscape:cx="468.28623"
     inkscape:cy="454.27182"
     inkscape:window-width="2520"
     inkscape:window-height="1481"
     inkscape:window-x="-11"
     inkscape:window-y="46"
     inkscape:window-maximized="1"
     inkscape:current-layer="layer1" />
  <defs
     id="defs499" />
  <g
     inkscape:label="Ebene 1"
     inkscape:groupmode="layer"
     id="layer1">
    <ellipse
       style="fill:#000000;stroke-width:0.264583"
       id="path506"
       cx="7.2350788"
       cy="125.79993"
       rx="2.5322776"
       ry="2.6227162" />
    <ellipse
       style="fill:#000000;stroke-width:0.264583"
       id="path508"
       cx="7.1446404"
       cy="60.232033"
       rx="2.6227162"
       ry="2.3514009" />
    <ellipse
       style="fill:#000000;stroke-width:0.264583"
       id="path510"
       cx="63.126064"
       cy="61.498173"
       rx="2.3514009"
       ry="2.8940315" />
    <ellipse
       style="fill:#000000;stroke-width:0.264583"
       id="path512"
       cx="63.216503"
       cy="126.1617"
       rx="2.6227162"
       ry="2.0800853" />
    <path
       style="fill:#000000;stroke-width:0.264583"
       id="path514"
       d="m 12.797252,60.13583 c 4.760608,0.06556 9.520928,0.331295 14.261098,0.778412 1.132834,0.106855 2.262883,0.241425 3.394326,0.362138 3.733242,0.480195 7.475495,0.897633 11.200881,1.438037 1.248429,0.181097 2.493497,0.384667 3.740674,0.574177 3.993309,0.533739 8.012853,0.826408 12.034898,1.028579 2.067904,0.05578 4.138234,0.05103 6.205488,-0.02508 0,0 -3.129714,-2.254215 -3.129714,-2.254215 v 0 c -2.033524,0.09314 -4.070996,0.100348 -6.106036,0.05625 -4.010364,-0.168267 -8.020293,-0.443363 -11.992126,-1.044369 -4.907986,-0.717542 -9.836012,-1.27441 -14.761397,-1.858306 -1.13115,-0.117163 -2.261089,-0.24669 -3.393452,-0.351489 -4.856734,-0.449479 -9.728857,-0.701786 -14.5961671,-1.000738 0,0 3.1415271,2.296599 3.1415271,2.296599 z" />
    <path
       style="fill:#000000;stroke-width:0.264583"
       id="path516"
       d="m 62.211455,62.954987 c 0.946306,1.376471 1.227198,3.019393 1.461592,4.637447 0.239774,2.170493 0.09974,4.354245 0.02874,6.529596 -0.07208,2.260902 -0.0916,4.522891 -0.105606,6.784742 -0.04914,2.276999 0.01971,4.552032 0.0781,6.827904 0.04809,2.20458 0.07279,4.409662 0.08661,6.614708 0.04808,2.195131 0.208076,4.385495 0.286565,6.579776 0.06419,2.23052 0.07516,4.46219 0.0882,6.69346 0.02029,2.38025 0.04339,4.76266 0.20651,7.13814 0.08835,0.9895 0.197562,1.97667 0.253259,2.96876 0.09478,0.86429 -0.177234,1.64848 -0.548986,2.41188 -0.409306,0.81819 -0.849019,1.62173 -1.232403,2.4526 -0.157139,0.39002 -0.08723,0.19902 -0.212021,0.57217 0,0 3.472018,1.90375 3.472018,1.90375 v 0 c 0.101039,-0.34918 0.04282,-0.1693 0.177541,-0.53869 0.359791,-0.83653 0.797319,-1.63647 1.212503,-2.44626 0.404138,-0.80905 0.729274,-1.66187 0.651045,-2.5841 -0.0441,-1.00927 -0.174742,-2.01037 -0.306986,-3.01143 -0.244911,-2.36823 -0.287361,-4.75181 -0.264157,-7.13129 0.0016,-2.23385 -0.0028,-4.46789 -0.0758,-6.70082 -0.07227,-2.1905 -0.215775,-4.377029 -0.286461,-6.567239 -0.0097,-2.210636 -0.03117,-4.421026 -0.101759,-6.630721 -0.05393,-2.270024 -0.09442,-4.540152 -0.07034,-6.810941 0.01143,-2.257224 0.03108,-4.514725 0.109101,-6.770806 0.07683,-2.194301 0.199123,-4.395531 1.22e-4,-6.587247 -0.2046,-1.63771 -0.444497,-3.298282 -1.284975,-4.750461 0,0 -3.622413,-1.584928 -3.622413,-1.584928 z" />
    <path
       style="fill:#000000;stroke-width:0.264583"
       id="path518"
       d="m 10.003869,126.6845 c 2.678473,0.14406 5.346577,0.43362 8.022815,0.60969 1.018284,0.067 2.037596,0.11732 3.056395,0.17598 6.319089,0.3866 12.652701,0.36457 18.980579,0.33616 2.769401,-0.0139 5.538702,-0.0414 8.308144,-0.0457 1.870607,-0.005 3.741174,-0.0163 5.611783,-0.0196 1.969614,-0.0127 3.939879,0.0364 5.908966,-0.0166 1.692002,-0.001 3.362645,-0.25895 5.023456,-0.55415 0.253881,-0.0443 0.507759,-0.0886 0.761637,-0.1329 0,0 -3.184204,-2.2286 -3.184204,-2.2286 v 0 c -0.250704,0.0458 -0.501407,0.0915 -0.75211,0.13731 -1.648106,0.27927 -3.306099,0.5118 -4.981962,0.51328 -1.960324,0.0402 -3.921373,0.0142 -5.882004,0.0249 -1.879032,-0.003 -3.7582,-0.0183 -5.637144,0.006 -2.710969,0.0462 -5.421545,0.11081 -8.132154,0.17424 -6.292461,0.11567 -12.595407,0.19019 -18.876104,-0.29529 -3.806301,-0.30025 -7.606073,-0.66897 -11.4099452,-0.99607 0,0 3.1818522,2.31175 3.1818522,2.31175 z" />
    <path
       style="fill:#000000;stroke-width:0.264583"
       id="path520"
       d="m 8.6662198,124.02665 c 0.4130664,-2.64196 0.6940457,-5.29783 0.8995362,-7.96319 0.2736734,-4.67214 0.027955,-9.35642 -0.2658776,-14.02132 C 9.0951313,99.17546 8.7990049,96.313449 8.341349,93.475378 8.1223981,92.117594 7.856239,90.751871 7.6024387,89.400852 6.9230102,85.771036 6.443501,82.111344 6.1856032,78.428444 c -0.1094737,-2.289405 -0.2182228,-4.594219 -0.03974,-6.88367 0.032023,-0.41076 0.084193,-0.8197 0.1262899,-1.22955 0.281668,-2.128361 0.9159107,-4.178586 1.5848086,-6.210475 0.3345423,-0.954312 0.6575073,-1.912633 0.9837573,-2.869819 0,0 -3.4230016,-1.882693 -3.4230016,-1.882693 v 0 C 5.114191,60.320475 4.794397,61.2835 4.4762906,62.247038 c -0.654096,2.066327 -1.3179398,4.140767 -1.5863921,6.300611 -0.043532,0.41638 -0.098292,0.831738 -0.1305965,1.24914 -0.178726,2.30931 -0.060615,4.632486 0.048205,6.94146 0.2841651,3.710215 0.8211452,7.388772 1.4831253,11.050211 0.7496921,4.181124 1.4970371,8.369986 1.7481049,12.6181 0.2989964,4.63943 0.55688,9.30096 0.2384386,13.94663 -0.235974,2.62233 -0.5230575,5.24616 -1.1102009,7.81709 0,0 3.4992452,1.85637 3.4992449,1.85637 z" />
    <path
       style="fill:#000000;stroke-width:0.264583"
       id="path522"
       d="m 62.591301,60.723377 c -2.508327,1.757717 -5.067861,3.444991 -7.496873,5.313757 -2.187313,1.682813 -2.70772,2.187667 -4.821677,4.016705 -5.171586,4.695391 -9.852356,9.91026 -14.286095,15.300047 -0.841325,1.022742 -1.662485,2.061906 -2.493727,3.092858 -2.690283,3.410675 -5.267338,6.91475 -7.688362,10.522275 -1.272587,1.896261 -1.649922,2.541171 -2.838681,4.456571 -0.418594,0.70362 -0.841181,1.40487 -1.255781,2.11085 -0.85253,1.45169 -1.471728,2.52271 -2.257781,4.00743 -1.033727,1.95253 -2.009326,3.93695 -3.030103,5.89647 -1.229859,2.38164 -2.468249,4.76004 -3.936809,7.0048 -0.416879,0.60832 -0.796505,1.34404 -1.507513,1.649 -0.557526,0.10547 -1.1284469,0.11125 -1.6930093,0.17298 -0.36849,0.0429 -0.7388907,0.0636 -1.1092973,0.0805 0,0 3.2187386,2.31028 3.2187386,2.31028 v 0 c 0.371783,-0.026 0.743258,-0.0564 1.113423,-0.10034 0.600202,-0.0603 1.230407,-0.0357 1.788855,-0.29319 0.707082,-0.44239 1.124416,-1.16135 1.538598,-1.8673 1.404199,-2.29939 2.587273,-4.71913 3.792405,-7.1267 2.063353,-4.0581 4.079476,-8.14466 6.470144,-12.02507 1.135534,-1.86493 1.574858,-2.62081 2.786616,-4.46754 2.376,-3.621069 4.904792,-7.143584 7.540418,-10.579457 2.027523,-2.574023 3.016822,-3.880988 5.174642,-6.404203 3.6099,-4.221186 7.480273,-8.21976 11.664836,-11.875458 0.817205,-0.694716 1.621133,-1.405358 2.451616,-2.084149 3.185326,-2.603505 6.60323,-4.908965 10.134509,-7.014588 0,0 -3.259092,-2.096548 -3.259092,-2.096548 z" />
    <path
       style="fill:#000000;stroke-width:0.264583"
       id="path524"
       d="m 7.1460301,57.540228 c 2.3351331,1.643356 4.1006969,3.944191 5.8760859,6.144228 0.662976,0.821547 1.319287,1.648452 1.97893,2.472679 3.979683,5.075159 8.180955,9.96863 12.420048,14.827086 2.989426,3.461576 6.031886,6.88059 8.929965,10.420033 0.893088,1.090734 3.179209,3.974187 4.043592,5.061291 2.896219,3.653905 6.061858,7.077915 9.184235,10.535865 2.188837,2.40033 4.396005,4.78486 6.423615,7.32457 1.183484,1.57502 2.275615,3.21863 3.21101,4.95289 0.630296,1.11789 1.052859,2.33144 1.575562,3.4984 0,0 3.588941,1.61628 3.588941,1.61628 v 0 c -0.664901,-1.11048 -0.982909,-2.40061 -1.629535,-3.52517 -0.921882,-1.77533 -2.055667,-3.42736 -3.233697,-5.04151 -2.047103,-2.56148 -4.30371,-4.94035 -6.493479,-7.37867 -3.158651,-3.50835 -6.458841,-6.89467 -9.393351,-10.599707 C 42.928823,96.965245 40.329738,93.673664 39.600446,92.783818 36.695451,89.239301 33.612489,85.843903 30.650436,82.34781 26.423202,77.494722 22.22956,72.609556 18.252408,67.547619 17.607872,66.729612 16.961367,65.913155 16.3188,65.0936 c -1.690479,-2.156097 -3.325704,-4.409633 -5.494832,-6.121362 0,0 -3.6779379,-1.43201 -3.6779379,-1.43201 z" />
    <ellipse
       style="fill:#000000;stroke-width:0.264583"
       id="path526"
       cx="110.51583"
       cy="62.402557"
       rx="2.7131548"
       ry="2.1705236" />
    <ellipse
       style="fill:#000000;stroke-width:0.264583"
       id="path528"
       cx="114.22381"
       cy="129.50792"
       rx="3.3462241"
       ry="1.4470158" />
    <ellipse
       style="fill:#000000;stroke-width:0.264583"
       id="path530"
       cx="184.85626"
       cy="88.448837"
       rx="1.4470158"
       ry="3.0749087" />
    <circle
       style="fill:#000000;stroke-width:0.264583"
       id="path532"
       cx="85.554817"
       cy="155.5542"
       r="3.7984166" />
    <ellipse
       style="fill:#000000;stroke-width:0.264583"
       id="path534"
       cx="112.3246"
       cy="14.198842"
       rx="2.7131548"
       ry="1.3565774" />
    <path
       style="fill:#000000;stroke-width:0.264583"
       id="path536"
       d="m 66.744574,62.445452 c 0.385934,-0.02824 0.771189,-0.06823 1.157803,-0.08473 3.503732,-0.149519 7.00726,-0.03382 10.509361,0.108066 2.475688,0.100299 5.327523,0.259956 7.812471,0.392581 4.46033,0.287631 8.912514,0.686451 13.375577,0.931476 1.690184,0.06654 3.383514,0.165362 5.075084,0.100465 0.97805,-0.0086 1.94447,-0.147857 2.91426,-0.254759 0.58892,-0.06411 1.18181,-0.06792 1.77345,-0.07586 0.47038,-0.0048 0.94076,-0.0048 1.41113,7.93e-4 0,0 -3.20112,-2.325978 -3.20112,-2.325978 v 0 c -0.46946,0.0053 -0.93895,0.0046 -1.40843,0.0073 -0.60079,0.0065 -1.20227,0.02769 -1.79819,0.110344 -0.94864,0.123383 -1.89724,0.245108 -2.85601,0.253693 -1.657629,0.03918 -3.316313,-0.0118 -4.973142,-0.06394 -4.368427,-0.17944 -8.729265,-0.496173 -13.095112,-0.726178 -3.982003,-0.180231 -7.963559,-0.368427 -11.946967,-0.515799 -2.710003,-0.100262 -4.116567,-0.160155 -6.693699,-0.17534 -0.419637,-0.0024 -0.8392,0.01217 -1.2588,0.01828 0,0 3.202334,2.299586 3.202334,2.299586 z" />
    <path
       style="fill:#000000;stroke-width:0.264583"
       id="path538"
       d="m 64.285074,124.52147 c 0.166364,0.006 0.333038,0.006 0.499096,0.018 0.747337,0.0529 1.025787,0.1113 1.828242,0.21716 1.675032,0.22098 3.342121,0.46935 5.010846,0.73468 2.498659,0.38652 4.999005,0.78873 7.463903,1.35827 1.614427,0.37303 2.072095,0.52671 3.663482,0.98305 3.074734,0.93518 6.006798,2.27799 9.067152,3.2535 0.695494,0.22169 1.401133,0.41021 2.101699,0.61532 1.997122,0.55773 3.887499,0.9881 5.967534,1.0744 2.075852,0.0861 4.150812,-0.10784 6.215662,-0.2852 1.58999,-0.15767 3.17477,-0.35939 4.74513,-0.65593 0.61978,-0.11703 1.63062,-0.32171 2.25132,-0.5109 0.31595,-0.0963 0.621,-0.2253 0.93149,-0.33795 1.05798,-0.41224 0.552,-0.2042 1.51955,-0.62019 0,0 -3.23815,-2.155 -3.23815,-2.155 v 0 c -0.93747,0.41475 -0.44565,0.20766 -1.47737,0.61669 -0.30002,0.10542 -0.59565,0.22428 -0.90006,0.31628 -2.22185,0.67148 -4.55728,0.90164 -6.84849,1.19441 -2.05207,0.17478 -4.10741,0.3582 -6.16976,0.23532 -2.014458,-0.12003 -3.970364,-0.57796 -5.907916,-1.11836 -0.699016,-0.21133 -1.403175,-0.40634 -2.097047,-0.63398 -3.064248,-1.00529 -6.009167,-2.35416 -9.10897,-3.25737 -1.651185,-0.46219 -2.003178,-0.58339 -3.676882,-0.96115 -2.470216,-0.55753 -4.972542,-0.95912 -7.474212,-1.34399 -2.509848,-0.41125 -5.030602,-0.88296 -7.568748,-1.06378 0,0 3.202499,2.32675 3.202499,2.32675 z" />
    <path
       style="fill:#000000;stroke-width:0.264583"
       id="path540"
       d="m 118.32132,130.61884 c 2.32198,-0.80915 4.6526,-1.59868 6.94523,-2.4891 1.01684,-0.39493 3.61373,-1.46381 4.61603,-1.87427 2.19338,-0.87897 4.40046,-1.72301 6.60724,-2.56753 1.766,-0.67583 2.52008,-0.92663 4.25214,-1.74304 0.74892,-0.35301 1.47773,-0.7472 2.21659,-1.1208 3.69018,-1.98026 7.16748,-4.32202 10.77963,-6.43515 0.68819,-0.40259 1.38535,-0.78963 2.07802,-1.18445 3.80418,-2.17484 7.95545,-3.6105 12.00772,-5.23561 1.96559,-0.85443 3.95083,-1.7368 5.59552,-3.14254 0.95268,-0.81428 1.22327,-1.21022 2.05038,-2.17632 2.01097,-2.4902 4.00751,-4.993185 5.97009,-7.521859 0.72401,-0.906769 1.32499,-1.882084 1.7141,-2.977626 0.18401,-0.518062 0.24203,-0.801777 0.37445,-1.330214 0.26656,-0.90829 0.39156,-1.861124 0.7897,-2.725634 0.19961,-0.325374 0.0925,-0.167404 0.32154,-0.473839 0,0 -3.40314,-2.015324 -3.40314,-2.015324 v 0 c -0.25407,0.350444 -0.13308,0.168556 -0.36207,0.546272 -0.39815,0.896631 -0.50617,1.877317 -0.77922,2.814622 -0.10584,0.447857 -0.1917,0.854736 -0.33745,1.292712 -0.35509,1.067011 -0.945,2.013484 -1.60892,2.914737 -1.88565,2.572774 -3.83261,5.104873 -5.90834,7.527733 -0.80113,0.90397 -1.11894,1.33091 -2.02639,2.10097 -1.61604,1.37136 -3.55371,2.2511 -5.47498,3.10177 -4.04226,1.65599 -8.18911,3.11168 -11.98106,5.31273 -1.70147,0.97936 -2.49706,1.4224 -4.17899,2.45114 -2.86523,1.7525 -5.66735,3.6161 -8.65671,5.158 -0.7397,0.36475 -1.4695,0.75031 -2.2191,1.09425 -1.59629,0.73244 -2.63434,1.0937 -4.259,1.72189 -2.19886,0.85022 -4.38818,1.72454 -6.5792,2.59466 -3.85748,1.56941 -7.73907,3.10926 -11.77207,4.17555 0,0 3.22826,2.20627 3.22826,2.20627 z" />
    <path
       style="fill:#000000;stroke-width:0.264583"
       id="path542"
       d="m 115.19341,63.649028 c 0.30235,-0.03357 0.60307,-0.08885 0.90704,-0.100716 1.29354,-0.05051 2.55723,0.03453 3.84688,0.162843 1.78295,0.177398 3.4542,0.423132 5.21209,0.779584 0.86731,0.175866 1.72453,0.398288 2.5868,0.597432 4.70663,1.256615 9.16971,3.240662 13.52919,5.383718 2.63848,1.263994 5.14948,2.770907 7.74352,4.119007 1.76054,0.914934 1.95641,0.973127 3.75811,1.785199 3.44751,1.578483 7.19928,2.144247 10.89105,2.843284 2.26272,0.430887 4.54502,0.88378 6.71001,1.691452 0.34333,0.128085 0.67835,0.277421 1.01753,0.416132 0.30411,0.150878 0.61096,0.296362 0.91233,0.452633 0.28266,0.146566 1.11602,0.613524 0.83947,0.455718 -0.8428,-0.480936 -1.67594,-0.980424 -2.53838,-1.425178 -0.26744,-0.137919 0.5011,0.333312 0.74974,0.502788 2.62545,1.789493 -1.17749,-0.780918 1.55936,1.06553 0.30056,0.184457 0.59594,0.377637 0.90168,0.553368 1.3948,0.801687 2.78797,1.606751 4.19949,2.378617 0.2881,0.157544 0.59548,0.277085 0.89657,0.40808 0.80413,0.349843 1.63153,0.630542 2.45486,0.930341 0.77612,0.214453 1.55485,0.418196 2.3363,0.612164 0,0 -3.09439,-2.365473 -3.09439,-2.365473 v 0 c -0.77112,-0.191897 -1.5428,-0.384064 -2.2978,-0.634042 -0.81392,-0.295447 -1.62706,-0.58516 -2.41643,-0.943075 -0.29562,-0.134041 -1.14955,-0.598456 -0.87887,-0.419325 0.035,0.0232 4.17852,2.479569 1.49095,0.886124 -1.1797,-0.786826 -0.4148,-0.268187 -1.55234,-1.059754 -0.24796,-0.172543 -0.48647,-0.359781 -0.74509,-0.51588 -1.90963,-1.15258 -3.79217,-2.354334 -5.83539,-3.254158 -0.34079,-0.130577 -0.67796,-0.270994 -1.02235,-0.391731 -2.16193,-0.757942 -4.42479,-1.185857 -6.67189,-1.59861 -3.67081,-0.683469 -7.38535,-1.296644 -10.80079,-2.886713 -1.83931,-0.843076 -1.9351,-0.858223 -3.73537,-1.799434 -2.58337,-1.350623 -5.09744,-2.834423 -7.7309,-4.089685 -4.36309,-2.117984 -8.82711,-4.084683 -13.54147,-5.286769 -0.86386,-0.192646 -1.72323,-0.406699 -2.59159,-0.57794 -1.76181,-0.347427 -3.49994,-0.601602 -5.28487,-0.791181 -1.3841,-0.147008 -2.65819,-0.247166 -4.04089,-0.223832 -0.33453,0.0056 -0.6671,0.05232 -1.00066,0.07848 0,0 3.2365,2.261004 3.2365,2.261004 z" />
    <path
       style="fill:#000000;stroke-width:0.264583"
       id="path544"
       d="m 61.932719,124.15908 c 1.535504,1.69875 2.843008,3.58442 4.17467,5.44234 1.365326,1.88419 2.735942,3.76953 3.888361,5.79344 0.174482,0.31741 0.352007,0.63317 0.523447,0.95223 0.164496,0.30614 0.317129,0.61861 0.484311,0.92328 0.613503,1.11808 1.293434,2.19596 1.985108,3.26658 0.790562,1.19222 1.692254,2.30687 2.597378,3.41306 1.112985,1.32725 2.264203,2.62102 3.407561,3.92196 0.567094,0.65138 1.128477,1.32462 1.509167,2.105 0.230092,0.57499 0.377243,1.17953 0.549701,1.77349 0,0 3.539482,1.68023 3.539482,1.68023 v 0 c -0.170543,-0.59777 -0.313354,-1.20289 -0.499068,-1.79529 -0.291015,-0.86525 -0.940054,-1.56084 -1.512654,-2.25218 -1.153465,-1.29388 -2.314268,-2.58057 -3.423463,-3.91289 -0.904039,-1.09861 -1.788429,-2.21705 -2.614347,-3.37557 -0.70878,-1.06196 -1.413024,-2.12783 -2.032183,-3.24574 -0.169741,-0.30647 -0.322318,-0.62216 -0.486802,-0.93148 -0.16956,-0.31888 -0.343537,-0.63538 -0.515305,-0.95307 -0.167735,-0.30551 -0.325231,-0.61687 -0.503205,-0.91652 -1.020602,-1.7184 -2.265532,-3.29553 -3.405921,-4.93269 -1.310039,-1.8321 -2.590234,-3.69117 -4.036774,-5.42006 0,0 -3.629464,-1.53612 -3.629464,-1.53612 z" />
    <path
       style="fill:#000000;stroke-width:0.264583"
       id="path546"
       d="m 90.436892,154.20717 c 1.915499,-2.49185 4.069569,-4.7863 6.246476,-7.04851 2.979108,-2.98117 6.193102,-5.72445 9.635252,-8.15582 1.46079,-1.04167 3.03684,-1.9026 4.56381,-2.83958 1.0123,-0.63911 1.96935,-1.36571 2.91633,-2.09745 0.44591,-0.31266 0.88255,-0.63561 1.31907,-0.96073 0,0 -3.35204,-2.11466 -3.35204,-2.11466 v 0 c -0.42451,0.3363 -0.86739,0.64637 -1.29247,0.9819 -0.92357,0.7341 -1.86465,1.4529 -2.86617,2.07806 -1.51478,0.94463 -3.06849,1.83428 -4.48825,2.9226 -3.371887,2.53684 -6.503318,5.37078 -9.562451,8.27336 -2.243664,2.23849 -4.413512,4.54468 -6.489849,6.93998 0,0 3.370292,2.02085 3.370292,2.02085 z" />
    <path
       style="fill:#000000;stroke-width:0.264583"
       id="path548"
       d="m 88.57631,158.37421 c 3.310893,0.0173 6.620362,0.089 9.930252,0.17199 3.378038,0.0885 6.754418,0.26327 10.134048,0.28645 2.0241,0.0139 2.59866,-0.013 4.60732,-0.0571 2.07959,-0.0835 4.16105,-0.22011 6.22476,-0.49896 0.60308,-0.0815 1.20949,-0.15243 1.80297,-0.28706 1.65831,-0.37618 2.77017,-0.84338 4.37964,-1.43003 0.83018,-0.36542 1.67626,-0.69665 2.49052,-1.09627 5.02925,-2.46822 9.58274,-5.79251 14.05941,-9.12626 3.7541,-2.82477 7.29459,-5.91473 10.93122,-8.88536 1.82393,-1.46679 3.61072,-2.9865 5.31094,-4.59628 1.19771,-1.13401 1.58837,-1.57843 2.74003,-2.7906 2.0132,-2.24433 3.7606,-4.70441 5.5999,-7.08814 1.1982,-1.55288 1.24943,-1.59737 2.4548,-3.08021 1.6672,-2.08388 3.60618,-3.92157 5.36421,-5.92425 1.55854,-1.8109 2.95357,-3.75288 4.41999,-5.63711 1.33753,-1.68921 2.80014,-3.27257 4.08167,-5.00551 1.03192,-1.39607 1.9479,-2.86308 2.70376,-4.425237 0.67106,-1.412486 1.0663,-2.931242 1.47097,-4.43552 0.28998,-0.968565 0.53776,-1.938404 0.67544,-2.940516 0.0513,-0.398719 0.0708,-0.800134 0.0899,-1.201301 0,0 -3.50669,-1.80449 -3.50669,-1.80449 v 0 c -0.0128,0.39229 -0.0256,0.784826 -0.0665,1.175489 -0.11403,0.992293 -0.35526,1.950693 -0.62489,2.91143 -0.36588,1.490252 -0.75033,2.988818 -1.41628,4.378375 -0.73721,1.542719 -1.63121,2.996025 -2.64014,4.37717 -1.28355,1.72474 -2.71737,3.32773 -4.04857,5.01534 -1.45816,1.88164 -2.86509,3.80482 -4.41726,5.61169 -1.75881,1.99926 -3.65729,3.87683 -5.27941,5.99492 -1.20054,1.51581 -1.22379,1.52944 -2.42367,3.1112 -1.81149,2.38803 -3.54514,4.84583 -5.59826,7.03841 -0.46708,0.48134 -0.92667,0.97006 -1.40125,1.44401 -2.09622,2.09345 -4.36603,4.00761 -6.64709,5.8941 -3.58413,2.99254 -7.04862,6.12892 -10.74964,8.97996 -0.85819,0.65076 -1.70613,1.31526 -2.57457,1.95228 -4.35765,3.19645 -8.9597,6.14802 -14.01554,8.11367 -1.96495,0.67375 -2.43331,0.9054 -4.41693,1.32313 -0.5868,0.12358 -1.18211,0.20402 -1.77623,0.2854 -2.0448,0.28007 -4.10704,0.41683 -6.16817,0.49802 -2.09614,0.0468 -2.46844,0.0695 -4.58343,0.0575 -3.3733,-0.0193 -6.744,-0.17233 -10.115138,-0.27865 -3.394258,-0.10992 -6.791087,-0.19345 -10.182207,-0.37262 0,0 3.180125,2.34096 3.180125,2.34096 z" />
    <path
       style="fill:#000000;stroke-width:0.264583"
       id="path550"
       d="m 63.782034,61.930449 c 2.886869,-3.195704 6.091238,-6.083538 9.249924,-9.00393 3.751373,-3.424618 7.590988,-6.755413 11.265828,-10.263417 2.154748,-2.056922 2.542003,-2.498442 4.573857,-4.600533 2.704518,-2.837595 5.227323,-5.841939 7.99813,-8.617183 1.754542,-1.757352 2.221386,-2.13683 4.037257,-3.77511 2.5146,-2.261968 5.21686,-4.300004 7.78819,-6.494035 1.36819,-1.157098 2.61242,-2.44707 3.84956,-3.740418 0.72539,-0.724769 1.45722,-1.442308 2.20051,-2.148654 0,0 -3.2872,-2.022388 -3.2872,-2.022388 v 0 c -0.73427,0.719959 -1.46079,1.447611 -2.19653,2.166075 -1.24701,1.269061 -2.50941,2.524375 -3.83458,3.712187 -2.50261,2.238706 -5.09487,4.375657 -7.584162,6.62985 -0.659247,0.606636 -1.328338,1.202744 -1.977742,1.819908 -1.395839,1.32655 -2.776014,2.725611 -4.09642,4.126355 -2.036535,2.160442 -1.917684,2.11899 -3.896346,4.302411 -0.668632,0.737817 -1.348375,1.465487 -2.02256,2.198232 -1.853245,1.954683 -2.541892,2.716914 -4.496181,4.626996 -3.636383,3.55413 -7.48852,6.871912 -11.300441,10.233567 -3.258087,2.879617 -6.47976,5.798392 -9.639319,8.786035 0,0 3.368225,2.064052 3.368225,2.064052 z" />
    <path
       style="fill:#000000;stroke-width:0.264583"
       id="path552"
       d="m 110.55391,15.628547 c -0.10721,2.917918 -0.39003,5.827168 -0.57752,8.741207 -0.17012,3.374311 -0.27628,6.75067 -0.37636,10.127552 -0.098,2.351119 -0.0921,4.70503 -0.1541,7.056908 -0.0356,1.349764 -0.0856,2.104044 -0.15836,3.452543 -0.22157,3.828058 -0.46002,7.654486 -0.73551,11.479173 -0.12787,1.726869 -0.0675,0.912114 -0.18113,2.444265 0,0 3.41147,1.762152 3.41147,1.762152 v 0 c 0.0581,-1.55734 0.0246,-0.72993 0.10241,-2.482146 0.20081,-3.83095 0.46176,-7.658479 0.72973,-11.485248 0.19508,-3.502268 0.19876,-7.008921 0.32262,-10.514057 0.11221,-3.372197 0.18554,-6.745862 0.37619,-10.115089 0.16823,-2.894672 0.42183,-5.780646 0.73868,-8.662812 0,0 -3.49812,-1.804448 -3.49812,-1.804448 z" />
    <path
       style="fill:#000000;stroke-width:0.264583"
       id="path554"
       d="m 113.68156,12.833577 c 0.21771,0.114623 0.86823,0.463302 0.65313,0.34387 -0.76933,-0.427149 -1.46855,-1.029756 -2.3159,-1.267081 -0.50367,-0.141069 0.83835,0.626809 1.23736,0.965004 1.73811,1.473179 3.28958,3.167728 4.87321,4.799658 4.59547,4.815845 9.78011,9.009442 14.85315,13.301634 0.83586,0.701149 1.67079,1.403398 2.50757,2.103443 1.18718,0.993188 3.61984,3.025333 4.83209,4.007821 2.54786,2.064978 5.15083,4.062055 7.728,6.090105 2.12837,1.723329 4.22211,3.499749 6.14226,5.456304 1.86335,1.898687 3.56543,3.951385 5.28031,5.98193 3.06957,3.670392 6.06697,7.398871 8.92588,11.235687 1.31106,1.690124 2.50821,3.465422 3.80816,5.16378 0.59289,0.774605 1.0752,1.344314 1.69333,2.091976 1.4524,1.738495 2.96326,3.428322 4.37747,5.198369 0.99465,1.268349 1.85056,2.633451 2.46661,4.123203 0.26053,0.665917 0.46824,1.349783 0.67751,2.032876 0,0 3.55646,1.676614 3.55646,1.676614 v 0 c -0.22678,-0.691629 -0.43091,-1.390404 -0.68941,-2.071507 -0.19203,-0.487342 -0.29696,-0.786829 -0.53882,-1.259253 -0.54076,-1.056285 -1.233,-2.035466 -1.93478,-2.988122 -1.40409,-1.794857 -2.94407,-3.479718 -4.41051,-5.223507 -0.52166,-0.619184 -1.22763,-1.445475 -1.72139,-2.080348 -1.32732,-1.706631 -2.53994,-3.500855 -3.88142,-5.196887 -0.95812,-1.277472 -1.51498,-2.033265 -2.50887,-3.302302 -2.11981,-2.706645 -4.34706,-5.327253 -6.51272,-7.996832 -1.70128,-2.036385 -3.38977,-4.100563 -5.24068,-6.005494 -1.93521,-1.991681 -4.06337,-3.782891 -6.21949,-5.52753 -2.57417,-2.020554 -5.16854,-4.016959 -7.71272,-6.075389 -1.29285,-1.046017 -3.5876,-2.956385 -4.85661,-4.014472 -0.84087,-0.701109 -1.67988,-1.404438 -2.51982,-2.106658 -5.04984,-4.264363 -10.22273,-8.421048 -14.77548,-13.229561 -0.74913,-0.790758 -2.52402,-2.679523 -3.36255,-3.511508 -0.3818,-0.378809 -1.96642,-1.900933 -2.5082,-2.250287 -3.51071,-2.263799 -2.92032,-1.97935 -5.05323,-2.850621 0,0 3.1501,2.385085 3.1501,2.385085 z" />
    <text
       xml:space="preserve"
       style="font-size:3.175px;fill:#000000;stroke-width:0.264583"
       x="4.5219245"
       y="48.836784"
       id="text558"><tspan
         sodipodi:role="line"
         id="tspan556"
         style="stroke-width:0.264583"
         x="4.5219245"
         y="48.836784">a</tspan></text>
    <text
       xml:space="preserve"
       style="font-size:3.175px;fill:#000000;stroke-width:0.264583"
       x="60.593784"
       y="52.092567"
       id="text562"><tspan
         sodipodi:role="line"
         id="tspan560"
         style="stroke-width:0.264583"
         x="60.593784"
         y="52.092567">b</tspan></text>
    <text
       xml:space="preserve"
       style="font-size:3.175px;fill:#000000;stroke-width:0.264583"
       x="108.70707"
       y="68.914131"
       id="text566"><tspan
         sodipodi:role="line"
         id="tspan564"
         style="stroke-width:0.264583"
         x="108.70707"
         y="68.914131">c</tspan></text>
    <text
       xml:space="preserve"
       style="font-size:3.175px;fill:#000000;stroke-width:0.264583"
       x="99.663216"
       y="13.746651"
       id="text570"><tspan
         sodipodi:role="line"
         id="tspan568"
         style="stroke-width:0.264583"
         x="99.663216"
         y="13.746651">h</tspan></text>
    <text
       xml:space="preserve"
       style="font-size:3.175px;fill:#000000;stroke-width:0.264583"
       x="197.87941"
       y="87.363579"
       id="text574"><tspan
         sodipodi:role="line"
         id="tspan572"
         style="stroke-width:0.264583"
         x="197.87941"
         y="87.363579">d</tspan></text>
    <text
       xml:space="preserve"
       style="font-size:3.175px;fill:#000000;stroke-width:0.264583"
       x="84.831306"
       y="168.9391"
       id="text578"><tspan
         sodipodi:role="line"
         id="tspan576"
         style="stroke-width:0.264583"
         x="84.831306"
         y="168.9391">i</tspan></text>
    <text
       xml:space="preserve"
       style="font-size:3.175px;fill:#000000;stroke-width:0.264583"
       x="108.16443"
       y="123.17722"
       id="text582"><tspan
         sodipodi:role="line"
         id="tspan580"
         style="stroke-width:0.264583"
         x="108.16443"
         y="123.17722">e</tspan></text>
    <text
       xml:space="preserve"
       style="font-size:3.175px;fill:#000000;stroke-width:0.264583"
       x="77.415344"
       y="117.38916"
       id="text586"><tspan
         sodipodi:role="line"
         id="tspan584"
         style="stroke-width:0.264583"
         x="77.415344"
         y="117.38916">f</tspan></text>
    <text
       xml:space="preserve"
       style="font-size:3.175px;fill:#000000;stroke-width:0.264583"
       x="6.6924481"
       y="131.31668"
       id="text590"><tspan
         sodipodi:role="line"
         id="tspan588"
         style="stroke-width:0.264583"
         x="6.6924481"
         y="131.31668">g</tspan></text>
  </g>
</svg>
