<?xml version="1.0" encoding="UTF-8" standalone="no"?>
<!-- Created with Inkscape (http://www.inkscape.org/) -->

<svg
   width="210mm"
   height="297mm"
   viewBox="0 0 210 297"
   version="1.1"
   id="svg795"
   inkscape:version="1.2.2 (732a01da63, 2022-12-09)"
   sodipodi:docname="StandardbeispielmitUnterschiedaktuell.svg"
   xmlns:inkscape="http://www.inkscape.org/namespaces/inkscape"
   xmlns:sodipodi="http://sodipodi.sourceforge.net/DTD/sodipodi-0.dtd"
   xmlns="http://www.w3.org/2000/svg"
   xmlns:svg="http://www.w3.org/2000/svg">
  <sodipodi:namedview
     id="namedview797"
     pagecolor="#ffffff"
     bordercolor="#000000"
     borderopacity="0.25"
     inkscape:showpageshadow="2"
     inkscape:pageopacity="0.0"
     inkscape:pagecheckerboard="0"
     inkscape:deskcolor="#d1d1d1"
     inkscape:document-units="mm"
     showgrid="false"
     inkscape:zoom="1.0343421"
     inkscape:cx="300.67422"
     inkscape:cy="578.62869"
     inkscape:window-width="2520"
     inkscape:window-height="1481"
     inkscape:window-x="-11"
     inkscape:window-y="46"
     inkscape:window-maximized="1"
     inkscape:current-layer="layer1" />
  <defs
     id="defs792" />
  <g
     inkscape:label="Ebene 1"
     inkscape:groupmode="layer"
     id="layer1">
    <ellipse
       style="fill:#000000;stroke-width:0.264583"
       id="path799"
       cx="19.440701"
       cy="52.438728"
       rx="3.0695841"
       ry="2.8137856" />
    <circle
       style="fill:#000000;stroke-width:0.264583"
       id="path801"
       cx="83.90197"
       cy="52.950325"
       r="3.0695841" />
    <ellipse
       style="fill:#000000;stroke-width:0.264583"
       id="path803"
       cx="147.21214"
       cy="54.485119"
       rx="3.4532821"
       ry="2.0463893" />
    <ellipse
       style="fill:#000000;stroke-width:0.264583"
       id="path805"
       cx="190.44212"
       cy="103.47057"
       rx="2.6858861"
       ry="2.1742887" />
    <ellipse
       style="fill:#000000;stroke-width:0.264583"
       id="path807"
       cx="18.289606"
       cy="130.20152"
       rx="6.7786651"
       ry="3.5811815" />
    <ellipse
       style="fill:#000000;stroke-width:0.264583"
       id="path809"
       cx="81.21608"
       cy="125.21345"
       rx="3.4532821"
       ry="2.6858861" />
    <ellipse
       style="fill:#000000;stroke-width:0.264583"
       id="path811"
       cx="148.87483"
       cy="123.67866"
       rx="4.0927787"
       ry="3.1974835" />
    <path
       style="fill:#000000;stroke-width:0.264583"
       id="path813"
       d="m 16.982781,53.125999 c 0.61987,6.70624 -0.08604,13.432991 -0.801203,20.100385 -0.934624,7.83087 -2.057298,15.637457 -3.093675,23.45509 -0.119552,1.019455 -0.249375,2.03776 -0.358656,3.058366 -0.222076,2.07404 -0.371423,3.63174 -0.424834,5.71252 -0.07107,2.76851 0.103257,5.53407 0.24739,8.29694 0.25856,3.37317 0.410335,6.75628 0.761816,10.1217 0.103857,1.27172 0.706855,2.36983 1.350301,3.44055 0.467306,0.74577 0.893573,1.52854 1.525227,2.14865 0,0 3.676315,1.46148 3.676315,1.46148 v 0 c -0.12265,-0.068 -0.26504,-0.10871 -0.36795,-0.20397 -0.503974,-0.46653 -0.850284,-1.26933 -1.247759,-1.81837 -0.626469,-1.02906 -1.265213,-2.08259 -1.437132,-3.29687 -0.44296,-3.38093 -0.67224,-6.78473 -0.938732,-10.18307 -0.154798,-2.75335 -0.332755,-5.50832 -0.274936,-8.26807 0.04392,-2.09638 0.179639,-3.61214 0.389044,-5.70437 0.102313,-1.02226 0.224496,-2.042426 0.336744,-3.063636 0.981441,-7.840768 2.017284,-15.674654 2.990296,-23.516513 0.760132,-6.633368 1.452689,-13.302109 1.17118,-19.989469 0,0 -3.503436,-1.751343 -3.503436,-1.751343 z" />
    <path
       style="fill:#000000;stroke-width:0.264583"
       id="path815"
       d="m 19.577147,129.30445 c 9.55814,-0.0547 19.114252,0.14958 28.672708,0.0571 6.758983,-0.0659 13.517761,-0.0487 20.273497,-0.28671 2.668093,-0.0561 5.285041,-0.57631 7.854452,-1.2589 1.383329,-0.39177 2.806684,-0.49471 4.233088,-0.57829 0.314454,-0.0184 0.637722,0.0174 0.943083,-0.0599 0.248782,-0.063 0.456419,-0.23476 0.684628,-0.35215 0.109924,-0.30631 0.286065,-0.59645 0.329769,-0.91895 0.114403,-0.8442 -0.151398,-2.39917 -0.261911,-3.15391 -0.348129,-2.37743 -0.712232,-4.74623 -1.013333,-7.1306 -0.49456,-5.23702 -0.608214,-10.49897 -1.005994,-15.743379 -0.402905,-3.717933 -0.987586,-7.412754 -1.375333,-11.132558 -0.235395,-2.258213 -0.257564,-2.784758 -0.421643,-5.015153 -0.04211,-0.762545 -0.09489,-1.524577 -0.12633,-2.287641 -0.07057,-1.712981 -0.09624,-3.023618 -0.024,-4.737115 0.08966,-2.126435 0.358158,-4.237096 0.609785,-6.348429 0.340485,-2.743401 0.837356,-5.46614 1.389131,-8.174257 0.368007,-1.474486 0.67106,-2.962756 0.939814,-4.458036 0.288737,-1.216109 0.177916,-2.30629 -0.139452,-3.503149 -0.08403,-0.222708 -0.134305,-0.461275 -0.252084,-0.668126 -0.829691,-1.457166 -4.157697,-2.543304 -4.609827,-2.716371 -0.390518,-0.149479 -0.835933,0.04096 -1.251236,0.08966 -0.272548,0.03196 -3.27242,0.51095 -3.404198,0.531852 -1.844403,0.26402 -3.687744,0.577464 -5.55095,0.681924 -1.695789,0.09507 -3.395761,0.01024 -5.089504,-0.07046 -2.217365,-0.12419 -4.435716,-0.320651 -6.659052,-0.245768 -1.268323,0.04272 -2.060308,0.141742 -3.321934,0.266549 -2.459685,0.286461 -4.905041,0.703111 -7.382848,0.813017 -1.822302,0.08083 -2.818858,0.02806 -4.653124,-0.0118 -3.520593,-0.286639 -7.076242,-0.605308 -10.516081,-1.451491 -0.521862,-0.128375 -1.035648,-0.287588 -1.553472,-0.431382 -1.746488,-0.599797 -0.916351,-0.286292 -2.494615,-0.929304 0,0 3.04562,2.392741 3.04562,2.392741 v 0 c 1.574308,0.601557 0.745855,0.307938 2.489237,0.869842 0.51707,0.134461 1.030594,0.283371 1.551207,0.403386 3.444587,0.794089 6.991921,1.09705 10.508356,1.357281 1.88359,0.036 2.826205,0.08496 4.697629,5.29e-4 2.490613,-0.112413 4.950881,-0.518189 7.425325,-0.793025 1.342718,-0.123677 1.953794,-0.202615 3.302899,-0.236276 2.217288,-0.05532 4.428853,0.142772 6.640865,0.254916 1.705779,0.07359 3.407685,0.138769 5.114094,0.02289 1.210556,-0.08221 2.455386,-0.257145 3.655435,-0.425217 0.635053,-0.08894 1.269061,-0.185211 1.90359,-0.277815 0.610508,-0.08889 2.732868,-0.415258 3.429233,-0.454869 0.405175,-0.02305 1.469453,0.344593 1.217197,0.02669 -0.640837,-0.807622 -1.697215,-1.17175 -2.566114,-1.726674 -0.183655,-0.117292 0.377124,0.237443 0.507584,0.411991 0.137425,0.18387 0.181941,0.421513 0.272913,0.632272 0.362286,1.175523 0.453728,2.130756 0.207192,3.338179 -0.257529,1.498751 -0.532868,2.994404 -0.89268,4.472729 -0.537117,2.731711 -0.998027,5.480777 -1.320509,8.24653 -0.120065,1.076214 -0.348477,3.061425 -0.436433,4.114988 -0.259585,3.109383 -0.267438,6.233985 -0.01183,9.344475 0.166796,2.154507 0.206568,2.862667 0.437986,5.039701 0.39479,3.713948 0.994836,7.401785 1.376162,11.117228 0.41031,5.246985 0.519491,10.509675 0.984215,15.752135 0.290682,2.37058 0.633659,4.73185 0.946163,7.09943 0.09786,0.74144 0.313071,2.13 0.252273,2.95632 -0.01619,0.22015 -0.116629,0.4258 -0.174943,0.63871 -0.193712,0.0819 -0.375168,0.20315 -0.581133,0.24569 -0.304366,0.0629 -0.619969,0.0447 -0.930003,0.0664 -0.359677,0.0251 -0.720108,0.0407 -1.079132,0.0739 -0.894916,0.0827 -1.290516,0.14418 -2.165662,0.32587 -0.347522,0.0721 -0.69192,0.15862 -1.037878,0.23793 -2.52135,0.66957 -5.087168,1.16457 -7.701728,1.26455 -6.683332,0.32941 -13.373673,0.31464 -20.062978,0.42566 -9.66507,0.15761 -19.330577,0.0633 -28.990989,-0.29398 0,0 3.163788,2.29863 3.163788,2.29863 z" />
    <path
       style="fill:#000000;stroke-width:0.264583"
       id="path817"
       d="m 17.78696,53.600587 c 4.331776,4.034592 8.104406,8.617054 11.83779,13.196488 3.910589,4.892813 8.050596,9.590463 12.297053,14.192181 4.337245,4.627153 8.970827,8.960313 13.570576,13.322123 2.68047,2.620843 5.436839,5.170075 8.036748,7.872591 1.417484,1.47343 1.649675,1.78117 2.966837,3.30322 2.282102,2.68027 4.257677,5.5951 6.256096,8.4866 1.296239,1.82701 2.448052,3.74708 3.646795,5.63773 0.553958,0.85688 1.08858,1.72612 1.685988,2.55383 0,0 3.643635,1.58558 3.643635,1.58558 v 0 c -0.577421,-0.859 -1.229884,-1.67155 -1.756304,-2.56759 -1.220099,-1.89668 -2.378495,-3.83133 -3.684974,-5.67097 -2.030859,-2.90538 -4.030411,-5.83926 -6.315146,-8.5553 -1.26515,-1.47065 -1.618334,-1.9215 -2.982243,-3.33877 -2.620933,-2.72347 -5.422162,-5.27003 -8.117721,-7.917703 -4.589782,-4.343323 -9.199734,-8.671414 -13.528921,-13.278455 -4.268912,-4.607499 -8.458985,-9.288084 -12.377004,-14.200968 -3.67833,-4.519639 -7.404601,-9.012941 -11.526582,-13.14037 0,0 -3.652623,-1.480217 -3.652623,-1.480217 z" />
    <path
       style="fill:#000000;stroke-width:0.264583"
       id="path819"
       d="m 23.244021,127.72074 c 3.053362,-2.26904 6.200503,-4.41159 9.103561,-6.87779 2.740554,-2.32814 3.419772,-3.10428 5.987934,-5.65619 4.453297,-4.81604 8.603668,-9.93641 12.169192,-15.449312 0.613363,-0.948364 1.184699,-1.923258 1.777048,-2.884886 2.948953,-4.808022 4.621395,-10.189904 6.184776,-15.564149 0.23805,-0.820407 0.478313,-1.640176 0.71415,-2.461223 0.522089,-1.817592 0.687879,-2.503985 1.259321,-4.261271 0.483807,-1.487794 1.049483,-2.941404 1.626039,-4.394724 0.567764,-1.310648 1.324557,-2.515761 2.275382,-3.582048 0.279416,-0.313346 1.075553,-1.086487 1.37694,-1.382786 1.372841,-1.215433 2.7184,-2.466129 4.133662,-3.633071 1.054465,-0.896456 2.119757,-1.779706 3.191272,-2.655985 0.988057,-0.838499 2.029097,-1.612223 2.978586,-2.495082 0.435052,-0.400203 0.87403,-0.7938 1.327788,-1.172567 0,0 -3.342542,-2.086491 -3.342542,-2.086491 v 0 c -0.45171,0.388152 -0.895591,0.784495 -1.334895,1.186688 -0.953354,0.863965 -1.964205,1.660882 -2.953956,2.482292 -1.077748,0.869008 -2.139545,1.758606 -3.185313,2.665685 -1.40946,1.187802 -2.762893,2.44222 -4.137454,3.669538 -0.382281,0.379597 -1.040029,1.020437 -1.39332,1.421826 -0.971518,1.10378 -1.743477,2.345388 -2.310466,3.702801 -0.555984,1.475663 -1.099208,2.953059 -1.568542,4.459348 -0.598729,1.921571 -0.662236,2.293348 -1.219684,4.288838 -0.229963,0.823198 -0.467802,1.644179 -0.701702,2.466268 -1.563306,5.341226 -3.190756,10.706034 -6.074391,15.514415 -0.582779,0.961062 -1.143334,1.935957 -1.748335,2.883186 -3.519636,5.51057 -7.635187,10.63285 -12.081571,15.41879 -2.550917,2.513 -3.266024,3.32565 -6.003208,5.59973 -2.957213,2.45688 -6.160619,4.58608 -9.363414,6.70263 0,0 3.313142,2.09554 3.313142,2.09554 z" />
    <path
       style="fill:#000000;stroke-width:0.264583"
       id="path821"
       d="m 86.072741,53.987125 c 6.009523,-0.622959 12.052255,-0.851045 18.088169,-1.048665 4.23186,-0.160261 8.45298,0.200456 12.66771,0.522121 2.92077,0.227015 5.84912,0.316748 8.7776,0.357063 3.05219,-0.02846 6.10055,0.08712 9.14787,0.243525 2.99552,0.111995 5.98141,0.384074 8.96923,0.615421 0,0 -3.11894,-2.300843 -3.11894,-2.300843 v 0 c -2.98004,-0.202793 -5.95611,-0.471168 -8.94161,-0.584433 -3.05764,-0.151427 -6.11673,-0.256495 -9.17866,-0.248886 -2.91018,-0.04368 -5.82023,-0.126841 -8.72337,-0.345329 -4.19933,-0.295986 -8.40539,-0.643429 -12.61897,-0.434787 -6.079898,0.261123 -12.15806,0.570931 -18.230726,0.967626 0,0 3.161697,2.257187 3.161697,2.257187 z" />
    <path
       style="fill:#000000;stroke-width:0.264583"
       id="path823"
       d="m 81.594657,124.15563 c 6.603286,-0.47046 13.225198,-0.55771 19.840923,-0.72016 4.09583,-0.0555 8.19191,-0.2394 12.28861,-0.24142 1.53191,-7.9e-4 3.27849,0.0583 4.81127,0.10079 3.65092,0.12599 7.30157,0.2604 10.95408,0.33017 2.63441,-0.10151 5.21311,0.36586 7.79201,0.82555 2.55576,0.47132 5.06495,1.16566 7.57679,1.82667 0,0 -3.03545,-2.32643 -3.03545,-2.32643 v 0 c -2.52655,-0.65808 -5.04604,-1.37136 -7.62037,-1.82072 -1.36574,-0.23977 -2.73365,-0.51618 -4.11501,-0.65262 -0.6593,-0.0651 -1.7415,-0.0946 -2.39555,-0.10745 -0.43811,-0.009 -0.87633,-0.01 -1.3145,-0.0143 -3.62485,-0.0563 -7.24856,-0.15797 -10.87196,-0.27432 -1.6193,-0.0394 -3.18793,-0.0902 -4.8085,-0.078 -4.05586,0.0304 -8.10911,0.26302 -12.164046,0.33466 -6.708148,0.18117 -13.418031,0.29632 -20.12493,0.5235 0,0 3.186633,2.29413 3.186633,2.29413 z" />
    <path
       style="fill:#000000;stroke-width:0.264583"
       id="path825"
       d="m 150.57719,125.37403 c 0.89895,-0.85033 1.91248,-1.56656 2.86027,-2.35795 1.22252,-1.0208 2.42067,-2.07054 3.64159,-3.09326 4.42296,-3.43648 9.33301,-6.14894 14.32017,-8.66263 3.17935,-1.5732 6.50315,-2.80739 9.86551,-3.92157 2.66556,-0.84467 5.40756,-1.40922 8.1298,-2.03532 1.15388,-0.24415 0.59875,-0.12186 1.66581,-0.36495 0,0 -3.22183,-2.2301 -3.22183,-2.2301 v 0 c -1.05039,0.24952 -0.5035,0.12111 -1.64086,0.38449 -2.71103,0.66576 -5.4524,1.22511 -8.10985,2.09076 -3.35909,1.1327 -6.67216,2.40629 -9.84013,4.00724 -4.97004,2.58016 -9.83778,5.38655 -14.32131,8.7571 -2.22982,1.79015 -4.49129,3.53891 -6.71473,5.33647 0,0 3.36556,2.08972 3.36556,2.08972 z" />
    <path
       style="fill:#000000;stroke-width:0.264583"
       id="path827"
       d="m 190.75535,102.75274 c -2.28152,-1.93613 -4.46829,-3.980206 -6.72917,-5.940041 -2.14928,-1.863082 -2.34053,-1.989812 -4.54234,-3.77994 -2.65645,-2.135638 -5.41866,-4.145796 -8.00368,-6.370159 -1.1775,-1.013224 -1.71229,-1.561018 -2.80974,-2.624227 -1.28079,-1.381525 -2.54724,-2.796291 -3.6348,-4.339032 -0.5705,-0.809257 -0.68211,-1.059643 -1.16622,-1.9216 -0.9818,-1.860754 -1.47953,-3.904572 -1.95724,-5.937197 -0.31211,-1.410523 -0.78287,-2.787512 -1.4557,-4.066079 -1.08483,-1.831713 -2.22353,-3.630282 -3.25309,-5.494385 -0.683,-1.355511 -1.44875,-2.660986 -2.21677,-3.968266 -0.63049,-1.040389 -1.40709,-1.978626 -2.18588,-2.909041 -0.6874,-0.764865 -1.46556,-1.440164 -2.2015,-2.157566 0,0 -3.65115,-1.502754 -3.65115,-1.502754 v 0 c 0.75056,0.703866 1.49708,1.412182 2.23875,2.124586 0.76428,0.923692 1.54369,1.837475 2.20188,2.842503 0.31763,0.56197 0.68679,1.088951 1.00733,1.648643 0.43942,0.767275 0.81215,1.573157 1.26241,2.334699 1.01635,1.856962 2.13659,3.652906 3.21235,5.475483 0.70604,1.237427 1.19612,2.592131 1.51629,3.979839 0.5078,2.056167 0.98139,4.136988 1.93941,6.043176 0.44104,0.820076 0.61967,1.20646 1.15019,1.975268 1.0884,1.577276 2.39867,2.99617 3.67369,4.41965 1.04586,1.018606 1.72011,1.704006 2.83832,2.669511 2.59861,2.243719 5.38936,4.256084 8.06863,6.399313 3.7982,3.069156 7.46293,6.289222 11.03502,9.619116 0,0 3.66301,1.4785 3.66301,1.4785 z" />
    <text
       xml:space="preserve"
       style="font-size:3.175px;fill:#000000;stroke-width:0.264583"
       x="17.39431"
       y="40.927788"
       id="text831"><tspan
         sodipodi:role="line"
         id="tspan829"
         style="stroke-width:0.264583"
         x="17.39431"
         y="40.927788">a</tspan></text>
    <text
       xml:space="preserve"
       style="font-size:3.175px;fill:#000000;stroke-width:0.264583"
       x="80.320786"
       y="44.764771"
       id="text835"><tspan
         sodipodi:role="line"
         id="tspan833"
         style="stroke-width:0.264583"
         x="80.320786"
         y="44.764771">b</tspan></text>
    <text
       xml:space="preserve"
       style="font-size:3.175px;fill:#000000;stroke-width:0.264583"
       x="153.73502"
       y="46.555359"
       id="text839"><tspan
         sodipodi:role="line"
         id="tspan837"
         style="stroke-width:0.264583"
         x="153.73502"
         y="46.555359">c</tspan></text>
    <text
       xml:space="preserve"
       style="font-size:3.175px;fill:#000000;stroke-width:0.264583"
       x="196.45338"
       y="98.994087"
       id="text843"><tspan
         sodipodi:role="line"
         id="tspan841"
         style="stroke-width:0.264583"
         x="196.45338"
         y="98.994087">d</tspan></text>
    <text
       xml:space="preserve"
       style="font-size:3.175px;fill:#000000;stroke-width:0.264583"
       x="160.64157"
       y="127.64354"
       id="text847"><tspan
         sodipodi:role="line"
         id="tspan845"
         style="stroke-width:0.264583"
         x="160.64157"
         y="127.64354">e</tspan></text>
    <text
       xml:space="preserve"
       style="font-size:3.175px;fill:#000000;stroke-width:0.264583"
       x="86.97155"
       y="132.50372"
       id="text851"><tspan
         sodipodi:role="line"
         id="tspan849"
         style="stroke-width:0.264583"
         x="86.97155"
         y="132.50372">f</tspan></text>
    <text
       xml:space="preserve"
       style="font-size:3.175px;fill:#000000;stroke-width:0.264583"
       x="23.533478"
       y="138.38708"
       id="text855"><tspan
         sodipodi:role="line"
         id="tspan853"
         style="stroke-width:0.264583"
         x="23.533478"
         y="138.38708">g</tspan></text>
  </g>
</svg>
