<?xml version="1.0" encoding="UTF-8" standalone="no"?>
<!-- Created with Inkscape (http://www.inkscape.org/) -->

<svg
   width="210mm"
   height="297mm"
   viewBox="0 0 210 297"
   version="1.1"
   id="svg540"
   inkscape:version="1.2.2 (732a01da63, 2022-12-09)"
   sodipodi:docname="Zeichnung-3.svg"
   xmlns:inkscape="http://www.inkscape.org/namespaces/inkscape"
   xmlns:sodipodi="http://sodipodi.sourceforge.net/DTD/sodipodi-0.dtd"
   xmlns="http://www.w3.org/2000/svg"
   xmlns:svg="http://www.w3.org/2000/svg">
  <sodipodi:namedview
     id="namedview542"
     pagecolor="#ffffff"
     bordercolor="#000000"
     borderopacity="0.25"
     inkscape:showpageshadow="2"
     inkscape:pageopacity="0.0"
     inkscape:pagecheckerboard="0"
     inkscape:deskcolor="#d1d1d1"
     inkscape:document-units="mm"
     showgrid="false"
     inkscape:zoom="0.74564394"
     inkscape:cx="396.97231"
     inkscape:cy="561.9304"
     inkscape:window-width="1920"
     inkscape:window-height="1017"
     inkscape:window-x="-8"
     inkscape:window-y="-8"
     inkscape:window-maximized="1"
     inkscape:current-layer="layer1" />
  <defs
     id="defs537" />
  <g
     inkscape:label="Ebene 1"
     inkscape:groupmode="layer"
     id="layer1">
    <ellipse
       style="fill:#2b0000;stroke-width:0.264583"
       id="path596"
       cx="13.838709"
       cy="51.80645"
       rx="3.9032259"
       ry="4.2580643" />
    <ellipse
       style="fill:#2b0000;stroke-width:0.264583"
       id="path598"
       cx="78.419357"
       cy="29.629032"
       rx="3.9032259"
       ry="3.7258065" />
    <ellipse
       style="fill:#2b0000;stroke-width:0.264583"
       id="path600"
       cx="162.51613"
       cy="53.580643"
       rx="3.5483871"
       ry="4.6129031" />
    <ellipse
       style="fill:#2b0000;stroke-width:0.264583"
       id="path602"
       cx="125.08065"
       cy="42.758064"
       rx="4.4354839"
       ry="4.7903223" />
    <ellipse
       style="fill:#2b0000;stroke-width:0.264583"
       id="path604"
       cx="175.29031"
       cy="91.903221"
       rx="2.4838707"
       ry="4.6129031" />
    <ellipse
       style="fill:#2b0000;stroke-width:0.264583"
       id="path606"
       cx="114.6129"
       cy="73.80645"
       rx="4.9677415"
       ry="6.032258" />
    <ellipse
       style="fill:#2b0000;stroke-width:0.264583"
       id="path608"
       cx="33.354839"
       cy="115.85484"
       rx="3.5483871"
       ry="5.5" />
    <ellipse
       style="fill:#2b0000;stroke-width:0.264583"
       id="path610"
       cx="95.274193"
       cy="214.85484"
       rx="5.8548388"
       ry="4.7903223" />
    <ellipse
       style="fill:#2b0000;stroke-width:0.264583"
       id="path612"
       cx="130.2258"
       cy="137.14516"
       rx="6.032258"
       ry="3.7258065" />
    <ellipse
       style="fill:#2b0000;stroke-width:0.264583"
       id="path614"
       cx="84.451614"
       cy="67.064514"
       rx="3.9032259"
       ry="6.3870969" />
    <circle
       style="fill:#2b0000;stroke-width:0.264583"
       id="path616"
       cx="51.80645"
       cy="79.483864"
       r="4.9677415" />
    <ellipse
       style="fill:#2b0000;stroke-width:0.264583"
       id="path618"
       cx="127.20968"
       cy="104.85484"
       rx="6.5645161"
       ry="5.5" />
    <ellipse
       style="fill:#2b0000;stroke-width:0.264583"
       id="path620"
       cx="166.59677"
       cy="183.45161"
       rx="5.5"
       ry="4.2580643" />
    <ellipse
       style="fill:#2b0000;stroke-width:0.264583"
       id="path622"
       cx="180.08064"
       cy="126.85484"
       rx="8.3387098"
       ry="6.9193544" />
    <path
       style="fill:#2b0000;stroke-width:0.264583"
       id="path624"
       d="m 31.945561,115.87552 c 3.237365,2.45872 6.484721,4.90494 9.590376,7.52953 3.041216,2.61878 5.580195,5.72364 7.91465,8.9694 3.116041,4.63638 5.646857,9.63964 8.174887,14.61261 2.307087,4.40737 4.835766,8.69381 7.347744,12.98633 1.537321,2.71955 3.272525,5.32112 4.823296,8.03203 2.324573,4.24769 4.449926,8.59844 6.574006,12.94843 2.936243,6.05802 5.435841,12.31168 7.848613,18.59212 1.488853,3.88112 2.92698,7.78098 4.436118,11.6545 0.915088,2.57711 2.601484,4.73739 4.365644,6.784 0,0 0.883851,0.37357 0.883851,0.37357 v 0 c -1.769147,-2.0355 -3.457488,-4.18727 -4.381476,-6.75529 -1.519857,-3.87576 -2.958095,-7.78204 -4.459393,-11.66477 -2.425179,-6.28402 -4.936041,-12.54126 -7.867981,-18.60967 -2.109224,-4.33966 -4.209767,-8.68567 -6.512163,-12.92742 -1.552424,-2.7175 -3.305757,-5.31559 -4.843936,-8.04234 -2.51887,-4.29419 -5.058436,-8.58002 -7.370527,-12.99041 -2.526938,-4.97021 -5.051981,-9.97207 -8.149288,-14.61684 -2.328506,-3.25505 -4.8675,-6.36481 -7.907018,-8.99149 -3.093161,-2.6203 -6.332087,-5.05755 -9.553773,-7.51648 0,0 -0.91363,-0.36781 -0.91363,-0.36781 z" />
    <path
       style="fill:#2b0000;stroke-width:0.264583"
       id="path626"
       d="m 96.132712,213.83561 c 3.992748,-5.99758 7.148128,-12.48971 10.143378,-19.02552 0.69739,-1.61751 1.39709,-3.23404 2.09217,-4.85255 1.71436,-3.99191 2.55514,-6.05197 4.35222,-9.98243 1.7468,-3.82048 3.63204,-7.56706 5.55044,-11.30296 2.13664,-3.92434 4.269,-7.84181 6.18454,-11.87933 1.55415,-3.30317 3.2507,-6.53588 4.75081,-9.86471 1.03765,-2.29088 1.88152,-4.66287 2.7711,-7.01365 0.47897,-1.28662 0.24998,-0.65448 0.6883,-1.89592 0,0 -0.85398,-0.47216 -0.85398,-0.47216 v 0 c -0.43472,1.24106 -0.20678,0.60922 -0.68536,1.89495 -0.88832,2.34983 -1.71829,4.72565 -2.75636,7.01512 -1.49557,3.33037 -3.1823,6.56745 -4.74235,9.86725 -1.91708,4.03564 -4.03415,7.96144 -6.14953,11.89618 -1.89947,3.74795 -3.77028,7.50532 -5.51198,11.33027 -1.77968,3.90835 -2.64488,6.0192 -4.35423,9.98227 -0.69721,1.61646 -1.40053,3.23028 -2.10079,4.84542 -3.00497,6.52263 -6.145355,13.02839 -10.231241,18.95802 0,0 0.852863,0.49975 0.852863,0.49975 z" />
    <path
       style="fill:#2b0000;stroke-width:0.264583"
       id="path628"
       d="m 129.60063,136.99465 c 0.0267,-4.75487 -0.0389,-9.50286 -0.27359,-14.25219 -0.21262,-3.24361 -0.32773,-6.51041 -0.86672,-9.72221 -0.30791,-1.83486 -0.43758,-2.22395 -0.87589,-4.01513 0,0 -0.856,-0.41048 -0.856,-0.41048 v 0 c 0.44451,1.8002 0.56901,2.16277 0.88136,4.00745 0.54407,3.21315 0.68235,6.48143 0.89671,9.72735 0.23209,4.73772 0.29211,9.47449 0.21544,14.2175 0,0 0.87869,0.44771 0.87869,0.44771 z" />
    <path
       style="fill:#2b0000;stroke-width:0.264583"
       id="path630"
       d="m 125.69362,101.87897 c -0.0397,-4.153384 -0.35829,-8.292237 -0.67444,-12.431128 -0.2097,-2.142979 -0.50503,-4.274362 -1.09731,-6.349103 -0.27631,-0.967914 -0.55838,-1.685903 -0.90291,-2.625465 -0.64937,-1.751349 -1.64229,-3.350485 -2.88091,-4.742635 -0.56714,-0.475689 -0.28135,-0.242546 -0.85721,-0.69959 0,0 -0.91548,-0.366834 -0.91548,-0.366834 v 0 c 0.57609,0.454731 0.28773,0.226459 0.86506,0.684826 1.25237,1.377802 2.25612,2.969016 2.91265,4.716216 0.33698,0.910437 0.64061,1.68162 0.91126,2.618132 0.59835,2.070491 0.89614,4.198882 1.11269,6.338533 0.32529,4.13187 0.66145,8.264749 0.65549,12.413198 0,0 0.87111,0.44385 0.87111,0.44385 z" />
    <path
       style="fill:#2b0000;stroke-width:0.264583"
       id="path632"
       d="m 113.74623,71.032126 c -2.54892,-0.159615 -4.98825,-1.068869 -7.44617,-1.709452 -2.18408,-0.584184 -4.39521,-1.097624 -6.532132,-1.842519 -1.040603,-0.469061 -2.148152,-0.597572 -3.273086,-0.671801 -1.06734,-0.05515 -2.136568,-0.04562 -3.204908,-0.04192 -1.526376,0.006 -3.05276,0.0086 -4.579147,0.0099 0,0 0.788295,0.572616 0.788295,0.572616 v 0 c 1.529066,-0.0016 3.058136,-0.0021 4.587203,-0.0042 1.067371,-5.29e-4 2.13569,-0.01029 3.201916,0.04831 1.120044,0.07935 2.216901,0.23054 3.254339,0.69006 2.13766,0.725776 4.33956,1.24577 6.51998,1.823818 2.46878,0.646189 4.92017,1.558875 7.48327,1.706073 0,0 -0.79956,-0.580909 -0.79956,-0.580909 z" />
    <path
       style="fill:#2b0000;stroke-width:0.264583"
       id="path634"
       d="m 34.503862,112.51078 c 0.221615,-4.49727 1.284052,-8.85183 2.720078,-13.100605 0.610534,-1.584876 1.288529,-3.152757 2.147578,-4.621305 0.478555,-0.818095 1.055087,-1.577015 1.612109,-2.341886 1.428528,-1.945004 3.035917,-3.743192 4.605618,-5.572873 0.887352,-1.035873 1.761043,-2.117609 2.878233,-2.920577 0.416324,-0.299228 1.431602,-0.88751 1.848683,-1.135023 1.098278,-0.642112 2.165594,-1.334582 3.245779,-2.006242 0,0 -0.815002,-0.52536 -0.815002,-0.52536 v 0 c -1.078304,0.673762 -2.14522,1.366364 -3.245876,2.003592 -0.465516,0.275545 -1.404946,0.815398 -1.860426,1.144704 -1.119185,0.809157 -1.992429,1.897208 -2.879412,2.940267 -1.567728,1.83525 -3.185954,3.628853 -4.620723,5.572955 -1.596951,2.208636 -2.843763,4.402953 -3.742431,7.006553 -0.2418,0.719855 -0.504124,1.43313 -0.7254,2.15956 -1.082091,3.55233 -1.753209,7.24994 -2.0475,10.94853 0,0 0.878692,0.44771 0.878692,0.44771 z" />
    <path
       style="fill:#2b0000;stroke-width:0.264583"
       id="path636"
       d="m 54.850995,77.862503 c 2.77086,-0.940297 5.590781,-1.721149 8.417459,-2.472827 2.357149,-0.632204 4.656627,-1.439043 6.974332,-2.195066 1.636808,-0.550045 3.318272,-0.970764 4.990857,-1.402347 2.092978,-0.486481 4.207817,-0.864388 6.287653,-1.406319 1.218515,-0.366313 0.62574,-0.186004 1.7785,-0.540337 0,0 -0.808045,-0.550934 -0.808045,-0.550934 v 0 c -1.149003,0.355277 -0.558078,0.175395 -1.773036,0.538782 -2.080033,0.539099 -4.194686,0.917053 -6.286437,1.406898 -1.675783,0.430842 -3.362505,0.845981 -5.000064,1.403834 -2.308328,0.76604 -4.601829,1.571096 -6.953221,2.202698 -2.832161,0.753753 -5.653693,1.545789 -8.440346,2.455294 0,0 0.812348,0.560324 0.812348,0.560324 z" />
    <path
       style="fill:#2b0000;stroke-width:0.264583"
       id="path638"
       d="m 85.688021,61.71158 c 2.229591,-1.358011 4.558419,-2.549811 7.006153,-3.459451 1.663443,-0.612137 3.403992,-0.784804 5.159367,-0.847608 1.588691,-0.03146 3.177809,-0.01056 4.766629,-0.0011 1.50991,0.0081 3.01984,0.01175 4.52977,0.01357 1.51396,-0.01548 3.01478,-0.04626 4.51267,0.191109 3.17561,0.686488 6.28927,1.636157 9.42914,2.468827 2.2179,0.648298 4.54296,1.038304 6.67885,1.951511 1.18371,0.506103 1.39614,0.666766 2.31987,1.229963 2.95135,1.889593 5.40571,4.406038 7.79377,6.942198 2.33902,2.533349 4.74724,4.996188 7.30103,7.313716 1.83929,1.577234 3.26648,3.493124 4.56764,5.517166 1.54427,2.381887 2.68767,4.988173 3.98822,7.50462 1.14645,2.36954 2.60331,4.561433 3.99963,6.785819 1.55634,2.486731 2.91819,5.08299 4.31299,7.66103 1.22921,2.22334 2.52944,4.40988 3.94878,6.51747 1.1364,1.84125 2.27185,3.67758 3.50594,5.45821 1.0222,1.40203 2.13605,2.73006 3.25584,4.05376 0,0 0.87562,0.37128 0.87562,0.37128 v 0 c -1.1159,-1.31963 -2.2252,-2.64401 -3.24637,-4.03973 -0.72534,-1.04477 -1.45198,-2.09494 -2.11742,-3.17962 -0.31862,-0.51936 -0.58754,-1.06836 -0.9108,-1.58485 -0.14711,-0.23505 -0.31168,-0.45871 -0.46752,-0.68806 -1.43004,-2.1035 -2.73519,-4.29047 -3.96723,-6.51517 -1.39523,-2.57746 -2.75151,-5.17631 -4.30527,-7.664369 -1.39421,-2.223865 -2.85572,-4.410811 -4.00284,-6.778477 -1.30322,-2.516976 -2.44966,-5.12318 -3.98409,-7.512529 -1.29668,-2.033682 -2.71676,-3.962003 -4.56189,-5.542584 -2.56107,-2.311265 -4.97078,-4.7737 -7.30951,-7.30885 -2.38701,-2.542029 -4.84048,-5.064138 -7.78603,-6.968164 -1.42273,-0.832311 -2.4926,-1.54115 -3.96853,-2.164279 -2.13737,-0.902377 -4.45903,-1.28956 -6.67449,-1.938202 -3.14846,-0.83697 -6.26971,-1.796584 -9.45645,-2.476773 -1.50274,-0.227988 -3.00872,-0.196 -4.52623,-0.18252 -1.5094,-0.0016 -3.01881,-0.0037 -4.52819,-0.01302 -1.58928,-0.0096 -3.178916,-0.02916 -4.768041,0.0052 -1.761011,0.06828 -3.504393,0.25436 -5.169492,0.878682 -2.450971,0.924552 -4.781024,2.128218 -7.030869,3.467594 0,0 0.829353,0.533517 0.829353,0.533517 z" />
    <path
       style="fill:#2b0000;stroke-width:0.264583"
       id="path640"
       d="m 176.21361,126.47856 c -4.74996,0.64865 -9.47083,1.50229 -14.19277,2.3287 -4.33741,0.70698 -8.69782,1.26421 -13.04841,1.885 -3.13358,0.48887 -6.25904,1.02498 -9.37594,1.6108 -1.65637,0.30176 -3.29859,0.67358 -4.94262,1.03477 0,0 0.79073,0.54863 0.79073,0.54863 v 0 c 1.64079,-0.36467 3.28023,-0.73809 4.93485,-1.03638 3.11673,-0.58032 6.24213,-1.11081 9.37318,-1.60781 4.34467,-0.62839 8.70034,-1.185 13.03159,-1.90034 4.73129,-0.82842 9.46217,-1.6915 14.22797,-2.29587 0,0 -0.79858,-0.5675 -0.79858,-0.5675 z" />
    <path
       style="fill:#2b0000;stroke-width:0.264583"
       id="path642"
       d="m 169.01252,179.86392 c -1.99064,-3.39027 -4.43934,-6.47753 -6.81061,-9.60332 -3.18957,-4.02165 -6.33755,-8.07561 -9.50091,-12.11777 -2.6732,-3.32207 -5.09402,-6.83215 -7.76071,-10.15821 -2.77735,-3.29563 -5.65964,-6.51014 -8.71509,-9.55086 0,0 -0.88195,-0.36495 -0.88195,-0.36495 v 0 c 3.06458,3.03583 5.94961,6.25222 8.73283,9.54673 2.66835,3.32456 5.08007,6.84119 7.76099,10.15715 3.16795,4.03872 6.31192,8.09611 9.50275,12.11695 2.36099,3.11484 4.80509,6.18842 6.77499,9.57411 0,0 0.89771,0.40017 0.89771,0.40017 z" />
    <path
       style="fill:#2b0000;stroke-width:0.264583"
       id="path644"
       d="m 166.1204,184.1235 c 3.3399,-7.04348 6.68102,-14.08697 9.88665,-21.19286 3.08754,-6.67556 6.09657,-13.39099 8.55792,-20.32588 1.3661,-3.87368 1.82581,-7.95883 1.68584,-12.04421 -0.0314,-0.38772 -0.0628,-0.77545 -0.0942,-1.16317 0,0 -0.86865,-0.4334 -0.86865,-0.4334 v 0 c 0.0342,0.38743 0.0684,0.77487 0.10259,1.1623 0.16723,4.0788 -0.28771,8.15505 -1.64465,12.02553 -2.43181,6.94538 -5.41533,13.6717 -8.50545,20.34636 -3.20411,7.10108 -6.52804,14.14942 -9.97203,21.13723 0,0 0.85201,0.4881 0.85201,0.4881 z" />
    <path
       style="fill:#2b0000;stroke-width:0.264583"
       id="path646"
       d="m 13.452002,49.518376 c 2.661088,2.827094 5.05115,5.895435 7.522101,8.887111 3.007805,3.842723 7.044115,6.547114 11.103382,9.15027 3.647072,2.246472 7.411932,4.275143 11.240495,6.189023 1.207997,0.578604 2.406554,1.176107 3.61252,1.758912 0,0 -0.755383,-0.602607 -0.755383,-0.602607 v 0 c -1.20636,-0.583869 -2.406377,-1.180348 -3.613981,-1.761643 -3.270511,-1.631175 -6.506127,-3.32817 -9.619831,-5.247513 -4.053369,-2.594126 -8.086839,-5.286991 -11.095912,-9.115835 -2.467126,-2.983177 -4.856744,-6.03681 -7.480757,-8.885304 0,0 -0.912634,-0.372414 -0.912634,-0.372414 z" />
    <path
       style="fill:#2b0000;stroke-width:0.264583"
       id="path648"
       d="m 13.964119,52.266617 c 7.393609,-2.56738 15.02208,-4.406551 22.620622,-6.254208 7.886907,-1.948714 15.89087,-3.32014 23.895098,-4.673412 2.965725,-0.564002 6.0092,-0.848998 8.900554,-1.759717 1.341633,-0.422588 1.938988,-0.716114 3.252422,-1.274512 2.88847,-1.166918 5.622967,-2.661028 8.300567,-4.243427 1.164857,-0.73602 0.618905,-0.365551 1.643679,-1.102772 0,0 -0.825104,-0.524047 -0.825104,-0.524047 v 0 c -1.016357,0.734435 -0.47426,0.364953 -1.632259,1.099645 -2.670612,1.582222 -5.394902,3.082311 -8.280704,4.241049 -1.315133,0.5536 -1.907188,0.841218 -3.247943,1.262422 -2.879744,0.904674 -5.905961,1.211582 -8.859091,1.776973 -7.995023,1.361993 -15.989673,2.741877 -23.866155,4.701228 -7.626413,1.85588 -15.274361,3.709329 -22.722964,6.200566 0,0 0.821278,0.550212 0.821278,0.550212 z" />
    <path
       style="fill:#2b0000;stroke-width:0.264583"
       id="path650"
       d="m 76.447025,29.280659 c 2.341771,3.833363 3.139932,8.34965 3.963971,12.697518 0.409221,3.298346 1.268288,6.603437 1.104744,9.95076 -0.05853,1.197888 -0.310981,2.668256 -0.490299,3.853574 -0.552829,2.768933 -1.119489,5.530625 -1.439418,8.337576 0,0 0.862451,0.451612 0.862451,0.451612 v 0 c 0.308248,-2.809364 0.868453,-5.573799 1.418598,-8.344315 0.178425,-1.179243 0.434586,-2.677128 0.493864,-3.868153 0.167169,-3.358845 -0.717918,-6.670008 -1.124958,-9.979874 -0.813091,-4.343487 -1.595052,-8.848603 -3.883343,-12.702463 0,0 -0.90561,-0.396235 -0.90561,-0.396235 z" />
    <path
       style="fill:#2b0000;stroke-width:0.264583"
       id="path652"
       d="m 78.052937,30.295567 c 9.588407,2.650706 19.196396,5.230087 28.791203,7.857778 4.5425,1.172294 9.07819,2.401416 13.70528,3.196762 1.63927,0.292454 0.86849,0.134474 2.31481,0.461639 0,0 -0.77517,-0.589584 -0.77517,-0.589584 v 0 c -1.44232,-0.316492 -0.67397,-0.162761 -2.30725,-0.449979 -4.60509,-0.791938 -9.12196,-2.005568 -13.64559,-3.162549 -9.617692,-2.613721 -19.247674,-5.184796 -28.837716,-7.89841 0,0 0.754433,0.584343 0.754433,0.584343 z" />
    <path
       style="fill:#2b0000;stroke-width:0.264583"
       id="path654"
       d="m 124.10809,42.823198 c 0.0804,1.961232 -0.47086,3.836427 -1.10638,5.667066 -1.02029,2.859124 -2.5144,5.512178 -3.90513,8.200432 -0.85533,1.537181 -1.79142,3.033022 -2.51379,4.64108 -0.4263,0.94897 -0.57279,1.444522 -0.91337,2.429335 -1.13969,3.31593 -1.42728,6.803948 -1.63325,10.277893 -0.13296,2.024933 -0.11047,4.053938 -0.0877,6.081353 0,0 0.85181,0.432591 0.85181,0.432591 v 0 c -0.0311,-2.026798 -0.0617,-4.055414 0.0752,-6.079863 0.21246,-3.462843 0.5014,-6.939606 1.64058,-10.244423 0.33649,-0.973635 0.48697,-1.480265 0.90812,-2.418416 0.72173,-1.607717 1.65685,-3.103367 2.50772,-4.642411 1.39029,-2.6934 2.88625,-5.34964 3.91783,-8.208933 0.6444,-1.83687 1.20247,-3.717071 1.13887,-5.687023 0,0 -0.88059,-0.448681 -0.88059,-0.448681 z" />
    <path
       style="fill:#2b0000;stroke-width:0.264583"
       id="path656"
       d="m 127.18388,43.317914 c 3.64073,0.778885 7.23326,1.77011 10.83524,2.709595 3.69745,1.042918 7.21565,2.63054 10.66978,4.292592 2.18816,0.991243 4.21013,2.273914 6.29124,3.460456 1.72608,0.913794 3.68191,1.005758 5.5912,1.114467 0.27348,0.07064 0.63992,-0.0053 0.82045,0.211921 0.11244,0.135321 -0.42523,0.01646 -0.49729,0.17698 -0.15742,0.350681 -0.0189,0.772837 -0.098,1.149016 -0.32313,1.537761 -1.06827,3.007069 -1.71696,4.423752 -1.70139,3.291361 -3.27394,6.635731 -4.66652,10.068795 -1.68733,4.188224 -3.20269,8.443555 -5.0926,12.547203 -1.15093,2.392762 -2.41496,4.722468 -3.8586,6.950916 -1.11987,1.732331 -2.45558,3.297791 -3.8199,4.838002 -1.42395,1.499732 -3.00527,2.849501 -4.66131,4.085711 -1.85988,1.38489 -4.01081,2.2988 -6.17543,3.09121 -1.61798,0.54034 -3.22186,1.12352 -4.86264,1.59187 -1.07961,0.31845 -0.55631,0.14721 -1.57114,0.50988 0,0 0.8123,0.54872 0.8123,0.54872 v 0 c 1.01038,-0.35858 0.48859,-0.18878 1.56671,-0.50532 1.64107,-0.46917 3.24438,-1.05602 4.86103,-1.60175 2.16948,-0.80323 4.32628,-1.72246 6.19151,-3.114314 1.65942,-1.242796 3.24654,-2.596002 4.67518,-4.100558 1.36581,-1.544714 2.70024,-3.117633 3.82085,-4.854435 1.44417,-2.233953 2.71196,-4.566872 3.85395,-6.969638 1.87571,-4.111884 3.38308,-8.372414 5.08147,-12.558167 1.39999,-3.427569 2.98549,-6.764494 4.68118,-10.055926 0.65277,-1.428737 1.39464,-2.903016 1.74131,-4.446926 0.0877,-0.39057 0.29268,-0.827297 0.13143,-1.193676 -0.51675,-1.174094 -1.07438,-1.152099 -2.00231,-1.370793 -1.90554,-0.112403 -3.85207,-0.220731 -5.56622,-1.151228 0.3043,0.244467 0.1,0.0762 -0.79525,-0.454637 -1.33738,-0.793011 -2.66076,-1.583785 -4.04814,-2.286592 -0.47411,-0.24017 -0.95528,-0.466143 -1.43293,-0.699217 -3.45958,-1.656371 -6.98014,-3.245864 -10.68311,-4.279622 -3.61396,-0.936956 -7.21735,-1.926985 -10.86533,-2.723367 0,0 0.78882,0.59508 0.78882,0.59508 z" />
    <path
       style="fill:#2b0000;stroke-width:0.264583"
       id="path658"
       d="m 161.09148,51.30543 c 0.45643,2.733141 0.43357,5.503976 0.30003,8.261355 -0.0154,1.53782 -0.33666,3.084902 -0.18716,4.624404 0.0769,0.791921 0.21182,1.182237 0.41237,1.944986 0.72237,2.133997 1.49033,4.251325 2.22581,6.380991 0.58861,1.909299 1.25769,3.779305 2.0487,5.613461 0.65128,1.644628 1.34035,3.275057 1.96503,4.929962 0.53236,1.379249 1.15911,2.709336 1.91725,3.977836 1.0428,1.629442 2.07939,3.263156 3.15092,4.873871 0,0 0.88664,0.387855 0.88664,0.387855 v 0 c -1.07614,-1.605542 -2.11129,-3.238182 -3.14989,-4.868222 -0.75736,-1.261613 -1.37527,-2.587773 -1.91411,-3.957137 -0.62287,-1.65889 -1.32501,-3.28771 -1.97101,-4.937826 -0.79142,-1.833174 -1.46587,-3.701307 -2.05669,-5.609172 -0.7349,-2.126295 -1.49009,-4.244393 -2.2223,-6.371558 -0.20257,-0.750404 -0.34121,-1.146112 -0.4225,-1.925508 -0.16044,-1.538092 0.16293,-3.085317 0.17336,-4.622411 0.13011,-2.760335 0.1523,-5.530789 -0.26641,-8.271304 0,0 -0.89004,-0.431583 -0.89004,-0.431583 z" />
    <path
       style="fill:#2b0000;stroke-width:0.264583"
       id="path660"
       d="m 175.28503,94.950591 c 0.47842,2.354281 0.75512,4.747427 1.00841,7.135109 0.22056,2.25182 0.47116,4.49755 0.58899,6.75782 0.2006,3.15833 0.70023,6.28942 1.32095,9.38983 0.46529,2.02107 0.97657,4.02961 1.3431,6.07163 0,0 0.87872,0.42813 0.87872,0.42813 v 0 c -0.3716,-2.04616 -0.8885,-4.05807 -1.36122,-6.08252 -0.622,-3.09353 -1.11953,-6.21833 -1.31416,-9.37062 -0.11112,-2.26328 -0.36566,-4.5108 -0.59083,-6.7647 -0.25255,-2.3861 -0.53097,-4.775897 -0.98392,-7.133096 0,0 -0.89004,-0.431583 -0.89004,-0.431583 z" />
    <path
       style="fill:#2b0000;stroke-width:0.264583"
       id="path662"
       d="m 35.072973,111.61309 c 3.321899,-2.13601 6.771862,-4.06543 10.161704,-6.09068 3.045232,-1.83259 6.105337,-3.66227 9.028186,-5.6871 2.356459,-1.684184 4.332044,-3.814868 6.328304,-5.895274 1.501109,-1.590744 3.137035,-3.041375 4.715233,-4.552127 1.080457,-1.044678 2.03115,-2.212951 2.993784,-3.36427 1.483249,-2.041906 3.143718,-3.939061 4.754009,-5.879017 1.332796,-1.467067 2.513436,-3.06628 3.92761,-4.456875 0.891244,-0.896363 1.871996,-1.686078 2.929678,-2.375188 0.92627,-0.552035 1.882365,-1.049242 2.822205,-1.577912 0.623758,-0.350887 1.255694,-0.689046 1.873739,-1.050054 0,0 -0.829786,-0.538792 -0.829786,-0.538792 v 0 c -0.620784,0.355285 -1.246264,0.702101 -1.870757,1.050517 -0.941904,0.528164 -1.899743,1.026181 -2.824343,1.584373 -1.061214,0.694714 -2.042506,1.492633 -2.937415,2.393624 -1.409565,1.398252 -2.587736,3.001886 -3.918532,4.473689 -1.608613,1.941886 -3.274269,3.83504 -4.765233,5.871665 -0.963694,1.146244 -1.911858,2.312649 -2.992262,3.352866 -1.571297,1.517023 -3.196067,2.978716 -4.69785,4.567404 -1.991643,2.077424 -3.97243,4.193379 -6.322745,5.876068 -2.916584,2.026103 -5.964158,3.866983 -9.009073,5.691663 -3.395945,2.02992 -6.845961,3.97161 -10.194914,6.07873 0,0 0.828458,0.52669 0.828458,0.52669 z" />
    <path
       style="fill:#2b0000;stroke-width:0.264583"
       id="path664"
       d="m 31.471139,115.16651 c 5.577441,-1.31204 11.122835,-2.77194 16.652698,-4.27335 4.438478,-1.24702 8.867881,-2.56857 13.077714,-4.46357 3.845025,-1.93611 7.655332,-3.94048 11.476839,-5.92259 3.002957,-1.56287 6.021509,-3.114823 8.880522,-4.932479 1.030944,-0.587743 1.901598,-1.402842 2.864639,-2.086187 0.532286,-0.377693 1.647957,-1.084731 2.148342,-1.406583 3.48112,-2.208022 7.203824,-4.006519 10.919645,-5.779487 2.207773,-1.068845 4.449372,-2.069404 6.712552,-3.015332 2.31873,-1.014857 4.61495,-2.072497 6.97056,-3.001142 1.50985,-0.553842 2.93208,-1.239848 4.23368,-2.183209 0.15463,-0.123352 0.30927,-0.246703 0.46391,-0.370054 0,0 -0.83416,-0.524193 -0.83416,-0.524193 v 0 c -0.15359,0.122214 -0.30718,0.244427 -0.46076,0.366641 -1.29391,0.934477 -2.71058,1.613588 -4.20574,2.17238 -2.3547,0.935845 -4.65617,1.988368 -6.9796,2.997412 -2.25882,0.948232 -4.492488,1.958475 -6.693723,3.033567 -3.717129,1.783199 -7.441626,3.58739 -10.937074,5.782196 -0.507836,0.323471 -1.627515,1.025578 -2.165392,1.405347 -0.961797,0.679085 -1.827255,1.495306 -2.854174,2.082999 -2.847036,1.821476 -5.852888,3.381012 -8.84651,4.944406 -3.823862,1.982568 -7.642085,3.977058 -11.493723,5.905128 -4.196746,1.88779 -8.60072,3.23952 -13.026662,4.48028 -5.542711,1.50635 -11.103631,2.9729 -16.710038,4.2205 0,0 0.806455,0.56732 0.806455,0.56732 z" />
    <path
       style="fill:#ff00ff;stroke-width:0.264583"
       id="path666"
       d="m 41.810879,104.55518 c -2.122477,-0.79285 -4.27957,-1.43162 -6.508732,-1.83567 -1.821309,-0.24364 -3.709627,-0.50516 -5.542497,-0.18159 -0.300177,0.053 -0.590147,0.15291 -0.885224,0.22937 -1.900338,0.72345 -3.602079,1.89775 -5.128287,3.22697 -0.782761,0.68534 -1.313217,1.54718 -1.750679,2.47595 0,0 0.856458,0.48473 0.856458,0.48473 v 0 c 0.427523,-0.91901 0.949562,-1.76886 1.723579,-2.44453 1.516701,-1.31981 3.20715,-2.48884 5.103548,-3.18852 0.292156,-0.0724 0.579715,-0.16688 0.876467,-0.21727 1.827966,-0.31044 3.705071,-0.0534 5.519647,0.19822 2.229903,0.41346 4.393147,1.05395 6.511245,1.86693 0,0 -0.775525,-0.61459 -0.775525,-0.61459 z" />
    <path
       style="fill:#ff00ff;stroke-width:0.264583"
       id="path668"
       d="m 22.62375,104.16761 c 0.04196,2.23035 -0.218932,4.44814 -0.547406,6.6496 -0.361964,2.70099 -0.899605,5.37236 -1.256247,8.07393 -0.08269,1.05935 -0.300988,2.17981 -0.07003,3.24022 0.263671,1.21061 0.945895,2.18016 1.671804,3.14736 1.215014,1.3611 2.877254,2.36669 4.71219,2.59868 1.080596,0.13662 1.864966,0.0406 2.953314,-0.0199 2.160227,-0.42251 4.402905,-0.91445 6.342594,-2.01105 1.221737,-0.69071 1.81783,-1.30652 2.884956,-2.23085 2.249604,-2.1565 4.127405,-4.65269 5.389287,-7.50395 0.820391,-2.2299 0.16855,-4.17698 -0.556268,-6.31561 -0.647766,-1.59358 -1.408835,-3.15937 -2.645537,-4.375 -0.832863,-0.66557 -1.780585,-1.16176 -2.75286,-1.58832 0,0 0.770208,0.61053 0.770208,0.61053 v 0 c 2.016188,0.91371 -1.045877,-0.61727 1.075264,0.60387 1.28365,1.21403 1.991762,2.72569 2.6715,4.33571 0.725025,2.11313 1.391338,4.0411 0.591384,6.2524 -1.245225,2.84322 -3.108315,5.33305 -5.350928,7.47703 -1.079111,0.92685 -1.645785,1.51311 -2.876913,2.20353 -1.935837,1.0856 -4.166769,1.57998 -6.323428,1.98069 -1.095957,0.0539 -1.857692,0.14599 -2.943072,-0.005 -0.418439,-0.0584 -0.818837,-0.21152 -1.234471,-0.28731 -0.06343,-0.0116 -0.134811,0.058 -0.191504,0.0273 -0.789389,-0.42769 -1.000571,-0.73674 -1.623668,-1.36861 -0.727709,-0.94633 -1.421439,-1.90308 -1.692718,-3.09646 -0.239314,-1.05276 -0.02118,-2.17013 0.05772,-3.22314 0.349268,-2.70259 0.884493,-5.37427 1.251139,-8.07452 0.333348,-2.20256 0.595743,-4.41965 0.575219,-6.6516 0,0 -0.881532,-0.44916 -0.881532,-0.44916 z" />
    <path
       style="fill:#ff00ff;stroke-width:0.264583"
       id="path670"
       d="m 132.5947,129.5802 c -3.49644,-0.0486 -6.93269,0.68568 -10.29445,1.57183 -1.7878,0.65167 -3.96862,0.91134 -5.41311,2.28005 -0.65678,0.62233 -0.72741,0.9773 -1.09808,1.77967 -0.46814,1.57571 -0.81629,3.7409 -0.17961,5.32224 0.1582,0.39292 0.41776,0.73697 0.62664,1.10545 0.33306,0.3455 0.60589,0.7615 0.99918,1.0365 3.24366,2.26797 7.30734,2.90838 11.11675,3.56993 1.60134,0.20318 2.89847,0.66106 4.46284,0.0184 1.78456,-0.73314 2.53068,-1.86795 3.59321,-3.37209 1.82707,-3.32106 2.32529,-7.10531 2.6811,-10.82173 0.005,-0.95136 0.2584,-2.2063 -0.50348,-2.9684 -0.10834,-0.10837 -0.24949,-0.178 -0.37423,-0.267 0,0 -0.92066,-0.36003 -0.92066,-0.36003 v 0 c 0.12906,0.0795 0.27303,0.13882 0.38718,0.23856 0.80853,0.70647 0.55155,1.98113 0.55635,2.91128 -0.33446,3.70421 -0.8232,7.47548 -2.64802,10.78262 -1.05272,1.47936 -1.79496,2.60577 -3.56574,3.30878 -1.47092,0.58396 -2.92727,0.1645 -4.42632,-0.0411 -2.2022,-0.38264 -4.39647,-0.77487 -6.53362,-1.44869 -0.0668,-0.0211 -2.41798,-0.77843 -2.93506,-1.1806 -0.37533,-0.29192 -0.66985,-0.67504 -1.00478,-1.01256 -0.21148,-0.35922 -0.47418,-0.69286 -0.63444,-1.07767 -0.64667,-1.55269 -0.30724,-3.71091 0.15039,-5.26478 0.36102,-0.78502 0.42792,-1.13106 1.07118,-1.73809 1.43539,-1.35456 3.6019,-1.61357 5.37447,-2.26266 3.36714,-0.88366 6.81076,-1.61311 10.31272,-1.52838 0,0 -0.80041,-0.58153 -0.80041,-0.58153 z" />
    <path
       style="fill:#ff00ff;stroke-width:0.264583"
       id="path680"
       d="m 120.44377,66.82016 c -3.04504,0.320217 -6.10729,0.404135 -9.1603,0.61186 -2.01497,0.116811 -4.0221,0.305347 -5.95496,0.902665 -0.50442,0.306195 -0.69876,0.365522 -1.08095,0.847448 -1.09344,1.378757 -1.63258,3.428272 -2.18913,5.050766 -0.24511,0.753612 -0.50903,1.501365 -0.73533,2.260838 -0.4755,1.595765 -1.19745,4.362042 -1.585503,5.973471 -0.323334,1.342694 -0.936919,4.019256 -1.123202,5.442934 -0.09759,0.745813 -0.105907,1.500609 -0.158861,2.250914 0.194093,1.370933 0.14209,2.297795 0.976866,3.461414 0.338267,0.471519 0.77679,0.882576 1.26542,1.195618 2.85555,1.829419 4.60732,1.806429 7.84354,1.963417 3.93174,-0.278672 7.87719,-0.988526 11.50119,-2.593279 1.59561,-0.706554 2.04083,-1.059979 3.43847,-1.956647 0.76047,-0.634037 1.32778,-0.997915 1.86552,-1.828474 0.9392,-1.450623 1.0048,-3.258127 1.07093,-4.920724 -0.0655,-2.143106 -0.59095,-4.283895 -1.5426,-6.210712 -0.50681,-1.026131 -0.77598,-1.311969 -1.43168,-2.194126 -0.87303,-0.984369 -1.9305,-1.589704 -3.15604,-2.086031 -0.89074,-0.360736 -2.23835,-0.38662 -3.18456,-0.510217 -1.69885,-0.257413 -0.86181,-0.128511 -2.51118,-0.386366 0,0 0.77513,0.581679 0.77513,0.581679 v 0 c 1.64905,0.256069 0.81153,0.127772 2.51262,0.384571 0.75137,0.09959 1.50909,0.160827 2.25351,0.303425 0.31119,0.05961 0.60675,0.197239 0.92161,0.232719 0.0433,0.0049 -0.0503,-0.149439 -0.0113,-0.130135 0.70985,0.351099 0.94481,0.673782 1.5096,1.226643 0.6608,0.870645 0.93833,1.160195 1.44922,2.176195 0.9604,1.909942 1.48838,4.039473 1.55712,6.170702 -0.062,1.639972 -0.12067,3.429648 -1.04417,4.862658 -0.52948,0.821603 -1.08789,1.182272 -1.83767,1.811626 -1.39279,0.899525 -1.81788,1.242737 -3.41209,1.950911 -3.61295,1.60493 -7.54894,2.314246 -11.47308,2.565156 -2.80748,-0.154017 -2.56902,0.009 -5.15716,-0.671187 -0.36044,-0.09473 -0.74086,-0.173702 -1.05181,-0.379137 -1.751909,-1.157454 -2.097712,-2.608678 -2.289633,-4.585658 0.04863,-0.748612 0.0518,-1.501569 0.145892,-2.245831 0.181287,-1.433999 0.784201,-4.089887 1.109131,-5.443204 0.6646,-2.767962 1.40169,-5.525325 2.34206,-8.213728 0.55798,-1.598919 1.10414,-3.641 2.19384,-4.99569 0.37481,-0.465947 0.56294,-0.518311 1.05726,-0.807707 1.92279,-0.593476 3.92163,-0.774874 5.92496,-0.896141 3.05952,-0.209129 6.12677,-0.307766 9.18076,-0.599035 0,0 -0.80346,-0.573601 -0.80346,-0.573601 z" />
    <path
       style="fill:#ff00ff;stroke-width:0.264583"
       id="path682"
       d="m 134.32688,95.870833 c -4.60517,-0.22188 -9.23137,-0.370967 -13.82897,0.03754 -1.31443,0.258967 -2.69211,0.63744 -3.47543,1.837577 -0.71547,1.096176 -0.60479,2.44992 -0.57611,3.68363 0.17066,1.89438 0.62644,3.77916 1.5819,5.44185 0.64254,1.11815 1.31563,1.90387 2.10827,2.91952 2.01961,2.23117 3.87153,4.61362 5.93289,6.80618 1.20209,1.18724 2.57457,2.23909 4.14241,2.90511 0.16766,0.0712 0.36047,0.0528 0.54071,0.0792 0.20169,-0.0945 0.42059,-0.15877 0.60508,-0.28359 0.56175,-0.38008 1.02131,-0.95804 1.44599,-1.46714 0.94433,-1.13202 1.80019,-2.3323 2.67581,-3.51717 2.28642,-2.99275 3.90286,-6.41177 4.98142,-10.00643 0.14565,-0.81452 0.49098,-1.84949 0.13035,-2.67853 -0.43142,-0.99178 -1.76507,-1.23542 -2.70414,-1.40403 -3.56815,-0.437777 -7.1577,-0.633188 -10.74532,-0.828686 0,0 0.75313,0.553463 0.75313,0.553463 v 0 c 3.59724,0.195503 7.19697,0.395993 10.77139,0.864413 0.30038,0.0623 0.59463,0.19952 0.90114,0.18687 0.10595,-0.004 -0.2954,-0.30157 -0.23507,-0.21436 0.10569,0.15281 0.2907,0.24755 0.37319,0.41403 0.39515,0.79748 0.04,1.85475 -0.0894,2.64524 -1.05645,3.59287 -2.66678,7.00246 -4.96364,9.97804 -0.87474,1.18255 -1.73082,2.38034 -2.68006,3.50532 -0.4069,0.48224 -0.88412,1.07304 -1.43406,1.42416 -0.17433,0.1113 -0.38276,0.15689 -0.57415,0.23534 -0.17431,-0.0332 -0.36876,-0.18751 -0.52294,-0.0997 -0.10889,0.062 0.41558,0.27504 0.29993,0.22674 -1.07759,-0.45002 -1.91398,-1.40153 -2.77563,-2.14415 -2.07405,-2.18616 -3.92277,-4.57721 -5.95243,-6.80476 -0.78267,-0.99713 -1.47112,-1.79981 -2.10876,-2.89724 -0.9579,-1.6486 -1.42098,-3.51976 -1.59562,-5.40311 -0.0335,-1.20322 -0.15499,-2.542909 0.54338,-3.614622 0.76731,-1.177525 2.13418,-1.536869 3.41888,-1.792004 4.60632,-0.415814 9.24275,-0.269746 13.85539,-0.0079 0,0 -0.79955,-0.580912 -0.79955,-0.580912 z" />
    <path
       style="fill:#ff2a2a;stroke-width:0.264583"
       id="path684"
       d="m 16.197171,42.120481 c -2.276064,1.219303 -4.475349,2.581309 -6.6883374,3.911552 -1.0770598,0.610632 -2.1419368,1.239777 -3.1715935,1.927357 0,0 0.8271076,0.529389 0.8271076,0.529389 v 0 c 1.025176,-0.687369 2.0846912,-1.318201 3.1553053,-1.932352 2.208496,-1.334389 4.40635,-2.700391 6.698796,-3.885737 0,0 -0.821278,-0.550209 -0.821278,-0.550209 z" />
    <path
       style="fill:#ff2a2a;stroke-width:0.264583"
       id="path735"
       d="m 11.656455,41.332716 c -2.8712788,3.040549 -5.7528842,6.068348 -8.565687,9.163976 -1.4612125,1.644266 -2.79584805,3.165879 -2.9637615,5.436211 0.0387109,0.194503 0.0408069,0.40005 0.1161326,0.583504 0.31382831,0.76432 1.1761495,1.304975 1.8442775,1.70884 1.6278252,0.983975 1.5424196,0.905529 2.9826591,1.565789 2.5026926,1.076952 5.1395573,1.740204 7.8122713,2.222502 1.058768,0.08515 2.283196,0.571185 3.310204,0.0737 0.569177,-0.275715 0.772296,-0.588621 1.202078,-1.049838 1.351348,-1.888207 2.219511,-4.059751 3.092239,-6.196147 0.584846,-1.604918 1.202139,-3.22416 1.399735,-4.930312 -0.03537,-0.189603 -0.02774,-0.392573 -0.106095,-0.568815 -0.601081,-1.35197 -3.194587,-3.031656 -4.387473,-3.862712 -1.954996,-1.341684 -4.014615,-2.595518 -6.223275,-3.475707 0,0 0.772512,0.607748 0.772512,0.607748 v 0 c 1.613918,0.656243 3.147664,1.481013 4.552952,2.514684 1.142705,0.79162 3.780625,2.533073 4.398091,3.786227 0.08179,0.165987 0.08048,0.361231 0.120717,0.541846 -0.177795,1.700974 -0.799574,3.313528 -1.375233,4.912712 -0.865492,2.126085 -1.725426,4.290258 -3.079998,6.161815 -0.421452,0.444127 -0.619262,0.747704 -1.177649,1.003429 -1.018419,0.46641 -2.230937,-0.02785 -3.273267,-0.102761 C 9.4389693,60.945445 6.8071655,60.273601 4.3118984,59.188386 3.2958844,58.715232 1.6257033,58.027032 1.1303816,56.945032 1.0506379,56.770835 1.0436981,56.571803 1.0003564,56.385189 c 0.012587,-0.216384 0.00275,-0.43525 0.037761,-0.649155 0.305873,-1.869032 1.6883697,-3.366714 2.866949,-4.745908 2.8034403,-3.110664 5.6784602,-6.149781 8.5980706,-9.151366 0,0 -0.846682,-0.506044 -0.846682,-0.506044 z" />
    <path
       style="fill:#ff2a2a;stroke-width:0.264583"
       id="path743"
       d="m 82.081557,21.355331 c -1.498838,0.0072 -2.9977,0.0085 -4.496554,0.0088 -1.295398,2.65e-4 -1.935123,-0.08007 -3.191362,0.216054 -0.476012,0.112205 -0.92669,0.312991 -1.390033,0.469487 -0.414806,0.265717 -0.86608,0.481668 -1.244418,0.797152 -1.905772,1.589169 -3.183144,4.560593 -4.108447,6.820365 -0.156501,0.433808 -0.683681,1.818275 -0.755327,2.307003 -0.186497,1.272161 0.07912,2.670227 0.615,3.828028 0.171198,0.369885 0.411339,0.703768 0.617011,1.055651 1.845101,2.315316 4.586242,3.611684 7.133471,4.998037 1.118118,0.50029 2.360469,1.190432 3.638878,0.941298 0.771921,-0.150435 1.121291,-0.448721 1.78381,-0.852575 2.198052,-1.502519 3.40637,-3.831037 4.48878,-6.185898 1.027028,-2.81973 1.634705,-5.86873 1.471917,-8.883784 -0.03155,-0.584387 -0.136091,-1.162537 -0.204137,-1.743805 -0.366717,-1.582164 -0.830188,-3.289622 -2.026171,-4.470718 -0.681093,-0.672616 -1.368388,-0.882819 -2.266526,-1.333768 -1.056093,-0.09985 -0.527275,-0.08985 -1.586458,-0.02999 0,0 0.795798,0.57226 0.795798,0.57226 v 0 c 1.04526,-0.04306 0.525351,-0.06483 1.559761,0.0644 -0.185425,-0.365639 -0.274582,-0.479458 0.59903,0.346463 0.829326,0.784053 1.338638,1.890617 1.686753,2.958384 0.156803,0.480957 0.253865,0.979377 0.380796,1.469066 0.07057,0.57816 0.17811,1.153 0.211707,1.734482 0.173405,3.001443 -0.43638,6.037672 -1.45963,8.843906 -1.077463,2.33644 -2.279941,4.647877 -4.469675,6.129899 -0.661797,0.393702 -0.99024,0.67592 -1.758714,0.808788 -1.268487,0.219322 -2.494598,-0.481123 -3.601863,-0.975156 -0.665382,-0.231 -0.228394,-0.06124 -1.408684,-0.753959 -1.510453,-0.886492 -3.004802,-1.829594 -4.082711,-3.244048 -0.208635,-0.346583 -0.45166,-0.674664 -0.625909,-1.039747 -0.541473,-1.134477 -0.818759,-2.517201 -0.640025,-3.772201 0.069,-0.484521 0.592111,-1.871694 0.745453,-2.300965 0.909034,-2.246664 2.173288,-5.201767 4.076197,-6.770259 0.374635,-0.308794 0.821087,-0.5183 1.231628,-0.77745 0.459512,-0.15199 0.906833,-0.347579 1.378535,-0.455972 1.230354,-0.282724 1.911768,-0.208657 3.179138,-0.208395 1.506939,3.18e-4 3.01389,0.0016 4.520816,0.0088 0,0 -0.797835,-0.579661 -0.797835,-0.579661 z" />
    <path
       style="fill:#ff2a2a;stroke-width:0.264583"
       id="path745"
       d="m 85.359136,58.257931 c -2.370855,0.0081 -4.741728,0.0074 -7.11259,0.0051 -1.073497,0.05682 -2.212086,-0.174723 -3.241273,0.235707 -0.519586,0.207205 -0.77569,0.440605 -1.22364,0.769477 -1.252024,1.042312 -1.910979,2.490922 -2.361763,4.018975 -0.425815,2.676152 0.762677,3.982821 2.63353,5.672987 1.58074,1.405348 3.33102,2.556812 5.16718,3.590999 0.914207,0.295352 2.079734,0.674537 3.0334,0.292471 0.269521,-0.107977 0.504085,-0.288274 0.756127,-0.432412 1.837015,-1.304382 3.104597,-3.121646 4.204779,-5.050345 0.735375,-1.469284 1.363742,-2.99793 1.719334,-4.604739 0.381188,-1.911612 -0.891691,-2.311684 -2.386274,-3.05257 -0.21354,-0.05255 -0.42708,-0.1051 -0.64062,-0.157649 0,0 0.781013,0.597784 0.781013,0.597784 v 0 c 0.211259,0.05575 0.422518,0.111506 0.633778,0.167259 -0.08356,-0.08447 -0.366872,-0.278173 -0.250661,-0.253421 0.178472,0.03801 0.322164,0.177483 0.459303,0.29786 0.573987,0.503838 0.713166,1.22155 0.536422,1.935149 -0.346449,1.599401 -0.96547,3.122414 -1.694633,4.584565 -1.092565,1.913597 -2.345568,3.722659 -4.182269,5.001916 -0.247623,0.134226 -0.479097,0.303896 -0.742868,0.40268 -0.949764,0.355701 -2.097952,-0.03175 -2.9943,-0.3463 0.107207,0.06887 0.430411,0.27295 0.321623,0.206608 -1.352873,-0.825002 -2.603328,-1.805937 -3.82328,-2.813603 -1.854573,-1.649211 -3.083208,-2.923746 -2.673858,-5.570783 0.443746,-1.508154 1.093396,-2.936904 2.3328,-3.961567 0.443552,-0.319839 0.690499,-0.543819 1.204661,-0.73932 1.023564,-0.389194 2.154544,-0.155178 3.216984,-0.221032 2.375548,-0.0024 4.751109,-0.003 7.12665,0.0051 0,0 -0.799555,-0.580911 -0.799555,-0.580911 z" />
    <path
       style="fill:#ff2a2a;stroke-width:0.264583"
       id="path747"
       d="m 116.50317,63.89049 c -1.92955,-0.107805 -3.85579,-0.2959 -5.78502,-0.120103 -1.30086,0.268669 -3.06562,0.848898 -3.84542,2.024769 -0.2518,0.379693 -0.39926,0.819068 -0.59888,1.228604 -0.98594,2.88305 -1.24771,5.979384 -0.7385,8.98816 0.0791,0.46754 0.21411,0.923893 0.32116,1.38584 0.25719,0.674809 0.49172,1.463162 0.95177,2.047052 0.21285,0.270142 0.46676,0.515435 0.75466,0.703569 1.7879,1.168332 2.53598,1.231519 4.53708,1.391772 2.05421,-0.01934 4.36693,-0.140062 6.10911,-1.393031 0.31544,-0.22687 0.57532,-0.522407 0.86299,-0.783609 2.05566,-2.264521 2.53117,-5.29537 2.8057,-8.232438 0.12931,-2.089428 -0.0922,-3.72241 -1.83099,-5.06842 -0.26837,-0.20774 -0.56962,-0.369107 -0.85444,-0.553659 -0.55776,-0.295576 -1.11553,-0.59115 -1.6733,-0.886727 0,0 0.76348,0.609126 0.76348,0.609126 v 0 c 5.3e-4,-0.02519 10e-4,-0.0504 0.002,-0.0756 0.87959,0.550773 1.73767,1.100709 2.25071,2.047013 0.58205,1.073608 0.52372,2.308315 0.49084,3.484158 -0.26553,2.91366 -0.73112,5.924417 -2.77891,8.164906 -0.2841,0.254466 -0.54127,0.54265 -0.85229,0.763394 -1.73693,1.232782 -4.02921,1.344571 -6.06927,1.351849 -2.18715,-0.197027 -0.6899,0.01188 -2.69088,-0.440007 -0.0552,-0.01246 -0.12382,0.02315 -0.16946,-0.01029 -0.98617,-0.722699 -1.35268,-1.567281 -1.73914,-2.70124 -0.11042,-0.45956 -0.24931,-0.913196 -0.33125,-1.37868 -0.52618,-2.98921 -0.27152,-6.071786 0.71931,-8.935665 0.19733,-0.398608 0.34369,-0.826799 0.59198,-1.195826 0.79479,-1.181288 2.5023,-1.700231 3.80876,-1.96705 1.92819,-0.164643 3.85482,0.01783 5.78196,0.137885 0,0 -0.79333,-0.585743 -0.79333,-0.585743 z" />
    <path
       style="fill:#ff2a2a;stroke-width:0.264583"
       id="path749"
       d="m 128.00876,33.553601 c -2.8036,-0.693367 -5.66817,-1.077508 -8.5391,-1.351841 -1.68395,-0.0883 -3.40154,-0.112623 -5.01022,0.448132 -0.38731,0.230437 -0.97753,0.402707 -1.24514,0.802304 -0.66721,0.996313 -0.73192,2.36179 -0.88825,3.496853 -0.21369,3.256777 0.27204,6.496402 0.83943,9.693018 0.63007,2.372339 1.03861,3.369585 3.3817,4.439838 0.32256,0.147336 0.68291,0.191455 1.02436,0.287181 2.49799,0.383895 5.0276,0.108432 7.52935,-0.09105 1.70906,-0.149931 3.2102,-0.871254 4.57023,-1.873824 1.27651,-1.039429 1.81803,-2.558071 2.22373,-4.099369 0.30561,-2.040456 0.68182,-4.164886 0.42011,-6.228257 -0.0817,-0.227817 -0.13632,-0.467278 -0.24516,-0.683451 -0.63731,-1.26573 -2.33437,-2.272623 -3.48575,-3.027534 -0.94705,-0.590013 -1.92293,-1.126554 -2.96441,-1.528305 0,0 0.77273,0.606692 0.77273,0.606692 v 0 c 0.21648,0.08586 0.42265,0.204634 0.64943,0.257598 0.0594,0.01386 -0.0825,-0.08988 -0.12374,-0.134826 0.25245,0.148098 0.5049,0.296198 0.75735,0.444296 1.13542,0.738979 2.84834,1.743411 3.50411,2.967712 0.11213,0.209339 0.17098,0.443111 0.25647,0.664666 0.29162,2.048155 -0.0996,4.168542 -0.39827,6.196523 -0.39993,1.520401 -0.93357,3.01708 -2.19765,4.03756 -1.34917,0.99087 -2.83725,1.695188 -4.5312,1.834777 -2.49432,0.203956 -5.02084,0.478745 -7.50832,0.06258 -0.33819,-0.101955 -0.67174,-0.220822 -1.01457,-0.305867 -0.0233,-0.0058 0.0525,0.07926 0.035,0.06286 -0.20293,-0.19022 -0.42435,-0.365734 -0.59358,-0.586473 -0.63561,-0.829066 -0.9188,-1.895432 -1.1913,-2.879024 -0.5775,-3.187721 -1.07719,-6.418685 -0.85994,-9.669293 0.155,-1.104458 0.21724,-2.454865 0.87689,-3.421533 0.26496,-0.388281 0.84159,-0.552151 1.22273,-0.772853 1.59947,-0.54038 3.30202,-0.517091 4.97149,-0.424593 2.87185,0.274309 5.73877,0.658453 8.53857,1.372883 0,0 -0.77705,-0.597381 -0.77705,-0.597381 z" />
    <path
       style="fill:#ff2a2a;stroke-width:0.264583"
       id="path751"
       d="m 39.467345,97.110551 c -1.269788,-0.296119 -2.540317,-0.596349 -3.822086,-0.837393 -0.439047,-0.08256 -0.87575,-0.190563 -1.321126,-0.225464 -1.49702,-0.117314 -1.897602,0.06095 -3.442612,0.32576 -4.96629,1.137896 -9.649204,3.240376 -14.069894,5.735386 -2.326247,1.53895 -4.716465,3.15216 -6.499727,5.33666 -0.249164,0.30523 -0.4615187,0.63874 -0.692278,0.95811 -0.1767083,0.37106 -0.3973377,0.72423 -0.5301244,1.11317 -0.5137764,1.50491 -0.6362208,3.33411 -0.2936518,4.8873 0.3077062,1.39511 1.0006224,2.77573 1.5747102,4.06707 1.402144,2.79573 2.957287,5.5311 4.769697,8.08325 1.025515,1.51264 2.357079,2.7563 3.730332,3.94417 1.913991,1.59858 3.859235,3.1599 5.888814,4.60974 0.598482,0.28142 1.158833,0.66508 1.795446,0.84425 0.755806,0.21272 2.518844,-0.14347 3.122139,-0.27699 2.544826,-0.56318 4.951336,-1.50232 7.36872,-2.45322 2.041117,-0.91713 4.11113,-1.8023 6.049986,-2.92851 1.479365,-0.85931 2.85818,-1.87704 4.231669,-2.89209 1.530353,-1.12238 2.972162,-2.37941 3.676764,-4.19183 0.160448,-0.41272 0.26448,-0.84522 0.396721,-1.26783 0.735047,-2.81297 0.57232,-5.67376 -0.460824,-8.39473 -0.258414,-0.68058 -0.598967,-1.32706 -0.898449,-1.99059 -1.783514,-3.2137 -3.757792,-6.32983 -5.939432,-9.28875 -1.553615,-2.08684 -3.795491,-3.285605 -6.096119,-4.391246 -1.393595,-0.665395 -2.845663,-1.1879 -4.2998,-1.700681 0,0 0.760929,0.593347 0.760929,0.593347 v 0 c 1.451575,0.513861 2.900756,1.03823 4.290528,1.707002 0.539319,0.262871 1.115023,0.464396 1.612368,0.799973 1.077823,0.727235 2.041663,1.575305 2.840839,2.606965 2.200037,2.94958 4.17929,6.0675 5.970807,9.28038 0.299704,0.65916 0.640348,1.30119 0.899113,1.97747 1.033425,2.70085 1.20605,5.54077 0.472252,8.33593 -0.131234,0.41778 -0.234495,0.8454 -0.3937,1.25335 -0.700093,1.79391 -2.134841,3.0383 -3.644318,4.15679 -1.367449,1.01555 -2.741163,2.02719 -4.215694,2.88579 -1.932032,1.12499 -3.990337,2.01907 -6.027324,2.93022 -2.418144,0.94734 -4.825378,1.88395 -7.375573,2.42402 -2.847706,0.60307 -0.783415,0.13008 -3.108492,0.22427 -0.05572,0.002 -0.08121,0.0765 -0.121816,0.11467 -2.03522,-1.44236 -3.979977,-3.00481 -5.895007,-4.60237 -1.371894,-1.18272 -2.707734,-2.41857 -3.738072,-3.92232 -1.830087,-2.54447 -3.388719,-5.28376 -4.80331,-8.07715 -0.567539,-1.26689 -1.2718979,-2.66498 -1.5790431,-4.03506 -0.3444754,-1.5366 -0.2267286,-3.34473 0.2820725,-4.83458 0.1309306,-0.38339 0.3482476,-0.7316 0.5223706,-1.0974 0.228279,-0.3166 0.438564,-0.64698 0.684838,-0.94978 1.77182,-2.17855 4.143825,-3.7943 6.462919,-5.32392 4.409801,-2.50065 9.089664,-4.598969 14.057817,-5.703527 0.631492,-0.102101 1.257064,-0.252273 1.894469,-0.306298 2.273327,-0.192688 4.494689,0.672835 6.692234,1.097312 0,0 -0.780082,-0.600626 -0.780082,-0.600626 z" />
    <path
       style="fill:#00ff00;stroke-width:0.264583"
       id="path753"
       d="m 177.00541,174.42646 c -5.45361,0.79144 -10.90987,1.57065 -16.37248,2.29863 -0.68693,0.0864 -1.37387,0.17284 -2.06081,0.25926 0,0 0.77403,0.54746 0.77403,0.54746 v 0 c 0.68386,-0.0889 1.36773,-0.1777 2.05159,-0.26656 5.47238,-0.74559 10.93835,-1.53819 16.41179,-2.27575 0,0 -0.80412,-0.56304 -0.80412,-0.56304 z" />
    <path
       style="fill:#00ff00;stroke-width:0.264583"
       id="path804"
       d="m 169.04836,173.45449 c -2.81878,1.1808 -5.75757,2.03603 -8.63515,3.05632 -1.19157,0.44777 -3.97446,1.45097 -4.20204,2.98278 -0.038,0.25563 0.0717,0.51188 0.1075,0.76783 0.16321,0.29049 0.29352,0.60209 0.48964,0.87146 0.80909,1.11131 1.94868,1.96775 2.99898,2.82999 1.54699,1.27 0.70086,0.58528 2.21802,1.79919 1.81314,1.40368 3.63207,2.82942 5.76545,3.71493 1.95942,0.6954 4.01791,0.31046 5.96047,-0.2342 1.60505,-0.38359 3.0173,-1.15845 4.28671,-2.19012 0.89682,-0.78024 1.2086,-1.88703 1.41453,-3.01329 0.19925,-1.15326 0.21081,-2.26731 -0.31416,-3.32862 -0.80236,-1.26546 -2.29941,-1.79032 -3.66967,-2.21013 -1.98346,-0.5801 -4.04759,-0.74492 -6.09925,-0.88291 -1.04307,-0.0605 -2.08746,-0.0891 -3.13177,-0.11614 0,0 0.78899,0.57628 0.78899,0.57628 v 0 c 1.04174,0.0256 2.0836,0.0527 3.12395,0.11556 2.05128,0.141 4.11407,0.31586 6.09408,0.90754 1.42467,0.44891 1.07781,0.0545 1.99262,1.20336 0.5525,1.03397 0.53997,2.13327 0.34634,3.27252 -0.19864,1.1044 -0.4987,2.18912 -1.3799,2.95266 -1.26027,1.0222 -2.66268,1.78351 -4.25473,2.16304 -1.9372,0.53504 -3.98372,0.89731 -5.92695,0.17753 -0.25073,-0.10787 -0.49712,-0.22647 -0.75219,-0.3236 -0.0451,-0.0171 0.15942,0.10846 0.11885,0.0824 -1.20176,-0.77149 -2.33589,-1.63743 -3.46755,-2.50739 -1.72563,-1.37691 -0.45556,-0.35487 -2.22022,-1.79891 -1.04841,-0.85792 -2.17522,-1.70215 -3.00159,-2.79313 -0.19613,-0.25892 -0.33289,-0.55786 -0.49934,-0.83679 -0.0449,-0.23869 -0.1645,-0.47504 -0.13468,-0.71608 0.18306,-1.47957 3.01291,-2.50203 4.14409,-2.92778 2.88365,-1.02287 5.82346,-1.89103 8.65906,-3.04659 0,0 -0.82009,-0.54772 -0.82009,-0.54772 z" />
    <path
       style="fill:#00ff00;stroke-width:0.264583"
       id="path806"
       d="m 177.50859,114.01529 c -3.11403,0.24002 -6.20298,0.74673 -9.2721,1.31208 -2.10172,0.38714 -4.68294,0.8502 -6.72097,1.59683 -0.84851,0.31084 -1.63566,0.76875 -2.45349,1.15313 -1.36403,1.28692 -2.03841,1.532 -2.48716,3.43229 -0.54145,2.29286 0.31005,4.91879 1.27285,6.96239 0.38018,0.80693 0.8738,1.55537 1.3107,2.33305 1.79282,2.65869 3.93595,5.05475 7.1232,6.00761 1.36778,0.40891 2.72709,0.0854 4.08553,-0.0838 4.32413,-1.02329 8.47419,-2.64893 12.68706,-4.04397 1.9605,-0.74904 4.35072,-0.95246 5.88696,-2.53406 0.23542,-0.24237 0.41875,-0.5304 0.62812,-0.7956 1.1955,-2.3081 1.36031,-4.96387 1.59584,-7.50847 0,0 -0.85174,-0.44379 -0.85174,-0.44379 v 0 c -0.22727,2.5261 -0.38832,5.16397 -1.58114,7.45256 -0.20595,0.25941 -0.3863,0.5414 -0.61785,0.77824 -1.52826,1.56318 -3.91012,1.761 -5.85064,2.51472 -4.20292,1.40252 -8.34306,3.04273 -12.66896,4.03324 -2.26193,0.26241 -1.87077,0.37282 -4.06211,0.0419 -0.3164,-0.0478 -0.65341,-0.0731 -0.93174,-0.23103 -1.96103,-1.11239 -3.30747,-3.02755 -4.59049,-4.80714 -0.43813,-0.77326 -0.93272,-1.51716 -1.31439,-2.31979 -0.93478,-1.96583 -1.80481,-4.67963 -1.29506,-6.89015 0.43151,-1.87122 1.0996,-2.11563 2.43866,-3.38385 0.81153,-0.38258 1.59253,-0.83809 2.43459,-1.14773 2.02757,-0.7456 4.60962,-1.21598 6.70104,-1.59851 3.08515,-0.5643 6.19326,-1.05705 9.32596,-1.25968 0,0 -0.79267,-0.57043 -0.79267,-0.57043 z" />
    <path
       style="fill:#00ff00;stroke-width:0.264583"
       id="path808"
       d="m 178.5021,78.800208 c -2.24153,1.100407 -4.65953,1.846209 -6.83861,3.074244 -0.38429,0.216569 -0.74871,0.466653 -1.12307,0.699981 -0.29812,0.253072 -0.63115,0.470003 -0.89436,0.759214 -1.4824,1.628839 -0.71795,3.468645 0.0734,5.195528 0.21018,0.421153 0.40951,0.847894 0.63052,1.263459 0.46607,0.876332 0.98227,1.725224 1.4557,2.5976 0.668,1.230897 1.31271,2.462522 2.03131,3.665061 0.19913,0.269092 0.36127,0.569974 0.59738,0.807276 0.2098,0.210862 0.45971,0.385402 0.72439,0.521147 1.79495,0.920557 2.52367,0.931566 4.40191,0.748194 2.06127,-0.186608 3.03542,-1.261687 4.34982,-2.731691 1.70688,-2.066583 2.62842,-4.576945 3.32088,-7.130396 0.0932,-0.608494 0.72869,-2.39373 0.0731,-2.901503 -0.39208,-0.303675 -0.86327,-0.488402 -1.29491,-0.732602 0,0 0.77137,0.616103 0.77137,0.616103 v 0 c -0.1263,-0.0943 -0.29143,-0.414028 -0.3789,-0.2829 -0.0945,0.1417 0.23791,0.260649 0.28446,0.424497 0.19958,0.702564 -0.22948,1.736683 -0.30799,2.413186 -0.67988,2.542262 -1.59285,5.040336 -3.29793,7.091111 -1.31328,1.454417 -2.27168,2.489287 -4.31699,2.666346 -0.76864,0.06866 -0.94836,0.114009 -1.73053,0.06258 -0.31048,-0.02043 -0.61839,-0.143312 -0.92735,-0.106482 -0.0743,0.0089 0.0336,0.246177 -0.0371,0.221446 -0.68481,-0.239749 -0.93595,-0.753242 -1.345,-1.293447 -0.72615,-1.200838 -1.37162,-2.431354 -2.03933,-3.665088 -0.47174,-0.87163 -0.98901,-1.718236 -1.4554,-2.592734 -0.22085,-0.414089 -0.4193,-0.83974 -0.62894,-1.25961 -0.78174,-1.672209 -1.58011,-3.491047 -0.13026,-5.083093 0.26002,-0.285509 0.58903,-0.499533 0.88354,-0.749302 0.3718,-0.231773 0.73366,-0.480288 1.11539,-0.695317 2.18127,-1.228736 4.59948,-1.981431 6.85278,-3.060613 0,0 -0.81923,-0.542197 -0.81923,-0.542197 z" />
    <path
       style="fill:#00ff00;stroke-width:0.264583"
       id="path810"
       d="m 134.91684,124.12329 c -2.75571,-0.38606 -5.53021,-0.63137 -8.30668,-0.80749 -1.72514,-0.0952 -3.17289,0.10814 -4.52328,1.22131 -1.41099,1.54909 -1.78041,3.76396 -2.25539,5.73744 -0.91666,3.77903 -0.11189,7.55869 0.98592,11.19773 0.54008,1.6658 1.26979,3.27846 2.44777,4.59612 0.7766,0.86869 1.2416,1.19854 2.14387,1.95159 1.41701,1.05131 2.97504,1.90148 4.54418,2.70084 0.52115,0.26548 1.43662,0.69416 2.05218,0.74556 0.36685,0.0306 0.73372,-0.0609 1.10058,-0.0913 2.91477,-0.86644 5.14284,-2.99752 7.30058,-5.03586 1.17867,-1.19807 2.30323,-2.46485 3.27932,-3.836 0.59375,-0.83407 1.09237,-1.5731 1.32895,-2.59023 0.12201,-0.52459 0.1074,-1.07181 0.1611,-1.60772 -0.0991,-0.59748 -0.13481,-1.20904 -0.29742,-1.79245 -0.73275,-2.62887 -2.46842,-4.87566 -4.3914,-6.74208 -1.01871,-0.72932 -1.18262,-0.90939 -2.56948,-1.48286 -0.52156,-0.21568 -2.02785,-0.4707 -2.51208,-0.5501 -1.20695,-0.19792 -2.41949,-0.36009 -3.62899,-0.5418 -1.64092,-0.28372 -3.27484,-0.49047 -4.93831,-0.50633 0,0 0.78336,0.57036 0.78336,0.57036 v 0 c 1.65528,0.0178 3.28228,0.22289 4.91501,0.5058 1.67163,0.25433 3.3796,0.43903 5.03,0.81756 0.37611,0.0863 0.73659,0.236 1.1152,0.31053 0.0331,0.007 0.0343,-0.0949 0.0637,-0.0784 0.29911,0.16706 0.56305,0.3905 0.84457,0.58575 1.93479,1.8444 3.68237,4.075 4.43051,6.69243 0.1643,0.57482 0.2029,1.17834 0.30435,1.76751 -0.0507,0.52763 -0.0335,1.06625 -0.15201,1.58289 -0.23027,1.00384 -0.72772,1.74455 -1.31193,2.56828 -0.97083,1.36884 -2.09232,2.63157 -3.26943,3.82419 -2.14711,2.02061 -4.36633,4.14972 -7.27652,4.97247 -0.36078,0.0213 -0.72283,0.10081 -1.08233,0.0638 -0.70214,-0.0723 -1.41017,-0.48456 -2.0336,-0.75652 -1.03649,-0.45216 -1.9899,-1.05894 -2.89766,-1.73621 -0.89921,-0.7431 -1.36829,-1.07406 -2.14516,-1.93031 -1.18526,-1.30639 -1.92897,-2.90795 -2.47498,-4.56888 -1.10864,-3.6214 -1.9234,-7.38364 -1.00366,-11.14956 0.47252,-1.94974 0.84548,-4.14381 2.24368,-5.67127 1.33861,-1.0863 2.77393,-1.26379 4.47065,-1.16857 2.77781,0.17504 5.55649,0.40733 8.30909,0.82735 0,0 -0.78431,-0.59552 -0.78431,-0.59552 z" />
    <path
       style="fill:#00ff00;stroke-width:0.264583"
       id="path812"
       d="m 135.49084,97.381659 c -2.9617,0.277032 -5.93,0.484736 -8.89631,0.70906 -2.20952,0.188772 -4.31213,0.788535 -6.17722,2.013251 -0.40951,0.2689 -0.78903,0.5809 -1.18355,0.87135 -1.14339,1.02883 -2.2985,2.12396 -3.09676,3.45795 -0.94534,1.57977 -1.38773,3.33218 -1.83794,5.09461 -0.52892,2.26414 -0.67207,4.5809 0.0643,6.82024 0.45156,1.37325 0.87254,1.94273 1.59826,3.18933 1.57838,2.24731 3.63912,3.95208 6.25969,4.87525 1.35449,0.47717 2.18546,0.2624 3.58249,0.15828 0.67332,-0.19857 1.36609,-0.34026 2.01996,-0.5957 3.27982,-1.2813 6.13494,-3.62707 8.5744,-6.11658 0.58958,-0.60168 1.12753,-1.25187 1.69129,-1.8778 3.16304,-3.97889 4.48791,-8.87724 5.45685,-13.77059 0.12349,-1.45694 0.76754,-3.509782 -0.11434,-4.868925 -0.37425,-0.576792 -0.73288,-0.71029 -1.30246,-1.068687 -0.59429,-0.276064 -1.16985,-0.596664 -1.78287,-0.828191 -0.37816,-0.142824 -0.78173,-0.207809 -1.17754,-0.289904 -1.81848,-0.377174 -3.675,-0.488849 -5.52387,-0.602673 -1.4997,-0.06859 -0.78033,-0.04069 -2.158,-0.08604 0,0 0.7872,0.575805 0.7872,0.575805 v 0 c 1.37171,0.04299 0.65532,0.01614 2.14907,0.08304 1.40234,0.08667 2.80377,0.172675 4.19461,0.382715 0.44235,0.0668 0.88382,0.142004 1.32115,0.236225 0.39531,0.08517 0.77448,0.246277 1.17506,0.301567 0.0536,0.0074 0.0689,-0.08342 0.1033,-0.125124 0.56,0.331062 0.94154,0.470088 1.32352,1.014561 0.92393,1.316955 0.28158,3.394631 0.16986,4.829461 -0.94647,4.88315 -2.26591,9.7659 -5.42286,13.73151 -0.56126,0.62447 -1.09657,1.27328 -1.68377,1.87343 -2.42987,2.48341 -5.28324,4.81648 -8.5625,6.07122 -0.65184,0.24941 -1.34204,0.38382 -2.01307,0.57573 -2.18832,0.1394 -1.4754,0.24598 -3.55819,-0.1968 -0.25629,-0.0545 -0.52813,-0.082 -0.75817,-0.20743 -1.60187,-0.87335 -2.81645,-2.23614 -3.87861,-3.68665 -0.72235,-1.22695 -1.15377,-1.80968 -1.60718,-3.16248 -0.74534,-2.22383 -0.61319,-4.52757 -0.0889,-6.78074 0.44588,-1.75287 0.88461,-3.48933 1.82691,-5.05888 0.79542,-1.32489 1.94006,-2.41524 3.08268,-3.43194 0.39303,-0.28721 0.77117,-0.59599 1.1791,-0.86162 1.85885,-1.210451 3.95763,-1.789401 6.15264,-1.977872 2.97123,-0.230444 5.94438,-0.439026 8.91276,-0.702209 0,0 -0.801,-0.567749 -0.801,-0.567749 z" />
  </g>
</svg>
