<?xml version="1.0" encoding="UTF-8" standalone="no"?>
<!-- Created with Inkscape (http://www.inkscape.org/) -->

<svg
   width="210mm"
   height="297mm"
   viewBox="0 0 210 297"
   version="1.1"
   id="svg1530"
   inkscape:version="1.2.2 (732a01da63, 2022-12-09)"
   sodipodi:docname="Zeichnung5specialunterschied.svg"
   xmlns:inkscape="http://www.inkscape.org/namespaces/inkscape"
   xmlns:sodipodi="http://sodipodi.sourceforge.net/DTD/sodipodi-0.dtd"
   xmlns="http://www.w3.org/2000/svg"
   xmlns:svg="http://www.w3.org/2000/svg">
  <sodipodi:namedview
     id="namedview1532"
     pagecolor="#ffffff"
     bordercolor="#000000"
     borderopacity="0.25"
     inkscape:showpageshadow="2"
     inkscape:pageopacity="0.0"
     inkscape:pagecheckerboard="0"
     inkscape:deskcolor="#d1d1d1"
     inkscape:document-units="mm"
     showgrid="false"
     inkscape:zoom="0.78127806"
     inkscape:cx="396.78575"
     inkscape:cy="563.17977"
     inkscape:window-width="1920"
     inkscape:window-height="1017"
     inkscape:window-x="-8"
     inkscape:window-y="-8"
     inkscape:window-maximized="1"
     inkscape:current-layer="layer1" />
  <defs
     id="defs1527" />
  <g
     inkscape:label="Ebene 1"
     inkscape:groupmode="layer"
     id="layer1">
    <ellipse
       style="fill:#000000;stroke-width:0.264583"
       id="path1534"
       cx="35.558723"
       cy="222.83467"
       rx="5.0798173"
       ry="5.4184723" />
    <ellipse
       style="fill:#000000;stroke-width:0.264583"
       id="path1536"
       cx="97.70182"
       cy="205.0553"
       rx="4.5718355"
       ry="4.9104905" />
    <ellipse
       style="fill:#000000;stroke-width:0.264583"
       id="path1538"
       cx="55.370014"
       cy="130.38197"
       rx="4.9104905"
       ry="4.4025083" />
    <circle
       style="fill:#000000;stroke-width:0.264583"
       id="path1540"
       cx="143.25085"
       cy="143.58951"
       r="5.0798173" />
    <ellipse
       style="fill:#000000;stroke-width:0.264583"
       id="path1542"
       cx="140.71095"
       cy="184.5667"
       rx="5.2491446"
       ry="5.0798173" />
    <ellipse
       style="fill:#000000;stroke-width:0.264583"
       id="path1544"
       cx="45.54903"
       cy="88.558151"
       rx="5.5877991"
       ry="5.2491446" />
    <ellipse
       style="fill:#000000;stroke-width:0.264583"
       id="path1546"
       cx="123.94755"
       cy="43.347778"
       rx="5.4184723"
       ry="3.3865454" />
    <ellipse
       style="fill:#000000;stroke-width:0.264583"
       id="path1548"
       cx="103.45895"
       cy="100.91904"
       rx="5.2491446"
       ry="4.7411633" />
    <ellipse
       style="fill:#000000;stroke-width:0.264583"
       id="path1550"
       cx="150.02394"
       cy="80.430443"
       rx="7.7890534"
       ry="4.9104905" />
    <ellipse
       style="fill:#000000;stroke-width:0.264583"
       id="path1552"
       cx="46.057011"
       cy="32.00285"
       rx="4.0638542"
       ry="4.5718355" />
    <ellipse
       style="fill:#000000;stroke-width:0.264583"
       id="path1554"
       cx="136.47777"
       cy="250.60432"
       rx="5.0798173"
       ry="4.0638542" />
    <ellipse
       style="fill:#000000;stroke-width:0.264583"
       id="path1556"
       cx="56.047321"
       cy="263.47321"
       rx="5.9264536"
       ry="6.4344354" />
    <ellipse
       style="fill:#000000;stroke-width:0.264583"
       id="path1558"
       cx="22.520525"
       cy="165.60205"
       rx="6.2651081"
       ry="4.4025083" />
    <ellipse
       style="fill:#000000;stroke-width:0.264583"
       id="path1560"
       cx="160.86089"
       cy="110.06271"
       rx="6.0957813"
       ry="4.4025083" />
    <path
       style="fill:#000000;stroke-width:0.264583"
       id="path1562"
       d="m 47.233929,33.905295 c -0.466309,3.498181 -0.647993,7.02604 -0.782944,10.549962 -0.06903,2.585 0.03483,5.181713 0.453715,7.737231 0.208728,1.273419 0.516332,2.495555 0.809549,3.750678 0.965451,3.239847 2.032688,6.444877 2.884998,9.717818 0.552238,1.922549 0.710676,3.90304 0.77611,5.891059 0.03923,1.75388 0.06085,3.506189 -0.0809,5.255397 -0.144452,1.341303 -0.568357,2.629718 -1.088962,3.86743 -0.677,1.582341 -1.490141,3.103523 -2.347105,4.594845 -0.438571,0.79788 -0.867611,1.599004 -1.327314,2.384903 0,0 0.846897,0.489411 0.846897,0.489411 v 0 c 0.457178,-0.787535 0.885343,-1.589522 1.324763,-2.387092 0.858025,-1.494967 1.67718,-3.017457 2.360975,-4.6008 0.525092,-1.246778 0.950087,-2.546075 1.100992,-3.896363 0.142838,-1.754023 0.116483,-3.510309 0.07802,-5.269111 -0.05588,-1.996477 -0.212809,-3.985101 -0.77362,-5.914112 -0.85793,-3.274038 -1.925013,-6.481804 -2.898865,-9.721762 -0.290372,-1.236549 -0.605772,-2.487459 -0.813459,-3.741957 -0.422296,-2.55083 -0.530032,-5.143529 -0.463965,-7.724542 0.136948,-3.515895 0.305017,-7.039192 0.811792,-10.524728 0,0 -0.870673,-0.458267 -0.870673,-0.458267 z" />
    <path
       style="fill:#000000;stroke-width:0.264583"
       id="path1564"
       d="m 49.765587,32.913849 c 10.021874,3.478006 20.199434,6.476391 30.390293,9.412589 8.090185,2.250966 16.191552,4.507211 24.44155,6.100889 2.5959,0.51313 5.22917,0.735264 7.87128,0.646576 2.32403,-0.165047 4.62178,-0.55136 6.90699,-0.99178 1.86069,-0.338246 3.70866,-0.724501 5.5229,-1.259483 0.68693,-0.185793 1.12911,-0.570288 1.54899,-1.120188 0,0 -0.84879,-0.504917 -0.84879,-0.504917 v 0 c -0.40934,0.531786 -0.84704,0.891272 -1.51187,1.070366 -1.8081,0.53757 -3.65147,0.923274 -5.50736,1.258605 -2.2821,0.438562 -4.57669,0.824785 -6.89833,0.97909 -2.62833,0.07913 -5.24803,-0.141859 -7.83164,-0.643578 -8.22116,-1.567997 -16.294454,-3.802311 -24.352901,-6.043353 -10.229765,-2.947696 -20.447251,-5.95943 -30.491837,-9.496962 0,0 0.760725,0.592146 0.760725,0.592146 z" />
    <path
       style="fill:#000000;stroke-width:0.264583"
       id="path1566"
       d="m 125.98508,44.648061 c -1.76945,4.780632 -3.4844,9.58188 -5.18979,14.385766 -1.92746,5.459913 -3.80502,10.937224 -5.69284,16.410911 -1.09847,3.291324 -2.40105,6.499328 -3.88759,9.63254 -0.93487,1.800735 -1.84858,3.612676 -2.80808,5.400537 -0.61205,1.166233 -1.21768,2.334956 -1.69469,3.563924 -0.35628,0.982734 -0.8272,1.916433 -1.19521,2.893867 -0.42999,1.14009 -0.77435,2.310686 -1.21459,3.446684 -0.31054,0.66708 -0.15713,0.33978 -0.46007,0.98198 0,0 0.85824,0.48596 0.85824,0.48596 v 0 c 0.30277,-0.64522 0.14874,-0.31564 0.46196,-0.98881 0.44094,-1.136187 0.78398,-2.30749 1.21458,-3.447765 0.36853,-0.976913 0.84466,-1.908153 1.19539,-2.892864 0.47121,-1.227285 1.07907,-2.390497 1.68318,-3.55655 0.95675,-1.791356 1.86729,-3.606948 2.7992,-5.411224 1.47738,-3.142197 2.77798,-6.356249 3.87073,-9.654019 1.87399,-5.479854 3.7336,-10.964817 5.66624,-16.424399 1.71449,-4.793186 3.4217,-9.59119 5.25064,-14.341948 0,0 -0.8573,-0.48459 -0.8573,-0.48459 z" />
    <path
       style="fill:#000000;stroke-width:0.264583"
       id="path1568"
       d="m 102.33246,102.48862 c -0.52724,-0.1528 -1.04848,-0.32802 -1.58171,-0.45841 -7.375861,-1.80358 -14.910133,-2.902959 -22.430819,-3.885246 -3.537093,-0.446731 -7.090781,-0.722776 -10.646074,-0.96927 -1.371328,-0.09507 -3.563607,-0.220149 -4.958996,-0.402545 -0.760613,-0.09942 -1.513194,-0.252812 -2.269789,-0.379219 -5.131302,-1.117862 -9.95201,-3.271909 -14.652508,-5.559663 -1.7819,-0.860684 -3.498776,-1.845178 -5.222825,-2.813875 0,0 0.743985,0.600942 0.743985,0.600942 v 0 c 1.719598,0.963076 3.433011,1.940121 5.209728,2.796194 4.707768,2.281706 9.534485,4.434438 14.672579,5.541071 0.757643,0.124438 1.511353,0.27578 2.272927,0.373313 1.392537,0.17834 3.576193,0.297194 4.945012,0.389351 3.544044,0.238601 7.086389,0.509204 10.612253,0.950957 7.542704,0.979025 15.096894,2.08205 22.481967,3.94198 0.54084,0.13622 1.06956,0.3167 1.60435,0.47505 0,0 -0.78008,-0.60063 -0.78008,-0.60063 z" />
    <path
       style="fill:#000000;stroke-width:0.264583"
       id="path1570"
       d="m 45.26114,88.695256 c 1.852941,4.703263 3.243811,9.568328 4.474261,14.465744 1.166283,5.02198 2.35585,10.03862 3.500252,15.06569 0.576974,2.3001 0.843605,4.66178 1.449856,6.95363 0.279199,0.97794 0.575757,1.9499 0.880509,2.92014 0,0 0.888463,0.41902 0.888463,0.41902 v 0 c -0.306805,-0.96937 -0.606144,-1.94003 -0.885618,-2.9177 -0.617332,-2.29575 -0.897446,-4.6618 -1.484075,-6.96626 -1.159179,-5.02644 -2.34665,-10.04631 -3.508891,-15.07201 -1.229357,-4.890454 -2.628696,-9.742544 -4.42949,-14.457051 0,0 -0.885267,-0.411203 -0.885267,-0.411203 z" />
    <path
       style="fill:#000000;stroke-width:0.264583"
       id="path1572"
       d="m 58.676931,130.4131 c 5.658842,0.45716 11.2601,1.42442 16.810138,2.5952 5.155858,1.21084 10.189683,2.86333 15.233451,4.46332 7.479636,2.30326 14.92919,4.69785 22.3301,7.24291 4.56645,1.55048 9.11567,3.15752 13.72164,4.58834 1.90161,0.65565 3.85389,0.98184 5.85979,0.97114 1.97509,-0.0737 3.87649,-0.64461 5.71582,-1.32911 1.22695,-0.47834 2.46779,-0.93841 3.64065,-1.54048 0,0 -0.82389,-0.54102 -0.82389,-0.54102 v 0 c -1.17053,0.59623 -2.40515,1.05783 -3.62745,1.53545 -1.83242,0.67919 -3.72608,1.24486 -5.69431,1.30196 -1.99467,-0.005 -3.93596,-0.33664 -5.82812,-0.98389 -4.59014,-1.42057 -9.12394,-3.017 -13.67517,-4.55582 -7.40943,-2.5398 -14.865052,-4.93681 -22.347151,-7.2535 -5.044051,-1.60616 -10.080651,-3.25807 -15.241561,-4.45784 -5.567577,-1.16612 -11.184855,-2.12217 -16.856114,-2.61417 0,0 0.782177,0.57751 0.782177,0.57751 z" />
    <path
       style="fill:#000000;stroke-width:0.264583"
       id="path1574"
       d="m 144.33959,145.25785 c 1.34909,-2.41198 2.66213,-4.84633 4.09342,-7.21088 1.36865,-2.33179 2.70159,-4.6865 4.02136,-7.04693 1.35994,-2.44136 2.36801,-5.05518 3.40151,-7.64568 0.8023,-2.16035 1.80104,-4.22328 2.95418,-6.21468 0.91333,-1.48257 1.67523,-3.05041 2.59395,-4.52909 0,0 -0.84561,-0.49159 -0.84561,-0.49159 v 0 c -0.91193,1.48379 -1.67361,3.05265 -2.58714,4.53618 -1.15834,1.99423 -2.16039,4.06106 -2.95839,6.22862 -1.02735,2.58866 -2.03493,5.19779 -3.39534,7.63459 -1.32051,2.35881 -2.64924,4.71454 -4.01498,7.04682 -1.43218,2.36616 -2.74297,4.80323 -4.11498,7.20454 0,0 0.85202,0.4881 0.85202,0.4881 z" />
    <path
       style="fill:#000000;stroke-width:0.264583"
       id="path1576"
       d="m 162.49901,110.08526 c -1.41478,-3.48859 -2.94228,-6.92946 -4.30731,-10.438307 -1.23383,-3.205345 -2.26181,-6.482368 -3.34042,-9.741059 -0.69962,-1.98801 -1.30124,-4.007969 -1.80496,-6.054359 -0.074,-0.280223 -0.14808,-0.560446 -0.22212,-0.840666 0,0 -0.88192,-0.420815 -0.88192,-0.420815 v 0 c 0.0752,0.280091 0.15038,0.560184 0.22557,0.840277 0.5051,2.049703 1.09997,4.075472 1.80798,6.064462 1.09666,3.258404 2.12084,6.542765 3.35593,9.753459 1.36094,3.498698 2.88902,6.927918 4.27617,10.415988 0,0 0.89108,0.42102 0.89108,0.42102 z" />
    <path
       style="fill:#000000;stroke-width:0.264583"
       id="path1578"
       d="m 150.44872,80.397129 c -5.41345,1.22695 -10.78614,2.634123 -16.14925,4.063902 -3.68291,1.032624 -7.46443,1.739726 -11.07296,3.024614 -2.21523,0.842465 -4.37598,1.821725 -6.5455,2.77432 -2.23848,1.028465 -4.33417,2.332903 -6.39279,3.678052 -1.29171,0.759278 -2.40216,1.751267 -3.46305,2.796054 -0.45804,0.387167 -0.88001,0.813829 -1.30572,1.235418 0,0 0.83769,0.514075 0.83769,0.514075 v 0 c 0.42727,-0.420526 0.85166,-0.84501 1.30881,-1.233651 1.05071,-1.044623 2.15826,-2.027576 3.44062,-2.786968 2.05126,-1.346456 4.14348,-2.646521 6.3795,-3.667519 2.16854,-0.952875 4.33045,-1.927825 6.54685,-2.765187 3.59129,-1.289439 7.35189,-2.021022 11.02024,-3.051111 5.37433,-1.436836 10.75971,-2.857714 16.20202,-4.014679 0,0 -0.80646,-0.56732 -0.80646,-0.56732 z" />
    <path
       style="fill:#000000;stroke-width:0.264583"
       id="path1580"
       d="m 59.368046,128.03486 c 5.111115,-2.99431 10.493092,-5.49926 15.77712,-8.16966 4.404103,-2.13507 8.54378,-4.73951 12.754954,-7.21694 2.798471,-1.74768 5.567018,-3.53864 8.438515,-5.16558 2.070753,-1.18873 4.275525,-2.09244 6.496005,-2.95347 0.26204,-0.095 0.52407,-0.19004 0.78611,-0.28506 0,0 -0.81089,-0.54685 -0.81089,-0.54685 v 0 c -0.26164,0.0961 -0.52328,0.19221 -0.78491,0.28832 -2.219792,0.86536 -4.419517,1.78228 -6.488542,2.97527 -2.868473,1.63246 -5.641459,3.41788 -8.439343,5.16704 -4.192024,2.48994 -8.315825,5.10005 -12.705477,7.24196 -5.297869,2.68398 -10.69371,5.19127 -15.856016,8.13195 0,0 0.832474,0.53302 0.832474,0.53302 z" />
    <path
       style="fill:#000000;stroke-width:0.264583"
       id="path1582"
       d="m 136.73302,249.04349 c 0.75522,-1.77844 1.5387,-3.54436 2.42577,-5.26118 1.02651,-1.81622 1.88897,-3.6928 2.58744,-5.65634 0.9084,-2.62698 1.60749,-5.30974 2.09239,-8.04528 0.23365,-1.668 0.48338,-3.34906 0.38906,-5.03828 -0.0575,-1.03038 -0.13928,-1.36468 -0.30427,-2.36943 -0.33247,-1.88085 -0.71558,-3.75168 -1.11885,-5.61844 -0.20622,-1.11678 -0.39405,-2.27695 -0.2973,-3.41801 0.0676,-0.79752 0.29005,-1.66124 0.46207,-2.43476 0.56088,-2.40902 1.29357,-4.77324 1.88557,-7.1737 0.39711,-1.57059 0.47735,-3.18618 0.52406,-4.79748 0.0884,-1.17915 -0.14685,-2.31928 -0.56584,-3.41384 -0.59044,-1.19895 -1.09114,-2.42464 -1.44128,-3.71494 -0.2254,-0.86482 -0.30199,-1.75546 -0.34845,-2.64468 0,0 -0.88265,-0.444 -0.88265,-0.444 v 0 c 0.046,0.89591 0.12038,1.79386 0.34433,2.66588 0.34608,1.29265 0.83349,2.52635 1.4334,3.72288 0.426,1.08176 0.67324,2.21043 0.58827,3.38121 -0.0431,1.6056 -0.12117,3.21542 -0.50884,4.78208 -0.58382,2.40378 -1.31162,4.77086 -1.87865,7.17951 -0.16371,0.72115 -0.41342,1.6975 -0.48193,2.44867 -0.10441,1.14478 0.0831,2.31409 0.28566,3.43549 0.40773,1.86648 0.79261,3.73757 1.12946,5.61831 0.1694,1.00361 0.25132,1.32782 0.31216,2.35754 0.0995,1.68384 -0.14735,3.3605 -0.37613,5.02394 -0.47968,2.73072 -1.17724,5.40804 -2.0919,8.02701 -0.7023,1.95692 -1.55549,3.83348 -2.58055,5.64531 -0.88913,1.72005 -1.67567,3.48811 -2.44675,5.26378 0,0 0.86375,0.47875 0.86375,0.47875 z" />
    <path
       style="fill:#000000;stroke-width:0.264583"
       id="path1584"
       d="m 134.53559,248.01965 c -2.33733,-2.46453 -4.91987,-4.67603 -7.30685,-7.09231 -2.23729,-2.57242 -4.2099,-5.24922 -5.6036,-8.36776 -0.59394,-1.38468 -0.90224,-2.86621 -1.41809,-4.27746 -0.34017,-0.93065 -0.51686,-1.27566 -0.92286,-2.16973 -1.06583,-2.17128 -2.99473,-3.60079 -4.89823,-4.98922 -1.74024,-1.15874 -3.36586,-2.47639 -5.00133,-3.77583 -1.33088,-1.1066 -2.67416,-2.20095 -3.94296,-3.37905 -0.98994,-0.87874 -1.77887,-1.93509 -2.57734,-2.98167 -0.67105,-0.93961 -1.14505,-1.992 -1.64577,-3.02651 -0.0694,-0.13355 -0.1387,-0.2671 -0.20805,-0.40064 0,0 -0.90107,-0.40565 -0.90107,-0.40565 v 0 c 0.07,0.13271 0.1401,0.26543 0.21015,0.39815 0.50239,1.03928 0.97893,2.09533 1.6414,3.0463 0.80098,1.04796 1.58139,2.11524 2.57233,2.99745 1.26597,1.18671 2.61909,2.27574 3.94864,3.38968 1.63563,1.30206 3.2606,2.62432 5.00411,3.78138 1.89852,1.37936 3.837,2.78897 4.91608,4.94277 0.41327,0.90116 0.58067,1.22114 0.92621,2.15981 0.5201,1.41287 0.82585,2.89772 1.41591,4.28697 0.42424,0.95469 0.56731,1.34353 1.10766,2.26827 1.28159,2.19324 2.86798,4.20507 4.50326,6.14019 2.3737,2.41147 4.94714,4.61415 7.27173,7.07287 0,0 0.90867,0.38199 0.90867,0.38199 z" />
    <path
       style="fill:#000000;stroke-width:0.264583"
       id="path1586"
       d="m 99.617045,206.1002 c -2.450751,-1.95694 -4.818994,-4.01061 -6.976094,-6.2888 -0.987529,-1.12894 -2.05036,-2.23673 -2.734075,-3.58803 -0.322765,-0.63792 -0.412131,-0.96219 -0.652235,-1.64096 -0.826429,-2.8249 -1.800736,-5.60272 -2.746751,-8.3893 -1.306128,-3.68434 -2.326534,-7.4515 -3.236063,-11.24936 -0.336555,-1.30702 -0.484679,-2.66162 -1.023141,-3.91026 -0.247279,-0.57342 -0.629854,-1.26502 -0.918763,-1.80952 -1.697596,-3.15874 -3.170309,-6.43129 -4.656674,-9.69291 -1.863567,-4.18754 -3.528142,-8.4591 -5.318289,-12.67725 -0.922753,-2.23654 -1.868371,-4.50593 -3.338341,-6.44648 -1.017132,-1.16672 -2.564222,-1.58477 -3.932195,-2.18911 -0.811115,-0.37681 -1.628404,-0.76689 -2.388658,-1.24129 -0.01199,-0.007 0.03186,-0.0289 0.02043,-0.0372 -1.067806,-0.70915 -0.54904,-0.34312 -1.557401,-1.09652 -1.12522,-0.7994 -2.212782,-1.64435 -3.060587,-2.74215 0,0 -0.904999,-0.38943 -0.904999,-0.38943 v 0 c 0.833004,1.11853 1.928278,1.96894 3.059245,2.77104 1.736566,1.31244 3.617542,2.44001 5.59903,3.34291 0.108522,0.0475 1.918134,0.80688 1.927432,0.79981 0.138207,-0.10523 -0.270878,-0.26441 -0.44441,-0.27214 -0.341768,-0.0152 1.331518,0.63897 0.780309,0.66668 1.499216,1.92406 2.448991,4.2023 3.380163,6.43839 1.798434,4.2174 3.465835,8.49063 5.324919,12.68284 1.478074,3.25733 2.938807,6.52726 4.623671,9.68439 0.445251,0.83773 0.918699,1.66694 1.217528,2.57212 0.254235,0.77011 0.27215,1.06962 0.455088,1.89039 0.09239,0.41455 0.193887,0.82701 0.29083,1.24052 0.923383,3.79817 1.940314,7.57032 3.239966,11.2607 0.940469,2.78261 1.911157,5.55619 2.723555,8.37949 0.236741,0.68423 0.324945,1.01204 0.64472,1.65637 0.677921,1.36597 1.747912,2.48129 2.742264,3.61739 2.147887,2.27679 4.507986,4.32711 6.944108,6.29029 0,0 0.915422,0.36736 0.915422,0.36736 z" />
    <path
       style="fill:#000000;stroke-width:0.264583"
       id="path1588"
       d="m 99.819993,200.19356 c 0.590277,-1.89421 1.279687,-3.75484 1.858907,-5.65299 0.56935,-1.85392 1.2499,-3.66743 2.02014,-5.44631 0.79433,-1.9104 1.80149,-3.70963 2.93264,-5.43745 1.14807,-1.72836 2.44957,-3.3493 3.72947,-4.98077 1.18927,-1.40411 2.31825,-2.85948 3.51183,-4.25954 1.62621,-1.793 3.42629,-3.41637 5.14689,-5.11623 1.30429,-1.28281 2.55597,-2.60799 3.72023,-4.01843 1.54475,-1.90198 3.16718,-3.72935 4.89908,-5.46137 1.10522,-1.10145 2.31944,-2.07679 3.49023,-3.10331 1.12296,-1.01523 2.11261,-2.16645 3.09498,-3.31518 0.97467,-1.14628 1.81117,-2.41348 2.82683,-3.52349 0.586,-0.70484 1.34483,-1.21803 2.07401,-1.75881 0.54339,-0.42732 1.04931,-0.90222 1.56316,-1.36514 0,0 -0.84104,-0.52148 -0.84104,-0.52148 v 0 c -0.51194,0.4603 -1.01381,0.93516 -1.5569,1.35795 -0.73446,0.54369 -1.49507,1.06451 -2.08164,1.77674 -1.00898,1.117 -1.84529,2.38368 -2.82085,3.53045 -0.98254,1.14316 -1.97183,2.28915 -3.09346,3.29973 -1.17253,1.02648 -2.38013,2.01113 -3.48498,3.1144 -1.72535,1.74186 -3.34828,3.57351 -4.90581,5.46779 -1.16371,1.40582 -2.41596,2.72608 -3.71007,4.01323 -1.72045,1.70496 -3.52052,3.33277 -5.15905,5.11861 -1.19166,1.40299 -2.32056,2.85944 -3.50808,4.26631 -1.28156,1.63385 -2.58607,3.2559 -3.73607,4.98653 -1.13471,1.73231 -2.13961,3.539 -2.93685,5.4541 -0.77532,1.78019 -1.46451,3.59484 -2.0303,5.45342 -0.57459,1.89894 -1.258043,3.76045 -1.867675,5.64781 0,0 0.864378,0.47343 0.864378,0.47343 z" />
    <path
       style="fill:#000000;stroke-width:0.264583"
       id="path1590"
       d="m 59.55897,261.78977 c 1.66134,-4.13904 3.828124,-8.06596 5.945187,-11.98605 3.035366,-5.59328 6.394783,-10.99434 9.740429,-16.40359 2.977584,-4.87815 6.264799,-9.55253 9.766715,-14.06577 1.252715,-1.6308 2.582082,-3.20005 3.864896,-4.80672 0.762839,-0.95542 1.488601,-1.92706 2.29756,-2.84387 0.936609,-1.12835 1.940615,-2.19326 2.877409,-3.3215 0.440217,-0.54862 0.863087,-1.10891 1.269858,-1.68253 0,0 -0.846657,-0.49928 -0.846657,-0.49928 v 0 c -0.404098,0.57236 -0.824388,1.13135 -1.26438,1.67691 -0.937254,1.12606 -1.941118,2.18992 -2.870134,3.32291 -0.802782,0.92252 -1.524179,1.89829 -2.282626,2.85749 -1.274898,1.61234 -2.596941,3.18707 -3.845118,4.82067 -3.492397,4.52344 -6.790703,9.19511 -9.766885,14.07702 -3.339168,5.41519 -6.68918,10.82374 -9.737262,16.41149 -2.126437,3.92002 -4.298844,7.84377 -6.010076,11.9662 0,0 0.861084,0.47662 0.861084,0.47662 z" />
    <path
       style="fill:#000000;stroke-width:0.264583"
       id="path1592"
       d="m 34.256175,221.339 c 1.084255,2.19016 2.263521,4.33576 3.467063,6.46289 0.882497,1.54513 1.659959,3.13624 2.210522,4.82911 0.343091,1.42928 0.66652,2.86869 0.94869,4.31242 0.362985,2.05182 0.773452,4.09437 1.330545,6.1028 0.654299,2.46851 1.81124,4.72196 3.199627,6.8481 1.08938,1.65555 2.469632,3.05669 4.004757,4.2954 1.013093,0.63714 1.905974,1.34703 2.573785,2.34547 0.703395,1.2023 1.209564,2.51369 1.728078,3.80426 0.07108,0.19698 0.142156,0.39396 0.213233,0.59094 0,0 0.891162,0.41597 0.891162,0.41597 v 0 c -0.07111,-0.19831 -0.142227,-0.39661 -0.213339,-0.59492 -0.518501,-1.29423 -1.027959,-2.60665 -1.716635,-3.82048 -0.653679,-1.01979 -1.535941,-1.74816 -2.568046,-2.37666 -1.542388,-1.22784 -2.930427,-2.61961 -4.024955,-4.27065 -1.394553,-2.11596 -2.56063,-4.36024 -3.217273,-6.82321 -0.555707,-2.00309 -0.961223,-4.04109 -1.318122,-6.08828 -0.278048,-1.4482 -0.612796,-2.88907 -0.946084,-4.32428 -0.544859,-1.70353 -1.321935,-3.30205 -2.213028,-4.85211 -1.205095,-2.11656 -2.376376,-4.25713 -3.452741,-6.44181 0,0 -0.897239,-0.41496 -0.897239,-0.41496 z" />
    <path
       style="fill:#000000;stroke-width:0.264583"
       id="path1594"
       d="m 22.696277,164.69915 c 3.39583,-2.49418 6.880903,-4.86607 10.163102,-7.51102 2.011336,-1.59693 3.748349,-3.47586 5.304676,-5.50892 1.575991,-2.09254 2.949543,-4.32454 4.407794,-6.49834 1.273318,-1.76276 2.517836,-3.55582 3.971319,-5.17699 0.734396,-0.7144 1.333889,-1.54588 2.020824,-2.30214 0.567301,-0.84106 1.174552,-1.64586 1.839011,-2.41258 0.691229,-0.892 1.508281,-1.66927 2.41736,-2.33343 0,0 -0.83003,-0.52607 -0.83003,-0.52607 v 0 c -0.910288,0.67405 -1.732364,1.4555 -2.429981,2.35126 -0.665427,0.7652 -1.273386,1.56877 -1.841542,2.40858 -0.685117,0.75758 -1.285417,1.58799 -2.014818,2.30672 -1.446824,1.63187 -2.685854,3.43292 -3.962646,5.19769 -1.457068,2.17234 -2.834537,4.39975 -4.412009,6.48886 -1.549355,2.02611 -3.279156,3.90018 -5.274368,5.50061 -3.278905,2.65475 -6.757405,5.04291 -10.188203,7.49474 0,0 0.829511,0.52103 0.829511,0.52103 z" />
    <path
       style="fill:#000000;stroke-width:0.264583"
       id="path1596"
       d="m 20.972082,164.47669 c 0.541917,2.87253 1.087907,5.7444 1.690252,8.60531 0.766148,3.66086 1.667689,7.28995 2.697694,10.88504 0.793779,2.4422 1.714901,4.83754 2.42894,7.30506 0.638775,2.36089 0.775054,4.80891 0.867949,7.24044 0.06352,2.31399 0.05079,4.62915 0.04676,6.94375 -0.09931,2.05163 0.324935,4.04939 0.902404,6.00293 0.705591,2.20859 1.498192,4.38826 2.326772,6.5533 0.568656,1.40587 1.177915,2.79446 1.761556,4.19401 0.27155,0.70154 0.131141,0.36649 0.4176,1.00666 0,0 0.897469,0.41008 0.897469,0.41008 v 0 c -0.293094,-0.63579 -0.150847,-0.30137 -0.421917,-1.00528 -0.585216,-1.40113 -1.196526,-2.79102 -1.772701,-4.19602 -0.830813,-2.16272 -1.627224,-4.33953 -2.331619,-6.54715 -0.575974,-1.94507 -1.010799,-3.93405 -0.91476,-5.97768 0.0048,-2.31615 0.01368,-4.63282 -0.04737,-6.94839 -0.09215,-2.43769 -0.224333,-4.89222 -0.85643,-7.26102 -0.711364,-2.4711 -1.634178,-4.86827 -2.438769,-7.30966 -1.039637,-3.59189 -1.947785,-7.21893 -2.705902,-10.88123 -0.599317,-2.85348 -1.146999,-5.71764 -1.659591,-8.58747 0,0 -0.888339,-0.43268 -0.888339,-0.43268 z" />
    <path
       style="fill:#ff00ff;stroke-width:0.264583"
       id="path1598"
       d="m 56.603614,121.33082 c -2.075961,0.0751 -4.137219,0.3738 -6.183673,0.71675 -0.523205,0.0877 -1.050366,0.15997 -1.565346,0.28735 -0.452379,0.1119 -0.887069,0.28597 -1.330603,0.42896 -2.357784,1.21656 -3.107968,2.42963 -3.71099,4.92551 -0.410303,2.17315 -0.02304,4.34715 0.708022,6.40366 0.503976,1.28834 1.203484,2.46134 2.347484,3.25914 0.434864,0.23458 0.854035,0.50092 1.304589,0.70374 0.583512,0.26267 2.587636,0.34558 3.151381,0.40294 7.141718,0.72662 -3.540342,-0.34774 3.834331,0.39219 1.697683,0.0677 4.76568,0.91954 6.203516,-0.39582 0.192122,-0.17575 0.310652,-0.41797 0.465976,-0.62695 0.08748,-0.27216 0.208828,-0.53568 0.262443,-0.81649 0.231343,-1.21166 0.01651,-2.49157 -0.160798,-3.69016 -0.214818,-1.45213 -0.253019,-1.5798 -0.521568,-3.00822 -0.35306,-1.29347 -0.507889,-3.4751 -1.33821,-4.57548 -0.172727,-0.22891 -0.390906,-0.41967 -0.586359,-0.62951 -2.045972,-1.58486 -4.445375,-2.63279 -6.813518,-3.63892 0,0 0.757825,0.5986 0.757825,0.5986 v 0 c 1.785326,0.7608 3.624821,1.43619 5.153448,2.664 0.197237,0.20257 0.416145,0.3861 0.591707,0.60772 0.848561,1.07115 1.020595,3.27427 1.371224,4.55355 0.279318,1.47127 0.301389,1.50643 0.522512,3.00316 0.174863,1.1836 0.387599,2.44735 0.166505,3.64466 -0.04996,0.27054 -0.165396,0.52478 -0.248097,0.78718 -0.148627,0.19848 -0.261533,0.42962 -0.445884,0.59546 -1.409488,1.26796 -4.486523,0.41945 -6.142376,0.36208 -1.793899,-0.18123 -3.588078,-0.36283 -5.380548,-0.5578 -0.343635,-0.0374 -0.689639,-0.0599 -1.029983,-0.12032 -0.199763,-0.0354 -0.405871,-0.26076 -0.585473,-0.16639 -0.139221,0.0732 0.257424,0.18076 0.386133,0.27114 -1.162706,-0.76755 -1.873752,-1.92337 -2.384068,-3.2078 -0.744354,-2.03545 -1.13448,-4.19397 -0.731948,-6.35235 0.583962,-2.46523 1.317514,-3.65527 3.649406,-4.84669 0.439772,-0.14057 0.871029,-0.31127 1.319318,-0.42172 0.513382,-0.12648 1.038455,-0.20017 1.559901,-0.28765 2.052733,-0.34439 4.121637,-0.63427 6.204773,-0.69221 0,0 -0.801052,-0.57331 -0.801052,-0.57331 z" />
    <path
       style="fill:#ff00ff;stroke-width:0.264583"
       id="path1600"
       d="m 106.42794,92.162848 c -1.92784,0.01138 -3.85574,0.01323 -5.78361,0.01392 -1.24821,5.29e-4 -2.979942,-0.03214 -4.247833,0.07982 -0.533982,0.04716 -1.060649,0.156413 -1.590972,0.234619 -0.416967,0.1637 -0.878903,0.241549 -1.250902,0.491101 -2.252872,1.511321 -2.173618,5.618702 -2.191327,7.969082 0.08748,1.67241 0.18016,3.35259 0.47657,5.00416 0.103894,0.57887 0.263676,1.35315 0.554842,1.89252 0.113088,0.20949 0.286467,0.38032 0.429699,0.57048 0.534821,0.26192 1.03355,0.61637 1.604465,0.78575 0.461648,0.13695 2.078242,-0.0547 2.465004,-0.10995 1.248365,-0.17829 2.440178,-0.51537 3.637954,-0.89621 1.82827,-0.58257 3.46092,-1.534 4.98408,-2.68134 1.84903,-1.39969 2.55654,-3.01241 3.15299,-5.18495 0.34224,-1.369562 0.47128,-2.77333 0.50374,-4.180265 -0.0301,-0.722146 0.18194,-1.558856 -0.32795,-2.145829 0,0 -0.917,-0.3801 -0.917,-0.3801 v 0 c 0.0687,0.05981 0.153,0.105394 0.20603,0.179429 0.36672,0.511911 0.0689,1.327547 0.16096,1.896838 -0.0264,1.40113 -0.14449,2.800339 -0.47987,4.165666 -0.58668,2.159861 -1.28406,3.741391 -3.12348,5.127781 -1.51704,1.13745 -3.14445,2.07696 -4.961557,2.6569 -1.191826,0.37775 -2.378525,0.71394 -3.621953,0.88251 -0.441179,0.0598 -0.884983,0.11029 -1.330036,0.12231 -0.373388,0.0101 -0.749284,-0.10823 -1.119161,-0.0562 -0.07101,0.01 0.04523,0.1361 0.06784,0.20415 -0.148214,-0.18221 -0.32767,-0.34295 -0.444642,-0.54662 -0.303718,-0.52885 -0.470313,-1.30575 -0.577782,-1.87859 -0.309168,-1.64796 -0.404301,-3.32694 -0.49639,-4.99754 0.01416,-2.298627 -0.07343,-6.394266 2.148229,-7.862209 0.367649,-0.242919 0.821875,-0.318151 1.232813,-0.477226 0.525743,-0.07737 1.047893,-0.185222 1.577223,-0.232106 1.267913,-0.112302 2.989706,-0.08267 4.237916,-0.08221 1.94065,7.94e-4 3.88132,0.0026 5.82195,0.01392 0,0 -0.79784,-0.579659 -0.79784,-0.579659 z" />
    <path
       style="fill:#ff00ff;stroke-width:0.264583"
       id="path1602"
       d="m 158.202,72.521201 c -2.28701,0.0053 -4.57117,-0.04615 -6.85184,0.144864 -2.08307,0.130858 -4.13522,0.464741 -6.17732,0.881153 -2.34701,0.531392 -4.6472,1.258451 -6.82869,2.275371 -2.37751,1.362017 -2.83327,2.436604 -3.26652,5.079778 -0.16376,2.375149 0.3529,4.521372 1.62121,6.540093 0.24007,0.382108 0.52211,0.736179 0.78317,1.104267 1.28103,1.61171 2.92574,2.573647 4.8477,3.295658 0.7909,0.297111 2.33416,0.551551 3.1538,0.706472 1.3125,0.18909 2.63095,0.382963 3.95673,0.454747 0.58441,0.03164 1.06489,0.06328 1.62183,-0.14029 0.22291,-0.08148 0.41561,-0.229306 0.62342,-0.343961 0.18991,-0.200424 0.39973,-0.383706 0.56972,-0.601279 0.36729,-0.470095 0.66083,-1.082675 0.92269,-1.609598 0.4599,-0.925409 0.87112,-1.866108 1.26724,-2.820042 0.66104,-1.469179 1.28268,-2.956193 1.8978,-4.444818 0.4833,-0.851884 0.73409,-1.779653 0.91382,-2.734516 0.11613,-0.743977 0.16926,-1.494698 0.22132,-2.245069 0,0 -0.86962,-0.450697 -0.86962,-0.450697 v 0 c -0.0516,0.746202 -0.10286,1.493034 -0.22007,2.232655 -0.1802,0.947531 -0.42861,1.869257 -0.90441,2.716879 -0.61006,1.491025 -1.22598,2.980833 -1.88835,4.449757 -0.39448,0.952053 -0.80293,1.890477 -1.26385,2.812788 -0.25218,0.504616 -0.55573,1.132494 -0.91209,1.583116 -0.16521,0.208907 -0.37066,0.382575 -0.55598,0.573863 -0.20201,0.106831 -0.39003,0.245893 -0.60603,0.320492 -0.53788,0.185775 -1.03824,0.154234 -1.59792,0.123669 -1.32028,-0.0721 -2.63356,-0.261355 -3.93999,-0.454911 -4.7954,-0.925248 1.57243,0.34258 -3.14701,-0.723455 -0.1657,-0.03743 -0.35185,0.01923 -0.50722,-0.04943 -1.08907,-0.481322 -1.92549,-1.402329 -2.69864,-2.26827 -0.26276,-0.364958 -0.54638,-0.71577 -0.78829,-1.094875 -1.27443,-1.997239 -1.8024,-4.118578 -1.64662,-6.480373 0.42401,-2.61148 0.87211,-3.655566 3.22016,-4.997739 2.17876,-1.01134 4.47603,-1.733907 6.82103,-2.252959 2.03862,-0.412257 4.08659,-0.746024 6.16564,-0.875299 2.28346,-0.184135 4.57079,-0.137621 6.86016,-0.129006 0,0 -0.79698,-0.579035 -0.79698,-0.579035 z" />
    <path
       style="fill:#ff00ff;stroke-width:0.264583"
       id="path1604"
       d="m 146.55927,138.08451 c -1.42149,-0.38529 -2.79232,-0.92864 -4.1929,-1.37992 -1.24123,-0.43922 -2.54164,-0.47369 -3.84197,-0.50543 -1.29213,0.1164 -2.7545,-0.31509 -3.99311,0.2091 -0.22317,0.0944 -0.42177,0.23877 -0.63265,0.35816 -1.81683,1.37145 -3.38133,3.07061 -4.9091,4.75279 -1.1664,1.22974 -1.65046,2.7728 -1.92228,4.40363 -0.16979,1.37337 -0.33718,2.39672 0.24094,3.68654 0.72179,1.12984 1.94841,1.72268 3.11015,2.31357 1.33285,0.59979 2.72285,1.04241 4.13784,1.39912 1.17086,0.27862 2.37146,0.34897 3.5699,0.37756 1.34011,10e-4 2.68255,0.0495 4.02048,-0.0375 0.81681,-0.12068 1.66288,-0.0795 2.47275,-0.25248 0.2367,-0.0506 0.97067,-0.29493 1.19919,-0.36898 1.02411,-0.38541 1.98171,-0.97195 2.72866,-1.77445 0.77522,-0.82752 1.21078,-1.84045 1.53838,-2.90875 0.27347,-0.97051 0.41401,-1.76101 -0.10167,-2.65766 -0.60228,-0.75671 -1.36661,-1.35893 -1.9826,-2.10557 -0.76685,-1.07613 -1.57008,-2.11178 -2.52629,-3.0257 -1.10661,-0.95468 -2.39582,-1.69562 -3.72974,-2.28727 -0.47392,-0.21021 -1.18758,-0.33467 -1.68632,-0.44117 -1.55762,-0.26508 -3.1405,-0.2832 -4.7158,-0.30795 0,0 0.7876,0.57417 0.7876,0.57417 v 0 c 1.57237,0.0261 3.15291,0.0482 4.70588,0.32478 0.28743,0.0643 0.57817,0.1153 0.86229,0.19291 0.27487,0.0751 0.53196,0.21669 0.81283,0.2647 0.0515,0.009 -0.12164,-0.15881 -0.0736,-0.13835 0.78638,0.33488 1.47086,0.9248 2.13278,1.44661 0.96236,0.90207 1.76474,1.93286 2.52334,3.01039 0.60116,0.75647 1.35892,1.35808 1.98416,2.09129 0.54754,0.86867 0.41103,1.62342 0.14371,2.58618 -0.32024,1.05537 -0.75144,2.05333 -1.5185,2.86831 -0.74069,0.78703 -1.68561,1.36217 -2.69842,1.7345 -0.28612,0.0916 -0.89178,0.29426 -1.18939,0.35449 -0.80954,0.16383 -1.65148,0.13273 -2.46724,0.24771 -1.33725,0.0781 -2.67828,0.0357 -4.01723,0.0292 -1.19379,-0.0339 -2.38961,-0.10857 -3.55447,-0.39333 -1.41258,-0.36126 -2.80189,-0.80722 -4.12797,-1.41962 -0.15588,-0.0809 -0.29772,-0.2871 -0.46763,-0.2427 -0.15998,0.0418 0.26155,0.24073 0.42642,0.25347 0.15108,0.0117 -0.25793,-0.15979 -0.37979,-0.24987 -0.39534,-0.29223 -0.75562,-0.63207 -1.02183,-1.04807 -0.60767,-1.2742 -0.43777,-2.26688 -0.2737,-3.63729 0.26393,-1.61388 0.73935,-3.13831 1.88833,-4.35874 1.51577,-1.67972 3.07483,-3.37511 4.89994,-4.72072 0.20686,-0.1127 0.40205,-0.25013 0.62058,-0.33809 1.20104,-0.48346 2.71627,-0.0829 3.97187,-0.18864 1.29717,0.0383 2.59235,0.0895 3.82876,0.5305 1.40214,0.45484 2.77779,0.99072 4.19913,1.38588 0,0 -0.78172,-0.60731 -0.78172,-0.60731 z" />
    <path
       style="fill:#280b0b;stroke-width:0.264583"
       id="path1606"
       d="m 138.08795,181.56757 c 0.90602,-3.73417 1.85715,-7.45675 2.83314,-11.17325 0.97187,-3.56689 1.77412,-7.17669 2.22615,-10.84696 0.32703,-2.2258 -0.0341,-4.42838 -0.51244,-6.60003 -0.53174,-1.90202 -0.77466,-3.84345 -0.89972,-5.80815 -0.0137,-0.31165 -0.0273,-0.62331 -0.041,-0.93496 0,0 -0.87103,-0.439 -0.87103,-0.439 v 0 c 0.0138,0.31246 0.0277,0.62491 0.0415,0.93736 0.12486,1.96982 0.35256,3.91797 0.8963,5.82323 0.48247,2.16116 0.84483,4.3552 0.53059,6.57249 -0.43424,3.6713 -1.21926,7.28424 -2.19345,10.84964 -0.97648,3.7108 -1.9283,7.42764 -2.87445,11.14619 0,0 0.86437,0.47344 0.86437,0.47344 z" />
    <text
       xml:space="preserve"
       style="font-size:6.35px;fill:#2b0000;stroke-width:0.264583"
       x="32.510834"
       y="32.172176"
       id="text1800"><tspan
         sodipodi:role="line"
         id="tspan1798"
         style="stroke-width:0.264583"
         x="32.510834"
         y="32.172176">a</tspan></text>
    <text
       xml:space="preserve"
       style="font-size:6.35px;fill:#2b0000;stroke-width:0.264583"
       x="141.21893"
       y="40.299885"
       id="text1804"><tspan
         sodipodi:role="line"
         id="tspan1802"
         style="stroke-width:0.264583"
         x="141.21893"
         y="40.299885">b</tspan></text>
    <text
       xml:space="preserve"
       style="font-size:6.35px;fill:#2b0000;stroke-width:0.264583"
       x="34.204105"
       y="90.759407"
       id="text1808"><tspan
         sodipodi:role="line"
         id="tspan1806"
         style="stroke-width:0.264583"
         x="34.204105"
         y="90.759407">c</tspan></text>
    <text
       xml:space="preserve"
       style="font-size:6.35px;fill:#2b0000;stroke-width:0.264583"
       x="113.44926"
       y="97.871147"
       id="text1812"><tspan
         sodipodi:role="line"
         id="tspan1810"
         style="stroke-width:0.264583"
         x="113.44926"
         y="97.871147">d</tspan></text>
    <text
       xml:space="preserve"
       style="font-size:6.35px;fill:#2b0000;stroke-width:0.264583"
       x="166.61801"
       y="73.149368"
       id="text1816"><tspan
         sodipodi:role="line"
         id="tspan1814"
         style="stroke-width:0.264583"
         x="166.61801"
         y="73.149368">e</tspan></text>
    <text
       xml:space="preserve"
       style="font-size:6.35px;fill:#2b0000;stroke-width:0.264583"
       x="175.08437"
       y="112.4333"
       id="text1820"><tspan
         sodipodi:role="line"
         id="tspan1818"
         style="stroke-width:0.264583"
         x="175.08437"
         y="112.4333">f</tspan></text>
    <text
       xml:space="preserve"
       style="font-size:6.35px;fill:#2b0000;stroke-width:0.264583"
       x="158.82896"
       y="142.23489"
       id="text1824"><tspan
         sodipodi:role="line"
         id="tspan1822"
         style="stroke-width:0.264583"
         x="158.82896"
         y="142.23489">g</tspan></text>
    <text
       xml:space="preserve"
       style="font-size:6.35px;fill:#2b0000;stroke-width:0.264583"
       x="154.76511"
       y="184.90536"
       id="text1828"><tspan
         sodipodi:role="line"
         id="tspan1826"
         style="stroke-width:0.264583"
         x="154.76511"
         y="184.90536">h</tspan></text>
    <text
       xml:space="preserve"
       style="font-size:6.35px;fill:#2b0000;stroke-width:0.264583"
       x="109.72406"
       y="200.82213"
       id="text1832"><tspan
         sodipodi:role="line"
         id="tspan1830"
         style="stroke-width:0.264583"
         x="109.72406"
         y="200.82213">i</tspan></text>
    <text
       xml:space="preserve"
       style="font-size:6.35px;fill:#2b0000;stroke-width:0.264583"
       x="154.76511"
       y="253.99088"
       id="text1836"><tspan
         sodipodi:role="line"
         id="tspan1834"
         style="stroke-width:0.264583"
         x="154.76511"
         y="253.99088">j</tspan></text>
    <text
       xml:space="preserve"
       style="font-size:6.35px;fill:#2b0000;stroke-width:0.264583"
       x="66.714935"
       y="266.85977"
       id="text1840"><tspan
         sodipodi:role="line"
         id="tspan1838"
         style="stroke-width:0.264583"
         x="66.714935"
         y="266.85977">k</tspan></text>
    <text
       xml:space="preserve"
       style="font-size:6.35px;fill:#2b0000;stroke-width:0.264583"
       x="45.379704"
       y="219.78677"
       id="text1844"><tspan
         sodipodi:role="line"
         id="tspan1842"
         style="stroke-width:0.264583"
         x="45.379704"
         y="219.78677">l</tspan></text>
    <text
       xml:space="preserve"
       style="font-size:6.35px;fill:#2b0000;stroke-width:0.264583"
       x="31.494867"
       y="164.58609"
       id="text1848"><tspan
         sodipodi:role="line"
         id="tspan1846"
         style="stroke-width:0.264583"
         x="31.494867"
         y="164.58609">m</tspan></text>
    <text
       xml:space="preserve"
       style="font-size:6.35px;fill:#2b0000;stroke-width:0.264583"
       x="72.133408"
       y="135.46179"
       id="text1852"><tspan
         sodipodi:role="line"
         id="tspan1850"
         style="stroke-width:0.264583"
         x="72.133408"
         y="135.46179">n</tspan></text>
    <path
       style="fill:#ff0000;stroke-width:0.264583"
       id="path1854"
       d="m 170.81928,104.28204 c -1.16668,-0.65961 -2.36425,-1.26226 -3.59287,-1.79744 -0.35687,-0.15545 -1.49516,-0.648 -1.92123,-0.72279 -0.32799,-0.0576 -0.66563,-0.0226 -0.99845,-0.0339 -0.42733,0.0877 -0.86296,0.14189 -1.282,0.26322 -1.16771,0.33809 -2.70627,1.02783 -3.77166,1.49475 -2.14819,0.94149 -4.25619,1.95983 -6.36712,2.98087 -1.61555,0.88544 -3.85816,1.64967 -4.52369,3.59228 -0.1064,0.31056 -0.12094,0.64533 -0.18141,0.968 -0.0321,1.82043 0.48585,3.55358 1.56979,5.01045 1.13188,1.10077 2.58525,1.79124 3.92722,2.60239 1.46232,0.86704 2.88781,1.76807 4.54162,2.20173 1.03823,0.1611 2.1073,0.3533 3.16381,0.31633 0.77498,-0.0271 1.45769,-0.17317 2.22104,-0.30457 2.17189,-0.27662 4.04413,-1.24223 5.79698,-2.4985 1.6264,-1.35072 3.17556,-2.8908 4.13011,-4.8045 0.16243,-0.32564 0.28225,-0.67085 0.42338,-1.00628 0.5545,-1.91528 0.38018,-3.06494 -0.5816,-4.77593 -0.50517,-0.81564 -1.25271,-1.39746 -1.988,-1.98849 0,0 -0.91321,-0.36654 -0.91321,-0.36654 v 0 c 0.73429,0.58599 1.49214,1.1507 2.00664,1.95619 0.97251,1.67883 1.16336,2.79963 0.6287,4.69981 -0.13808,0.33257 -0.25441,0.67504 -0.41426,0.99772 -0.94347,1.90459 -2.48962,3.43225 -4.11097,4.76709 -1.74898,1.24003 -3.6117,2.19177 -5.77128,2.46297 -0.82178,0.13627 -1.38779,0.26125 -2.2157,0.28281 -1.05483,0.0275 -2.12062,-0.15807 -3.15468,-0.33609 -1.09267,-0.30289 -2.01403,-0.79128 -2.99797,-1.34318 -0.0503,-0.0282 0.098,0.061 0.14702,0.0915 -1.33918,-0.80944 -2.77714,-1.50479 -3.93653,-2.56621 -1.10189,-1.42333 -1.62834,-3.13721 -1.61198,-4.94053 0.0565,-0.31328 0.0677,-0.6382 0.16939,-0.93984 0.64722,-1.91901 2.88333,-2.672 4.46515,-3.5578 2.10544,-1.02748 4.20782,-2.04986 6.35863,-2.98062 1.05041,-0.45456 2.62353,-1.14358 3.7828,-1.46339 0.41691,-0.11501 0.85009,-0.15971 1.27514,-0.23956 0.32764,0.0187 0.66059,-0.006 0.98292,0.056 0.31215,0.0597 0.60643,0.19156 0.90343,0.30465 0.54796,0.20864 1.539,0.65647 2.05959,0.90357 0.32617,0.15481 0.63761,0.34141 0.97112,0.47969 0.0516,0.0214 -0.0752,-0.0825 -0.11284,-0.12383 0,0 0.92297,0.358 0.92297,0.358 z" />
    <path
       style="fill:#ff6600;stroke-width:0.264583"
       id="path2054"
       d="m 50.899901,80.77056 c -0.255122,-0.09228 -0.500121,-0.219866 -0.765368,-0.276858 -2.294353,-0.492963 -4.753774,0.450194 -6.899651,1.135431 -2.720718,0.961342 -5.411351,2.019019 -7.991321,3.315139 -1.513605,0.659468 -2.175839,1.471718 -2.910825,2.919857 -0.225745,0.613092 -0.443589,1.04403 -0.442412,1.720982 0.0028,1.609863 1.087009,2.96926 1.976096,4.205671 1.369248,1.845072 3.184456,3.057078 5.253985,4.027376 0.487283,0.22846 1.008367,0.376497 1.512549,0.564746 2.022356,0.606422 4.116099,1.090583 6.243208,1.042635 0.992545,-0.02238 1.481609,-0.167328 2.435781,-0.365379 1.703335,-0.429972 3.276798,-1.198943 4.785879,-2.078093 1.653407,-1.036952 2.947008,-2.495886 4.064063,-4.075697 0.852435,-1.3271 1.149059,-2.840127 1.053798,-4.395007 -0.217318,-1.463167 -1.298577,-2.437858 -2.385671,-3.329062 -1.41346,-1.136761 -2.987405,-2.051888 -4.633499,-2.80634 -0.706761,-0.283813 -0.357992,-0.155905 -1.045213,-0.386704 0,0 0.778327,0.605528 0.778327,0.605528 v 0 c 0.681265,0.235715 0.335312,0.105672 1.036767,0.393031 1.217732,0.564837 1.613067,0.775202 2.957153,1.829895 1.078201,0.868884 2.16807,1.818666 2.414175,3.253674 0.111437,1.534059 -0.180232,3.026841 -1.017093,4.339023 -1.107223,1.571604 -2.393939,3.018251 -4.043481,4.038947 -1.502654,0.867982 -3.066262,1.635744 -4.760453,2.057257 -0.959805,0.194593 -1.418812,0.331224 -2.416759,0.349565 -2.121009,0.03898 -4.207576,-0.44691 -6.220881,-1.063733 -0.503232,-0.192062 -1.006737,-0.383406 -1.509694,-0.576186 -0.149024,-0.05712 -0.308123,-0.09355 -0.446238,-0.173514 -1.255922,-0.72716 -2.278417,-1.732431 -3.168968,-2.867586 -0.878173,-1.206719 -1.982755,-2.554398 -2.001239,-4.133548 -0.0078,-0.663017 0.209561,-1.092391 0.429982,-1.692701 0.726152,-1.428605 1.389311,-2.211078 2.874844,-2.869356 2.568871,-1.301681 5.250812,-2.360811 7.967009,-3.312874 2.149615,-0.679691 4.590893,-1.598224 6.880881,-1.070489 0.266242,0.06135 0.513008,0.188212 0.769511,0.282319 0,0 -0.775242,-0.607949 -0.775242,-0.607949 z" />
    <path
       style="fill:#ff00ff;stroke-width:0.264583"
       id="path2056"
       d="m 51.565915,72.859542 c -2.932721,0.04724 -5.75891,0.897448 -8.556156,1.695328 -2.262206,0.727623 -4.642345,1.205884 -6.721777,2.39317 -2.15487,1.432777 -3.456104,3.741076 -4.785537,5.893278 -1.627283,2.828624 -3.379843,5.582267 -4.982139,8.425299 -0.629379,1.179325 -1.136857,2.419377 -1.517182,3.700637 -0.147418,0.496631 -0.411477,1.493102 -0.430226,2.036064 -0.01034,0.299543 0.05853,0.59658 0.08779,0.894872 0.14727,0.305101 0.239274,0.643725 0.441811,0.915304 0.681678,0.914054 2.062106,2.043436 2.872572,2.738966 1.740202,1.4934 3.51024,2.95309 5.266658,4.42735 1.783406,1.3612 3.41893,3.03265 5.499674,3.96087 0.235027,0.10485 0.502436,0.11171 0.753653,0.16756 2.750508,0.32737 5.383493,-0.46996 7.874323,-1.56076 2.545511,-1.2633 5.131186,-2.43857 7.661851,-3.73247 2.303799,-1.34033 4.474988,-2.93207 6.412915,-4.763 1.352042,-1.25048 2.292189,-2.800666 2.950382,-4.504244 0.82001,-2.377831 0.484712,-4.650211 -0.06531,-7.039795 -0.679156,-2.038215 -1.311249,-4.215085 -2.574465,-5.990913 -0.238339,-0.335055 -0.516263,-0.640109 -0.774393,-0.960162 -1.915988,-2.068602 -4.126738,-3.828682 -6.440701,-5.427588 -1.044472,-0.667793 -2.106311,-1.307545 -3.158797,-1.962425 0,0 -0.912823,-0.353899 -0.912823,-0.353899 v 0 c 1.055063,0.65754 2.120143,1.2988 3.171404,1.962533 2.31712,1.589964 4.527357,3.343717 6.450698,5.401861 0.258683,0.315777 0.536834,0.616561 0.776044,0.947332 1.274926,1.762927 1.913143,3.933788 2.596329,5.966217 0.541647,2.32442 0.888458,4.668094 0.0789,6.981825 -0.651115,1.691174 -1.586058,3.225808 -2.924511,4.469156 -1.928918,1.826332 -4.087926,3.418712 -6.388936,4.745562 -2.530498,1.29098 -5.115538,2.46474 -7.660285,3.72648 -2.484932,1.07897 -5.113118,1.87083 -7.85165,1.49995 -0.246431,-0.0628 -0.485596,-0.17078 -0.739289,-0.18844 -0.08717,-0.006 0.286655,0.19993 0.213691,0.15185 -1.434407,-0.94533 -2.737032,-2.06669 -4.072416,-3.14349 -1.758741,-1.47319 -3.528552,-2.9345 -5.2709,-4.4271 -0.77425,-0.66327 -2.185461,-1.82136 -2.857606,-2.691757 -0.202218,-0.261864 -0.302626,-0.588452 -0.453939,-0.88268 -0.0338,-0.291152 -0.108315,-0.580432 -0.10139,-0.873458 0.01267,-0.536072 0.273851,-1.53602 0.416956,-2.025097 0.373704,-1.277167 0.876148,-2.512885 1.502301,-3.687392 1.594736,-2.846054 3.34668,-5.598192 4.978537,-8.422783 1.322128,-2.139524 2.623458,-4.430614 4.775568,-5.842381 2.075394,-1.168749 4.435668,-1.667589 6.688383,-2.387795 2.799406,-0.796259 5.631627,-1.637999 8.56782,-1.654175 0,0 -0.797833,-0.57966 -0.797833,-0.57966 z" />
    <text
       xml:space="preserve"
       style="font-size:6.35px;fill:#ff00ff;stroke-width:0.264583"
       x="94.14595"
       y="264.82782"
       id="text2060"><tspan
         sodipodi:role="line"
         id="tspan2058"
         style="stroke-width:0.264583"
         x="94.14595"
         y="264.82782">sehen wir eigene Besonderheiten</tspan><tspan
         sodipodi:role="line"
         style="stroke-width:0.264583"
         x="94.14595"
         y="272.76532"
         id="tspan2062" /></text>
    <text
       xml:space="preserve"
       style="font-size:6.35px;fill:#ff00ff;stroke-width:0.264583"
       x="89.066132"
       y="266.18243"
       id="text2066"><tspan
         sodipodi:role="line"
         id="tspan2064"
         style="stroke-width:0.264583"
         x="89.066132"
         y="266.18243">Hier</tspan></text>
  </g>
</svg>
