<?xml version="1.0" encoding="UTF-8" standalone="no"?>
<!-- Created with Inkscape (http://www.inkscape.org/) -->

<svg
   width="210mm"
   height="297mm"
   viewBox="0 0 210 297"
   version="1.1"
   id="svg2260"
   inkscape:version="1.2.2 (732a01da63, 2022-12-09)"
   sodipodi:docname="Zeichnung-1.svg"
   xmlns:inkscape="http://www.inkscape.org/namespaces/inkscape"
   xmlns:sodipodi="http://sodipodi.sourceforge.net/DTD/sodipodi-0.dtd"
   xmlns="http://www.w3.org/2000/svg"
   xmlns:svg="http://www.w3.org/2000/svg">
  <sodipodi:namedview
     id="namedview2262"
     pagecolor="#ffffff"
     bordercolor="#000000"
     borderopacity="0.25"
     inkscape:showpageshadow="2"
     inkscape:pageopacity="0.0"
     inkscape:pagecheckerboard="0"
     inkscape:deskcolor="#d1d1d1"
     inkscape:document-units="mm"
     showgrid="false"
     inkscape:zoom="0.78127806"
     inkscape:cx="396.78575"
     inkscape:cy="561.89982"
     inkscape:window-width="1920"
     inkscape:window-height="1017"
     inkscape:window-x="-8"
     inkscape:window-y="-8"
     inkscape:window-maximized="1"
     inkscape:current-layer="layer1" />
  <defs
     id="defs2257" />
  <g
     inkscape:label="Ebene 1"
     inkscape:groupmode="layer"
     id="layer1">
    <ellipse
       style="fill:#2b0000;stroke-width:0.264583"
       id="path2264"
       cx="177.28563"
       cy="40.977196"
       rx="3.8945267"
       ry="3.7251995" />
    <ellipse
       style="fill:#2b0000;stroke-width:0.264583"
       id="path2266"
       cx="125.97948"
       cy="48.935574"
       rx="4.0638542"
       ry="4.5718355" />
    <circle
       style="fill:#2b0000;stroke-width:0.264583"
       id="path2268"
       cx="182.7041"
       cy="95.331245"
       r="4.5718355" />
    <path
       style="fill:#2b0000;stroke-width:0.264583"
       id="path2270"
       d="m 130.67794,47.527744 c 3.81363,-1.2026 7.61751,-2.439466 11.44125,-3.610819 4.80091,-1.417489 9.63406,-2.719049 14.51133,-3.846219 2.72168,-0.654166 5.48571,-1.036119 8.27848,-1.164616 2.23854,-0.06086 4.5141,0.137297 6.68409,0.704715 1.18274,0.348919 2.31401,0.862129 3.39951,1.443513 0.60816,0.312182 0.30664,0.167058 0.90367,0.437256 0,0 -0.77318,-0.614129 -0.77318,-0.614129 v 0 c -0.59237,-0.274249 -0.2926,-0.127969 -0.89849,-0.440511 -1.08942,-0.572714 -2.21952,-1.084894 -3.4066,-1.41946 -2.17954,-0.544698 -4.45392,-0.746985 -6.69714,-0.678339 -2.78953,0.135078 -5.54771,0.533009 -8.26392,1.196097 -4.8752,1.140722 -9.71065,2.439276 -14.51405,3.852227 -3.83158,1.175933 -7.64141,2.42216 -11.47723,3.583985 0,0 0.81228,0.5563 0.81228,0.5563 z" />
    <path
       style="fill:#2b0000;stroke-width:0.264583"
       id="path2272"
       d="m 176.53236,42.272923 c 2.5955,5.252268 5.94877,10.086194 9.19112,14.951427 1.78192,2.882365 4.02908,5.610868 5.05482,8.895784 0.13759,0.440605 0.21557,0.897651 0.32336,1.346477 0.41774,2.322253 -0.10784,4.279371 -0.861,6.44747 -1.12531,2.884067 -2.68476,5.573718 -4.27472,8.221435 -0.87385,1.476515 -1.81176,2.914478 -2.62341,4.427021 -0.49101,1.159651 -0.6587,2.415882 -0.9073,3.641622 -0.13087,0.698474 -0.0714,0.357219 -0.17968,1.023541 0,0 0.87227,0.46205 0.87227,0.46205 v 0 c 0.10507,-0.664639 0.0471,-0.324088 0.17526,-1.021419 0.24416,-1.217155 0.4115,-2.463345 0.89457,-3.615896 0.80371,-1.51487 1.73496,-2.955251 2.59953,-4.435293 1.58376,-2.658308 3.15247,-5.349663 4.29378,-8.233269 0.77382,-2.215499 1.2888,-4.121333 0.87917,-6.500014 -0.10682,-0.453009 -0.18285,-0.9144 -0.32045,-1.359024 -1.02299,-3.305651 -3.29077,-6.043456 -5.09034,-8.934831 -3.23653,-4.840076 -6.58253,-9.654622 -9.13131,-14.904397 0,0 -0.89567,-0.412684 -0.89567,-0.412684 z" />
    <ellipse
       style="fill:#2b0000;stroke-width:0.264583"
       id="path2274"
       cx="50.967503"
       cy="169.66591"
       rx="3.8945267"
       ry="4.4025083" />
    <ellipse
       style="fill:#2b0000;stroke-width:0.264583"
       id="path2276"
       cx="91.606041"
       cy="220.29475"
       rx="2.5399086"
       ry="2.8785632" />
    <ellipse
       style="fill:#2b0000;stroke-width:0.264583"
       id="path2278"
       cx="108.70809"
       cy="165.77138"
       rx="4.4025083"
       ry="4.233181" />
    <path
       style="fill:#2b0000;stroke-width:0.264583"
       id="path2280"
       d="m 50.136049,168.24557 c 0.23441,0.48525 0.448291,0.98098 0.703233,1.45577 1.357961,2.52901 2.236346,3.88352 3.915606,6.40205 2.337755,3.50614 4.819644,6.90756 7.337806,10.28473 2.984333,4.01908 6.372378,7.71357 9.820928,11.33368 0.371187,0.38602 0.74164,0.77274 1.113555,1.15806 0.872937,0.90439 1.073491,1.0475 1.846691,2.08699 1.437925,1.93313 2.592263,4.0919 3.823372,6.15639 2.2475,3.73354 4.437276,7.50052 6.684168,11.23441 0.84186,1.53382 2.017006,2.79829 3.344916,3.91666 0.190992,0.14155 0.381981,0.28311 0.572973,0.42467 0,0 0.912189,0.36167 0.912189,0.36167 v 0 c -0.192437,-0.13989 -0.384877,-0.27977 -0.577313,-0.41966 -1.333611,-1.10987 -2.521165,-2.36305 -3.37022,-3.89248 -2.26463,-3.73664 -4.476684,-7.50361 -6.723314,-11.25108 -1.222537,-2.05979 -2.361467,-4.21847 -3.782359,-6.15327 -0.794999,-1.08254 -0.94093,-1.16183 -1.846945,-2.09615 -0.374407,-0.3861 -0.747242,-0.77373 -1.120863,-1.16059 -3.462848,-3.62314 -6.864879,-7.32072 -9.86732,-11.34129 -3.969364,-5.29179 -8.104897,-10.80187 -11.2116,-16.64862 -0.247417,-0.46563 -0.457004,-0.9504 -0.685506,-1.4256 0,0 -0.889997,-0.42634 -0.889997,-0.42634 z" />
    <path
       style="fill:#2b0000;stroke-width:0.264583"
       id="path2282"
       d="m 92.82486,220.14024 c 1.777563,-5.00312 3.283558,-10.0973 4.992708,-15.12325 0.937393,-2.98623 2.278042,-5.80672 3.737742,-8.56574 1.72823,-3.27489 3.30043,-6.62761 4.919,-9.95711 1.26098,-2.63913 2.56329,-5.25587 3.69158,-7.95511 0.63716,-1.55812 0.90837,-3.23085 1.13298,-4.88993 0.21225,-1.58357 0.20606,-3.17281 0.0274,-4.75738 -0.0502,-0.65169 -0.2085,-1.27401 -0.41287,-1.89065 0,0 -0.89226,-0.41826 -0.89226,-0.41826 v 0 c 0.21423,0.60975 0.37726,1.22547 0.42744,1.8743 0.18529,1.57689 0.19243,3.15884 -0.0163,4.73578 -0.22005,1.65182 -0.48902,3.31692 -1.11562,4.87038 -1.11927,2.70175 -2.40368,5.32617 -3.66263,7.96506 -1.61713,3.32854 -3.20092,6.67402 -4.93841,9.94235 -1.458803,2.7667 -2.793237,5.59711 -3.718737,8.5939 -1.687083,5.02546 -3.167284,10.12228 -5.026604,15.08909 0,0 0.854546,0.48657 0.854546,0.48657 z" />
  </g>
</svg>
