<?xml version="1.0" encoding="UTF-8" standalone="no"?>
<!-- Created with Inkscape (http://www.inkscape.org/) -->

<svg
   width="210mm"
   height="297mm"
   viewBox="0 0 210 297"
   version="1.1"
   id="svg154"
   inkscape:version="1.2.2 (732a01da63, 2022-12-09)"
   sodipodi:docname="Zeichnung.svg"
   xmlns:inkscape="http://www.inkscape.org/namespaces/inkscape"
   xmlns:sodipodi="http://sodipodi.sourceforge.net/DTD/sodipodi-0.dtd"
   xmlns="http://www.w3.org/2000/svg"
   xmlns:svg="http://www.w3.org/2000/svg">
  <sodipodi:namedview
     id="namedview156"
     pagecolor="#ffffff"
     bordercolor="#000000"
     borderopacity="0.25"
     inkscape:showpageshadow="2"
     inkscape:pageopacity="0.0"
     inkscape:pagecheckerboard="0"
     inkscape:deskcolor="#d1d1d1"
     inkscape:document-units="mm"
     showgrid="false"
     inkscape:zoom="0.74564394"
     inkscape:cx="396.97231"
     inkscape:cy="561.9304"
     inkscape:window-width="1920"
     inkscape:window-height="1017"
     inkscape:window-x="-8"
     inkscape:window-y="-8"
     inkscape:window-maximized="1"
     inkscape:current-layer="layer1" />
  <defs
     id="defs151" />
  <g
     inkscape:label="Ebene 1"
     inkscape:groupmode="layer"
     id="layer1">
    <ellipse
       style="fill:#000000;stroke-width:0.264583"
       id="path210"
       cx="24.838709"
       cy="59.967743"
       rx="3.1935484"
       ry="3.5483871" />
    <ellipse
       style="fill:#000000;stroke-width:0.264583"
       id="path212"
       cx="126.14516"
       cy="69.370964"
       rx="2.6612904"
       ry="3.016129" />
    <ellipse
       style="fill:#000000;stroke-width:0.264583"
       id="path214"
       cx="189.12903"
       cy="116.74194"
       rx="4.6129031"
       ry="4.9677415" />
    <ellipse
       style="fill:#000000;stroke-width:0.264583"
       id="path216"
       cx="72.91935"
       cy="116.3871"
       rx="4.7903223"
       ry="4.9677415" />
    <ellipse
       style="fill:#000000;stroke-width:0.264583"
       id="path218"
       cx="57.30645"
       cy="32.822578"
       rx="4.4354839"
       ry="3.7258065" />
    <ellipse
       style="fill:#000000;stroke-width:0.264583"
       id="path220"
       cx="80.193542"
       cy="65.645157"
       rx="5.3225808"
       ry="3.9032259" />
    <ellipse
       style="fill:#000000;stroke-width:0.264583"
       id="path222"
       cx="109.11291"
       cy="132"
       rx="4.7903223"
       ry="5.6774192" />
    <ellipse
       style="fill:#000000;stroke-width:0.264583"
       id="path224"
       cx="25.370968"
       cy="114.6129"
       rx="4.7903223"
       ry="4.9677415" />
    <path
       style="fill:#000000;stroke-width:0.264583"
       d="m 24.483871,61.741936 c 2.092419,3.053926 1.605728,7.104059 1.419355,10.645161 -0.157261,2.987947 -0.965629,5.921742 -1.419355,8.870965 -0.316081,2.054524 -0.523747,3.98702 -0.709678,6.03226 -0.502252,5.524769 -0.173282,-0.924328 -0.709677,3.903225 -0.09143,0.822894 0.136115,1.66718 0,2.483872 -0.06149,0.368943 -0.236559,0.709676 -0.354839,1.064516 -0.118279,0.473118 -0.28587,0.936578 -0.354839,1.419355 -0.448492,3.139445 0.209029,6.22191 0.709678,9.22581 0.277507,1.66504 -0.467458,0.56518 0.354839,2.48387 0.548207,1.27915 1.774193,2.44973 1.774193,3.54838"
       id="path289" />
    <path
       style="fill:#000000;stroke-width:0.264583"
       d="m 54.64516,33.709676 c 0.47312,0.35484 0.890394,0.800036 1.419354,1.064516 0.669092,0.334547 1.449819,0.396195 2.129034,0.709679 0.768643,0.354759 5.879549,3.458559 6.032259,3.548388 2.163191,1.272466 4.58593,2.456897 6.387094,4.258064 1.071068,1.071065 1.832388,2.416273 2.838712,3.548385 0.444519,0.500086 1.0179,0.884084 1.419355,1.419355 1.008438,1.344586 1.206315,3.098561 1.774192,4.612904 0.615469,1.641253 1.255253,3.438628 2.129034,4.967743 0.956691,1.674212 1.534236,3.18336 2.12903,4.96774 0.09453,0.283583 -0.20016,1.219197 0,1.419357 0.08364,0.08364 0.236559,0 0.354838,0"
       id="path291" />
    <path
       style="fill:#000000;stroke-width:0.264583"
       d="m 73.096773,117.80645 c 6.268817,-3.19355 12.742402,-6.01356 18.80645,-9.58064 4.538232,-2.66955 10.844147,-10.245015 13.838707,-14.903229 0.42907,-0.66743 0.6563,-1.448663 1.06452,-2.129034 2.05595,-3.426581 4.00241,-6.252657 7.09677,-8.870968 2.03445,-1.721451 4.2214,-3.420808 6.3871,-4.967743 2.01853,-1.441807 4.48914,-2.555406 6.03226,-4.612901 0.18476,-0.246349 0.54026,-1.249934 0.70968,-1.419355 0.47311,-0.473117 0.35483,0.591397 0.35483,-0.354838"
       id="path299" />
    <path
       style="fill:#000000;stroke-width:0.264583"
       d="m 81.967741,63.16129 c 13.665618,1.744038 27.406649,2.129031 41.161289,2.129031 3.27373,0 -0.4484,-0.114747 2.83871,0.35484 1.99762,0.285375 2.42569,0.413018 0.70968,2.129031"
       id="path301" />
    <path
       style="fill:#000000;stroke-width:0.264583"
       d="m 189.83871,114.96774 c -6.26979,-2.0203 -11.97468,-5.72519 -17.74194,-8.87097 -7.47782,-4.07881 -15.16115,-7.486714 -22.35484,-12.064513 -0.47311,-0.354838 -0.94623,-0.709676 -1.41935,-1.064517 -0.23656,-0.354838 -0.37667,-0.798105 -0.70968,-1.064517 -0.29207,-0.233656 -0.77244,-0.121181 -1.06451,-0.354838 -0.66603,-0.532818 -0.76412,-1.583002 -1.41936,-2.12903 -0.40636,-0.338635 -1.01774,-0.365435 -1.41935,-0.709679 -0.83879,-0.718957 -1.08377,-1.678368 -1.7742,-2.483871 -0.65315,-0.762016 -1.54568,-1.312341 -2.12903,-2.129031 -1.27152,-1.780122 -2.33265,-3.752003 -3.90323,-5.32258 -1.30644,-1.306441 -2.90416,-2.291197 -4.25806,-3.548388 -1.10319,-1.024387 -2.12903,-2.129033 -3.19355,-3.19355 -0.25196,-0.251957 -0.64664,-1.001477 -0.70967,-1.064514 -0.0836,-0.08364 -0.28923,0.09841 -0.35485,0 -0.20747,-0.311216 -0.13041,-0.765291 -0.35483,-1.064517 -0.15869,-0.211584 -0.49809,-0.196151 -0.70968,-0.354838 -0.91565,-0.686734 -0.44162,-0.796454 -1.06452,-1.419357"
       id="path303" />
    <path
       style="fill:#000000;stroke-width:0.264583"
       d="m 107.87097,130.93548 c 5.70743,0 0.99669,0.0179 13.48387,-0.35484 9.09379,-0.27145 18.69156,0.023 27.67742,-1.77419 2.08316,-0.41663 4.39111,-1.81854 6.38709,-2.48387 4.31913,-1.43971 8.78846,-3.04502 12.7742,-5.32258 0.65757,-0.37576 1.09679,-1.08066 1.77419,-1.41936 0.43619,-0.21809 0.98316,-0.13674 1.41936,-0.35484 0.29922,-0.14961 0.4228,-0.53755 0.70967,-0.70967 2.50081,-1.50049 6.40832,-1.7742 9.22581,-1.7742 0.97935,0 2.23548,0.19162 3.19355,0 0.25934,-0.0519 0.45309,-0.29069 0.70967,-0.35483 1.26897,-0.31725 2.94412,0 4.25807,0"
       id="path305" />
    <path
       style="fill:#000000;stroke-width:0.264583"
       d="m 22,57.483869 c 1.846976,-0.903946 3.162105,-2.535843 4.258064,-4.258064 1.823919,-2.866157 2.527134,-6.544101 4.612902,-9.225806 0.821563,-1.056296 1.892475,-1.892472 2.83871,-2.838709 0.35484,-0.354838 0.638976,-0.798553 1.064516,-1.064517 0.540137,-0.337585 1.217396,-0.400344 1.774196,-0.709676 0.516974,-0.287208 0.90238,-0.777309 1.419354,-1.064517 2.15051,-1.194728 1.214813,-0.32249 3.193548,-1.064516 1.353796,-0.507672 2.496311,-1.372217 3.903225,-1.774193 0.473118,-0.118279 0.946238,-0.236559 1.419355,-0.354838 0.473117,0 0.960363,0.114747 1.419355,0 0.51317,-0.128294 0.906187,-0.581387 1.419354,-0.709679 0.458994,-0.114747 0.949891,0.05868 1.419355,0 1.838791,-0.229848 4.771001,-1.320982 6.387097,-2.129033"
       id="path307" />
    <path
       style="fill:#000000;stroke-width:0.264583"
       d="m 25.548387,58.548386 c 1.938651,2.611244 4.450828,4.805669 6.741934,7.096775 6.25461,6.254608 1.08317,0.748623 7.806452,9.225807 3.29034,4.148688 7.282391,8.131278 9.935485,12.774192 0.965253,1.689195 1.306195,3.574052 2.129031,5.32258 3.040681,6.461448 6.619118,12.81905 11.000001,18.45161 1.036222,1.33229 4.540417,7.45162 6.387097,7.45162"
       id="path309" />
    <path
       style="fill:#000000;stroke-width:0.264583"
       d="m 23.774193,58.548386 c 2.289609,1.312582 4.990182,1.102894 7.451614,1.774195 0.614511,0.167592 1.149607,0.584758 1.774193,0.709676 0.579913,0.115983 1.184838,-0.04911 1.774192,0 0.682967,0.05691 3.820774,0.561152 4.612905,0.709679 4.19813,0.787148 8.255,1.736381 12.419354,2.838709 1.446318,0.382849 2.782289,1.173393 4.258063,1.419354 2.10955,0.351592 4.629706,0 6.741936,0 4.967742,0 9.935485,0 14.903227,0"
       id="path311" />
    <path
       style="fill:#000000;stroke-width:0.264583"
       d="m 28.032257,113.19355 c 9.01486,0.63586 17.581621,4.21513 26.612903,4.96774 5.356685,0.44639 10.936364,0 16.322582,0"
       id="path313" />
    <path
       style="fill:#ff00ff;stroke-width:0.264583"
       d="m 72.741935,115.32258 c 1.132115,1.00632 2.416272,1.83239 3.548387,2.83871 2.061131,1.83212 4.292743,3.63182 6.741936,4.96774 2.224333,1.21327 5.185137,2.23054 7.096773,3.90323 0.281487,0.2463 0.121182,0.77244 0.354838,1.06451 0.584462,0.73058 1.735386,0.92037 2.483871,1.41936 0.545907,0.36393 0.87345,1.05542 1.419355,1.41935 0.756888,0.50459 1.399738,0.87239 2.129033,1.41936 0.299225,0.22442 0.800034,0.0904 1.064517,0.35483 0.08363,0.0836 -0.08364,0.27121 0,0.35485 0.344839,0.34483 0.983159,0.13674 1.419354,0.35483 0.149614,0.0748 0.192561,0.31427 0.354838,0.35484 0.344244,0.0861 0.720273,-0.0861 1.064513,0 0.16228,0.0406 0.20523,0.28003 0.35484,0.35484 0.77006,0.38503 7.46157,0 8.87097,0"
       id="path315" />
    <path
       style="fill:#ff00ff;stroke-width:0.264583"
       id="path417"
       d="m 23.615341,53.246205 c -1.213843,-0.351989 -2.378496,-0.979139 -3.672667,-0.987727 -0.949196,-0.0063 -1.163423,0.1675 -2.060327,0.494932 -0.400397,0.228513 -0.818697,0.428175 -1.201192,0.685533 -2.699487,1.816322 -4.942642,4.300683 -7.1581726,6.65262 -1.0254503,1.102606 -2.0710178,2.192943 -2.9947822,3.384695 -0.3422282,0.44151 -0.7584215,0.938932 -0.8604038,1.518933 -0.040045,0.227748 0.027113,0.461688 0.040669,0.692529 0.1152586,0.206488 0.1962039,0.4363 0.345776,0.619466 0.1677982,0.205489 0.3670922,0.391882 0.5932831,0.530513 1.3636675,0.835787 2.7565689,1.624341 4.1635605,2.384933 0.303459,0.164045 0.639035,0.260133 0.960572,0.38508 0.855787,0.332555 1.14773,0.429133 2.01644,0.73792 1.866155,0.620268 3.693587,1.354971 5.557829,1.979936 1.657342,0.649081 3.364666,1.089988 5.122384,1.349787 1.845668,0.264523 3.679861,0.19058 5.518517,-0.0569 2.000237,-0.387805 3.37226,-1.870212 4.573204,-3.406666 1.195429,-1.499794 1.746482,-3.351803 2.232059,-5.175197 0.222962,-1.295959 0.785021,-2.728643 0.643014,-4.063037 -0.02735,-0.257003 -0.09956,-0.50723 -0.149333,-0.760844 -0.58673,-1.671727 -1.664991,-3.195206 -2.927961,-4.433922 -0.300781,-0.295002 -0.636889,-0.551682 -0.955334,-0.827526 -2.301518,-1.651678 -4.774385,-3.214008 -7.503558,-4.042593 -0.524448,-0.159224 -1.345636,-0.339434 -1.882214,-0.463267 -0.906851,-0.225576 -1.81962,-0.388985 -2.746211,-0.500623 0,0 3.137627,2.342964 3.137627,2.342964 v 0 c 0.913554,0.130742 1.817965,0.298847 2.713465,0.525791 0.967351,0.23532 1.917967,0.473813 2.840522,0.857327 0.657317,0.273254 4.007612,1.949828 -1.155417,-0.845743 -0.354626,-0.192017 0.668774,0.450834 1.00316,0.676251 0.324842,0.259701 0.669276,0.496633 0.974526,0.779105 1.260174,1.16614 2.299386,2.651181 2.965614,4.227198 0.05805,0.230552 0.136345,0.456935 0.174152,0.691657 0.202522,1.257319 -0.353711,2.747635 -0.557507,3.977516 -0.476662,1.771888 -1.002363,3.572523 -2.160248,5.035479 -1.157656,1.478444 -2.467806,2.851949 -4.415711,3.146903 -1.817421,0.230667 -3.635948,0.250844 -5.452562,-0.03329 C 19.600202,71.037896 17.917328,70.552833 16.268647,69.930329 14.416415,69.278602 12.5783,68.587976 10.720776,67.950992 10.027667,67.698561 9.394396,67.476785 8.713291,67.193797 8.3943536,67.061283 7.4822909,66.577574 7.7654517,66.775313 8.5705399,67.337529 9.4391868,67.803201 10.289431,68.294463 10.50732,68.420355 9.856962,68.033275 9.6637061,67.872104 9.506315,67.740841 9.383987,67.572498 9.2441275,67.422693 9.1962554,67.248555 9.0885861,67.080484 9.1005111,66.900279 c 0.033888,-0.512088 0.4863531,-1.068232 0.7568266,-1.43415 0.8877893,-1.201077 1.9035643,-2.300341 2.9120813,-3.398896 2.184849,-2.32859 4.412148,-4.810787 7.146907,-6.515724 0.377537,-0.235371 0.790299,-0.408853 1.185449,-0.613278 0.337121,-0.100428 0.664775,-0.241171 1.011363,-0.301281 1.604071,-0.278194 3.14138,0.558728 4.604288,1.067607 0,0 -3.102085,-2.458352 -3.102085,-2.458352 z" />
    <path
       style="fill:#ff00ff;stroke-width:0.264583"
       id="path419"
       d="m 27.099543,103.57342 c -2.119772,0.16437 -4.2374,0.33363 -6.339418,0.65939 -1.991274,0.35056 -3.691728,1.28592 -4.621049,3.14469 -0.181643,0.36331 -0.299325,0.75522 -0.448988,1.13283 -0.707783,2.29146 -0.558112,4.69969 -0.289646,7.04891 0.18728,1.39117 0.438216,2.78631 0.895346,4.11634 0.408397,0.99478 1.154148,1.80212 2.079459,2.34633 1.317954,0.77513 2.649462,1.52698 3.974194,2.29047 1.849677,0.88458 3.739364,1.674 5.703692,2.26485 2.281647,0.62086 3.145229,0.007 4.758684,-1.53831 1.584529,-1.74668 2.770127,-3.80131 3.843097,-5.88842 0.956061,-1.98704 1.489856,-4.11503 1.80617,-6.28619 0.178049,-2.36439 -1.10146,-3.51705 -2.708531,-5.02074 -1.52042,-1.48151 -3.289737,-2.64327 -5.078161,-3.76715 0,0 -3.625247,-1.40572 -3.625247,-1.40572 v 0 c 1.793518,1.10952 3.595669,2.22329 5.115949,3.70391 0.974929,0.88553 2.175544,1.81505 2.655961,3.09828 0.212022,0.56632 0.170741,0.97921 0.18396,1.57011 -0.280551,2.1369 -0.781585,4.22955 -1.720514,6.18303 -1.056357,2.04577 -2.205437,4.07412 -3.787312,5.76622 -1.649267,1.50268 -2.319732,1.82015 -4.53364,1.19551 -1.953146,-0.62071 -3.848279,-1.40584 -5.670864,-2.345 0.917382,0.53439 1.835083,1.06823 2.752147,1.60316 0.182604,0.10652 -0.37198,-0.20199 -0.548768,-0.3179 -0.682575,-0.44754 -1.274021,-1.04264 -1.624747,-1.78463 -0.497696,-1.30151 -0.770349,-2.68186 -0.97528,-4.05687 -0.304339,-2.28691 -0.487784,-4.64386 0.183783,-6.8855 0.139739,-0.35652 0.248321,-0.72688 0.419216,-1.06956 0.883525,-1.77165 2.554597,-2.55743 4.434439,-2.86516 2.121186,-0.31367 4.256905,-0.47146 6.396524,-0.6 0,0 -3.230456,-2.29288 -3.230456,-2.29288 z" />
    <path
       style="fill:#ff00ff;stroke-width:0.264583"
       id="path421"
       d="m 62.128865,24.332191 c -1.886868,-0.230562 -3.778957,-0.420268 -5.675373,-0.551199 -1.449785,-0.09795 -2.903649,-0.100865 -4.356021,-0.09729 -2.084128,0.08844 -4.16827,0.383837 -6.176595,0.951261 -1.757098,0.536444 -2.785073,1.40038 -3.8678,2.853563 -1.418006,2.118207 -2.121308,4.581869 -2.678682,7.040684 -0.254415,1.515502 -0.644633,3.073747 -0.324641,4.614056 0.188802,0.90882 0.392131,1.184666 0.802582,2.018628 1.676283,2.701493 4.3835,4.477276 7.437305,5.432933 2.531764,0.654396 5.179819,0.509788 7.770545,0.472979 2.290892,0.05398 4.541369,-0.1491 6.767518,-0.680418 1.819828,-0.470024 3.548753,-1.177629 5.208741,-2.048862 1.844138,-1.31373 2.358967,-2.898807 2.465509,-5.067564 -0.03064,-1.323891 -0.714941,-2.36955 -1.415391,-3.43431 -0.513466,-0.717918 -0.924012,-1.478288 -1.241412,-2.299031 -0.410297,-0.886119 -0.694888,-1.822067 -1.086363,-2.715668 -0.99046,-1.584235 -2.512187,-1.930447 -4.357394,-2.950977 -0.258837,-0.143155 -1.078751,-0.31877 -1.408538,-0.435837 -0.15543,-0.06982 -0.313796,-0.133446 -0.466286,-0.209471 -0.178732,-0.08911 -0.699979,-0.38486 -0.52669,-0.285586 0.923218,0.528905 1.833782,1.081416 2.776598,1.574541 0.219083,0.114588 -0.405143,-0.28389 -0.599985,-0.436097 -0.193876,-0.15145 -0.376976,-0.316214 -0.565462,-0.474321 0,0 -3.637696,-1.475753 -3.637696,-1.475753 v 0 c 1.79796,1.59816 3.89931,2.843733 6.135847,3.731476 0.320619,0.105344 0.646324,0.196141 0.962273,0.314751 0.13916,0.05224 0.535498,0.255591 0.409231,0.17716 -5.468612,-3.396776 -3.21828,-2.188649 -2.316228,-1.166553 0.436861,0.866312 0.669208,1.814592 1.08654,2.687534 0.33496,0.83779 0.663655,1.658824 1.221319,2.384293 0.687795,0.999643 1.416236,1.976392 1.543167,3.223122 -0.03115,2.06043 -0.448427,3.511743 -2.249966,4.713867 -1.638872,0.846844 -3.3508,1.524942 -5.144194,1.973763 -2.199383,0.497038 -4.42523,0.667139 -6.680536,0.640402 -2.587273,0.03754 -5.239522,0.14251 -7.743462,-0.621572 -1.575779,-0.600353 -1.419299,-0.590994 1.869297,1.2905 0.24434,0.139795 -0.476403,-0.302077 -0.696547,-0.477525 -0.783627,-0.624528 -1.420072,-1.408959 -1.971675,-2.239235 -0.407564,-0.749686 -0.643308,-1.066509 -0.851863,-1.892954 -0.37714,-1.494499 -0.0117,-3.028976 0.229243,-4.509741 0.532135,-2.407972 1.225425,-4.816908 2.639676,-6.872628 1.053605,-1.379667 2.050439,-2.141567 3.732498,-2.636608 1.990598,-0.543416 4.051369,-0.840323 6.116079,-0.862452 1.447795,0.01368 2.896585,0.02163 4.341845,0.118835 1.90501,0.132974 3.805271,0.320844 5.698193,0.574805 0,0 -3.175206,-2.3475 -3.175206,-2.3475 z" />
    <path
       style="fill:#ff00ff;stroke-width:0.264583"
       id="path423"
       d="m 84.267476,56.20019 c -1.972022,-0.240435 -3.938284,-0.52257 -5.915219,-0.721931 -1.590566,-0.134078 -3.187784,-0.255556 -4.78329,-0.162724 -1.773566,0.171481 -3.401217,0.917535 -4.997183,1.659273 -1.717445,0.759148 -3.346196,1.69032 -4.970711,2.6275 -1.239367,0.679061 -2.270038,1.553163 -3.051069,2.728638 -0.67818,1.211762 -0.813221,2.587178 -0.898867,3.945749 -0.03815,1.094365 0.243533,2.12489 0.768226,3.074991 1.390309,1.750594 3.540022,2.788467 5.637921,3.491886 0.795155,0.375282 1.673638,0.474525 2.46973,0.838247 1.089369,0.392499 2.245206,0.466331 3.390958,0.524693 1.631746,0.108408 3.256788,-0.0051 4.883417,-0.124002 1.247185,-0.03581 2.477561,-0.191442 3.712874,-0.34978 1.309031,-0.197403 2.526824,-0.692901 3.706447,-1.276905 0.983782,-0.4382 1.880712,-1.032283 2.775834,-1.622753 0.734214,-0.498438 1.393846,-1.094523 1.990405,-1.748907 0.861901,-1.101058 1.280887,-2.434415 1.562267,-3.783375 0.194614,-1.319797 0.372856,-2.664515 0.116006,-3.983839 -0.142354,-0.624438 -0.455432,-1.175718 -0.787477,-1.714484 0,0 -3.625638,-1.589915 -3.625638,-1.589915 v 0 c 0.346223,0.497493 0.686919,1.011237 0.860973,1.597892 0.358042,1.248199 0.12374,2.567768 -0.02822,3.83684 -0.252621,1.280467 -0.633724,2.553853 -1.467755,3.586511 -0.596812,0.61686 -1.239361,1.189273 -1.956136,1.665208 -0.868457,0.594009 -1.761429,1.153518 -2.719887,1.593824 -1.161412,0.554757 -2.363348,0.999675 -3.647869,1.162936 -1.222475,0.162357 -2.446398,0.281152 -3.678404,0.346835 -1.61984,0.117948 -3.240238,0.198196 -4.863377,0.0732 -1.134843,-0.08295 -2.27575,-0.194704 -3.335531,-0.642498 -0.818446,-0.291084 -1.675641,-0.466389 -2.472592,-0.822802 -1.348433,-0.531873 -3.220966,-1.739728 2.121141,1.382364 0.443042,0.258926 -1.425041,-0.915972 -1.031349,-0.839018 -0.563171,-0.867727 -0.886923,-1.825397 -0.887023,-2.871163 0.06614,-1.29014 0.165126,-2.606143 0.797843,-3.762938 0.752218,-1.123487 1.769581,-1.925572 2.948461,-2.581574 1.6052,-0.941711 3.219431,-1.867985 4.93041,-2.607805 1.576985,-0.707028 3.180029,-1.419953 4.931378,-1.522317 1.578522,-0.04887 3.15723,0.0547 4.72939,0.194283 1.985568,0.205301 3.969506,0.457023 5.93657,0.795441 0,0 -3.152653,-2.397583 -3.152653,-2.397583 z" />
    <path
       style="fill:#ff00ff;stroke-width:0.264583"
       id="path425"
       d="m 70.592425,104.50389 c -1.344623,0.68978 -2.779643,1.18227 -4.123467,1.87382 -0.913734,0.47022 -1.127652,0.64002 -1.976922,1.19385 -1.83801,1.48653 -3.079594,3.47356 -4.1284,5.55736 -0.884052,1.73637 -1.460481,3.60122 -1.625552,5.54134 -0.05513,1.78665 0.571071,3.43333 1.370507,4.99654 1.342652,2.15532 3.648898,3.50191 6.039525,4.31719 1.233696,0.22996 2.505821,0.26897 3.755289,0.17457 1.195107,-0.19878 2.363251,-0.52876 3.463253,-1.0359 1.364128,-0.60983 2.323185,-1.73766 3.259876,-2.86083 0.81579,-1.02982 1.753063,-1.95001 2.561431,-2.98628 0.701672,-0.81695 1.405596,-1.62431 2.050029,-2.48768 0.481547,-0.73517 0.931272,-1.49489 1.292553,-2.29718 0.529854,-1.63666 0.276836,-3.38878 -0.09131,-5.02976 -0.528751,-2.17173 -1.554776,-3.91746 -2.936329,-5.64269 -1.869554,-2.19193 -4.356294,-3.32289 -6.847716,-4.73308 -0.798457,-0.34386 -1.656413,-0.41012 -2.513526,-0.43136 -0.772882,-0.0375 -1.522137,0.0462 -2.158994,0.5049 -0.592119,0.44881 -1.134817,0.98046 -1.540349,1.60489 0,0 3.425468,2.00204 3.425468,2.00204 v 0 c 0.376616,-0.57787 0.887058,-1.06672 1.448657,-1.46427 0.621951,-0.34015 1.327557,-0.34008 2.021991,-0.30511 0.828873,0.047 1.64615,0.16875 2.39532,0.55269 -5.978093,-3.51699 -1.03814,-0.80926 0.183229,0.74247 1.435828,1.70836 2.434998,3.29251 3.008175,5.48104 0.389607,1.55108 0.649597,3.21316 0.157004,4.77422 -0.345559,0.77648 -0.780232,1.51333 -1.238276,2.22757 -0.644187,0.85952 -1.352074,1.66125 -2.043182,2.4828 -0.802753,1.03238 -1.728583,1.95768 -2.537335,2.98536 -0.902867,1.08239 -1.846035,2.14159 -3.173807,2.70035 -1.082556,0.45007 -2.215473,0.78396 -3.382976,0.92183 -1.223928,0.0512 -2.48513,0.038 -3.666161,-0.31978 -1.438281,-0.6349 -0.798063,-0.37289 2.456449,1.51409 0.164928,0.0956 -0.331057,-0.19143 -0.481943,-0.30796 -0.525034,-0.40549 -0.957586,-0.93395 -1.329772,-1.47683 -0.823709,-1.48924 -1.479765,-3.0669 -1.469475,-4.79987 0.114588,-1.89787 0.66961,-3.7241 1.524201,-5.42207 1.014865,-2.02373 2.214308,-3.96436 4.024035,-5.37979 1.918268,-1.2369 3.99737,-2.12193 6.108842,-2.97762 0,0 -3.280341,-2.19086 -3.280342,-2.19086 z" />
    <path
       style="fill:#ff00ff;stroke-width:0.264583"
       id="path427"
       d="m 131.01523,65.057183 c -1.0629,-0.839681 -2.02402,-1.800391 -3.08925,-2.63661 -1.37559,-1.100325 -2.74167,-1.765794 -4.45053,-2.639166 -0.40179,-0.205351 -1.84482,-0.155426 -2.2423,-0.151341 -2.39171,0.09897 -4.70138,0.782621 -6.87944,1.740059 -1.25475,0.685577 -2.56999,1.406355 -3.58273,2.440283 -0.62345,0.636482 -0.74381,0.949831 -1.19538,1.716442 -1.07201,2.288503 -1.1798,4.789554 -0.98656,7.265038 0.15584,1.873771 0.53565,3.713432 1.46158,5.361355 1.53505,1.998229 4.01285,3.006889 6.33115,3.86996 1.74522,0.613627 3.60318,0.621855 5.42027,0.425132 2.31843,-0.346797 4.49026,-1.272764 6.64922,-2.143675 1.76728,-0.784135 3.56763,-1.229177 5.13336,-2.399472 1.43196,-1.17739 1.64575,-2.872213 1.81507,-4.608811 0.12139,-2.259338 0.21325,-4.526844 3e-5,-6.782282 -0.2442,-1.705173 -0.59721,-3.430119 -1.52753,-4.901935 -1.31363,-1.399466 -3.13438,-2.514425 -5.05188,-2.792227 0,0 3.15215,2.382946 3.15215,2.382946 v 0 c 1.60067,0.388659 0.40243,0.146063 -2.49051,-1.660221 -0.26055,-0.162679 1.1591,0.527304 0.77546,0.497798 1.05307,1.357341 1.38387,3.075265 1.64933,4.739407 0.25526,2.230059 0.16895,4.477726 0.0412,6.715106 -0.15935,1.620449 -0.31986,3.223567 -1.67904,4.30816 -1.5235,1.095606 -3.3441,1.576555 -5.03977,2.343507 -2.13768,0.85443 -4.29418,1.757334 -6.59738,2.042584 -1.80879,0.137144 -3.63299,0.08335 -5.34395,-0.590095 -1.49487,-0.578083 -3.36164,-1.70012 1.60225,1.192554 0.15333,0.08935 -0.29987,-0.190588 -0.44152,-0.297493 -0.37278,-0.281339 -0.47202,-0.411334 -0.80192,-0.751792 -1.04069,-1.547796 -1.39625,-3.3884 -1.58762,-5.219811 -0.22563,-2.398072 -0.15206,-4.820968 0.88814,-7.044192 0.43043,-0.72267 0.53905,-1.008777 1.13171,-1.604929 0.99451,-1.000392 2.27434,-1.699744 3.5074,-2.35068 2.15657,-0.917194 4.43858,-1.575487 6.80015,-1.593971 0.70083,0.02988 1.01096,0.0061 1.65813,0.149463 0.18087,0.04006 0.6867,0.262977 0.53182,0.161343 -5.35508,-3.51396 -3.40751,-2.108134 -2.31853,-1.275697 1.10637,0.775719 2.05434,1.754931 3.0801,2.630848 0,0 3.67732,1.462415 3.67732,1.462415 z" />
  </g>
</svg>
