<?xml version="1.0" encoding="UTF-8" standalone="no"?>
<!-- Created with Inkscape (http://www.inkscape.org/) -->

<svg
   width="210mm"
   height="297mm"
   viewBox="0 0 210 297"
   version="1.1"
   id="svg411"
   inkscape:version="1.2.2 (732a01da63, 2022-12-09)"
   sodipodi:docname="beispielstandard.svg"
   xmlns:inkscape="http://www.inkscape.org/namespaces/inkscape"
   xmlns:sodipodi="http://sodipodi.sourceforge.net/DTD/sodipodi-0.dtd"
   xmlns="http://www.w3.org/2000/svg"
   xmlns:svg="http://www.w3.org/2000/svg">
  <sodipodi:namedview
     id="namedview413"
     pagecolor="#ffffff"
     bordercolor="#000000"
     borderopacity="0.25"
     inkscape:showpageshadow="2"
     inkscape:pageopacity="0.0"
     inkscape:pagecheckerboard="0"
     inkscape:deskcolor="#d1d1d1"
     inkscape:document-units="mm"
     showgrid="false"
     inkscape:zoom="0.74564394"
     inkscape:cx="396.97231"
     inkscape:cy="561.9304"
     inkscape:window-width="1680"
     inkscape:window-height="987"
     inkscape:window-x="1912"
     inkscape:window-y="-8"
     inkscape:window-maximized="1"
     inkscape:current-layer="layer1" />
  <defs
     id="defs408" />
  <g
     inkscape:label="Ebene 1"
     inkscape:groupmode="layer"
     id="layer1">
    <ellipse
       style="fill:#2b0000;stroke-width:0.264583"
       id="path415"
       cx="20.048386"
       cy="147.25806"
       rx="5.5"
       ry="5.6774192" />
    <ellipse
       style="fill:#2b0000;stroke-width:0.264583"
       id="path417"
       cx="25.016129"
       cy="70.612907"
       rx="5.1451616"
       ry="5.3225808" />
    <ellipse
       style="fill:#2b0000;stroke-width:0.264583"
       id="path419"
       cx="124.54839"
       cy="33.354839"
       rx="4.6129031"
       ry="4.9677415" />
    <ellipse
       style="fill:#2b0000;stroke-width:0.264583"
       id="path421"
       cx="185.93549"
       cy="31.403223"
       rx="4.2580643"
       ry="4.7903223" />
    <ellipse
       style="fill:#2b0000;stroke-width:0.264583"
       id="path423"
       cx="133.95161"
       cy="109.29032"
       rx="5.5"
       ry="4.9677415" />
    <path
       style="fill:#2b0000;stroke-width:0.264583"
       id="path425"
       d="m 24.046019,66.37113 c 0.03812,2.356848 -0.04774,4.715902 0.10701,7.070249 0.136993,2.084258 0.337414,3.517755 0.586301,5.593821 0.692967,4.637706 1.617426,9.232566 2.154729,13.892874 0.408586,3.107997 0.261594,6.225701 -0.04073,9.332596 -0.449743,3.04088 -1.061241,6.05641 -1.692767,9.06413 -0.670774,3.11615 -1.27778,6.24948 -1.782705,9.39702 -0.462388,3.45488 -0.837465,6.92242 -1.127318,10.39602 -0.239277,3.26255 -0.285185,6.53504 -0.319983,9.8049 0.01291,1.17925 -0.03946,2.35995 -0.016,3.53915 0.0052,0.26028 -0.144977,0.59554 0.0387,0.78003 1.191964,1.19725 1.596597,0.70431 2.876939,0.28999 0.754272,-0.36337 1.515545,-0.71255 2.262816,-1.09011 4.002328,-2.02219 7.939812,-4.1771 11.909782,-6.26121 5.338582,-2.80259 4.650983,-2.42539 10.107242,-5.15942 8.966038,-4.3303 18.042807,-8.42172 27.006285,-12.75729 4.872373,-2.4006 9.677611,-4.94571 14.734277,-6.94252 3.382746,-1.37242 6.980809,-1.95115 10.562873,-2.52026 3.25581,-0.53586 6.535,-0.90689 9.8268,-1.12335 2.37921,-0.12497 4.76287,-0.11648 7.1446,-0.11594 1.72688,-0.058 3.44533,0.10409 5.16508,0.2302 1.28859,0.11106 2.58089,0.1275 3.87324,0.13522 1.09358,-0.0508 0.58064,0.003 1.54068,-0.14169 0,0 -0.80158,-0.56459 -0.80158,-0.56459 v 0 c -0.94882,0.13782 -0.44041,0.087 -1.52707,0.13281 -1.29204,-0.0131 -2.58408,-0.0372 -3.8726,-0.14257 -1.71805,-0.12421 -3.43497,-0.28005 -5.15993,-0.21762 -2.38258,0.002 -4.76734,-0.008 -7.14716,0.1221 -3.28765,0.22897 -6.56181,0.61202 -9.81497,1.14228 -3.587029,0.57038 -7.19072,1.15149 -10.57396,2.53788 -5.040879,2.01228 -9.827556,4.57362 -14.685602,6.98299 -8.945563,4.35465 -18.010841,8.45196 -26.967114,12.78436 -5.658387,2.83048 -4.582951,2.26152 -10.120725,5.15275 -3.984321,2.08018 -7.940897,4.22827 -11.973756,6.21449 -0.752196,0.37046 -1.52033,0.70765 -2.280495,1.06147 -0.460574,0.13038 -0.96556,0.15464 -1.381724,0.39115 -0.09929,0.0564 0.141339,0.40852 0.169419,0.29781 0.06391,-0.25197 -0.04045,-0.51854 -0.04752,-0.7784 -0.03208,-1.18047 0.02307,-2.36319 0.0051,-3.54376 0.02615,-3.26895 0.07051,-6.54045 0.31023,-9.80203 0.287216,-3.47171 0.660041,-6.93723 1.123289,-10.38991 0.506887,-3.14503 1.114916,-6.27605 1.786709,-9.38975 0.632495,-3.01097 1.237618,-6.0311 1.696951,-9.07379 0.304643,-3.114169 0.456274,-6.239313 0.04234,-9.354557 -0.548595,-4.665012 -1.486211,-9.263012 -2.181433,-13.906445 -0.255868,-2.131859 -0.444342,-3.441636 -0.577776,-5.580922 -0.146309,-2.345714 -0.05572,-4.696158 -0.06277,-7.043962 0,0 -0.875703,-0.446194 -0.875703,-0.446194 z" />
    <path
       style="fill:#2b0000;stroke-width:0.264583"
       id="path427"
       d="m 26.260568,73.196804 c 7.786933,-4.291121 16.058051,-7.607234 24.320756,-10.848562 12.215074,-4.856703 24.699838,-8.970204 37.240127,-12.891228 7.231015,-2.235184 14.522039,-4.282001 21.705349,-6.6705 3.64045,-1.210477 4.34612,-1.509731 7.80521,-2.806698 3.51484,-1.326546 6.83382,-3.07608 10.0476,-5.005615 0,0 -0.806,-0.521152 -0.806,-0.521152 v 0 c -3.18907,1.938454 -6.48286,3.700005 -9.97898,5.030613 -3.39954,1.287261 -4.19879,1.624478 -7.77256,2.823625 -7.17154,2.406346 -14.457687,4.450586 -21.682939,6.684955 -12.534736,3.931327 -25.009052,8.065092 -37.22715,12.906787 -8.308536,3.230915 -16.595762,6.575737 -24.481548,10.758154 0,0 0.830135,0.539621 0.830135,0.539621 z" />
    <path
       style="fill:#2b0000;stroke-width:0.264583"
       id="path429"
       d="m 130.64974,33.337481 c 5.66776,0.209013 11.34454,-0.05359 17.01258,-0.185682 5.49092,-0.170198 10.985,-0.155355 16.47681,-0.26729 2.97833,-0.0053 5.95947,-0.313806 8.93629,-0.09561 1.68993,0.12387 2.50946,0.286795 4.16566,0.547272 0.59975,0.107797 1.19949,0.215591 1.79924,0.323387 0,0 -0.75638,-0.570208 -0.75638,-0.570208 v 0 c -0.59848,-0.105985 -1.19697,-0.211969 -1.79545,-0.317953 -1.66032,-0.2564 -2.47535,-0.416033 -4.16966,-0.536675 -2.97406,-0.211762 -5.95104,0.0985 -8.92622,0.109738 -5.48686,0.112533 -10.97624,0.08781 -16.46174,0.278614 -5.68745,0.143214 -11.38928,0.411512 -17.07467,0.124333 0,0 0.79354,0.590074 0.79354,0.590074 z" />
    <path
       style="fill:#2b0000;stroke-width:0.264583"
       id="path431"
       d="m 182.68829,35.03522 c -3.58659,4.451027 -7.7345,8.385733 -11.83666,12.348384 -3.65027,3.574984 -7.2904,7.16521 -10.56456,11.094805 -2.52397,3.029225 -2.82212,3.559323 -5.14386,6.771708 -5.53537,8.731314 -10.48799,17.82404 -14.96098,27.140736 -2.57734,5.417558 -4.62169,11.068007 -6.53687,16.746997 0,0 0.80768,0.44487 0.80768,0.44487 v 0 c 1.88016,-5.69023 3.91673,-11.341509 6.48616,-16.762588 4.44811,-9.32265 9.36707,-18.432846 14.95797,-27.124343 2.31101,-3.192914 2.631,-3.751947 5.14344,-6.762752 3.27701,-3.927033 6.92802,-7.504766 10.58261,-11.074733 4.11367,-3.969195 8.24373,-7.930804 11.91259,-12.326461 0,0 -0.84752,-0.496623 -0.84752,-0.496623 z" />
  </g>
</svg>
