<?xml version="1.0" encoding="UTF-8" standalone="no"?>
<!-- Created with Inkscape (http://www.inkscape.org/) -->

<svg
   width="210mm"
   height="297mm"
   viewBox="0 0 210 297"
   version="1.1"
   id="svg122"
   inkscape:version="1.2.2 (732a01da63, 2022-12-09)"
   sodipodi:docname="beispielperfekt.svg"
   xmlns:inkscape="http://www.inkscape.org/namespaces/inkscape"
   xmlns:sodipodi="http://sodipodi.sourceforge.net/DTD/sodipodi-0.dtd"
   xmlns="http://www.w3.org/2000/svg"
   xmlns:svg="http://www.w3.org/2000/svg">
  <sodipodi:namedview
     id="namedview124"
     pagecolor="#ffffff"
     bordercolor="#000000"
     borderopacity="0.25"
     inkscape:showpageshadow="2"
     inkscape:pageopacity="0.0"
     inkscape:pagecheckerboard="0"
     inkscape:deskcolor="#d1d1d1"
     inkscape:document-units="mm"
     showgrid="false"
     inkscape:zoom="0.78127806"
     inkscape:cx="396.78575"
     inkscape:cy="561.89982"
     inkscape:window-width="1920"
     inkscape:window-height="1017"
     inkscape:window-x="-8"
     inkscape:window-y="-8"
     inkscape:window-maximized="1"
     inkscape:current-layer="layer1" />
  <defs
     id="defs119" />
  <g
     inkscape:label="Ebene 1"
     inkscape:groupmode="layer"
     id="layer1">
    <ellipse
       style="fill:#2b0000;stroke-width:0.264583"
       id="path126"
       cx="15.578107"
       cy="59.095211"
       rx="3.3865454"
       ry="3.8945267" />
    <ellipse
       style="fill:#2b0000;stroke-width:0.264583"
       id="path128"
       cx="68.746864"
       cy="35.558723"
       rx="3.3865454"
       ry="3.0478907" />
    <ellipse
       style="fill:#2b0000;stroke-width:0.264583"
       id="path130"
       cx="118.35975"
       cy="66.714935"
       rx="2.8785632"
       ry="3.7251995" />
    <ellipse
       style="fill:#2b0000;stroke-width:0.264583"
       id="path132"
       cx="12.699544"
       cy="117.34378"
       rx="2.5399086"
       ry="5.2491446" />
    <ellipse
       style="fill:#2b0000;stroke-width:0.264583"
       id="path134"
       cx="117.51311"
       cy="119.71436"
       rx="4.0638542"
       ry="4.5718355" />
    <ellipse
       style="fill:#2b0000;stroke-width:0.264583"
       id="path136"
       cx="57.401939"
       cy="161.19954"
       rx="3.2172177"
       ry="4.7411633" />
    <path
       style="fill:#2b0000;stroke-width:0.264583"
       id="path187"
       d="m 18.81264,56.409325 c 0.297115,-0.254757 0.563118,-0.551093 0.891345,-0.764273 2.648576,-1.720228 5.720985,-2.837357 8.666066,-3.910274 3.131997,-1.141011 4.882218,-1.677522 8.066783,-2.711498 5.745316,-1.88336 11.651464,-3.280225 17.278313,-5.510136 3.281129,-1.532461 6.500907,-3.188501 9.796155,-4.691263 2.103551,-0.928407 4.177567,-1.921534 6.301356,-2.803369 0,0 -0.808333,-0.539697 -0.808333,-0.539697 v 0 c -2.116913,0.892326 -4.189384,1.883965 -6.2893,2.815148 -3.290416,1.507157 -6.508244,3.161538 -9.788051,4.69088 -5.609489,2.234062 -11.489605,3.668633 -17.223343,5.54011 -3.169864,1.027914 -4.959471,1.577906 -8.079517,2.708299 -2.967913,1.075275 -6.059785,2.192356 -8.74221,3.898675 -0.332441,0.211471 -0.60398,0.506116 -0.905971,0.759172 0,0 0.836707,0.518226 0.836707,0.518226 z" />
    <path
       style="fill:#2b0000;stroke-width:0.264583"
       id="path189"
       d="m 73.581796,36.270956 c 2.295419,1.214096 4.645909,2.31966 6.883987,3.641132 1.189258,0.702199 2.069272,1.381186 3.23032,2.209152 0.607075,0.492535 1.228235,0.968198 1.821224,1.477605 0.63771,0.547823 2.677769,2.459707 3.309824,3.043579 1.377199,1.272202 2.76365,2.530854 4.119981,3.825372 1.997416,1.876441 3.647268,4.104339 5.738336,5.884696 0.467288,0.397854 0.970179,0.75189 1.455272,1.127837 3.88652,2.572253 8.26628,4.233868 12.57237,5.952921 1.34314,0.527767 2.66021,1.115084 3.96867,1.722419 0,0 -0.75665,-0.601475 -0.75665,-0.601475 v 0 c -1.30627,-0.601781 -2.62049,-1.185116 -3.96038,-1.709293 -1.97245,-0.785677 -3.94778,-1.572868 -5.89441,-2.421016 -0.72351,-0.315233 -1.43968,-0.647081 -2.15688,-0.976429 -0.38488,-0.176747 -0.77955,-0.335219 -1.14927,-0.541814 -0.59465,-0.332277 -1.1597,-0.714939 -1.73956,-1.072407 -0.48541,-0.37279 -0.98891,-0.723135 -1.456226,-1.118372 -2.097104,-1.773642 -3.742852,-4.005781 -5.738308,-5.88372 -1.358963,-1.298032 -2.750523,-2.556943 -4.131439,-3.831478 -0.55699,-0.514083 -2.754622,-2.570972 -3.310723,-3.050638 -0.592916,-0.511424 -1.214046,-0.98919 -1.821069,-1.483786 -0.658088,-0.471927 -1.295445,-0.974191 -1.974258,-1.415783 -3.125935,-2.033534 -6.470464,-3.674729 -9.771956,-5.39279 0,0 0.761145,0.614288 0.761145,0.614288 z" />
    <path
       style="fill:#2b0000;stroke-width:0.264583"
       id="path191"
       d="m 118.76609,67.274849 c 0.39399,5.521084 1.42031,10.980465 2.32041,16.436655 1.02554,6.153729 1.8584,12.336859 2.4864,18.543366 0.28272,3.50882 0.69051,7.052 0.27578,10.56574 -0.42364,1.91043 -1.53481,3.55683 -2.62962,5.14385 -0.73981,1.03367 -1.58491,1.98374 -2.40237,2.95498 0,0 0.83683,0.50294 0.83683,0.50294 v 0 c 0.81851,-0.97429 1.66329,-1.92841 2.40536,-2.9641 1.10108,-1.60094 2.22532,-3.26074 2.65121,-5.18616 0.40182,-3.52889 -0.016,-7.08294 -0.30744,-10.60497 -0.62942,-6.210686 -1.47721,-12.396467 -2.49738,-18.555189 -0.89713,-5.43669 -1.93197,-10.881375 -2.25859,-16.388431 0,0 -0.88059,-0.448681 -0.88059,-0.448681 z" />
    <path
       style="fill:#2b0000;stroke-width:0.264583"
       id="path193"
       d="m 58.015099,160.16331 c 6.327154,-4.19358 13.294231,-7.29104 20.196551,-10.39582 7.040385,-3.27125 14.177153,-6.34232 21.116427,-9.82698 2.928233,-1.26528 5.214413,-3.44669 7.568983,-5.52094 1.765,-1.48994 3.43794,-3.08044 5.05957,-4.72387 1.51973,-1.53921 2.9923,-3.12018 4.24012,-4.88961 0.64914,-1.07708 1.26264,-2.17239 1.80132,-3.30863 0,0 -0.8531,-0.48309 -0.8531,-0.48309 v 0 c -0.53041,1.13405 -1.136,2.22755 -1.78513,3.29835 -1.24536,1.7647 -2.71702,3.33938 -4.23145,4.87623 -1.61877,1.64258 -3.29304,3.2276 -5.05133,4.72109 -2.34158,2.07208 -4.62405,4.2365 -7.530906,5.51651 -6.90944,3.51943 -14.029126,6.60342 -21.065797,9.85546 -6.927151,3.11416 -13.895477,6.23982 -20.301076,10.35471 0,0 0.835818,0.52659 0.835818,0.52659 z" />
    <path
       style="fill:#2b0000;stroke-width:0.264583"
       id="path195"
       d="m 54.885952,158.85822 c -2.921175,-1.80593 -5.846509,-3.60506 -8.776758,-5.39613 -3.33112,-2.08837 -7.032183,-3.50783 -10.362184,-5.58911 -4.095827,-2.71771 -7.304709,-6.46333 -10.524781,-10.1203 -2.062174,-2.25192 -3.992286,-4.61164 -5.756602,-7.10245 -1.104781,-1.44582 -1.642759,-3.16175 -2.257992,-4.84578 -0.718614,-1.91926 -1.500993,-3.81413 -2.350749,-5.67899 -0.46236,-0.91956 -0.237352,-0.47141 -0.675104,-1.34442 0,0 -0.894102,-0.40432 -0.894102,-0.40432 v 0 c 0.439602,0.87342 0.213244,0.42592 0.67936,1.34239 0.854228,1.86381 1.646159,3.75605 2.364251,5.6766 0.609427,1.69077 1.132768,3.41745 2.241876,4.86711 1.774315,2.49824 3.708444,4.86962 5.784532,7.12534 3.22302,3.65605 6.423891,7.41016 10.508955,10.14492 0.881758,0.52483 1.752666,1.06835 2.645277,1.57451 2.517754,1.42769 5.200425,2.55201 7.703574,4.0089 2.926077,1.78645 5.847366,3.58082 8.760571,5.38831 0,0 0.909876,0.35342 0.909876,0.35342 z" />
    <path
       style="fill:#2b0000;stroke-width:0.264583"
       id="path197"
       d="m 13.29069,114.34798 c -0.04926,-8.0584 -0.502466,-16.114296 -0.402926,-24.173962 0.01836,-1.486969 0.08336,-2.972999 0.125034,-4.459497 0.146678,-3.236819 0.455346,-6.463495 0.966422,-9.662982 0.261814,-1.639031 0.616336,-3.256995 0.874914,-4.896472 0.352551,-2.986246 0.396439,-5.991767 0.768093,-8.976508 0.167618,-1.685367 0.524501,-3.343455 0.849606,-5.003316 0,0 -0.856809,-0.457454 -0.856809,-0.457454 v 0 c -0.319722,1.663814 -0.676487,3.324775 -0.84596,5.012687 -0.370341,2.984323 -0.412966,5.989114 -0.764542,8.974887 -0.256855,1.64252 -0.597576,3.267993 -0.84949,4.911381 -0.492312,3.211652 -0.789695,6.448517 -0.927735,9.694891 -0.03803,1.489313 -0.09826,2.978224 -0.114096,4.467939 -0.08553,8.047564 0.37916,16.090956 0.333851,24.138546 0,0 0.843638,0.42986 0.843638,0.42986 z" />
    <text
       xml:space="preserve"
       style="font-size:6.35px;fill:#2b0000;stroke-width:0.264583"
       x="53.507412"
       y="178.47092"
       id="text253"><tspan
         sodipodi:role="line"
         id="tspan251"
         style="stroke-width:0.264583"
         x="53.507412"
         y="178.47092">a</tspan></text>
    <text
       xml:space="preserve"
       style="font-size:6.35px;fill:#2b0000;stroke-width:0.264583"
       x="21.673889"
       y="115.48119"
       id="text307"><tspan
         sodipodi:role="line"
         id="tspan305"
         style="stroke-width:0.264583"
         x="21.673889"
         y="115.48119">b</tspan></text>
    <text
       xml:space="preserve"
       style="font-size:6.35px;fill:#2b0000;stroke-width:0.264583"
       x="22.012543"
       y="65.360321"
       id="text311"><tspan
         sodipodi:role="line"
         id="tspan309"
         style="stroke-width:0.264583"
         x="22.012543"
         y="65.360321">d</tspan></text>
    <text
       xml:space="preserve"
       style="font-size:6.35px;fill:#2b0000;stroke-width:0.264583"
       x="73.488029"
       y="46.734325"
       id="text315"><tspan
         sodipodi:role="line"
         id="tspan313"
         style="stroke-width:0.264583"
         x="73.488029"
         y="46.734325">d</tspan></text>
    <text
       xml:space="preserve"
       style="font-size:6.35px;fill:#2b0000;stroke-width:0.264583"
       x="124.2862"
       y="69.085518"
       id="text319"><tspan
         sodipodi:role="line"
         id="tspan317"
         style="stroke-width:0.264583"
         x="124.2862"
         y="69.085518">e</tspan></text>
    <text
       xml:space="preserve"
       style="font-size:6.35px;fill:#2b0000;stroke-width:0.264583"
       x="126.65678"
       y="118.86773"
       id="text323"><tspan
         sodipodi:role="line"
         id="tspan321"
         style="stroke-width:0.264583"
         x="126.65678"
         y="118.86773">f</tspan></text>
  </g>
</svg>
