<?xml version="1.0" encoding="UTF-8" standalone="no"?>
<!-- Created with Inkscape (http://www.inkscape.org/) -->

<svg
   width="210mm"
   height="297mm"
   viewBox="0 0 210 297"
   version="1.1"
   id="svg817"
   inkscape:version="1.2.2 (732a01da63, 2022-12-09)"
   sodipodi:docname="mitunterschied4.svg"
   xmlns:inkscape="http://www.inkscape.org/namespaces/inkscape"
   xmlns:sodipodi="http://sodipodi.sourceforge.net/DTD/sodipodi-0.dtd"
   xmlns="http://www.w3.org/2000/svg"
   xmlns:svg="http://www.w3.org/2000/svg">
  <sodipodi:namedview
     id="namedview819"
     pagecolor="#ffffff"
     bordercolor="#000000"
     borderopacity="0.25"
     inkscape:showpageshadow="2"
     inkscape:pageopacity="0.0"
     inkscape:pagecheckerboard="0"
     inkscape:deskcolor="#d1d1d1"
     inkscape:document-units="mm"
     showgrid="false"
     inkscape:zoom="0.74564394"
     inkscape:cx="396.97231"
     inkscape:cy="561.9304"
     inkscape:window-width="1920"
     inkscape:window-height="1017"
     inkscape:window-x="-8"
     inkscape:window-y="-8"
     inkscape:window-maximized="1"
     inkscape:current-layer="layer1" />
  <defs
     id="defs814" />
  <g
     inkscape:label="Ebene 1"
     inkscape:groupmode="layer"
     id="layer1">
    <ellipse
       style="fill:#2b0000;stroke-width:0.264583"
       id="path821"
       cx="71.322586"
       cy="208.46773"
       rx="4.6129031"
       ry="4.4354839" />
    <ellipse
       style="fill:#2b0000;stroke-width:0.264583"
       id="path823"
       cx="86.758064"
       cy="109.82259"
       rx="4.0806451"
       ry="3.7258065" />
    <ellipse
       style="fill:#2b0000;stroke-width:0.264583"
       id="path825"
       cx="58.370968"
       cy="153.1129"
       rx="4.7903223"
       ry="4.4354839" />
    <ellipse
       style="fill:#2b0000;stroke-width:0.264583"
       id="path827"
       cx="138.3871"
       cy="58.370968"
       rx="4.2580643"
       ry="3.7258065" />
    <ellipse
       style="fill:#2b0000;stroke-width:0.264583"
       id="path829"
       cx="127.56451"
       cy="165"
       rx="5.1451616"
       ry="4.2580643" />
    <ellipse
       style="fill:#2b0000;stroke-width:0.264583"
       id="path831"
       cx="154.88708"
       cy="103.96774"
       rx="5.8548388"
       ry="4.6129031" />
    <ellipse
       style="fill:#2b0000;stroke-width:0.264583"
       id="path833"
       cx="25.725805"
       cy="51.096775"
       rx="7.6290321"
       ry="9.2258062" />
    <ellipse
       style="fill:#2b0000;stroke-width:0.264583"
       id="path835"
       cx="29.451612"
       cy="99.177414"
       rx="7.0967741"
       ry="5.5" />
    <ellipse
       style="fill:#2b0000;stroke-width:0.264583"
       id="path837"
       cx="84.096771"
       cy="35.838707"
       rx="4.2580643"
       ry="5.6774192" />
    <path
       style="fill:#2b0000;stroke-width:0.264583"
       id="path839"
       d="m 69.318957,211.94403 c 2.469335,-1.01472 4.47277,-2.84395 6.56418,-4.4544 3.160363,-2.54353 6.086297,-5.35866 9.172,-7.98979 2.602461,-2.29152 5.555496,-4.12884 8.373155,-6.13426 1.704361,-1.21305 2.652991,-1.95428 4.310314,-3.21411 4.197494,-3.02131 7.741664,-6.78083 11.150914,-10.63817 1.66309,-1.86741 3.03781,-4.01742 4.88613,-5.71996 0.94982,-0.8749 1.27005,-0.99794 2.36884,-1.67353 0.48788,-0.21708 0.96183,-0.46868 1.46366,-0.65122 1.16973,-0.4255 2.89831,-0.81958 4.07975,-1.08868 1.96525,-0.44764 2.86846,-0.61791 4.82462,-1.01303 0,0 -0.77133,-0.53716 -0.77133,-0.53716 v 0 c -1.80427,0.36707 -3.0215,0.60473 -4.82871,1.01409 -1.20268,0.27242 -2.91667,0.65997 -4.10375,1.09377 -0.50549,0.18472 -0.98232,0.44004 -1.47348,0.66007 -1.11529,0.6907 -1.4174,0.80229 -2.37955,1.69539 -1.8421,1.70989 -3.20971,3.86331 -4.8684,5.73549 -3.4012,3.85668 -6.94837,7.60365 -11.138218,10.62432 -1.658287,1.26203 -2.598741,1.9982 -4.304755,3.21271 -2.821575,2.00866 -5.783234,3.8428 -8.393438,6.13264 -3.083515,2.63211 -6.011085,5.44428 -9.174713,7.98246 -2.088753,1.6081 -4.100645,3.42464 -6.578497,4.41316 0,0 0.821278,0.55021 0.821278,0.55021 z" />
    <path
       style="fill:#2b0000;stroke-width:0.264583"
       id="path841"
       d="m 69.781128,203.95939 c -1.425157,-3.70378 -2.80284,-7.41992 -3.926663,-11.22765 -0.918911,-3.15643 -1.327517,-6.4163 -1.51603,-9.68809 -0.02186,-2.13187 -0.08688,-4.24623 -0.359122,-6.36199 -0.587872,-3.09149 -1.311079,-6.15326 -1.923682,-9.24046 -0.397978,-1.94805 -0.753314,-3.90368 -0.892479,-5.88842 -0.149927,-1.25683 -0.212665,-2.5249 -0.487874,-3.7623 -0.144152,-0.61238 -0.468143,-1.14746 -0.773247,-1.6886 0,0 -0.898205,-0.40066 -0.898205,-0.40066 v 0 c 0.30502,0.53303 0.633693,1.05848 0.784085,1.66178 0.285001,1.23203 0.341572,2.49767 0.497962,3.75038 0.13531,1.99313 0.502467,3.95435 0.906555,5.90914 0.615114,3.0827 1.327727,6.143 1.917565,9.23009 0.270859,2.11379 0.336256,4.22644 0.362482,6.35616 0.194762,3.28188 0.605782,6.55243 1.528728,9.71859 1.119693,3.79994 2.493412,7.5089 3.889994,11.21409 0,0 0.889931,0.41794 0.889931,0.41794 z" />
    <path
       style="fill:#2b0000;stroke-width:0.264583"
       id="path843"
       d="m 57.933457,149.88298 c 2.720001,-3.51538 5.336439,-7.14232 7.59066,-10.97871 1.918563,-3.26515 2.638417,-4.90267 4.292576,-8.28995 2.396104,-4.82012 4.22306,-9.88399 6.094876,-14.92077 0.404955,-1.23232 0.844746,-2.48103 1.688216,-3.49237 0.322739,-0.38698 0.63699,-0.62254 1.018268,-0.94166 1.496901,-1.0075 3.356215,-1.04097 5.091631,-1.22447 0.435281,-0.0415 0.870566,-0.0829 1.305848,-0.12439 0,0 -0.787813,-0.56098 -0.787813,-0.56098 v 0 c -0.43534,0.0418 -0.870677,0.0836 -1.306018,0.12535 -1.756399,0.18261 -3.635213,0.22057 -5.137562,1.26363 -0.392531,0.3329 -0.695558,0.5616 -1.028129,0.96467 -0.844277,1.02325 -1.288997,2.27733 -1.685925,3.52338 -1.840637,5.04856 -3.638028,10.12391 -6.022228,14.95083 -1.689849,3.46521 -2.324847,4.94085 -4.295164,8.27699 -2.261706,3.82951 -4.877456,7.46104 -7.66408,10.92225 0,0 0.844844,0.5062 0.844844,0.5062 z" />
    <path
       style="fill:#2b0000;stroke-width:0.264583"
       id="path845"
       d="m 81.816574,111.26308 c 3.020213,-0.47171 6.055942,-0.82805 9.104095,-1.05506 8.366236,-0.50676 16.693541,-1.49451 25.019951,-2.42885 8.12481,-1.0366 16.28612,-1.69634 24.45067,-2.31199 3.01137,-0.26104 5.99568,-0.71958 9.01028,-0.94456 0,0 -0.77566,-0.55483 -0.77566,-0.55483 v 0 c -3.01024,0.22158 -5.98834,0.68579 -8.99411,0.95645 -8.14431,0.63992 -16.28496,1.32569 -24.39141,2.35801 -8.35036,0.93245 -16.703771,1.89844 -25.095968,2.37055 -3.058391,0.22751 -6.102289,0.59315 -9.135872,1.04337 0,0 0.808024,0.56691 0.808024,0.56691 z" />
    <path
       style="fill:#2b0000;stroke-width:0.264583"
       id="path847"
       d="m 128.77928,164.06906 c 3.16656,-5.87706 5.71994,-12.0501 8.18792,-18.24397 2.40379,-6.24472 4.83224,-12.47702 7.43189,-18.64307 1.16832,-3.01498 2.58629,-5.91038 4.0842,-8.77099 0.82688,-1.67846 1.69326,-3.33834 2.52091,-5.01686 0.53109,-1.22817 1.0843,-2.44629 1.58988,-3.6852 0.31929,-0.66208 0.56566,-1.35473 0.87353,-2.02128 0,0 -0.8606,-0.48632 -0.8606,-0.48632 v 0 c -0.30657,0.66891 -0.55094,1.36398 -0.87159,2.0273 -0.50517,1.23686 -1.05712,2.45315 -1.58243,3.68162 -0.8227,1.68015 -1.69246,3.33766 -2.51454,5.01778 -1.49036,2.86888 -2.89243,5.77592 -4.05339,8.79755 -2.58409,6.17496 -5.00136,12.41385 -7.39958,18.66308 -2.46564,6.18705 -5.00828,12.36498 -8.26188,18.18909 0,0 0.85568,0.49127 0.85568,0.49127 z" />
    <path
       style="fill:#2b0000;stroke-width:0.264583"
       id="path849"
       d="m 156.92463,103.41303 c 0.18174,-4.461606 -0.9617,-8.808353 -1.91363,-13.128993 -0.27133,-1.21866 -0.53162,-2.439834 -0.81401,-3.655981 -0.22231,-0.957408 -1.47508,-6.105691 -1.7508,-7.137037 -0.47313,-1.769721 -1.07041,-3.836236 -1.76935,-5.550728 -0.2873,-0.704766 -0.64938,-1.376683 -0.97408,-2.065023 -1.35062,-2.675575 -3.37489,-4.833792 -5.5657,-6.829427 -1.38589,-1.40003 -2.42939,-3.069395 -3.10932,-4.91167 -0.24628,-0.92637 -0.14391,-0.455589 -0.30548,-1.412698 0,0 -0.88174,-0.431268 -0.88174,-0.431268 v 0 c 0.15582,0.968013 0.0559,0.491593 0.29826,1.429589 0.67227,1.856954 1.71818,3.538887 3.09864,4.95845 2.1982,1.991085 4.24028,4.135917 5.60716,6.806692 0.32904,0.686904 0.69595,1.356921 0.98713,2.060713 1.19848,2.896793 1.91409,5.979816 2.66037,9.013179 0.30113,1.223968 0.60484,2.447396 0.88865,3.675494 0.28063,1.214268 0.53639,2.434148 0.80458,3.651221 0.93985,4.302442 2.08472,8.636576 1.85779,13.078327 0,0 0.88153,0.44916 0.88153,0.44916 z" />
    <path
       style="fill:#2b0000;stroke-width:0.264583"
       id="path851"
       d="m 32.802438,96.455086 c 2.865699,-3.888057 5.854038,-7.685384 8.692565,-11.593528 2.11659,-2.914161 2.464345,-3.476662 4.452975,-6.409629 3.264204,-4.705244 6.085533,-9.68769 8.745754,-14.751788 1.611908,-3.041939 3.326096,-6.07222 5.548093,-8.719839 0.36517,-0.435118 0.764574,-0.840314 1.146863,-1.260472 2.178412,-2.367881 4.625985,-3.383325 7.587117,-4.426125 2.62418,-0.877519 5.315511,-1.531493 7.997079,-2.205593 3.503938,-0.737052 7.031212,-1.353621 10.552218,-2.001115 1.636173,-0.354605 0.8558,-0.179628 2.341761,-0.52207 0,0 -0.799851,-0.553715 -0.799851,-0.553715 v 0 c -1.478381,0.34535 -0.701887,0.169368 -2.330196,0.524777 -3.521464,0.653457 -7.048839,1.277678 -10.556073,2.005708 -2.685466,0.666353 -5.375765,1.331471 -8.00013,2.214491 -2.977062,1.05178 -5.429009,2.076644 -7.610536,4.467485 -0.382246,0.422989 -0.781446,0.831257 -1.146743,1.268968 -2.217907,2.657583 -3.937069,5.690563 -5.549136,8.738692 -2.658591,5.060993 -5.436068,10.063721 -8.706863,14.762422 -4.163475,6.160381 -8.624263,12.102206 -13.19558,17.96542 0,0 0.830683,0.495911 0.830683,0.495911 z" />
    <path
       style="fill:#2b0000;stroke-width:0.264583"
       id="path853"
       d="m 134.42671,55.896549 c -5.91327,-2.613316 -12.09066,-4.587764 -18.19859,-6.69027 -8.04779,-2.8223 -15.90921,-6.134552 -23.679215,-9.640882 -3.660741,-1.748562 -1.915748,-0.913826 -5.235234,-2.50367 0,0 0.730827,0.582483 0.730827,0.582483 v 0 c 3.305341,1.577954 1.567061,0.749379 5.215167,2.485056 7.769195,3.497197 15.627995,6.803784 23.671565,9.624388 6.13389,2.114945 12.34553,4.092615 18.26514,6.764057 0,0 -0.76966,-0.621162 -0.76966,-0.621162 z" />
    <path
       style="fill:#2b0000;stroke-width:0.264583"
       id="path855"
       d="m 27.523855,98.541019 c -0.958284,-1.373476 -1.888012,-3.006043 -1.981227,-4.726332 -0.04731,-0.873101 0.02559,-1.748576 0.03839,-2.622865 0.590561,-8.938392 1.587298,-17.842584 2.457261,-26.756312 0.510181,-5.075346 1.05019,-10.149022 1.389251,-15.239396 0.06336,-1.023377 0.16565,-2.040369 -0.01466,-3.054445 0,0 -0.888151,-0.431703 -0.888151,-0.431703 v 0 c 0.204391,1.007126 0.09846,2.021907 0.04535,3.042389 -0.306847,5.101129 -0.819671,10.186333 -1.3213,15.271244 -0.853125,8.912119 -1.838944,17.812647 -2.499222,26.742257 -0.02568,0.875343 -0.11353,1.751068 -0.07706,2.626024 0.07204,1.728211 1.005814,3.368109 1.939491,4.763193 0,0 0.911886,0.385946 0.911886,0.385946 z" />
    <path
       style="fill:#2b0000;stroke-width:0.264583"
       id="path857"
       d="m 71.928402,46.191524 c 2.304862,-1.180788 4.414649,-2.711633 6.348404,-4.425984 1.461461,-1.62932 3.046317,-2.992575 4.785913,-4.312243 0,0 -0.821087,-0.518634 -0.821087,-0.518634 v 0 c -0.906465,0.689314 -1.83828,1.36121 -2.667079,2.145578 -0.459089,0.434478 -0.874059,0.913366 -1.316498,1.36479 -0.266147,0.271552 -0.535413,0.540027 -0.803121,0.81004 -1.92685,1.707684 -4.030041,3.24336 -6.344288,4.387022 0,0 0.817756,0.549431 0.817756,0.549431 z" />
    <path
       style="fill:#2b0000;stroke-width:0.264583"
       id="path859"
       d="m 30.241353,100.08643 c 3.968078,1.91952 8.067953,3.58461 12.278929,4.89397 1.125847,0.35007 2.264778,0.65659 3.397168,0.98488 7.391884,1.92575 15.041599,2.32625 22.644862,2.33374 3.015075,0.0773 6.019204,-0.35161 9.029607,-0.35951 1.611926,0.14549 3.15177,0.69329 4.673523,1.21314 1.370029,0.61761 2.829071,0.94913 4.303586,1.20073 0.231796,0.0493 0.463592,0.0986 0.695391,0.14786 0,0 -0.782516,-0.59362 -0.782516,-0.59362 v 0 c -0.231918,-0.0479 -0.463836,-0.0959 -0.695756,-0.14378 -1.471565,-0.25811 -2.922064,-0.60485 -4.293473,-1.21236 -1.526776,-0.51859 -3.075149,-1.06839 -4.694701,-1.18789 -2.995017,0.0374 -5.981499,0.45277 -8.981635,0.39343 -7.597209,0.005 -15.239249,-0.40397 -22.62073,-2.34806 -1.133215,-0.33047 -2.273024,-0.63912 -3.399647,-0.99142 -4.225417,-1.32132 -8.342902,-2.99526 -12.315753,-4.945397 0,0 0.761145,0.614287 0.761145,0.614287 z" />
    <path
       style="fill:#2b0000;stroke-width:0.264583"
       id="path861"
       d="m 33.079684,45.61718 c 9.731441,-1.234631 19.466981,-2.434913 29.204642,-3.619601 4.823076,-0.611074 9.711608,-1.016415 14.411677,-2.333569 1.595411,-0.447104 2.17165,-0.709009 3.650371,-1.285256 1.861064,-0.762082 3.58022,-1.812658 5.391336,-2.677787 0,0 -0.820362,-0.541557 -0.820362,-0.541557 v 0 c -1.800283,0.872487 -3.512873,1.92052 -5.365258,2.686351 -1.474666,0.579374 -2.032953,0.836033 -3.625599,1.287296 -4.675624,1.324795 -9.541488,1.747044 -14.341758,2.369138 -9.763098,1.200742 -19.525654,2.410028 -29.295997,3.549554 0,0 0.790948,0.565431 0.790948,0.565431 z" />
    <path
       style="fill:#ff00ff;stroke-width:0.264583"
       id="path863"
       d="m 64.301816,146.52324 c -2.360329,-0.34224 -4.713613,-0.73033 -7.068261,-1.10904 0,0 0.760251,0.57107 0.760251,0.57107 v 0 c 2.36502,0.37921 4.728633,0.76735 7.096567,1.12816 0,0 -0.788557,-0.59019 -0.788557,-0.59019 z" />
    <path
       style="fill:#ff00ff;stroke-width:0.264583"
       id="path865"
       d="m 61.26926,143.46537 c -3.262577,0.31039 -6.479114,0.93127 -9.668576,1.66846 -1.671217,0.53592 -3.795464,0.6793 -4.993471,2.14263 -0.741981,0.90631 -0.974124,1.75594 -1.400296,2.83242 -0.807046,2.56878 -1.008423,5.22446 -0.03392,7.78831 0.823508,2.16657 1.444128,2.73897 2.829037,4.6545 0.732321,0.77009 1.43012,1.57455 2.19697,2.31026 2.508578,2.40672 6.307815,5.38172 9.692685,6.3744 0.621937,0.1824 1.291,0.11673 1.936501,0.17509 0.604814,-0.13266 1.233874,-0.18272 1.814444,-0.39798 2.773423,-1.02831 4.494874,-3.69547 5.218311,-6.44873 0.244231,-0.9295 0.323622,-1.89467 0.485433,-2.842 0.262374,-5.09911 -0.537376,-10.24875 -2.248342,-15.06085 -0.239,-0.67219 -0.536135,-1.32227 -0.804203,-1.9834 -0.659186,-1.09758 -1.010952,-1.84931 -1.906601,-2.75138 -1.149054,-1.15727 -2.748949,-1.98125 -4.326721,-2.35778 -0.415747,-0.0992 -0.844274,-0.13399 -1.266412,-0.20099 -1.990648,-0.24656 -3.926649,0.0147 -5.748938,0.83349 0,0 0.817867,0.54326 0.817867,0.54326 v 0 c 1.810544,-0.8035 3.732808,-1.05077 5.704827,-0.79514 1.669087,0.28237 0.863578,0.0801 2.473727,0.61764 0.121208,0.0405 0.257244,0.0511 0.36327,0.12247 1.354034,0.91093 2.2675,2.16312 3.029736,3.59185 0.272439,0.66039 0.574437,1.30934 0.817316,1.98116 1.73327,4.79434 2.538333,9.9351 2.274869,15.02439 -0.161737,0.94069 -0.241398,1.89923 -0.485209,2.82206 -0.719087,2.72176 -2.427716,5.36445 -5.182197,6.35976 -0.575107,0.20781 -1.197095,0.2504 -1.795643,0.3756 -0.623215,-0.0622 -2.431624,-0.14938 -3.155161,-0.5004 -0.757582,-0.36754 -1.450229,-0.85838 -2.145803,-1.33292 -2.546559,-1.73734 -4.878329,-3.77115 -6.910231,-6.09174 -1.382218,-1.89968 -2.000015,-2.46645 -2.826618,-4.61575 -0.977903,-2.54269 -0.787212,-5.17724 0.01775,-7.72823 0.422478,-1.06294 0.64871,-1.89659 1.386638,-2.78724 1.190924,-1.43741 3.306403,-1.57545 4.953503,-2.11252 3.195339,-0.73807 6.419617,-1.35721 9.691574,-1.6372 0,0 -0.80613,-0.5735 -0.80613,-0.5735 z" />
    <path
       style="fill:#ff00ff;stroke-width:0.264583"
       id="path867"
       d="m 132.89463,159.43472 c -4.54971,-1.41419 -9.28138,-2.18019 -14.00678,-2.71933 -1.57702,-0.0511 -3.48239,-0.14623 -4.35613,1.47369 -0.48662,0.9022 -0.53392,1.74738 -0.7005,2.74294 -0.15348,2.97115 0.75709,5.8652 2.70161,8.14272 0.36753,0.43048 0.79866,0.80231 1.19799,1.20346 1.91478,1.557 4.11615,2.812 6.5167,3.43958 1.32193,0.34559 1.88365,0.37233 3.25312,0.54949 2.57157,0.27002 4.92006,0.0126 7.06759,-1.53345 0.37274,-0.26834 0.70575,-0.58797 1.05862,-0.88195 1.15135,-1.14291 2.12289,-2.54725 2.28774,-4.20933 0.11496,-1.15901 -0.0633,-1.46518 -0.33635,-2.59645 -0.15907,-0.4132 -0.31815,-0.82641 -0.47722,-1.23961 0,0 -0.87714,-0.40666 -0.87714,-0.40666 v 0 c 0.16111,0.40954 0.32222,0.81907 0.48333,1.22861 0.27829,1.10957 0.45892,1.41558 0.35275,2.55546 -0.15297,1.64223 -1.11656,3.02825 -2.25177,4.15587 -0.35031,0.29023 -0.68075,0.60627 -1.05091,0.87069 -2.08366,1.48845 -4.53264,1.7728 -7.02362,1.48407 -1.36548,-0.18326 -1.92879,-0.21266 -3.24547,-0.56474 -0.50857,-0.136 -1.00097,-0.32672 -1.50455,-0.48017 -0.21475,-0.0654 -0.44851,-0.0774 -0.65001,-0.17636 -1.1457,-0.56291 -1.70437,-1.06238 -2.71811,-1.82878 -0.40133,-0.39672 -0.83414,-0.76395 -1.204,-1.19016 -1.95023,-2.2474 -2.87881,-5.11778 -2.73063,-8.07148 0.16297,-0.97533 0.20876,-1.80996 0.68711,-2.69277 0.85512,-1.57816 2.7541,-1.45239 4.28145,-1.40808 4.73158,0.53381 9.4714,1.30156 14.01619,2.75358 0,0 -0.77101,-0.60084 -0.77101,-0.60084 z" />
    <path
       style="fill:#ff00ff;stroke-width:0.264583"
       id="path869"
       d="m 161.16857,92.323384 c -3.4111,-0.218855 -6.82009,-0.483875 -10.23879,-0.530942 -3.98386,-0.106283 -7.69325,1.308283 -11.33457,2.754829 -2.26133,1.143145 -5.2202,2.220031 -6.37884,4.707662 -0.19254,0.413396 -0.26345,0.873197 -0.39518,1.309797 -0.003,0.50267 -0.0843,1.01107 -0.009,1.50802 0.45809,3.00726 3.37824,5.72414 5.44501,7.74347 1.22157,1.15068 2.46334,2.27898 3.75315,3.35285 0.45908,0.38222 1.18179,1.00254 1.72862,1.29531 0.55341,0.29629 1.1377,0.53089 1.70655,0.79634 0.33458,-0.008 0.67207,0.0203 1.00373,-0.0245 2.33735,-0.31597 4.59391,-1.67958 6.48138,-3.00514 1.29039,-1.08839 2.56855,-2.29387 3.24069,-3.88012 0.43794,-1.03353 0.48205,-1.60279 0.69862,-2.7218 0.42906,-3.15747 0.42634,-6.35366 0.44046,-9.534322 0,0 -0.86173,-0.439346 -0.86173,-0.439346 v 0 c -0.002,3.176003 0.002,6.367598 -0.42769,9.520408 -0.2144,1.10349 -0.26022,1.67372 -0.69158,2.69296 -0.6651,1.57157 -1.93141,2.7675 -3.20945,3.84579 -1.84502,1.2894 -4.16945,2.68772 -6.46015,2.94921 -0.32586,0.0372 -0.65595,-0.003 -0.98392,-0.005 -0.01,0.0535 0.0204,0.18318 -0.0291,0.16064 -0.46892,-0.21334 -1.38037,-0.98995 -1.74217,-1.28918 -1.29659,-1.07234 -2.54427,-2.20018 -3.77026,-3.35239 -2.02491,-1.96965 -4.99287,-4.74226 -5.46461,-7.66828 -0.0786,-0.48763 -7.9e-4,-0.98785 -10e-4,-1.48177 0.12735,-0.42827 0.19411,-0.87946 0.38205,-1.284813 1.1432,-2.465666 4.09244,-3.534193 6.32599,-4.672113 3.6386,-1.443009 7.3486,-2.823467 11.32642,-2.715128 3.42676,0.05026 6.84409,0.311108 10.26224,0.546293 0,0 -0.79697,-0.579035 -0.79697,-0.579035 z" />
    <path
       style="fill:#ff00ff;stroke-width:0.264583"
       id="path871"
       d="m 86.381637,102.25824 c -1.947175,0.0721 -4.015045,-0.033 -5.88603,0.61779 -0.386974,0.13461 -0.745939,0.33917 -1.118912,0.50876 -2.221283,1.33704 -3.520144,3.10214 -4.156435,5.62755 -0.15068,0.59805 -0.218405,1.21399 -0.327607,1.82098 -0.282832,3.18018 0.685316,6.19851 2.195288,8.95488 0.993163,1.50321 1.987177,2.42453 3.988345,2.40745 0.575865,-0.005 3.031426,-1.07951 3.394778,-1.22857 1.784115,-0.7923 3.50756,-1.70971 5.251517,-2.58426 1.047625,-0.52536 2.078691,-1.03226 3.078157,-1.64404 1.98017,-1.91773 3.05322,-4.52818 3.882321,-7.1061 0.488521,-2.11363 0.431678,-3.92468 -0.884026,-5.74478 -0.76422,-1.0572 -1.505514,-1.56613 -2.498101,-2.39238 -2.178092,-1.37263 -4.509981,-2.603312 -7.094288,-2.950948 -1.211861,-0.163015 -1.766718,-0.08187 -2.97416,-0.02344 -1.758437,0.29891 -0.911715,0.124761 -2.542262,0.512167 0,0 0.797488,0.551519 0.797488,0.551519 v 0 c 1.620488,-0.383167 0.778978,-0.21258 2.526676,-0.501044 1.207254,-0.05202 1.747059,-0.129919 2.957332,0.04087 1.413502,0.199472 1.749266,0.403873 3.105383,0.852535 0.258045,0.08538 0.534397,0.123781 0.777825,0.244691 0.539972,0.26819 1.039659,0.61082 1.559486,0.91623 0.981101,0.80517 1.745329,1.32818 2.507773,2.35851 1.325317,1.79097 1.398633,3.57441 0.917586,5.67285 -0.819102,2.55706 -1.881074,5.15094 -3.860636,7.03897 -2.623132,1.61947 -5.544349,2.85371 -8.297688,4.23027 -0.615693,0.24786 -1.220673,0.52418 -1.847075,0.74356 -0.505504,0.17704 -1.064045,0.20687 -1.544224,0.44416 -0.173046,0.0855 -0.131948,0.47004 -0.324742,0.47944 -0.661508,0.0322 -1.683094,-1.49012 -1.991577,-1.9213 -1.526458,-2.732 -2.507689,-5.73584 -2.239131,-8.90321 0.107698,-0.60265 0.17336,-1.21434 0.32309,-1.80794 0.629701,-2.49639 1.923685,-4.24343 4.126577,-5.55252 0.369506,-0.16485 0.725522,-0.36409 1.108519,-0.49456 1.874494,-0.63858 3.9399,-0.53213 5.887448,-0.58781 0,0 -0.798695,-0.58029 -0.798695,-0.58029 z" />
    <path
       style="fill:#ff2a2a;stroke-width:0.264583"
       id="path873"
       d="m 30.836602,86.605392 c -2.354775,-0.07353 -1.141698,-0.04912 -3.639335,-0.0682 0,0 0.769448,0.560086 0.769448,0.560086 v 0 c 2.504844,0.02558 1.286523,-0.004 3.655086,0.0834 0,0 -0.785199,-0.575291 -0.785199,-0.575291 z" />
    <path
       style="fill:#ff2a2a;stroke-width:0.264583"
       id="path875"
       d="m 29.479393,88.176829 c -1.679392,3.655518 -3.337625,7.316158 -5.217187,10.875087 -1.341994,2.639404 -3.036815,5.067304 -4.627179,7.556424 -0.893825,1.3638 -1.247834,2.95039 -0.815794,4.552 0.115,0.42631 0.309858,0.82696 0.464786,1.24043 1.207929,2.38217 2.949216,4.02792 5.641116,4.62531 0.450872,0.10006 0.923593,-0.0128 1.38539,-0.0192 2.137554,-0.35083 4.182323,-1.18585 5.997163,-2.36681 1.074206,-0.69901 1.667632,-1.24102 2.649413,-2.05761 1.730621,-1.71606 3.375219,-3.57312 4.575191,-5.70956 0.272452,-0.48508 0.504169,-0.99194 0.756254,-1.48791 1.514797,-3.4178 2.565738,-7.075709 2.988651,-10.793099 -0.08392,-0.885896 -0.04362,-1.4951 -0.486291,-2.294067 C 41.508621,89.983423 37.8739,88.687864 35.579404,87.790657 31.400488,86.443716 27.0745,85.629482 22.72667,85.070026 c -1.178747,-0.100132 -2.404958,-0.351028 -3.575748,-0.03541 -0.73031,0.196874 -0.968623,0.38355 -1.624069,0.749734 -1.887377,1.382588 -3.018595,3.526596 -3.953055,5.620461 -0.16387,0.524815 -0.449065,1.222558 -0.371588,1.800246 0.259056,1.931586 2.426904,4.103381 3.645275,5.502389 1.804966,1.773734 3.546834,3.675474 5.700306,5.034484 0.480381,0.26206 0.960763,0.52411 1.441144,0.78616 0,0 -0.767625,-0.61429 -0.767625,-0.61429 v 0 c 0.08007,0.0608 0.160132,0.12162 0.240198,0.18244 -2.174671,-1.33963 -3.920866,-3.2493 -5.738695,-5.01924 -1.18918,-1.35999 -3.374034,-3.547586 -3.653597,-5.419936 -0.08472,-0.567431 0.194673,-1.258893 0.352423,-1.774627 0.918909,-2.079601 2.039799,-4.207031 3.924027,-5.564216 0.657423,-0.360101 0.875252,-0.533747 1.606846,-0.720355 1.163259,-0.296714 2.378898,-0.0431 3.547889,0.04947 4.337247,0.550129 8.653054,1.360191 12.815529,2.721877 2.00134,0.794417 4.429035,1.501357 5.594403,3.517231 0.452853,0.783354 0.418637,1.382326 0.512744,2.258321 -0.397378,3.71088 -1.442752,7.361845 -2.966916,10.765355 -0.252243,0.4926 -0.484497,0.99595 -0.756729,1.47779 -1.19987,2.12371 -2.828917,3.97979 -4.554641,5.68638 -0.983438,0.81616 -1.564182,1.34721 -2.640883,2.04392 -1.808083,1.16996 -3.843732,1.99751 -5.974805,2.32164 -0.457461,-7.9e-4 -0.916447,-0.0395 -1.372383,-0.002 -0.144008,0.0118 -0.269984,0.1924 -0.407456,0.14791 -1.58407,-0.51262 -2.853849,-2.39339 -3.588265,-3.77733 -0.156781,-0.4072 -0.35299,-0.80134 -0.470341,-1.22161 -0.440736,-1.57839 -0.08781,-3.13781 0.787145,-4.48687 1.581428,-2.49758 3.266069,-4.93513 4.603594,-7.579049 1.873633,-3.558241 3.524175,-7.220005 5.252452,-10.848636 0,0 -0.854456,-0.495236 -0.854456,-0.495236 z" />
    <path
       style="fill:#ff2a2a;stroke-width:0.264583"
       id="path877"
       d="m 33.176003,38.700204 c -2.269413,-0.179745 -4.540932,-0.332044 -6.81257,-0.480539 -0.902279,-0.05898 -3.394963,-0.252005 -4.383948,-0.187052 -0.599768,0.03939 -1.186923,0.190553 -1.780384,0.285829 -0.553158,0.280699 -1.145709,0.494504 -1.659473,0.8421 -2.35481,1.593186 -3.894873,4.314859 -4.906903,6.899182 -0.269039,0.687017 -0.465169,1.4004 -0.697753,2.100602 -0.871047,3.397485 -0.583073,6.906101 0.605543,10.191966 0.217118,0.600213 0.495545,1.176441 0.743318,1.764663 1.422859,2.658414 2.88933,4.653296 6.071007,5.195244 0.51931,0.08846 1.051669,-0.06343 1.577504,-0.09515 1.66317,-0.292685 3.358661,-0.586843 4.903481,-1.307447 1.716272,-0.800579 3.185575,-1.983319 4.64535,-3.164183 1.229609,-1.117788 2.512938,-2.204035 3.606572,-3.462002 1.383705,-1.591625 2.540442,-3.375197 3.710713,-5.122844 1.483683,-2.403634 2.870242,-4.895448 3.711014,-7.60545 0.421174,-1.357538 0.427694,-1.6422 0.648713,-2.962752 0.120076,-1.347832 0.104791,-0.715981 0.07553,-1.894601 0,0 -0.87421,-0.44195 -0.87421,-0.44195 v 0 c 0.0452,1.169956 0.05306,0.541716 -0.05491,1.884066 -0.21001,1.317615 -0.212714,1.599864 -0.628128,2.954563 -0.829615,2.705425 -2.210607,5.193231 -3.690784,7.589538 -1.17161,1.742609 -2.332112,3.513757 -3.716978,5.099611 -1.093581,1.252297 -2.368066,2.340425 -3.595225,3.455061 -1.455711,1.176071 -2.917126,2.345709 -4.631699,3.135879 -1.541768,0.710533 -3.23034,1.004186 -4.889563,1.282076 -0.522151,0.02445 -1.047709,0.0089 -1.566452,0.07333 -0.192193,0.02384 -0.363194,0.242777 -0.549317,0.189246 -1.635631,-0.470418 -3.133558,-3.045007 -3.887653,-4.404349 -0.249786,-0.585618 -0.530277,-1.159071 -0.749358,-1.756857 -1.196835,-3.265676 -1.495349,-6.758231 -0.636919,-10.142062 0.230874,-0.69737 0.425258,-1.407898 0.692621,-2.092108 1.001967,-2.56413 2.533321,-5.272881 4.88129,-6.839211 0.509068,-0.339601 1.096012,-0.544677 1.644018,-0.817015 0.588733,-0.09185 1.171554,-0.237604 1.7662,-0.275548 0.994735,-0.06347 3.461475,0.123293 4.369938,0.182568 2.284108,0.149032 4.567767,0.30797 6.848324,0.504809 0,0 -0.788908,-0.579218 -0.788908,-0.579218 z" />
    <path
       style="fill:#ff2a2a;stroke-width:0.264583"
       id="path879"
       d="m 86.65878,27.607162 c -1.458148,-0.231693 -2.914814,-0.516128 -4.385144,-0.664067 -0.505846,-0.0509 -1.014272,-0.119203 -1.522155,-0.09631 -1.407769,0.06345 -1.851086,0.323768 -3.172093,0.77874 -0.527743,0.295312 -1.079542,0.551235 -1.583227,0.885933 -2.544675,1.690939 -5.152109,4.725723 -6.816299,7.264305 -0.558662,0.852194 -1.033488,1.756484 -1.550233,2.634726 -1.496108,3.149603 -4.711306,8.663167 -2.83677,12.21201 0.369819,0.700138 1.006147,1.222907 1.509221,1.834362 2.73758,1.667737 3.243659,2.17292 6.710074,3.196185 3.930493,1.160256 8.475315,1.167212 12.522395,0.829228 1.230908,-0.102799 2.449116,-0.32349 3.673671,-0.485235 2.377982,-0.590773 5.453052,-0.920229 7.489851,-2.461702 1.234282,-0.934117 2.18575,-2.397302 2.837045,-3.768003 0.351687,-0.740148 0.571204,-1.536144 0.856814,-2.304216 0.74618,-2.786253 0.82382,-5.696617 -0.35661,-8.383125 -0.682324,-1.552863 -1.070203,-1.82939 -2.147912,-3.11495 -1.468578,-1.457253 -3.244728,-2.515478 -4.984486,-3.60512 0,0 -0.885528,-0.343453 -0.885528,-0.343453 v 0 c 1.739524,1.083501 3.515521,2.135042 4.993317,3.576823 1.082572,1.26964 1.472343,1.542711 2.16232,3.081891 1.194469,2.664579 1.136969,5.558051 0.398257,8.33234 -0.283113,0.763111 -0.499962,1.554194 -0.849337,2.289331 -0.648845,1.365274 -1.583314,2.793481 -2.813989,3.720589 -2.029272,1.52872 -5.074277,1.865741 -7.440769,2.455974 -1.219573,0.161935 -2.432677,0.383804 -3.658719,0.485804 -2.71508,0.225885 -5.814631,0.248168 -8.520025,-0.08762 -1.346004,-0.167063 -2.672948,-0.470397 -3.993856,-0.778354 -0.87617,-0.204269 -1.768015,-0.392716 -2.590729,-0.756774 -0.899932,-0.39823 -1.690584,-1.007867 -2.535875,-1.5118 -0.506714,-0.598207 -1.14513,-1.106162 -1.520142,-1.794619 -1.913033,-3.511992 1.294233,-9.033036 2.781157,-12.157053 0.517086,-0.874411 0.992529,-1.774825 1.551255,-2.623238 1.670568,-2.536722 4.258974,-5.539452 6.815738,-7.217008 0.501875,-0.329293 1.051269,-0.579729 1.576901,-0.869596 1.336301,-0.449841 1.732975,-0.691507 3.153074,-0.74599 0.506142,-0.01942 1.012356,0.04865 1.516218,0.100431 1.476232,0.151701 2.939616,0.434504 4.400897,0.685083 0,0 -0.784307,-0.595524 -0.784307,-0.595524 z" />
    <path
       style="fill:#2b0000;stroke-width:0.264583"
       id="path881"
       d="m 85.230061,91.328996 c -1.786255,3.063046 -3.756133,6.016709 -5.772078,8.932384 -1.496486,2.10232 -3.113744,4.11163 -4.584774,6.23215 -1.713603,2.66266 -3.06946,5.5133 -4.192474,8.46669 -0.660897,1.96787 -1.36975,3.91714 -1.606648,5.98731 -0.01791,0.82993 -0.10215,1.77013 0.500288,2.44886 0.203186,0.22892 0.461079,0.41012 0.728556,0.55893 1.777397,0.98888 1.464739,0.82113 3.093916,1.07855 2.845684,0.18102 5.704613,-0.14102 8.526764,-0.49311 2.868941,-0.40719 5.73723,-0.86568 8.537832,-1.61903 2.580814,-0.80118 5.116105,-1.74726 7.612679,-2.78043 1.244811,-0.56652 2.573748,-1.06385 3.684128,-1.88596 0.4347,-0.32184 0.72985,-0.66117 1.10277,-1.04854 1.10157,-1.30604 1.34103,-2.96963 0.3321,-4.44374 -0.39759,-0.5809 -0.91504,-1.06995 -1.37255,-1.60492 -3.764303,-3.73927 -7.963042,-6.99332 -11.766546,-10.69073 -1.942645,-1.827805 -3.40505,-3.897664 -4.779423,-6.159553 0,0 -0.88139,-0.390154 -0.88139,-0.390154 v 0 c 0.48728,0.80528 1.000926,1.686861 1.54591,2.455476 0.955336,1.347359 2.093423,2.549906 3.239878,3.733221 3.802304,3.69713 8.001643,6.94813 11.768951,10.68267 0.45516,0.52446 0.96712,1.00459 1.3655,1.57338 1.00668,1.43732 0.79958,3.04968 -0.2897,4.33329 -0.37502,0.38735 -0.65349,0.70765 -1.08952,1.02923 -1.106125,0.81579 -2.422795,1.31793 -3.662463,1.88019 -2.493793,1.03254 -5.028985,1.97061 -7.607813,2.76849 -2.79741,0.74753 -5.66003,1.21042 -8.52547,1.61133 -2.818532,0.3462 -5.675408,0.67207 -8.516048,0.46654 -0.406109,-0.0707 -0.808004,-0.17267 -1.218325,-0.21222 -0.06879,-0.007 -0.130413,0.10589 -0.192825,0.0762 -1.213229,-0.57704 -1.348891,-1.70889 -1.273305,-2.91548 0.230214,-2.06359 0.937456,-4.00652 1.587487,-5.97008 1.114314,-2.94861 2.456809,-5.79775 4.175215,-8.44927 1.478708,-2.11483 3.106097,-4.11733 4.583072,-6.23374 2.006907,-2.926496 3.96693,-5.888107 5.803668,-8.924823 0,0 -0.857362,-0.493111 -0.857362,-0.493111 z" />
    <text
       xml:space="preserve"
       style="font-size:6.35px;fill:#2b0000;stroke-width:0.264583"
       x="18.451612"
       y="28.741938"
       id="text1461"><tspan
         sodipodi:role="line"
         id="tspan1459"
         style="stroke-width:0.264583"
         x="18.451612"
         y="28.741938">a</tspan></text>
    <text
       xml:space="preserve"
       style="font-size:6.35px;fill:#2b0000;stroke-width:0.264583"
       x="74.870972"
       y="24.838709"
       id="text1515"><tspan
         sodipodi:role="line"
         id="tspan1513"
         style="stroke-width:0.264583"
         x="74.870972"
         y="24.838709">b</tspan></text>
    <text
       xml:space="preserve"
       style="font-size:6.35px;fill:#2b0000;stroke-width:0.264583"
       x="146.19354"
       y="54.290321"
       id="text1519"><tspan
         sodipodi:role="line"
         id="tspan1517"
         style="stroke-width:0.264583"
         x="146.19354"
         y="54.290321">c</tspan></text>
    <text
       xml:space="preserve"
       style="font-size:6.35px;fill:#2b0000;stroke-width:0.264583"
       x="164.64517"
       y="102.54839"
       id="text1523"><tspan
         sodipodi:role="line"
         id="tspan1521"
         style="stroke-width:0.264583"
         x="164.64517"
         y="102.54839">d</tspan></text>
    <text
       xml:space="preserve"
       style="font-size:6.35px;fill:#2b0000;stroke-width:0.264583"
       x="93.322578"
       y="96.161285"
       id="text1527"><tspan
         sodipodi:role="line"
         id="tspan1525"
         style="stroke-width:0.264583"
         x="93.322578"
         y="96.161285">e</tspan></text>
    <text
       xml:space="preserve"
       style="font-size:6.35px;fill:#2b0000;stroke-width:0.264583"
       x="51.451611"
       y="94.032257"
       id="text1531"><tspan
         sodipodi:role="line"
         id="tspan1529"
         style="stroke-width:0.264583"
         x="51.451611"
         y="94.032257">f</tspan></text>
    <text
       xml:space="preserve"
       style="font-size:6.35px;fill:#2b0000;stroke-width:0.264583"
       x="69.19355"
       y="147.6129"
       id="text1535"><tspan
         sodipodi:role="line"
         id="tspan1533"
         style="stroke-width:0.264583"
         x="69.19355"
         y="147.6129">g</tspan></text>
    <text
       xml:space="preserve"
       style="font-size:6.35px;fill:#2b0000;stroke-width:0.264583"
       x="145.12903"
       y="168.19354"
       id="text1539"><tspan
         sodipodi:role="line"
         id="tspan1537"
         style="stroke-width:0.264583"
         x="145.12903"
         y="168.19354">h</tspan></text>
    <text
       xml:space="preserve"
       style="font-size:6.35px;fill:#2b0000;stroke-width:0.264583"
       x="88.709679"
       y="208.29031"
       id="text1543"><tspan
         sodipodi:role="line"
         id="tspan1541"
         style="stroke-width:0.264583"
         x="88.709679"
         y="208.29031">i</tspan></text>
  </g>
</svg>
